<svg width="50" height="54" viewBox="0 0 50 54" fill="none" xmlns="http://www.w3.org/2000/svg">
<path d="M45.0362 35.5351C44.9255 35.5351 44.8148 35.5351 44.7041 35.5909C46.8628 32.0207 48.1358 27.8368 48.1358 23.374C48.1358 10.4876 37.73 0 24.9442 0C12.1583 0 1.80789 10.4876 1.80789 23.374C1.80789 27.8368 3.08094 32.0207 5.23959 35.5909C5.12889 35.5909 5.01819 35.5351 4.90749 35.5351C2.47209 35.5351 0.479492 37.5992 0.479492 40.1653C0.479492 47.8078 6.62334 54 14.2063 54H35.7928C43.3757 54 49.5196 47.8078 49.5196 40.1653C49.4642 37.655 47.4716 35.5351 45.0362 35.5351ZM24.9995 2.84504C36.2356 2.84504 45.4237 12.0496 45.4237 23.4298C45.4237 34.7541 36.2909 44.0145 24.9995 44.0145C13.7635 43.9587 4.57539 34.6983 4.57539 23.374C4.57539 12.0496 13.7635 2.84504 24.9995 2.84504ZM35.7928 51.2107H14.2063C8.17314 51.2107 3.24699 46.2459 3.24699 40.1653C3.24699 39.3285 3.74514 38.6033 4.40934 38.3802C10.055 43.9029 17.3059 46.9153 24.9442 46.9153C32.5825 46.9153 39.8887 43.9029 45.479 38.3802C46.1432 38.6033 46.6414 39.3285 46.6414 40.1653C46.6967 46.2459 41.8259 51.2107 35.7928 51.2107Z" fill="#30112E"/>
<path d="M10.8841 22.8162C10.8841 22.4814 10.6627 22.2583 10.3306 22.2583H6.84354C6.51144 22.2583 6.29004 22.4814 6.29004 22.8162C6.29004 23.1509 6.51144 23.374 6.84354 23.374H10.3306C10.6627 23.374 10.8841 23.0951 10.8841 22.8162Z" fill="#30112E"/>
<path d="M12.3223 22.8162C12.3223 23.1509 12.5437 23.374 12.8758 23.374H16.5289C16.861 23.374 17.0824 23.1509 17.0824 22.8162C17.0824 22.4814 16.861 22.2583 16.5289 22.2583H12.8204C12.5437 22.2583 12.3223 22.4814 12.3223 22.8162Z" fill="#30112E"/>
<path d="M17.9137 20.3058L13.4857 18.7996C13.2089 18.688 12.8768 18.8554 12.7661 19.1343C12.6554 19.4132 12.8215 19.7479 13.0982 19.8595L17.5262 21.3657C17.5816 21.3657 17.6369 21.4215 17.6923 21.4215C17.9137 21.4215 18.1351 21.2541 18.1904 21.031C18.3565 20.7521 18.1904 20.4174 17.9137 20.3058Z" fill="#30112E"/>
<path d="M14.3165 15.7878C14.4272 15.8435 14.5379 15.8993 14.6486 15.8993C14.8146 15.8993 14.9807 15.8435 15.0914 15.6762C15.2574 15.453 15.2021 15.0625 14.9807 14.8952L12.5453 13.1101C12.2685 12.9427 11.9364 12.9985 11.7704 13.2216C11.6043 13.4448 11.6597 13.8353 11.8811 14.0026L14.3165 15.7878Z" fill="#30112E"/>
<path d="M19.1858 19.2459C19.2965 19.3017 19.4072 19.3575 19.5179 19.3575C19.6839 19.3575 19.85 19.3017 19.9607 19.1344C20.1267 18.8554 20.0714 18.5207 19.85 18.3534L16.7504 16.122C16.4736 15.9546 16.1415 16.0104 15.9755 16.2335C15.8094 16.5125 15.8648 16.8472 16.0862 17.0145L19.1858 19.2459Z" fill="#30112E"/>
<path d="M19.9053 15.1172C20.016 15.2846 20.182 15.3962 20.4034 15.3962C20.5141 15.3962 20.5695 15.3962 20.6802 15.3404C20.9569 15.173 21.0123 14.8383 20.9016 14.5594L19.5732 12.2164C19.4071 11.9375 19.075 11.8817 18.7983 11.9933C18.5215 12.1606 18.4662 12.4953 18.5769 12.7743L19.9053 15.1172Z" fill="#30112E"/>
<path d="M20.9032 16.7917L21.7888 18.019C21.8995 18.1864 22.0655 18.2421 22.2316 18.2421C22.3423 18.2421 22.453 18.1864 22.5637 18.1306C22.8404 17.9632 22.8958 17.6285 22.6744 17.3496L21.7888 16.1223C21.6227 15.8434 21.2906 15.7876 21.0139 16.0107C20.7925 16.1781 20.7371 16.5686 20.9032 16.7917Z" fill="#30112E"/>
<path d="M39.6121 23.374H43.0991C43.4312 23.374 43.6526 23.1509 43.6526 22.8162C43.6526 22.4814 43.4312 22.2583 43.0991 22.2583H39.6121C39.28 22.2583 39.0586 22.4814 39.0586 22.8162C39.0586 23.0951 39.3353 23.374 39.6121 23.374Z" fill="#30112E"/>
<path d="M37.6723 22.8162C37.6723 22.4814 37.4509 22.2583 37.1188 22.2583H33.1336C32.8015 22.2583 32.5801 22.4814 32.5801 22.8162C32.5801 23.1509 32.8015 23.374 33.1336 23.374H37.1188C37.4509 23.374 37.6723 23.0951 37.6723 22.8162Z" fill="#30112E"/>
<path d="M36.5677 18.7995L31.6969 20.1941C31.4201 20.3057 31.2541 20.5846 31.3094 20.8636C31.3648 21.0867 31.5862 21.2541 31.8629 21.2541C31.9183 21.2541 31.9736 21.2541 32.029 21.2541L36.8998 19.8594C37.1765 19.7479 37.3426 19.4689 37.2872 19.19C37.1765 18.9111 36.8444 18.7437 36.5677 18.7995Z" fill="#30112E"/>
<path d="M35.2383 15.8989C35.349 15.8989 35.4597 15.8431 35.5704 15.7874L38.0058 14.0022C38.2272 13.8349 38.3379 13.5002 38.1165 13.2212C37.9504 12.9981 37.6183 12.8865 37.3416 13.1097L34.9062 14.8948C34.6848 15.0621 34.5741 15.3969 34.7955 15.6758C34.9062 15.7874 35.0722 15.8989 35.2383 15.8989Z" fill="#30112E"/>
<path d="M29.537 19.4691C29.6477 19.6364 29.8137 19.6922 29.9798 19.6922C30.0905 19.6922 30.2012 19.6364 30.3119 19.5806L33.7436 17.0145C33.965 16.8472 34.0203 16.4567 33.8543 16.2335C33.6882 16.0104 33.3008 15.9546 33.0794 16.122L29.6477 18.6881C29.4263 18.8554 29.3709 19.2459 29.537 19.4691Z" fill="#30112E"/>
<path d="M29.316 15.2849C29.4267 15.3407 29.4821 15.3407 29.5928 15.3407C29.7588 15.3407 29.9802 15.2291 30.0909 15.0618L31.4193 12.7188C31.5854 12.4399 31.4747 12.1052 31.1979 11.9378C30.9212 11.7705 30.5891 11.882 30.423 12.161L29.0946 14.5039C28.9286 14.7829 29.0393 15.1176 29.316 15.2849Z" fill="#30112E"/>
<path d="M27.7673 18.2961C27.9334 18.2961 28.0994 18.1846 28.2101 18.073L29.0957 16.7899C29.2618 16.511 29.2064 16.1763 28.9297 16.0089C28.6529 15.8416 28.3208 15.8974 28.1548 16.1763L27.2692 17.4593C27.1031 17.7383 27.1585 18.073 27.4352 18.2403C27.5459 18.2961 27.6566 18.2961 27.7673 18.2961Z" fill="#30112E"/>
<path d="M24.9998 8.64679C25.3319 8.64679 25.5533 8.42364 25.5533 8.08893V5.5786C25.5533 5.24389 25.3319 5.02075 24.9998 5.02075C24.6677 5.02075 24.4463 5.24389 24.4463 5.5786V8.08893C24.4463 8.42364 24.6677 8.64679 24.9998 8.64679Z" fill="#30112E"/>
<path d="M24.9998 17.9626C25.3319 17.9626 25.5533 17.6836 25.5533 17.4047V9.87371C25.5533 9.539 25.2765 9.31586 24.9998 9.31586C24.6677 9.31586 24.4463 9.59478 24.4463 9.87371V17.4047C24.4463 17.7394 24.723 17.9626 24.9998 17.9626Z" fill="#30112E"/>
<path d="M13.264 27.9496C13.3193 27.9496 13.3747 27.9496 13.43 27.8938L17.858 26.3876C18.1348 26.276 18.3008 25.9971 18.1901 25.6624C18.0794 25.3835 17.8027 25.2161 17.4706 25.3277L13.0426 26.8339C12.7658 26.9454 12.5998 27.2244 12.7105 27.5591C12.8212 27.838 13.0426 27.9496 13.264 27.9496Z" fill="#30112E"/>
<path d="M12.2119 33.7495C12.3226 33.7495 12.4333 33.6937 12.544 33.6379L14.9794 31.8528C15.2008 31.6855 15.3115 31.3508 15.0901 31.0718C14.9241 30.8487 14.592 30.7371 14.3152 30.9603L11.8798 32.7454C11.6584 32.9127 11.5477 33.2474 11.7691 33.5264C11.8245 33.6937 12.0459 33.7495 12.2119 33.7495Z" fill="#30112E"/>
<path d="M19.9597 27.6135C19.7937 27.3345 19.4616 27.2787 19.1848 27.5019L16.0852 29.7333C15.8085 29.9006 15.7531 30.2354 15.9745 30.5143C16.0852 30.6816 16.2513 30.7374 16.4173 30.7374C16.528 30.7374 16.6387 30.6816 16.7494 30.6259L19.849 28.3944C20.0704 28.2271 20.1258 27.8924 19.9597 27.6135Z" fill="#30112E"/>
<path d="M20.6813 31.4622C20.4046 31.2948 20.0725 31.4064 19.9064 31.6853L18.578 33.9725C18.412 34.2514 18.5227 34.5861 18.7994 34.7535C18.9101 34.8093 18.9655 34.8093 19.0762 34.8093C19.2422 34.8093 19.4636 34.6977 19.5743 34.5304L20.9027 32.1874C21.0134 31.9642 20.9581 31.6295 20.6813 31.4622Z" fill="#30112E"/>
<path d="M21.7888 28.7291L20.9032 29.9564C20.7371 30.2353 20.7925 30.57 21.0139 30.7374C21.1246 30.7932 21.2353 30.849 21.346 30.849C21.512 30.849 21.6781 30.7932 21.7888 30.6258L22.6744 29.3985C22.8404 29.1196 22.7851 28.7849 22.5637 28.6175C22.2869 28.3944 21.9548 28.4502 21.7888 28.7291Z" fill="#30112E"/>
<path d="M36.8424 26.8881L31.9716 25.4935C31.6949 25.3819 31.3628 25.605 31.3074 25.8839C31.1967 26.1629 31.4181 26.4976 31.6949 26.5534L36.5657 27.948C36.621 27.948 36.6764 27.948 36.7317 27.948C36.9531 27.948 37.1745 27.7806 37.2852 27.5575C37.3406 27.2786 37.1192 26.9439 36.8424 26.8881Z" fill="#30112E"/>
<path d="M35.5707 30.9612C35.2939 30.7938 34.9618 30.8496 34.7958 31.0728C34.6297 31.2959 34.6851 31.6864 34.9065 31.8538L37.3419 33.6389C37.4526 33.6947 37.5633 33.7505 37.674 33.7505C37.84 33.7505 38.0061 33.6947 38.1168 33.5273C38.2828 33.3042 38.2275 32.9137 38.0061 32.7463L35.5707 30.9612Z" fill="#30112E"/>
<path d="M30.3119 27.1676C30.0905 27.0003 29.703 27.0561 29.537 27.2792C29.3709 27.5023 29.4263 27.8928 29.6477 28.0602L33.1347 30.6263C33.2454 30.6821 33.3561 30.7379 33.4668 30.7379C33.6329 30.7379 33.7989 30.6821 33.9096 30.5147C34.0757 30.2916 34.0203 29.9011 33.7989 29.7337L30.3119 27.1676Z" fill="#30112E"/>
<path d="M30.0351 31.6869C29.8691 31.408 29.537 31.3522 29.2602 31.4638C28.9835 31.6311 28.9281 31.9659 29.0388 32.2448L30.3672 34.5878C30.4779 34.7551 30.644 34.8667 30.8654 34.8667C30.9761 34.8667 31.0314 34.8667 31.1421 34.8109C31.4189 34.6435 31.4742 34.3088 31.3635 34.0299L30.0351 31.6869Z" fill="#30112E"/>
<path d="M29.0957 29.9574L28.2101 28.6743C28.0441 28.3954 27.712 28.3396 27.4352 28.507C27.1585 28.6743 27.1031 29.009 27.2692 29.288L28.1548 30.571C28.2655 30.7384 28.4315 30.7942 28.5976 30.7942C28.7083 30.7942 28.819 30.7384 28.9297 30.6826C29.2064 30.571 29.2618 30.2363 29.0957 29.9574Z" fill="#30112E"/>
<path d="M24.9998 38.1011C24.6677 38.1011 24.4463 38.3243 24.4463 38.659V41.1693C24.4463 41.504 24.6677 41.7272 24.9998 41.7272C25.3319 41.7272 25.5533 41.504 25.5533 41.1693V38.659C25.5533 38.3243 25.2765 38.1011 24.9998 38.1011Z" fill="#30112E"/>
<path d="M24.9998 28.7853C24.6677 28.7853 24.4463 29.0084 24.4463 29.3431V36.8741C24.4463 37.2088 24.6677 37.432 24.9998 37.432C25.3319 37.432 25.5533 37.2088 25.5533 36.8741V29.3431C25.5533 29.0642 25.3319 28.7853 24.9998 28.7853Z" fill="#30112E"/>
<path d="M24.9977 18.6877C21.2892 18.6877 18.3557 22.6485 18.245 22.8158C18.0789 23.039 18.1343 23.4295 18.3557 23.5968C18.4664 23.6526 18.5771 23.7084 18.6878 23.7084C18.8538 23.7084 19.0199 23.6526 19.1306 23.4853C19.1306 23.4295 21.8427 19.8034 24.9977 19.8034C28.1526 19.8034 30.8094 23.4295 30.8648 23.4853C31.0308 23.7084 31.3629 23.7642 31.6397 23.5968C31.8611 23.4295 31.9164 23.0948 31.7504 22.8158C31.6397 22.6485 28.7061 18.6877 24.9977 18.6877Z" fill="#30112E"/>
<path d="M24.9993 20.7515C22.2318 20.7515 20.0731 23.7081 19.9624 23.8197C19.7964 24.0428 19.7964 24.266 19.9624 24.4891C20.0731 24.6007 22.2318 27.5573 24.9993 27.5573C27.7668 27.5573 29.9254 24.6007 30.0361 24.4891C30.2022 24.266 30.2022 24.0428 30.0361 23.8197C29.9254 23.7081 27.7668 20.7515 24.9993 20.7515ZM24.9993 26.4416C23.2834 26.4416 21.7336 24.8796 21.1248 24.1544C21.5122 23.7081 22.2318 22.9271 23.1727 22.4251C23.1174 22.5924 23.1174 22.7598 23.1174 22.9271C23.1174 23.9871 23.9476 24.8796 25.0546 24.8796C26.1063 24.8796 26.9919 24.0428 26.9919 22.9271C26.9919 22.7598 26.9365 22.5924 26.9365 22.4251C27.8775 22.9271 28.597 23.7081 28.9845 24.1544C28.2649 24.8238 26.7151 26.4416 24.9993 26.4416Z" fill="#30112E"/>
</svg>
