<svg width="55" height="54" viewBox="0 0 55 54" fill="none" xmlns="http://www.w3.org/2000/svg">
<g clip-path="url(#clip0_88_1470)">
<path d="M27.5 0C12.6148 0 0.5 12.1148 0.5 27C0.5 41.8852 12.6148 54 27.5 54C42.3852 54 54.5 41.8852 54.5 27C54.5 12.1148 42.3852 0 27.5 0ZM39.7087 48.4122L39.5678 47.4261L40.507 47.0504L39.5678 46.6748L39.7087 45.6887L38.9104 46.3461L38.1122 45.6887L38.253 46.6748L37.3139 47.0504L38.253 47.4261L38.1122 48.4122L38.9104 47.7548L39.7087 48.4122C36.093 50.4783 31.9609 51.6522 27.5 51.6522L27.8287 50.76L28.8148 50.9009L28.1574 50.1026L28.8148 49.3043L27.8287 49.4452L27.453 48.5061L27.0774 49.4452L26.0913 49.3043L26.7487 50.1026L26.0913 50.9009L27.0774 50.76L27.4061 51.6522C22.9922 51.6522 18.813 50.4783 15.2443 48.4122L15.9957 47.8017L16.7939 48.4591L16.653 47.473L17.5922 47.0974L16.653 46.7217L16.7939 45.7357L15.9957 46.393L15.1974 45.7357L15.3383 46.7217L14.3991 47.0974L15.3383 47.473L15.1974 48.4591C7.87217 44.1391 2.84783 36.1565 2.84783 27C2.84783 13.4296 13.9296 2.34783 27.5 2.34783C41.0704 2.34783 52.1522 13.4296 52.1522 27C52.1522 36.1565 47.1278 44.1391 39.7087 48.4122Z" fill="#30112E"/>
<path d="M27.4999 6.24524C16.0425 6.24524 6.74512 15.5426 6.74512 27C6.74512 38.4574 16.0425 47.7548 27.4999 47.7548C38.9573 47.7548 48.2547 38.4574 48.2547 27C48.2547 15.5426 38.9573 6.24524 27.4999 6.24524ZM44.639 36.0157C43.7938 34.607 41.5399 31.4139 37.9242 29.3478C36.046 28.2678 34.0738 27.6574 32.3834 27.2818C34.0738 26.9531 36.046 26.3426 37.9242 25.2157C41.7747 23.0087 44.0286 19.5339 44.7799 18.2661C46.0947 20.8957 46.846 23.8539 46.846 26.9531C46.846 30.24 46.0477 33.2922 44.639 36.0157ZM27.4999 45.36C26.7016 43.8105 25.4808 40.8052 25.4808 37.3305C25.4808 33.9026 26.7486 30.8505 27.5469 29.3009C28.3451 30.8505 29.566 33.8557 29.566 37.3305C29.519 40.8052 28.2512 43.8105 27.4999 45.36ZM29.519 17.1861C29.519 20.6139 28.2512 23.6661 27.4999 25.2157C26.7016 23.6661 25.4808 20.6609 25.4808 17.1861C25.4808 13.7583 26.7486 10.7061 27.5469 9.15654C28.2512 10.7061 29.519 13.7583 29.519 17.1861ZM43.1364 36.2974C41.399 36.2035 38.159 35.7809 35.1538 34.0435C32.1486 32.3061 30.1764 29.7235 29.2373 28.2678C30.9747 28.3618 34.2147 28.7844 37.2199 30.5218C40.2251 32.2592 42.1973 34.8887 43.1364 36.2974ZM29.2373 26.2487C30.1764 24.7931 32.1956 22.2105 35.1538 20.4731C38.159 18.7357 41.399 18.3131 43.1364 18.2192C42.1973 19.6748 40.1782 22.2574 37.2199 23.9948C34.2147 25.7322 30.9747 26.1548 29.2373 26.2487ZM43.9347 16.7635C42.479 16.7635 38.3469 16.9983 34.4964 19.2052C32.6182 20.2852 31.0686 21.6939 29.9416 23.0087C30.5051 21.3652 30.9277 19.3931 30.9277 17.1861C30.9277 12.5844 28.9086 8.78089 28.2512 7.65393C34.8721 7.93567 40.6477 11.5044 43.9347 16.7635ZM26.7016 7.65393C26.0442 8.78089 24.0251 12.5844 24.0251 17.1861C24.0251 19.3931 24.4947 21.4122 25.0112 23.0087C23.8842 21.7409 22.3816 20.3322 20.4564 19.2052C16.6529 16.9983 12.5208 16.7635 11.0651 16.7635C14.3521 11.5044 20.1277 7.93567 26.7016 7.65393ZM25.7156 26.2487C23.9782 26.1548 20.7382 25.7322 17.7329 23.9948C14.7277 22.2574 12.7556 19.6748 11.8164 18.2192C13.5538 18.3131 16.7938 18.7357 19.799 20.4731C22.7573 22.2105 24.7764 24.7931 25.7156 26.2487ZM10.2199 18.3131C10.9712 19.5809 13.2251 23.0087 17.0286 25.2157C18.9069 26.2957 20.879 26.9061 22.5695 27.2818C20.879 27.6105 18.9069 28.2209 17.0286 29.3478C13.4599 31.367 11.2529 34.5131 10.3608 35.9687C8.95207 33.2922 8.15381 30.24 8.15381 27C8.15381 23.9009 8.90512 20.9426 10.2199 18.3131ZM25.7156 28.2678C24.7764 29.7235 22.7573 32.3061 19.799 34.0435C16.7938 35.7809 13.5538 36.2035 11.8164 36.2974C12.7556 34.8418 14.7747 32.2592 17.7329 30.5218C20.7382 28.7844 23.9782 28.3618 25.7156 28.2678ZM11.4408 37.7531C13.1312 37.7061 16.9347 37.3774 20.5034 35.3113C22.3816 34.2313 23.9312 32.8226 25.0582 31.5078C24.4947 33.1513 24.0721 35.1235 24.0721 37.3305C24.0721 41.3687 25.6216 44.7496 26.4199 46.2992C20.1747 45.9705 14.6808 42.6365 11.4408 37.7531ZM28.5799 46.2992C29.4251 44.7496 30.9277 41.3218 30.9277 37.3305C30.9277 35.1235 30.4582 33.1044 29.9416 31.5078C31.0686 32.7757 32.5712 34.1844 34.4964 35.3113C38.0651 37.3774 41.9156 37.7061 43.606 37.7531C40.2721 42.6365 34.8251 45.9705 28.5799 46.2992Z" fill="#30112E"/>
<path d="M37.9711 37.8V37.753C37.9711 37.753 37.9711 37.753 37.9711 37.7061C37.9711 37.7061 37.971 37.6591 37.9241 37.6591L37.8771 37.6122C37.7832 37.5652 35.5293 36.7669 33.7919 37.8C32.0545 38.7861 31.6319 41.1809 31.585 41.2748V41.3217C31.585 41.3217 31.585 41.3217 31.585 41.3687C31.585 41.3687 31.585 41.4156 31.6319 41.4156C31.6319 41.4156 31.6319 41.4156 31.6319 41.4626L31.6789 41.5095C31.6789 41.5095 31.6789 41.5095 31.7258 41.5095C31.8197 41.5565 33.0406 42.12 34.3554 42.12C34.9189 42.12 35.5293 42.0261 36.0458 41.6974C37.7363 40.6643 37.9711 37.9409 37.9711 37.8C37.9711 37.8469 37.9711 37.8469 37.9711 37.8ZM33.9328 38.1756C35.1537 37.4713 36.7502 37.8 37.3606 37.9878C37.2197 38.2695 36.891 38.7861 36.4215 39.3496C36.1867 39.0209 35.858 38.7391 35.4824 38.6452C35.0597 38.5513 34.6371 38.5982 34.2615 38.7861C33.8858 39.0209 33.6041 39.3495 33.5102 39.7722C33.4163 40.1478 33.4632 40.5704 33.651 40.9461C32.9467 41.0869 32.3832 41.0869 32.0545 41.0869C32.1954 40.4295 32.7119 38.88 33.9328 38.1756ZM34.1206 40.8052V40.7582C33.9797 40.4765 33.9328 40.1948 34.0267 39.8661C34.1206 39.5843 34.3084 39.3026 34.5902 39.1617C34.8719 39.0209 35.1537 38.9739 35.4824 39.0678C35.7641 39.1617 36.0458 39.3495 36.1867 39.6313L36.2337 39.6782C35.9519 39.96 35.6702 40.1948 35.2945 40.3826C34.8719 40.5704 34.4963 40.7113 34.1206 40.8052ZM35.7641 41.2748C34.9658 41.7443 33.9797 41.6504 33.1815 41.4626C33.8389 41.3687 34.6841 41.1809 35.4824 40.7582C36.2806 40.2887 36.8441 39.6782 37.2667 39.1148C36.985 39.913 36.5154 40.8052 35.7641 41.2748Z" fill="#30112E"/>
<path d="M23.4613 41.2279C23.4613 41.1339 22.9917 38.7392 21.2543 37.7531C19.5169 36.767 17.263 37.5652 17.1691 37.5652C17.1691 37.5652 17.1222 37.5652 17.1222 37.6122C17.1222 37.6122 17.1222 37.6592 17.0752 37.6592C17.0752 37.6592 17.0752 37.6592 17.0752 37.7061V37.7531C17.0752 37.7531 17.0752 37.7531 17.0752 37.8C17.0752 37.8939 17.31 40.6644 19.0474 41.6505C19.5639 41.9322 20.1743 42.0731 20.7378 42.0731C22.0526 42.0731 23.3204 41.5096 23.3674 41.4626C23.3674 41.4626 23.3674 41.4626 23.4143 41.4626C23.4143 41.4626 23.4613 41.4626 23.4613 41.4157C23.4613 41.4157 23.4613 41.4157 23.4613 41.3687C23.4613 41.3687 23.4613 41.3218 23.5082 41.3218C23.5082 41.3218 23.5082 41.3218 23.5082 41.2748C23.4613 41.3218 23.4613 41.2748 23.4613 41.2279ZM21.0665 38.1757C22.2874 38.88 22.8039 40.4296 22.9917 41.04C22.663 41.04 22.0526 41.04 21.3952 40.8992C21.583 40.5235 21.63 40.1009 21.5361 39.7252C21.4422 39.3026 21.1604 38.9739 20.7848 38.7392C20.4091 38.5044 19.9865 38.4574 19.5639 38.5983C19.1882 38.6922 18.8126 38.9739 18.6248 39.3026C18.1552 38.7861 17.8735 38.2696 17.6856 37.9409C18.2022 37.8 19.7987 37.4713 21.0665 38.1757ZM20.8787 40.7583V40.8052C20.503 40.7113 20.1274 40.5705 19.7987 40.3357C19.423 40.1479 19.1413 39.8661 18.8595 39.6313L18.9065 39.5844C19.0474 39.3026 19.3291 39.1148 19.6108 39.0209C19.8926 38.927 20.2213 38.9739 20.503 39.1148C20.7848 39.2557 20.9726 39.5374 21.0665 39.8192C21.1135 40.1948 21.0665 40.4766 20.8787 40.7583ZM19.2352 41.2748C18.4369 40.8052 18.0143 39.9131 17.7795 39.1148C18.2022 39.6783 18.7656 40.2887 19.5639 40.7583C20.3622 41.2279 21.1604 41.4157 21.8648 41.4626C21.0665 41.6505 20.0335 41.7444 19.2352 41.2748Z" fill="#30112E"/>
<path d="M12.8967 30.6626C12.9436 30.7096 12.9906 30.7096 13.0375 30.7096C13.0845 30.7096 13.1314 30.7096 13.1784 30.6626C13.2723 30.6156 15.0567 29.0191 15.0567 27.0469C15.0567 25.0748 13.2253 23.4783 13.1784 23.4313C13.1314 23.3843 13.0845 23.3843 13.0845 23.3843C13.0845 23.3843 13.0845 23.3843 13.0375 23.3843C12.9906 23.3843 12.9436 23.3843 12.8967 23.4313C12.8027 23.4783 10.5488 25.0748 10.5488 27.0939C10.5488 29.0191 12.8027 30.5687 12.8967 30.6626ZM12.2862 25.8261C12.9436 25.8261 13.4601 26.3426 13.4601 27C13.4601 27.6574 12.9436 28.1739 12.2862 28.1739H12.2393C12.1453 27.7983 12.0984 27.4226 12.0984 27C12.0984 26.5774 12.1453 26.2017 12.2393 25.8261H12.2862ZM14.5871 27C14.5871 28.4087 13.5071 29.6296 13.0375 30.0991C12.8497 29.8174 12.568 29.3009 12.3332 28.6435C13.1784 28.5965 13.8827 27.8922 13.8827 27C13.8827 26.1078 13.1784 25.4035 12.3332 25.3565C12.568 24.6991 12.8497 24.1826 13.0375 23.9009C13.5071 24.3704 14.5871 25.5913 14.5871 27ZM12.1453 24.6522C11.8636 25.2626 11.6288 26.1078 11.6288 27C11.6288 27.8922 11.8636 28.7374 12.1453 29.3478C11.5819 28.7374 11.0184 27.8922 11.0184 27C11.0184 26.1078 11.5819 25.2626 12.1453 24.6522Z" fill="#30112E"/>
<path d="M17.0283 16.2V16.2469C17.0283 16.2469 17.0283 16.2469 17.0283 16.2939C17.0283 16.2939 17.0283 16.3408 17.0753 16.3408L17.1222 16.3878C17.1692 16.3878 18.0614 16.7165 19.1414 16.7165C19.7988 16.7165 20.5501 16.5756 21.2074 16.2C22.9448 15.2139 23.3675 12.8191 23.4144 12.7252V12.6782C23.4144 12.6782 23.4144 12.6782 23.4144 12.6313C23.4144 12.6313 23.4144 12.5843 23.3675 12.5843C23.3675 12.5843 23.3675 12.5843 23.3675 12.5374L23.3205 12.4904C23.3205 12.4904 23.3205 12.4904 23.2735 12.4904C23.1796 12.4435 20.6909 11.2695 18.9535 12.3026C17.2631 13.3356 17.0283 16.0591 17.0283 16.2C17.0283 16.153 17.0283 16.153 17.0283 16.2ZM21.0666 15.8243C19.8457 16.5287 18.2492 16.2 17.6388 16.0122C17.7796 15.7304 18.1083 15.2139 18.5779 14.6504C18.8127 14.9791 19.1414 15.2608 19.517 15.3548C19.6579 15.4017 19.7988 15.4017 19.9396 15.4017C20.2214 15.4017 20.5031 15.3078 20.7379 15.1669C21.4892 14.7443 21.7709 13.7582 21.3483 13.0069C22.0527 12.8661 22.6161 12.8661 22.9448 12.8661C22.804 13.5704 22.2875 15.12 21.0666 15.8243ZM20.8788 13.1948V13.2417C21.0196 13.5235 21.0666 13.8052 20.9727 14.1339C20.8788 14.4156 20.6909 14.6974 20.4092 14.8382C20.1275 14.9791 19.8457 15.0261 19.517 14.9322C19.2353 14.8382 18.9535 14.6504 18.8127 14.3687L18.7657 14.3217C19.0475 14.04 19.3292 13.8052 19.7048 13.6174C20.1275 13.4295 20.5031 13.2887 20.8788 13.1948ZM19.2353 12.7252C20.0335 12.2556 21.0196 12.3495 21.8179 12.5374C21.1605 12.6313 20.3153 12.8191 19.517 13.2417C18.7188 13.7113 18.1553 14.3217 17.7327 14.8852C18.0144 14.0869 18.484 13.1948 19.2353 12.7252Z" fill="#30112E"/>
<path d="M31.5382 12.7721C31.5382 12.8661 32.0077 15.2608 33.7451 16.2469C34.4025 16.6226 35.1538 16.7635 35.8112 16.7635C36.8912 16.7635 37.7834 16.4348 37.8303 16.4348C37.8303 16.4348 37.8773 16.4348 37.8773 16.3878C37.8773 16.3878 37.8773 16.3408 37.9243 16.3408C37.9243 16.3408 37.9243 16.3408 37.9243 16.2939V16.2469C37.9243 16.2469 37.9243 16.2469 37.9243 16.2C37.9243 16.1061 37.6895 13.3356 35.9521 12.3495C34.2147 11.3635 31.726 12.4904 31.6321 12.5374C31.6321 12.5374 31.6321 12.5374 31.5851 12.5374C31.5851 12.5374 31.5382 12.5374 31.5382 12.5843C31.5382 12.5843 31.5382 12.5843 31.5382 12.6313C31.5382 12.6313 31.5382 12.6782 31.4912 12.6782C31.4912 12.6782 31.4912 12.6782 31.4912 12.7252C31.5382 12.7252 31.5382 12.7252 31.5382 12.7721ZM33.9329 15.8243C32.7121 15.12 32.1956 13.5704 32.0077 12.96C32.3364 12.96 32.9469 12.96 33.6043 13.1008C33.1816 13.8521 33.4634 14.8382 34.2147 15.2608C34.4495 15.4017 34.7312 15.4956 35.0129 15.4956C35.5764 15.4956 36.093 15.2139 36.3747 14.7443C36.8443 15.2608 37.126 15.7774 37.3138 16.0591C36.7973 16.2 35.1538 16.5287 33.9329 15.8243ZM34.1208 13.2417V13.1948C34.4964 13.2887 34.8721 13.4295 35.2008 13.6643C35.5764 13.8521 35.8582 14.1339 36.1399 14.3687L36.093 14.4156C35.9521 14.6974 35.6703 14.8852 35.3886 14.9791C35.1069 15.073 34.7782 15.0261 34.4964 14.8852C34.2147 14.7443 34.0269 14.4626 33.9329 14.1808C33.886 13.8052 33.9329 13.5235 34.1208 13.2417ZM35.7643 12.7252C36.5625 13.1948 36.9851 14.0869 37.2199 14.8852C36.7973 14.3217 36.2338 13.7113 35.4356 13.2417C34.6373 12.7721 33.839 12.5843 33.1347 12.5374C33.933 12.3495 34.966 12.2556 35.7643 12.7252Z" fill="#30112E"/>
<path d="M42.1034 23.3374C42.0564 23.2904 42.0094 23.2904 41.9625 23.2904C41.9625 23.2904 41.9625 23.2904 41.9155 23.2904C41.8686 23.2904 41.8216 23.2904 41.8216 23.3374C41.7277 23.3843 39.9434 24.9808 39.9434 26.953C39.9434 28.9252 41.7747 30.5217 41.8216 30.5687C41.8686 30.6156 41.9155 30.6156 41.9625 30.6156C42.0094 30.6156 42.0564 30.6156 42.1034 30.5687C42.1973 30.5217 44.4512 28.9252 44.4512 26.9061C44.4512 24.9808 42.1973 23.4313 42.1034 23.3374ZM42.7138 28.1739C42.0564 28.1739 41.5399 27.6574 41.5399 27C41.5399 26.3426 42.0564 25.8261 42.7138 25.8261H42.7608C42.8547 26.2017 42.9016 26.5774 42.9016 27C42.9016 27.4226 42.8547 27.7982 42.7608 28.1739H42.7138ZM40.4129 27C40.4129 25.5913 41.4929 24.3704 41.9625 23.9008C42.1503 24.1826 42.4321 24.6991 42.6668 25.3565C41.8216 25.4034 41.1173 26.1078 41.1173 27C41.1173 27.8921 41.8216 28.5965 42.6668 28.6434C42.4321 29.3008 42.1503 29.8174 41.9625 30.0991C41.4929 29.6295 40.4129 28.4087 40.4129 27ZM42.8547 29.3478C43.1364 28.7374 43.3712 27.8921 43.3712 27C43.3712 26.1078 43.1364 25.2626 42.8547 24.6521C43.4181 25.2626 43.9816 26.1078 43.9816 27C43.9816 27.8921 43.4181 28.7374 42.8547 29.3478Z" fill="#30112E"/>
<path d="M8.05966 38.0817L7.73096 37.0956L7.35531 38.0817L6.32227 37.8939L6.97966 38.6922L6.32227 39.4904L7.35531 39.3026L7.73096 40.2887L8.05966 39.3026L9.0927 39.4904L8.43531 38.6922L9.0927 37.8939L8.05966 38.0817Z" fill="#30112E"/>
<path d="M5.28996 26.9061L5.43083 25.92L4.63257 26.5304L3.88127 25.92L4.02214 26.9061L3.08301 27.2817L4.02214 27.6104L3.88127 28.6435L4.63257 27.9861L5.43083 28.6435L5.28996 27.6104L6.22909 27.2817L5.28996 26.9061Z" fill="#30112E"/>
<path d="M7.35523 16.4817L7.73088 17.4209L8.05958 16.4817L9.09262 16.6226L8.43523 15.8243L9.09262 15.073L8.05958 15.2139L7.73088 14.2748L7.35523 15.2139L6.36914 15.073L6.97958 15.8243L6.36914 16.6226L7.35523 16.4817Z" fill="#30112E"/>
<path d="M15.4323 7.84176L15.2914 8.82785L16.0897 8.21741L16.841 8.82785L16.7001 7.84176L17.6393 7.46611L16.7001 7.13741L16.841 6.10437L16.0897 6.76176L15.2914 6.10437L15.4323 7.13741L14.4932 7.46611L15.4323 7.84176Z" fill="#30112E"/>
<path d="M26.1387 5.21217L27.1248 5.02434L27.5004 6.01043L27.8761 5.02434L28.8622 5.21217L28.2048 4.4139L28.8622 3.61564L27.8761 3.80347L27.5004 2.81738L27.1248 3.80347L26.1387 3.61564L26.7961 4.4139L26.1387 5.21217Z" fill="#30112E"/>
<path d="M38.3005 7.84176L38.1596 8.82785L38.9109 8.21741L39.7092 8.82785L39.5683 7.84176L40.5074 7.46611L39.5683 7.13741L39.7092 6.10437L38.9109 6.76176L38.1596 6.10437L38.3005 7.13741L37.3613 7.46611L38.3005 7.84176Z" fill="#30112E"/>
<path d="M47.6446 15.2139L47.269 14.2748L46.9403 15.2139L45.9072 15.073L46.5646 15.8243L45.9072 16.6226L46.9403 16.4817L47.269 17.4209L47.6446 16.4817L48.6777 16.6226L48.0203 15.8243L48.6777 15.073L47.6446 15.2139Z" fill="#30112E"/>
<path d="M51.9176 27.2817L50.9784 26.9061L51.1193 25.92L50.368 26.5304L49.5697 25.92L49.7106 26.9061L48.7715 27.2817L49.7106 27.6104L49.5697 28.6435L50.368 27.9861L51.1193 28.6435L50.9784 27.6104L51.9176 27.2817Z" fill="#30112E"/>
<path d="M48.6777 37.8939L47.6446 38.0817L47.269 37.0956L46.9403 38.0817L45.9072 37.8939L46.5646 38.6922L45.9072 39.4904L46.9403 39.3026L47.269 40.2887L47.6446 39.3026L48.6777 39.4904L48.0203 38.6922L48.6777 37.8939Z" fill="#30112E"/>
</g>
<defs>
<clipPath id="clip0_88_1470">
<rect width="54" height="54" fill="white" transform="translate(0.5)"/>
</clipPath>
</defs>
</svg>
