<svg width="55" height="55" viewBox="0 0 55 55" fill="none" xmlns="http://www.w3.org/2000/svg">
<path d="M23.981 25.7728C23.3526 26.439 22.48 26.8247 21.5375 26.8247C20.63 26.8247 19.7922 26.474 19.1639 25.8429C19.0941 25.7728 18.9894 25.7728 18.9195 25.8429C18.8497 25.913 18.8497 26.0182 18.9195 26.0883C19.6177 26.7896 20.5601 27.1753 21.5724 27.1753C22.5847 27.1753 23.5621 26.7546 24.2602 26.0182C24.33 25.9481 24.33 25.8429 24.2602 25.7728C24.1904 25.7026 24.0508 25.7026 23.981 25.7728Z" fill="#30112E"/>
<path d="M34.9761 25.7728C34.3478 26.439 33.4751 26.8247 32.5326 26.8247C31.6251 26.8247 30.7873 26.474 30.159 25.8429C30.0892 25.7728 29.9845 25.7728 29.9147 25.8429C29.8449 25.913 29.8449 26.0182 29.9147 26.0883C30.6128 26.7896 31.5553 27.1753 32.5675 27.1753C33.5798 27.1753 34.5572 26.7546 35.2553 26.0182C35.3251 25.9481 35.3251 25.8429 35.2553 25.7728C35.1506 25.7026 35.0459 25.7026 34.9761 25.7728Z" fill="#30112E"/>
<path d="M21.572 28.6832L21.0484 29.665L20.0361 30.226L21.0484 30.752L21.572 31.7689L22.1305 30.752L23.1079 30.226L22.1305 29.665L21.572 28.6832Z" fill="#30112E"/>
<path d="M32.4636 28.6832L31.94 29.665L30.9277 30.226L31.94 30.752L32.4636 31.7689L33.0221 30.752L33.9995 30.226L33.0221 29.665L32.4636 28.6832Z" fill="#30112E"/>
<path d="M27.5418 21.6351C28.0305 21.6351 28.4843 21.4597 28.8333 21.1442C28.9031 21.074 28.9031 21.0039 28.8682 20.9338C28.8333 20.8636 28.7635 20.8286 28.6588 20.8286C27.9258 21.039 27.2276 20.4429 27.2276 19.6714C27.2276 18.9351 27.9258 18.339 28.6937 18.4792C28.7635 18.4792 28.8333 18.4442 28.9031 18.374C28.938 18.3039 28.938 18.1987 28.8682 18.1636C28.5192 17.8481 28.0654 17.6727 27.5767 17.6727C26.4946 17.6727 25.6219 18.5494 25.6219 19.6364C25.5521 20.7584 26.4597 21.6351 27.5418 21.6351Z" fill="#30112E"/>
<path d="M27.2269 33.4169C25.7608 32.1546 24.6787 34.2935 24.6787 34.2935C25.6212 36.187 27.2269 35.8364 27.2269 35.8364C27.2269 35.8364 28.9373 36.152 29.8797 34.2585C29.8448 34.2585 28.6929 32.1546 27.2269 33.4169Z" fill="#30112E"/>
<path d="M53.8258 30.0857C50.5795 27.2104 48.1011 27.4909 46.1115 27.7013C45.8671 27.7364 45.6577 27.7364 45.4483 27.7714C44.2964 27.8766 43.9822 27.5611 43.4237 27.0351C42.7954 26.439 41.9227 25.5974 39.4793 25.2468C39.4793 25.2117 39.4793 25.1416 39.4793 25.1065C40.6661 23.9844 41.7133 23.8091 42.8303 23.6689C43.8426 23.5286 44.8898 23.3533 45.937 22.5117C46.5304 22.0208 46.8794 21.6 47.2285 21.1442C48.0662 20.1273 48.7993 19.2507 52.3946 18.1987C52.639 18.1286 52.7786 17.9182 52.7786 17.6727C52.7786 17.4273 52.6041 17.2169 52.3946 17.1818C48.171 16.165 46.1115 17.5676 44.436 18.6896C44.2266 18.8299 44.052 18.9351 43.8775 19.0753C42.9001 19.7065 42.4812 19.5663 41.7482 19.3909C40.9105 19.1455 39.7585 18.8299 37.4547 19.6364C37.4198 19.6013 37.4198 19.5663 37.3849 19.5312C37.9085 17.9883 38.7812 17.3221 39.6887 16.6559C40.5265 16.0598 41.3642 15.4286 41.8878 14.1663C42.1671 13.465 42.3067 12.9039 42.4114 12.3779C42.6907 11.0805 42.935 9.99353 45.6228 7.36366C45.7973 7.18833 45.8322 6.94288 45.7275 6.73249C45.6228 6.5221 45.3785 6.4169 45.1341 6.48703C40.9454 7.53898 39.7585 9.74807 38.7812 11.5364C38.6765 11.7468 38.5717 11.9572 38.467 12.1325C37.8736 13.1494 37.4547 13.2195 36.7217 13.3948C35.849 13.5702 34.6971 13.8156 33.0216 15.639C32.9867 15.6039 32.9518 15.6039 32.9169 15.5689C32.6377 13.9559 33.1264 12.974 33.615 11.9572C34.0688 11.0455 34.5226 10.0987 34.4179 8.73119C34.3481 7.99483 34.2085 7.43379 34.0339 6.87275C33.6849 5.61041 33.3707 4.5234 34.5575 0.946775C34.6273 0.736386 34.5575 0.455866 34.3481 0.350671C34.1386 0.210412 33.8943 0.245477 33.7198 0.385736C30.5084 3.29613 30.4735 5.78574 30.4386 7.8195C30.4386 8.06496 30.4386 8.27535 30.4386 8.48574C30.4037 9.64288 30.0546 9.9234 29.4961 10.4143C28.8329 10.9753 27.8904 11.7468 27.2621 14.1312C27.2272 14.1312 27.1923 14.1312 27.1574 14.1312H27.1225C26.1451 12.8338 26.1102 11.7468 26.0753 10.6247C26.0404 9.60781 26.0404 8.55587 25.3074 7.39872C24.8885 6.76755 24.5045 6.34677 24.1205 5.926C23.213 4.97924 22.445 4.13768 21.8516 0.420801C21.712 0.210412 21.5375 0.0350869 21.2931 2.20034e-05C21.0488 -0.0350429 20.8393 0.105217 20.7346 0.350671C19.2337 4.4182 20.3507 6.66236 21.2582 8.45067C21.3629 8.66106 21.4677 8.87145 21.5724 9.04677C22.0611 10.0987 21.8865 10.5195 21.6073 11.1857C21.2582 11.9922 20.8044 13.1143 21.328 15.4987C21.2931 15.5338 21.2582 15.5338 21.2233 15.5689C19.7573 14.8676 19.2337 13.9208 18.6752 12.939C18.1865 12.0273 17.6629 11.1156 16.4761 10.4494C15.8128 10.0637 15.2893 9.88833 14.7657 9.71301C13.5439 9.29223 12.4618 8.90651 10.1929 5.926C10.0533 5.75067 9.80897 5.68054 9.56462 5.75067C9.35518 5.85587 9.21556 6.06626 9.25047 6.31171C9.80897 10.6247 11.8335 12.0624 13.4741 13.2546C13.6487 13.3948 13.8581 13.5351 14.0326 13.6403C14.9751 14.3416 15.01 14.7974 15.0798 15.5338C15.1496 16.4104 15.2543 17.6026 16.86 19.4961C16.8251 19.5312 16.8251 19.5663 16.7902 19.6013C15.1496 19.6714 14.277 19.0753 13.2996 18.4442C12.4618 17.8831 11.5543 17.287 10.2278 17.252C9.4599 17.2169 8.9014 17.3221 8.3429 17.3922C7.05137 17.6026 5.93437 17.7779 2.54846 16.165C2.33902 16.0598 2.09468 16.1299 1.92015 16.3052C1.78052 16.4805 1.74562 16.7611 1.88524 16.9364C4.36359 20.513 6.84193 20.8286 8.83159 21.1091C9.07593 21.1442 9.28537 21.1792 9.49481 21.2143C10.6467 21.3896 10.8911 21.7753 11.275 22.4065C11.7637 23.1429 12.392 24.1598 14.6609 25.0714C14.6609 25.1065 14.6609 25.1766 14.6609 25.2117C13.2647 26.0182 12.1826 25.913 11.0656 25.8078C10.0533 25.7026 9.00612 25.5974 7.7844 26.1935C7.12118 26.5091 6.6325 26.8598 6.21362 27.1753C5.16643 27.9468 4.25887 28.613 0.523898 28.7883C0.279555 28.7883 0.0701169 28.9637 0.0352106 29.2091C-0.0346019 29.4546 0.0701169 29.7 0.279555 29.8052C4.11924 31.8039 6.45796 30.9624 8.3429 30.2611C8.55234 30.1909 8.76178 30.1208 8.97122 30.0507C10.0882 29.665 10.4722 29.9104 11.1005 30.2611C11.7288 30.6117 12.5666 31.1026 14.277 31.1026C14.5911 31.1026 14.9751 31.0676 15.3591 31.0325C15.3591 31.0676 15.394 31.1026 15.394 31.1727C14.5213 32.5403 13.5439 32.9611 12.4967 33.3818C11.5543 33.7676 10.5769 34.1533 9.77406 35.2753C9.32028 35.8714 9.07593 36.3974 8.83159 36.8883C8.27309 38.0805 7.7495 39.0974 4.53812 40.9909C4.32868 41.0961 4.22396 41.3416 4.29378 41.587C4.36359 41.8325 4.57303 41.9727 4.78246 41.9727C9.11084 41.9377 10.7863 40.0792 12.1477 38.6065C12.2873 38.4312 12.4618 38.2559 12.6015 38.1156C13.4043 37.274 13.8581 37.274 14.5911 37.3091C15.4638 37.3442 16.6855 37.3792 18.7101 36.0117C18.745 36.0468 18.7799 36.0818 18.8148 36.0818C18.6752 37.7299 18.0119 38.5364 17.2789 39.413C16.6157 40.1844 15.9525 40.9909 15.743 42.3585C15.6383 43.0948 15.6383 43.6909 15.6732 44.252C15.7081 45.5844 15.743 46.7065 13.7534 49.8974C13.6138 50.1078 13.6487 50.3533 13.8232 50.5286C13.9279 50.6338 14.0675 50.7039 14.2072 50.7039C14.277 50.7039 14.3817 50.6688 14.4515 50.6338C18.2563 48.6 18.9195 46.1805 19.4082 44.2169C19.478 44.0065 19.5129 43.7611 19.5827 43.5507C19.8969 42.4286 20.3158 42.2182 20.979 41.9026C21.7818 41.5169 22.8639 40.9909 24.0158 38.852C24.0507 38.852 24.1205 38.887 24.1554 38.887C24.7838 40.3948 24.5743 41.4468 24.33 42.5338C24.1205 43.5156 23.8762 44.5676 24.33 45.865C24.5743 46.5663 24.8536 47.0922 25.1328 47.5831C25.7611 48.7403 26.3196 49.7221 26.0404 53.474C26.0055 53.7195 26.18 53.9299 26.3894 54C26.4593 54.0351 26.4942 54.0351 26.564 54.0351C26.7385 54.0351 26.913 53.965 26.9829 53.7896C29.4263 50.213 28.8678 47.7585 28.414 45.7948C28.3791 45.5844 28.3093 45.339 28.2744 45.1286C28.03 43.9715 28.3093 43.6208 28.7282 43.0247C29.2518 42.3234 29.9499 41.3416 30.0197 38.887C30.0546 38.887 30.1244 38.852 30.1593 38.852C31.416 39.8689 31.6952 40.9208 32.0094 42.0078C32.2886 42.9896 32.5679 44.0065 33.5452 44.9533C34.1037 45.4792 34.5575 45.7948 35.0462 46.0753C36.1632 46.7766 37.1057 47.4078 38.5717 50.8442C38.6415 51.0546 38.851 51.1598 39.0604 51.1598C39.0953 51.1598 39.0953 51.1598 39.1302 51.1598C39.3746 51.1247 39.5491 50.9494 39.584 50.7039C40.0727 46.3909 38.467 44.4974 37.1406 42.9546C37.001 42.7792 36.8264 42.6039 36.6868 42.4286C35.9538 41.5169 36.0236 41.0961 36.1283 40.3598C36.2679 39.4831 36.4425 38.2909 35.3604 36.0818C35.3953 36.0468 35.4302 36.0117 35.4651 36.0117C37.0708 36.3273 37.8038 37.1338 38.5717 37.9753C39.2699 38.7117 39.968 39.4831 41.2944 39.8689C42.0275 40.0792 42.586 40.1143 43.1445 40.1844C44.436 40.2896 45.5879 40.3948 48.4851 42.7792C48.5898 42.8494 48.6946 42.8844 48.7993 42.8844C48.904 42.8844 49.0087 42.8494 49.1134 42.7792C49.3229 42.639 49.3927 42.3935 49.288 42.1481C47.7172 38.0805 45.4134 37.1688 43.5633 36.4325C43.3539 36.3624 43.1445 36.2572 42.935 36.187C41.8529 35.7312 41.7133 35.3104 41.469 34.6091C41.1897 33.7676 40.8057 32.6455 38.8161 31.2078C38.8161 31.1727 38.851 31.1377 38.851 31.0676C40.4218 30.6117 41.434 30.9624 42.4812 31.3481C43.2143 31.5935 43.9473 31.874 44.82 31.874C45.1341 31.874 45.4483 31.839 45.7624 31.7689C46.4955 31.6286 47.0191 31.3831 47.5426 31.1727C48.7644 30.6818 49.8116 30.226 53.4767 30.9624C53.7211 30.9974 53.9305 30.8922 54.0352 30.6818C54.0701 30.5065 54.0003 30.2611 53.8258 30.0857ZM27.0876 37.4844C21.1535 37.4844 16.3364 32.6455 16.3364 26.6844C16.3364 20.7234 21.1535 15.8844 27.0876 15.8844C33.0216 15.8844 37.8387 20.7234 37.8387 26.6844C37.8038 32.6455 32.9867 37.4844 27.0876 37.4844ZM41.434 20.4078C42.2369 20.6533 43.0397 20.8637 44.4011 19.987C44.6105 19.8468 44.785 19.7416 44.9945 19.6013C46.2511 18.7598 47.6125 17.8481 50.021 17.9533C47.8219 18.7948 47.1238 19.6364 46.4256 20.4779C46.0766 20.8987 45.7624 21.2844 45.2737 21.7052C44.436 22.3714 43.6331 22.5117 42.6907 22.652C41.6435 22.7922 40.4916 22.9676 39.2699 23.9494C38.9906 22.7572 38.5717 21.6351 37.9783 20.5831C39.7935 19.952 40.6661 20.1624 41.434 20.4078ZM36.8613 14.4117C37.6991 14.2364 38.467 14.0611 39.3048 12.6585C39.4095 12.4481 39.5142 12.2377 39.6538 12.0273C40.3869 10.6948 41.1548 9.2221 43.319 8.20522C41.7831 9.99353 41.5737 11.0455 41.3293 12.1676C41.2246 12.6935 41.1199 13.1844 40.8755 13.7805C40.4567 14.7624 39.7935 15.2533 39.0255 15.8143C38.1878 16.4455 37.2453 17.1117 36.5821 18.5494C35.8141 17.6377 34.9066 16.8312 33.8943 16.165C35.2207 14.7624 36.0934 14.587 36.8613 14.4117ZM30.0895 11.2559C30.7527 10.7299 31.3461 10.2039 31.4159 8.55587C31.4159 8.31041 31.4159 8.10002 31.4159 7.85457C31.4509 6.34677 31.4509 4.66366 32.9169 2.77015C32.3933 5.08444 32.6726 6.10132 32.9867 7.18833C33.1264 7.71431 33.266 8.17015 33.3358 8.83638C33.4405 9.88833 33.0565 10.6598 32.6377 11.5013C32.1839 12.4481 31.6603 13.5 31.765 15.0429C30.6829 14.587 29.4961 14.3065 28.2744 14.2013C28.7631 12.3078 29.4612 11.7468 30.0895 11.2559ZM22.5847 11.6065C22.8988 10.8351 23.213 10.0637 22.5149 8.59093C22.4101 8.38054 22.3054 8.17015 22.2007 7.95976C21.5375 6.62729 20.7695 5.1195 21.1535 2.73509C21.7469 5.01431 22.4799 5.8208 23.2479 6.62729C23.5969 7.01301 23.946 7.36366 24.2951 7.9247C24.8536 8.83638 24.8885 9.64288 24.9234 10.6247C24.9583 11.6766 24.9932 12.8338 25.796 14.1663C24.5743 14.3065 23.4224 14.587 22.3054 15.0429C21.9563 13.1844 22.2705 12.3429 22.5847 11.6065ZM16.127 15.4286C16.0572 14.587 15.9874 13.7805 14.6958 12.7987C14.5213 12.6585 14.3119 12.5182 14.1373 12.3779C12.9156 11.5013 11.5543 10.5195 10.8212 8.24028C12.4269 9.99353 13.4392 10.3442 14.4864 10.6948C14.9751 10.8702 15.4638 11.0455 16.0223 11.3611C16.9298 11.887 17.3487 12.6234 17.8025 13.465C18.3261 14.3766 18.8846 15.3935 20.211 16.2C19.1988 16.8663 18.2912 17.6727 17.5233 18.6195C16.2666 17.1117 16.1968 16.2351 16.127 15.4286ZM12.1826 21.8455C11.7288 21.1442 11.275 20.4429 9.66934 20.1974C9.4599 20.1624 9.21556 20.1273 8.97122 20.0922C7.47025 19.8818 5.82965 19.6714 4.11924 17.9883C6.31834 18.7948 7.40043 18.6195 8.51743 18.4442C9.04103 18.374 9.52972 18.3039 10.1929 18.3039C11.2401 18.339 11.9382 18.7948 12.7411 19.3208C13.6138 19.9169 14.5911 20.5481 16.1619 20.6182C15.6034 21.6702 15.1496 22.7922 14.9053 23.9844C13.0902 23.2481 12.6015 22.5117 12.1826 21.8455ZM11.659 29.3494C10.926 28.9286 10.2278 28.5429 8.69197 29.0338C8.48253 29.1039 8.23818 29.174 8.02875 29.2792C6.6325 29.8052 5.06171 30.3663 2.7579 29.7C5.09662 29.3844 5.96928 28.7533 6.84193 28.052C7.26081 27.7364 7.67968 27.4559 8.27309 27.1403C9.25047 26.6844 10.0533 26.7546 10.9958 26.8598C12.043 26.965 13.1949 27.0702 14.626 26.439C14.626 26.5091 14.626 26.6143 14.626 26.6844C14.626 27.8416 14.8006 28.9637 15.0798 30.0156C13.0902 30.1559 12.3222 29.7351 11.659 29.3494ZM14.626 36.2221C13.7883 36.187 12.9854 36.152 11.8335 37.3442C11.659 37.5195 11.5194 37.6948 11.3448 37.8701C10.3326 38.9922 9.21556 40.2195 6.87684 40.6753C8.79669 39.3078 9.25047 38.326 9.73915 37.3091C9.9835 36.8182 10.1929 36.3624 10.5769 35.8364C11.2052 34.9948 11.9732 34.6792 12.8458 34.2935C13.8232 33.9078 14.9053 33.452 15.8478 32.2247C16.4063 33.3117 17.0695 34.2935 17.9072 35.1702C16.3364 36.2922 15.4289 36.2572 14.626 36.2221ZM20.4903 40.9559C19.7223 41.3416 18.9893 41.6922 18.5355 43.2351C18.4657 43.4455 18.3959 43.6909 18.361 43.9013C17.977 45.374 17.5582 46.987 15.7081 48.4948C16.7553 46.3909 16.7204 45.3039 16.6855 44.1818C16.6855 43.6559 16.6506 43.1299 16.7553 42.4987C16.9298 41.4468 17.4534 40.8156 18.0818 40.0792C18.745 39.2727 19.5129 38.3961 19.7922 36.8533C20.7695 37.5546 21.8167 38.1156 22.9686 38.5364C21.9913 40.2195 21.1884 40.6052 20.4903 40.9559ZM27.8555 42.3935C27.3668 43.0948 26.8781 43.726 27.1923 45.339C27.2272 45.5494 27.297 45.7948 27.3319 46.0403C27.681 47.513 28.03 49.126 27.0876 51.3351C27.0527 48.9857 26.5291 48.039 25.9706 47.0572C25.7262 46.6013 25.4819 46.1455 25.2375 45.5494C24.8885 44.5325 25.063 43.726 25.2724 42.7792C25.5168 41.7624 25.7611 40.6052 25.2724 39.1325C25.8309 39.2026 26.4244 39.2727 27.0178 39.2727C27.6461 39.2727 28.2395 39.2377 28.8678 39.1325C28.8329 41.026 28.3093 41.7624 27.8555 42.3935ZM35.0113 40.2195C34.8717 41.0611 34.767 41.8675 35.7792 43.1299C35.9189 43.3052 36.0934 43.4805 36.233 43.6559C37.2104 44.813 38.2925 46.0753 38.467 48.4598C37.35 46.3909 36.4425 45.7948 35.5 45.1987C35.0462 44.9182 34.6273 44.6377 34.1735 44.1818C33.4056 43.4455 33.1962 42.639 32.9518 41.7273C32.6726 40.7104 32.3584 39.5883 31.2763 38.4663C32.4282 38.0455 33.4754 37.4844 34.4528 36.7831C35.2905 38.5714 35.1509 39.4481 35.0113 40.2195ZM40.3869 34.9598C40.6661 35.7663 40.9105 36.5377 42.4114 37.1688C42.6209 37.274 42.8303 37.3442 43.0746 37.4494C44.4709 38.0104 46.0068 38.6065 47.2983 40.6403C45.3435 39.3429 44.2615 39.2377 43.1445 39.1325C42.6209 39.0974 42.1322 39.0273 41.5039 38.852C40.4916 38.5714 39.9331 37.9403 39.2699 37.239C38.5717 36.4676 37.7689 35.626 36.2679 35.1351C37.0708 34.2585 37.7689 33.2416 38.2925 32.1546C39.8284 33.3818 40.1076 34.2234 40.3869 34.9598ZM47.054 30.226C46.5653 30.4364 46.1115 30.6117 45.4483 30.752C44.4011 30.9624 43.6331 30.6818 42.7256 30.3663C41.7482 30.0156 40.6312 29.6299 39.0953 29.9104C39.3746 28.8935 39.5142 27.8065 39.5142 26.6844C39.5142 26.5792 39.5142 26.474 39.5142 26.3338C41.434 26.6494 42.0973 27.2455 42.6558 27.8065C43.2841 28.4026 43.8426 28.9637 45.4832 28.8234C45.7275 28.7883 45.937 28.7883 46.1813 28.7533C47.6823 28.5779 49.3229 28.4026 51.3823 29.6299C49.0785 29.3844 48.1011 29.8052 47.054 30.226Z" fill="#30112E"/>
<path d="M21.5729 21.074C22.0548 21.074 22.4455 20.6816 22.4455 20.1974C22.4455 19.7133 22.0548 19.3208 21.5729 19.3208C21.0909 19.3208 20.7002 19.7133 20.7002 20.1974C20.7002 20.6816 21.0909 21.074 21.5729 21.074Z" fill="#30112E"/>
<path d="M32.4635 21.074C32.9522 21.074 33.3361 20.6883 33.3361 20.1974C33.3361 19.7065 32.9522 19.3208 32.4635 19.3208C31.9748 19.3208 31.5908 19.7065 31.5908 20.1974C31.6257 20.6883 32.0097 21.074 32.4635 21.074Z" fill="#30112E"/>
<path d="M35.2556 23.4935C32.7423 22.8623 30.1941 22.3364 28.9026 23.4935C28.2394 24.0545 27.9951 25.0013 28.1347 26.3338L28.1696 26.7195C28.379 28.613 28.5885 30.5416 27.9252 31.2779C27.7158 31.4883 27.4715 31.5935 27.1224 31.5935C26.7733 31.5935 26.4941 31.4883 26.3196 31.2779C25.6563 30.5416 25.8658 28.613 26.0752 26.7195L26.1101 26.3338C26.2497 25.0364 25.9705 24.0896 25.3422 23.4935C24.0506 22.3714 21.4676 22.8623 18.9892 23.4935C18.8845 23.5286 18.8496 23.5987 18.8496 23.7039C18.8845 23.8091 18.9543 23.8442 19.059 23.8442C21.3629 23.2481 23.9459 22.7221 25.0978 23.774C25.6563 24.2649 25.9007 25.1065 25.7611 26.2987L25.7261 26.6844C25.5167 28.7182 25.3073 30.6468 26.0752 31.5234C26.3196 31.8039 26.7035 31.9792 27.1573 31.9792C27.6111 31.9792 27.9601 31.839 28.2394 31.5234C29.0073 30.6818 28.7979 28.7532 28.5885 26.6844L28.5536 26.2987C28.4139 25.1065 28.6583 24.2649 29.2168 23.774C30.4036 22.7571 32.9517 23.2831 35.2556 23.8442C35.3603 23.8792 35.4301 23.8091 35.465 23.7039C35.3952 23.5987 35.3254 23.4935 35.2556 23.4935Z" fill="#30112E"/>
</svg>
