<svg width="20" height="20" viewBox="0 0 20 20" fill="none" xmlns="http://www.w3.org/2000/svg">
<path d="M13.5413 18.7502C14.3468 18.7502 14.9997 18.0972 14.9997 17.2918C14.9997 16.4864 14.3468 15.8335 13.5413 15.8335C12.7359 15.8335 12.083 16.4864 12.083 17.2918C12.083 18.0972 12.7359 18.7502 13.5413 18.7502Z" fill="white"/>
<path d="M6.87533 18.7502C7.68074 18.7502 8.33366 18.0972 8.33366 17.2918C8.33366 16.4864 7.68074 15.8335 6.87533 15.8335C6.06991 15.8335 5.41699 16.4864 5.41699 17.2918C5.41699 18.0972 6.06991 18.7502 6.87533 18.7502Z" fill="white"/>
<path d="M4.03366 3.28317L3.86699 5.32484C3.83366 5.7165 4.14199 6.0415 4.53366 6.0415H17.292C17.642 6.0415 17.9337 5.77484 17.9587 5.42484C18.067 3.94984 16.942 2.74984 15.467 2.74984H5.22533C5.14199 2.38317 4.97533 2.03317 4.71699 1.7415C4.30033 1.29984 3.71699 1.0415 3.11699 1.0415H1.66699C1.32533 1.0415 1.04199 1.32484 1.04199 1.6665C1.04199 2.00817 1.32533 2.2915 1.66699 2.2915H3.11699C3.37533 2.2915 3.61699 2.39984 3.79199 2.58317C3.96699 2.77484 4.05033 3.02484 4.03366 3.28317Z" fill="white"/>
<path d="M17.0914 7.2915H4.30805C3.95805 7.2915 3.67472 7.55817 3.64139 7.89984L3.34139 11.5248C3.22472 12.9498 4.34139 14.1665 5.76639 14.1665H15.0331C16.2831 14.1665 17.3831 13.1415 17.4747 11.8915L17.7497 7.99984C17.7831 7.6165 17.4831 7.2915 17.0914 7.2915Z" fill="white"/>
</svg>
