<svg width="490" height="474" viewBox="0 0 490 474" fill="none" xmlns="http://www.w3.org/2000/svg">
<g clip-path="url(#clip0_178_1192)">
<path d="M321.697 54.3939V49.8485C321.697 46.8182 321.697 43.7879 323.212 40.7575C324.727 36.2121 329.273 31.6666 337.606 30.1515C349.727 28.6363 353.515 19.5454 354.273 18.0303C355.03 19.5454 358.061 28.6363 370.939 30.1515C380.03 31.6666 383.818 36.9697 385.333 41.5151C386.091 43.7878 386.849 46.8182 386.091 49.8485L385.333 54.3939" stroke="#FCE620" stroke-width="4" stroke-miterlimit="10"/>
<path d="M287.606 93.0303L284.576 90C282.303 88.4849 280.788 85.4546 279.273 83.1819C277.757 78.6364 277 71.8182 282.303 65C289.879 55.1516 286.091 46.0606 285.333 44.5455C286.848 45.3031 295.182 49.0909 305.03 41.5152C312.606 36.2122 318.667 37.7273 323.212 39.2425C325.485 40.7576 327.757 42.2728 329.273 44.5455L332.303 48.3334" stroke="#FCE620" stroke-width="4" stroke-miterlimit="10"/>
<path d="M291.394 144.545H286.848C283.818 144.545 280.788 144.545 277.758 143.03C273.97 141.515 268.667 137.727 267.151 128.636C265.636 116.515 256.545 112.727 255.03 111.97C256.545 111.212 265.636 108.182 267.151 95.303C268.667 86.9696 273.97 83.1817 278.515 81.6666C280.788 80.909 283.818 80.1514 286.848 80.909L291.394 81.6666" stroke="#FCE620" stroke-width="4" stroke-miterlimit="10"/>
<path d="M330.03 178.636L327 182.424C324.727 184.697 322.454 186.212 319.424 187.727C314.879 189.242 308.818 190 301.242 184.697C291.394 177.121 282.303 180.909 280.788 181.667C281.545 180.152 285.333 171.061 277.757 161.212C272.454 153.636 273.212 147.576 275.485 143.03C277 140.758 278.515 138.485 280.788 136.97L284.576 133.939" stroke="#FCE620" stroke-width="4" stroke-miterlimit="10"/>
<path d="M381.545 175.606V180.151C381.545 183.182 381.545 186.212 380.03 189.242C378.515 193.788 373.97 198.333 365.636 199.848C353.515 201.364 349.727 210.454 348.97 211.97C348.212 210.454 345.182 201.364 332.303 199.848C323.212 198.333 319.424 193.03 317.909 188.485C317.151 186.212 316.394 183.182 317.151 180.151L317.909 175.606" stroke="#FCE620" stroke-width="4" stroke-miterlimit="10"/>
<path d="M415.636 136.212L419.424 139.242C421.697 141.515 423.212 143.788 424.727 146.818C426.242 151.364 427 157.424 421.697 165C414.121 174.849 417.909 183.939 418.667 185.455C417.152 184.697 408.061 180.909 398.212 188.485C390.636 193.788 384.576 193.03 380.03 190.758C377.758 189.242 375.485 187.727 373.97 185.455L370.939 181.667" stroke="#FCE620" stroke-width="4" stroke-miterlimit="10"/>
<path d="M412.606 84.697H417.151C420.182 84.697 423.212 84.697 426.242 86.2122C430.788 87.7273 435.333 92.2728 436.848 100.606C438.364 112.727 447.454 116.515 448.97 117.273C447.454 118.03 438.364 121.061 436.848 133.939C435.333 143.03 430.03 146.818 425.485 148.333C423.212 149.091 420.182 149.849 417.151 149.091L412.606 148.333" stroke="#FCE620" stroke-width="4" stroke-miterlimit="10"/>
<path d="M373.212 50.6061L376.242 46.8182C378.515 44.5455 380.788 43.0303 383.818 41.5152C388.364 40.7576 394.424 40 401.242 45.3031C411.091 52.8788 420.182 49.0909 421.697 48.3334C420.939 49.8485 417.152 58.9394 424.727 68.7879C430.03 76.3637 429.273 82.4243 427 86.9697C425.485 89.2425 423.97 91.5152 421.697 93.0303L418.667 95.3031" stroke="#FCE620" stroke-width="4" stroke-miterlimit="10"/>
<path d="M352 183.182C389.656 183.182 420.182 152.656 420.182 115C420.182 77.3442 389.656 46.8181 352 46.8181C314.344 46.8181 283.818 77.3442 283.818 115C283.818 152.656 314.344 183.182 352 183.182Z" stroke="#FCE620" stroke-width="4" stroke-miterlimit="10"/>
<path d="M352 181.667L323.212 131.667L294.424 81.6667H352H409.576L380.788 131.667L352 181.667Z" stroke="#FCE620" stroke-width="4" stroke-miterlimit="10"/>
</g>
<g filter="url(#filter0_f_178_1192)">
<ellipse cx="241" cy="245.5" rx="168" ry="194.5" fill="url(#paint0_radial_178_1192)" fill-opacity="0.8" style="mix-blend-mode:screen"/>
</g>
<g clip-path="url(#clip1_178_1192)">
<path d="M487.483 406.839C486.422 406.707 485.495 407.104 484.567 407.501C481.255 409.223 478.472 411.608 475.292 413.33C465.884 418.231 444.684 406.177 448.791 393.99C450.116 390.016 455.152 389.088 459.392 388.426C461.909 388.029 464.824 387.101 465.487 384.584C465.884 382.597 464.559 380.61 462.969 379.418C457.537 375.444 449.851 376.769 443.889 379.683C441.504 380.875 439.251 382.2 436.733 382.862C434.216 383.525 429.181 383.127 428.253 380.743C415.4 349.746 381.612 327.756 371.541 295.831C366.374 279.405 363.194 262.317 358.026 245.758C352.858 229.2 345.968 211.449 331.658 201.647C324.105 196.481 314.697 195.421 305.952 193.036C293.364 189.725 280.776 184.029 270.971 175.418C268.983 169.06 267.923 162.436 267.923 155.681C271.103 154.753 274.018 152.104 275.874 149.322C277.596 146.54 278.656 143.361 279.584 140.314C280.909 135.81 281.174 130.777 281.571 125.875C281.969 126.008 282.499 126.14 282.896 126.14C285.811 126.14 287.799 123.358 288.461 120.577C289.124 117.795 288.726 114.881 289.389 112.099C289.919 109.582 291.111 107.33 291.906 104.945C292.702 102.561 292.834 99.7793 291.509 97.5273C291.244 97.1299 290.846 96.6 290.316 96.4676C289.786 96.3351 289.256 96.3351 288.726 96.4676C288.461 96.6 288.196 96.6 287.931 96.7325C288.064 92.4936 287.799 88.1221 287.136 83.8832C285.811 74.7429 282.896 65.6026 276.801 58.7143C276.669 58.4494 276.404 58.3169 276.271 58.1845C277.199 55.1377 277.596 51.9585 277.596 48.5143C277.596 29.8364 263.021 14.7351 245.133 14.7351C227.112 14.7351 212.669 29.8364 212.669 48.5143C212.669 51.826 213.199 55.1377 213.994 58.1845C213.862 58.3169 213.597 58.5819 213.464 58.7143C207.369 65.6026 204.454 74.7429 203.129 83.8832C202.466 88.1221 202.201 92.4936 202.334 96.7325C202.069 96.6 201.804 96.4676 201.539 96.4676C201.009 96.3351 200.479 96.2026 199.949 96.4676C199.419 96.6 199.154 97.1299 198.756 97.5273C197.431 99.6468 197.696 102.429 198.359 104.945C199.154 107.33 200.346 109.714 200.876 112.099C201.406 114.881 201.141 117.795 201.804 120.577C202.466 123.358 204.586 126.14 207.369 126.14C207.899 126.14 208.296 126.008 208.694 125.875C209.224 130.777 209.489 135.81 210.682 140.314C211.609 143.494 212.669 146.673 214.392 149.322C216.114 152.104 219.162 154.753 222.342 155.681C222.342 162.304 221.414 169.06 219.294 175.418C209.356 184.029 196.901 189.592 184.313 193.036C175.568 195.421 166.16 196.481 158.607 201.647C144.297 211.449 137.407 229.2 132.239 245.758C127.071 262.317 124.024 279.273 118.724 295.831C108.653 327.756 74.8648 349.878 62.0119 380.743C60.9519 383.127 56.0493 383.525 53.5317 382.862C51.0141 382.2 48.7615 380.875 46.3765 379.683C40.4138 376.769 32.7285 375.444 27.2959 379.418C25.7058 380.61 24.2483 382.597 24.7783 384.584C25.3083 387.101 28.3559 388.029 30.8735 388.426C34.9811 389.088 40.0163 390.016 41.4738 393.99C45.5814 406.177 24.3808 418.231 14.973 413.33C11.6604 411.608 8.87781 409.223 5.69771 407.501C4.77018 406.971 3.71015 406.574 2.78262 406.839C1.45758 407.104 0.530051 408.429 0.397547 409.886C0.265043 411.21 0.795059 412.668 1.32508 413.86C3.44514 418.364 7.28776 422.073 11.7929 424.192C14.0455 428.564 16.298 432.67 20.8032 434.922C21.2007 447.771 29.946 460.223 41.3413 466.184C52.7367 472.146 65.8546 473.47 78.5749 474C123.229 475.59 198.491 466.052 245.265 456.647C292.039 465.92 367.301 475.59 411.955 474C424.676 473.47 437.793 472.146 449.189 466.184C460.584 460.223 469.329 447.771 469.727 434.922C474.232 432.67 476.352 428.696 478.737 424.192C483.242 422.073 487.085 418.364 489.205 413.86C489.868 412.668 490.265 411.21 490.133 409.886C489.868 408.429 488.94 407.104 487.483 406.839ZM170.798 383.657C139.394 380.213 105.473 386.307 77.1174 400.083C88.3802 389.751 99.6431 379.551 110.773 369.218C120.844 359.945 131.047 350.673 139.394 339.678C155.825 317.953 164.835 289.87 172.52 263.774C171.328 278.081 176.23 292.784 185.903 303.514C190.541 331.333 185.241 359.681 170.798 383.657ZM319.202 383.657C304.759 359.681 299.327 331.332 304.229 303.647C313.902 292.917 318.805 278.213 317.612 263.907C325.298 290.003 334.308 318.086 350.738 339.81C358.954 350.805 369.156 360.078 379.359 369.351C390.622 379.683 401.885 389.883 413.015 400.216C384.659 386.307 350.606 380.213 319.202 383.657Z" fill="#1D0A1C"/>
</g>
<circle cx="245" cy="85" r="8.5" fill="#202DA3" stroke="#6773E5"/>
<circle cx="245" cy="155" r="8.5" fill="#1AC4D7" stroke="#BCF7FF"/>
<circle cx="245" cy="219" r="8.5" fill="#30A946" stroke="#7DDF8F"/>
<g filter="url(#filter1_f_178_1192)">
<circle cx="245" cy="286" r="14" fill="#C4BC6F"/>
</g>
<circle cx="245" cy="286" r="8.5" fill="#FCE620" stroke="#C4BC6F"/>
<circle cx="245" cy="349" r="8.5" fill="#E86C00" stroke="#E5BB96"/>
<circle cx="245" cy="409" r="8.5" fill="#E30505" stroke="#F87D7D"/>
<circle cx="245" cy="14" r="8.5" fill="#A51898" stroke="#F775EB"/>
<defs>
<filter id="filter0_f_178_1192" x="54.2" y="32.2" width="373.6" height="426.6" filterUnits="userSpaceOnUse" color-interpolation-filters="sRGB">
<feFlood flood-opacity="0" result="BackgroundImageFix"/>
<feBlend mode="normal" in="SourceGraphic" in2="BackgroundImageFix" result="shape"/>
<feGaussianBlur stdDeviation="9.4" result="effect1_foregroundBlur_178_1192"/>
</filter>
<filter id="filter1_f_178_1192" x="221.6" y="262.6" width="46.8" height="46.8" filterUnits="userSpaceOnUse" color-interpolation-filters="sRGB">
<feFlood flood-opacity="0" result="BackgroundImageFix"/>
<feBlend mode="normal" in="SourceGraphic" in2="BackgroundImageFix" result="shape"/>
<feGaussianBlur stdDeviation="4.7" result="effect1_foregroundBlur_178_1192"/>
</filter>
<radialGradient id="paint0_radial_178_1192" cx="0" cy="0" r="1" gradientUnits="userSpaceOnUse" gradientTransform="translate(241 245.5) rotate(90) scale(194.5 168)">
<stop stop-color="#FCE620"/>
<stop offset="1" stop-color="#FCF085" stop-opacity="0"/>
</radialGradient>
<clipPath id="clip0_178_1192">
<rect width="200" height="200" fill="white" transform="translate(252 15)"/>
</clipPath>
<clipPath id="clip1_178_1192">
<rect width="490" height="459" fill="white" transform="translate(0 15)"/>
</clipPath>
</defs>
</svg>
