<svg width="490" height="474" viewBox="0 0 490 474" fill="none" xmlns="http://www.w3.org/2000/svg">
<g clip-path="url(#clip0_178_1110)">
<path d="M336.89 41.559V38.4094C336.89 36.0472 336.89 34.4724 337.677 32.8976C339.252 29.748 341.614 25.811 347.914 25.0236C356.575 24.2362 358.15 17.937 358.937 16.3622C358.937 17.937 361.299 23.4488 369.961 25.0236C376.26 25.811 378.622 29.748 379.41 32.1102C380.197 33.685 380.197 36.0472 380.197 37.622V40.7716" stroke="#30A946" stroke-width="4" stroke-miterlimit="10"/>
<path d="M303.032 60.4567L301.457 57.3071C300.669 55.7323 299.882 54.1575 299.095 51.7953C298.307 48.6457 299.095 44.7087 303.819 40.7716C310.906 36.0472 310.118 29.748 309.331 28.1732C310.906 28.9606 315.63 32.8976 323.504 29.748C329.016 27.3858 332.953 28.9606 335.315 31.3228C336.89 32.8976 337.677 33.685 338.465 36.0472L340.04 39.1968" stroke="#30A946" stroke-width="4" stroke-miterlimit="10"/>
<path d="M283.347 93.5275L280.197 91.9527C278.622 91.1653 277.047 89.5905 275.473 88.0157C273.898 85.6535 272.323 81.7165 274.685 76.2047C277.835 68.3307 273.898 63.6063 273.11 62.8189C274.685 62.8189 280.984 64.3937 285.709 57.3071C289.646 52.5827 293.583 51.7953 296.732 52.5827C298.307 52.5827 299.882 53.3701 301.457 54.9449L303.819 56.5197" stroke="#30A946" stroke-width="4" stroke-miterlimit="10"/>
<path d="M282.559 132.11H279.409C277.047 132.11 275.472 132.11 273.898 131.323C270.748 129.748 267.598 127.386 266.811 121.874C266.024 113.213 259.724 111.638 258.15 110.85C259.724 110.85 265.236 108.488 266.811 99.8267C266.811 93.5275 270.748 90.3779 273.898 89.5905C275.472 88.8031 277.835 88.8031 279.409 88.8031H282.559" stroke="#30A946" stroke-width="4" stroke-miterlimit="10"/>
<path d="M301.457 165.969L299.095 167.543C297.52 168.331 295.158 169.118 293.583 169.906C290.433 170.693 286.496 169.906 282.559 165.181C277.047 158.882 270.748 159.669 269.961 159.669C270.748 158.882 274.685 154.157 271.535 146.283C269.173 140.772 270.748 136.835 273.11 134.472C274.685 132.898 275.473 132.11 277.835 131.323L280.984 129.748" stroke="#30A946" stroke-width="4" stroke-miterlimit="10"/>
<path d="M334.528 185.654L332.953 188.803C332.165 190.378 330.591 191.953 329.016 193.528C326.654 195.102 322.717 196.677 317.205 195.102C309.331 191.953 304.606 195.89 303.819 196.677C303.819 195.102 305.394 188.803 298.307 184.079C293.583 180.142 292.795 176.205 293.583 173.055C293.583 171.48 294.37 169.906 295.945 168.331L297.52 165.969" stroke="#30A946" stroke-width="4" stroke-miterlimit="10"/>
<path d="M373.11 186.441V189.591C373.11 191.953 373.11 193.528 372.323 195.102C370.748 198.252 368.386 201.402 362.874 202.189C354.213 202.976 352.638 209.276 351.85 210.85C351.85 209.276 349.488 203.764 340.827 202.189C334.528 201.402 332.165 197.465 331.378 195.102C330.591 193.528 330.591 191.165 330.591 189.591V186.441" stroke="#30A946" stroke-width="4" stroke-miterlimit="10"/>
<path d="M406.969 167.543L408.543 169.906C409.331 171.48 410.118 173.843 410.906 175.417C411.693 178.567 410.906 182.504 406.181 186.441C399.882 191.953 400.669 198.252 400.669 199.039C399.882 198.252 395.157 194.315 387.283 197.465C381.772 199.827 377.835 198.252 375.472 195.89C373.898 194.315 373.11 193.528 372.323 191.165L370.748 188.016" stroke="#30A946" stroke-width="4" stroke-miterlimit="10"/>
<path d="M426.654 134.472L429.803 136.047C431.378 136.835 432.953 138.409 434.528 139.984C436.102 142.346 437.677 146.283 436.102 151.795C432.953 159.669 436.89 164.394 437.677 165.181C436.102 165.181 429.803 163.606 425.079 170.693C421.142 175.417 417.205 176.205 414.055 175.417C412.48 175.417 410.906 174.63 409.331 173.055L405.394 171.48" stroke="#30A946" stroke-width="4" stroke-miterlimit="10"/>
<path d="M427.441 95.8898H430.591C432.953 95.8898 434.528 95.8898 436.102 96.6772C439.252 98.252 442.402 100.614 443.189 106.126C443.976 114.787 450.276 116.362 451.85 117.15C450.276 117.15 444.764 119.512 443.189 128.173C442.402 134.472 438.465 136.835 436.102 137.622C434.528 138.409 432.165 138.409 430.591 138.409H427.441" stroke="#30A946" stroke-width="4" stroke-miterlimit="10"/>
<path d="M408.543 62.0315L410.906 60.4567C412.48 59.6693 414.843 58.8819 416.417 58.0945C419.567 57.3071 423.504 58.0945 427.441 62.8189C432.953 69.1181 439.252 68.3307 440.04 68.3307C439.252 69.1181 435.315 73.8425 438.465 81.7166C440.827 87.2284 439.252 91.1654 436.89 93.5276C435.315 95.1024 434.528 95.8898 432.166 96.6772L429.016 98.252" stroke="#30A946" stroke-width="4" stroke-miterlimit="10"/>
<path d="M375.472 42.3464L377.047 39.1968C377.835 37.622 379.409 36.0472 380.984 34.4724C383.346 32.8976 387.283 31.3228 392.795 32.8976C400.669 36.0472 405.394 32.1102 406.181 31.3228C406.181 32.8976 404.606 39.1968 411.693 43.9212C416.417 47.8582 417.205 51.7952 416.417 54.9448C416.417 56.5196 415.63 58.0944 414.055 59.6692L412.48 63.6062" stroke="#30A946" stroke-width="4" stroke-miterlimit="10"/>
<path d="M427.751 132.577C438.359 92.1988 414.226 50.8663 373.848 40.2583C333.469 29.6502 292.137 53.7837 281.529 94.1619C270.921 134.54 295.054 175.873 335.432 186.481C375.811 197.089 417.143 172.955 427.751 132.577Z" stroke="#30A946" stroke-width="4" stroke-miterlimit="10"/>
<path d="M355 187.228L322.717 132.11L291.22 76.2047H355H418.78L386.496 132.11L355 187.228Z" stroke="#30A946" stroke-width="4" stroke-miterlimit="10"/>
<path d="M355 39.9843L386.496 95.1024L418.78 150.22H355H291.22L322.717 95.1024L355 39.9843Z" stroke="#30A946" stroke-width="4" stroke-miterlimit="10"/>
</g>
<g filter="url(#filter0_f_178_1110)">
<ellipse cx="241" cy="245.5" rx="168" ry="194.5" fill="url(#paint0_radial_178_1110)" fill-opacity="0.8" style="mix-blend-mode:screen"/>
</g>
<g clip-path="url(#clip1_178_1110)">
<path d="M487.483 406.839C486.422 406.707 485.495 407.104 484.567 407.501C481.255 409.223 478.472 411.608 475.292 413.33C465.884 418.231 444.684 406.177 448.791 393.99C450.116 390.016 455.152 389.088 459.392 388.426C461.909 388.029 464.824 387.101 465.487 384.584C465.884 382.597 464.559 380.61 462.969 379.418C457.537 375.444 449.851 376.769 443.889 379.683C441.504 380.875 439.251 382.2 436.733 382.862C434.216 383.525 429.181 383.127 428.253 380.743C415.4 349.746 381.612 327.756 371.541 295.831C366.374 279.405 363.194 262.317 358.026 245.758C352.858 229.2 345.968 211.449 331.658 201.647C324.105 196.481 314.697 195.421 305.952 193.036C293.364 189.725 280.776 184.029 270.971 175.418C268.983 169.06 267.923 162.436 267.923 155.681C271.103 154.753 274.018 152.104 275.874 149.322C277.596 146.54 278.656 143.361 279.584 140.314C280.909 135.81 281.174 130.777 281.571 125.875C281.969 126.008 282.499 126.14 282.896 126.14C285.811 126.14 287.799 123.358 288.461 120.577C289.124 117.795 288.726 114.881 289.389 112.099C289.919 109.582 291.111 107.33 291.906 104.945C292.702 102.561 292.834 99.7793 291.509 97.5273C291.244 97.1299 290.846 96.6 290.316 96.4676C289.786 96.3351 289.256 96.3351 288.726 96.4676C288.461 96.6 288.196 96.6 287.931 96.7325C288.064 92.4936 287.799 88.1221 287.136 83.8832C285.811 74.7429 282.896 65.6026 276.801 58.7143C276.669 58.4494 276.404 58.3169 276.271 58.1845C277.199 55.1377 277.596 51.9585 277.596 48.5143C277.596 29.8364 263.021 14.7351 245.133 14.7351C227.112 14.7351 212.669 29.8364 212.669 48.5143C212.669 51.826 213.199 55.1377 213.994 58.1845C213.862 58.3169 213.597 58.5819 213.464 58.7143C207.369 65.6026 204.454 74.7429 203.129 83.8832C202.466 88.1221 202.201 92.4936 202.334 96.7325C202.069 96.6 201.804 96.4676 201.539 96.4676C201.009 96.3351 200.479 96.2026 199.949 96.4676C199.419 96.6 199.154 97.1299 198.756 97.5273C197.431 99.6468 197.696 102.429 198.359 104.945C199.154 107.33 200.346 109.714 200.876 112.099C201.406 114.881 201.141 117.795 201.804 120.577C202.466 123.358 204.586 126.14 207.369 126.14C207.899 126.14 208.296 126.008 208.694 125.875C209.224 130.777 209.489 135.81 210.682 140.314C211.609 143.494 212.669 146.673 214.392 149.322C216.114 152.104 219.162 154.753 222.342 155.681C222.342 162.304 221.414 169.06 219.294 175.418C209.356 184.029 196.901 189.592 184.313 193.036C175.568 195.421 166.16 196.481 158.607 201.647C144.297 211.449 137.407 229.2 132.239 245.758C127.071 262.317 124.024 279.273 118.724 295.831C108.653 327.756 74.8648 349.878 62.0119 380.743C60.9519 383.127 56.0493 383.525 53.5317 382.862C51.0141 382.2 48.7615 380.875 46.3765 379.683C40.4138 376.769 32.7285 375.444 27.2959 379.418C25.7058 380.61 24.2483 382.597 24.7783 384.584C25.3083 387.101 28.3559 388.029 30.8735 388.426C34.9811 389.088 40.0163 390.016 41.4738 393.99C45.5814 406.177 24.3808 418.231 14.973 413.33C11.6604 411.608 8.87781 409.223 5.69771 407.501C4.77018 406.971 3.71015 406.574 2.78262 406.839C1.45758 407.104 0.530051 408.429 0.397547 409.886C0.265043 411.21 0.795059 412.668 1.32508 413.86C3.44514 418.364 7.28776 422.073 11.7929 424.192C14.0455 428.564 16.298 432.67 20.8032 434.922C21.2007 447.771 29.946 460.223 41.3413 466.184C52.7367 472.146 65.8546 473.47 78.5749 474C123.229 475.59 198.491 466.052 245.265 456.647C292.039 465.92 367.301 475.59 411.955 474C424.676 473.47 437.793 472.146 449.189 466.184C460.584 460.223 469.329 447.771 469.727 434.922C474.232 432.67 476.352 428.696 478.737 424.192C483.242 422.073 487.085 418.364 489.205 413.86C489.868 412.668 490.265 411.21 490.133 409.886C489.868 408.429 488.94 407.104 487.483 406.839ZM170.798 383.657C139.394 380.213 105.473 386.307 77.1174 400.083C88.3802 389.751 99.6431 379.551 110.773 369.218C120.844 359.945 131.047 350.673 139.394 339.678C155.825 317.953 164.835 289.87 172.52 263.774C171.328 278.081 176.23 292.784 185.903 303.514C190.541 331.333 185.241 359.681 170.798 383.657ZM319.202 383.657C304.759 359.681 299.327 331.332 304.229 303.647C313.902 292.917 318.805 278.213 317.612 263.907C325.298 290.003 334.308 318.086 350.738 339.81C358.954 350.805 369.156 360.078 379.359 369.351C390.622 379.683 401.885 389.883 413.015 400.216C384.659 386.307 350.606 380.213 319.202 383.657Z" fill="#1D0A1C"/>
</g>
<circle cx="245" cy="85" r="8.5" fill="#202DA3" stroke="#6773E5"/>
<circle cx="245" cy="155" r="8.5" fill="#1AC4D7" stroke="#BCF7FF"/>
<g filter="url(#filter1_f_178_1110)">
<circle cx="245" cy="219" r="14" fill="#7DDF8F"/>
</g>
<circle cx="245" cy="219" r="8.5" fill="#30A946" stroke="#7DDF8F"/>
<circle cx="245" cy="286" r="8.5" fill="#FCE620" stroke="#C4BC6F"/>
<circle cx="245" cy="349" r="8.5" fill="#E86C00" stroke="#E5BB96"/>
<circle cx="245" cy="409" r="8.5" fill="#E30505" stroke="#F87D7D"/>
<circle cx="245" cy="14" r="8.5" fill="#A51898" stroke="#F775EB"/>
<defs>
<filter id="filter0_f_178_1110" x="54.2" y="32.2" width="373.6" height="426.6" filterUnits="userSpaceOnUse" color-interpolation-filters="sRGB">
<feFlood flood-opacity="0" result="BackgroundImageFix"/>
<feBlend mode="normal" in="SourceGraphic" in2="BackgroundImageFix" result="shape"/>
<feGaussianBlur stdDeviation="9.4" result="effect1_foregroundBlur_178_1110"/>
</filter>
<filter id="filter1_f_178_1110" x="221.6" y="195.6" width="46.8" height="46.8" filterUnits="userSpaceOnUse" color-interpolation-filters="sRGB">
<feFlood flood-opacity="0" result="BackgroundImageFix"/>
<feBlend mode="normal" in="SourceGraphic" in2="BackgroundImageFix" result="shape"/>
<feGaussianBlur stdDeviation="4.7" result="effect1_foregroundBlur_178_1110"/>
</filter>
<radialGradient id="paint0_radial_178_1110" cx="0" cy="0" r="1" gradientUnits="userSpaceOnUse" gradientTransform="translate(241 245.5) rotate(90) scale(194.5 168)">
<stop stop-color="#30A946"/>
<stop offset="1" stop-color="#71E386" stop-opacity="0"/>
</radialGradient>
<clipPath id="clip0_178_1110">
<rect width="200" height="200" fill="white" transform="translate(255 14)"/>
</clipPath>
<clipPath id="clip1_178_1110">
<rect width="490" height="459" fill="white" transform="translate(0 15)"/>
</clipPath>
</defs>
</svg>
