<svg width="490" height="484" viewBox="0 0 490 484" fill="none" xmlns="http://www.w3.org/2000/svg">
<g clip-path="url(#clip0_176_993)">
<path d="M373.784 170.866V174.818C373.784 177.189 373.784 180.351 372.204 182.722C370.623 186.674 366.673 191.416 358.772 192.206C347.711 193.787 344.551 201.691 343.761 203.271C342.97 201.691 339.81 193.787 328.749 192.206C320.848 191.416 316.898 185.883 316.108 181.931C316.108 180.35 316.108 177.979 316.108 175.608V170.866" stroke="#A51898" stroke-width="4" stroke-miterlimit="10"/>
<path d="M396.696 123.443L400.646 125.024C403.017 126.605 405.387 128.186 406.967 129.766C409.337 132.928 411.708 138.46 408.547 146.364C404.597 156.639 409.337 163.753 410.917 164.543C409.337 164.543 400.646 162.962 393.536 171.656C388.795 177.979 382.474 178.77 378.524 177.979C376.154 177.189 373.784 176.399 371.413 174.818L367.463 172.447" stroke="#A51898" stroke-width="4" stroke-miterlimit="10"/>
<path d="M366.673 80.7629L369.833 78.3917C372.203 76.811 374.574 76.0206 377.734 75.2302C381.684 74.4398 388.005 75.2302 392.746 81.5532C399.856 90.2474 408.547 89.457 410.127 88.6666C408.547 90.2474 403.807 96.5704 407.757 106.845C410.917 114.749 408.547 119.491 405.387 123.443C403.807 125.024 401.436 126.605 399.856 128.186L395.906 129.766" stroke="#A51898" stroke-width="4" stroke-miterlimit="10"/>
<path d="M314.527 85.5051V81.5533C314.527 79.1821 314.527 76.0206 316.108 73.6495C317.688 69.6976 321.638 64.9553 329.539 64.1649C340.6 62.5842 343.76 54.6804 344.55 53.0996C345.341 54.6804 348.501 62.5842 359.562 64.1649C367.463 64.9553 371.413 70.488 372.203 74.4398C372.993 76.811 372.993 79.1821 372.993 81.5533L372.203 86.2955" stroke="#A51898" stroke-width="4" stroke-miterlimit="10"/>
<path d="M292.405 132.928L288.455 130.557C286.084 128.976 283.714 127.395 282.134 125.814C279.764 122.653 277.394 117.12 280.554 109.216C284.504 98.9416 279.764 91.8282 278.184 91.0378C279.764 91.0378 288.455 92.6186 295.565 83.9244C300.306 77.6014 306.627 76.811 310.577 77.6014C312.947 78.3917 315.317 79.1821 317.688 80.7629L321.638 83.134" stroke="#A51898" stroke-width="4" stroke-miterlimit="10"/>
<path d="M322.428 175.608L318.478 177.979C316.108 179.56 313.737 180.351 310.577 181.141C306.627 181.931 300.306 181.141 295.565 174.818C288.455 166.124 279.764 166.914 278.184 167.704C279.764 166.124 284.504 159.801 280.554 149.526C277.394 141.622 279.764 136.88 282.924 132.928C284.504 131.347 286.875 129.766 288.455 128.186L292.405 126.605" stroke="#A51898" stroke-width="4" stroke-miterlimit="10"/>
<path d="M344.55 179.56C372.913 179.56 395.906 156.559 395.906 128.186C395.906 99.8122 372.913 76.811 344.55 76.811C316.188 76.811 293.195 99.8122 293.195 128.186C293.195 156.559 316.188 179.56 344.55 179.56Z" stroke="#A51898" stroke-width="4" stroke-miterlimit="10"/>
<path d="M373.784 170.866V174.818C373.784 177.189 373.784 180.351 372.204 182.722C370.623 186.674 366.673 191.416 358.772 192.206C347.711 193.787 344.551 201.691 343.761 203.271C342.97 201.691 339.81 193.787 328.749 192.206C320.848 191.416 316.898 185.883 316.108 181.931C316.108 180.35 316.108 177.979 316.108 175.608V170.866" stroke="#A51898" stroke-width="4" stroke-miterlimit="10"/>
<path d="M373.784 205.643V209.594C373.784 211.966 373.784 215.127 372.204 217.498C370.623 221.45 366.673 226.192 358.772 226.983C347.711 228.564 344.551 236.467 343.761 238.048C342.97 236.467 339.81 228.564 328.749 226.983C320.848 226.192 316.898 220.66 316.108 216.708C316.108 215.127 316.108 212.756 316.108 210.385V205.643" stroke="#A51898" stroke-width="4" stroke-miterlimit="10"/>
<path d="M427.509 140.832L431.46 142.412C433.83 143.993 436.2 145.574 437.78 147.155C440.151 150.316 442.521 155.849 439.36 163.753C435.41 174.027 440.151 181.141 441.731 181.931C440.151 181.931 431.46 180.351 424.349 189.045C419.608 195.368 413.288 196.158 409.337 195.368C406.967 194.577 404.597 193.787 402.227 192.206L398.276 189.835" stroke="#A51898" stroke-width="4" stroke-miterlimit="10"/>
<path d="M398.276 61.7938L401.436 59.4227C403.807 57.8419 406.177 57.0515 409.337 56.2612C413.288 55.4708 419.608 56.2612 424.349 62.5842C431.46 71.2783 440.151 70.488 441.731 69.6976C440.151 71.2783 435.41 77.6014 439.36 87.8763C442.521 95.7801 440.151 100.522 436.99 104.474C435.41 106.055 433.04 107.636 431.46 109.216L427.509 110.797" stroke="#A51898" stroke-width="4" stroke-miterlimit="10"/>
<path d="M315.317 48.3574V44.4055C315.317 42.0344 315.317 38.8728 316.898 36.5017C318.478 31.7594 321.638 27.8075 329.539 26.2268C340.6 24.646 343.76 16.7423 344.55 15.1615C345.341 16.7423 348.501 24.646 359.562 26.2268C367.463 27.0172 371.413 32.5498 372.203 36.5017C372.993 38.8728 372.993 41.244 372.993 43.6151L372.203 48.3574" stroke="#A51898" stroke-width="4" stroke-miterlimit="10"/>
<path d="M262.382 113.168L258.431 111.588C256.061 110.007 253.691 108.426 252.111 106.845C249.741 103.684 247.37 98.1512 250.531 90.2474C254.481 79.9725 249.741 72.8591 248.16 72.0687C249.741 72.0687 258.431 73.6495 265.542 64.9553C270.283 57.0515 276.603 56.2611 280.554 57.0515C282.924 57.8419 285.294 58.6323 287.665 60.213L291.615 62.5842" stroke="#A51898" stroke-width="4" stroke-miterlimit="10"/>
<path d="M291.615 191.416L287.665 193.787C285.294 195.368 282.924 196.158 279.764 196.948C275.813 197.739 269.493 196.948 264.752 190.625C257.641 181.931 248.951 182.722 247.37 183.512C248.951 181.931 253.691 175.608 249.741 165.333C246.58 157.43 248.951 152.687 252.111 148.735C253.691 147.155 256.061 145.574 257.641 143.993L261.592 142.412" stroke="#A51898" stroke-width="4" stroke-miterlimit="10"/>
<path d="M337.44 193.787L335.86 196.948C335.069 199.32 333.489 200.9 331.119 202.481C327.959 204.852 323.218 207.223 316.108 204.852C306.627 201.691 300.306 206.433 299.516 208.014C300.306 207.223 301.096 199.32 292.405 193.787C286.084 189.835 285.294 184.302 286.084 180.35C286.084 177.979 286.874 175.608 288.455 174.027L290.825 170.076" stroke="#A51898" stroke-width="4" stroke-miterlimit="10"/>
<path d="M400.646 165.333L403.017 168.495C404.597 170.866 405.387 172.447 406.177 175.608C406.967 179.56 406.177 185.093 400.646 189.835C392.746 196.948 394.326 204.062 395.116 205.643C393.536 204.852 387.215 200.11 377.734 204.062C370.623 207.223 365.883 204.852 362.722 202.481C361.142 200.9 359.562 199.32 358.772 196.948L357.192 192.997" stroke="#A51898" stroke-width="4" stroke-miterlimit="10"/>
<path d="M406.967 95.7801H410.917C413.288 95.7801 415.658 95.7801 418.028 96.5704C421.979 98.1512 425.929 101.313 426.719 108.426C428.299 118.701 435.41 121.863 436.99 121.863C435.41 122.653 428.299 125.024 426.719 135.299C425.929 142.412 421.189 145.574 418.028 147.155C415.658 147.945 413.288 147.945 411.708 147.945H407.757" stroke="#A51898" stroke-width="4" stroke-miterlimit="10"/>
<path d="M349.291 60.213L350.871 57.0515C351.661 54.6804 353.241 53.0996 355.612 51.5189C358.772 49.1477 363.513 46.7766 370.623 49.9381C380.104 53.89 386.425 48.3574 387.215 47.567C387.215 49.1477 385.635 57.0515 394.326 63.3745C400.646 68.1168 400.646 72.8591 400.646 76.811C400.646 79.1821 399.066 80.7629 398.276 83.134L395.116 85.5051" stroke="#A51898" stroke-width="4" stroke-miterlimit="10"/>
<path d="M290.035 88.6667L288.455 85.5052C286.875 83.134 286.084 80.7629 285.294 78.3918C284.504 74.4399 285.294 68.9072 290.825 64.9553C298.726 58.6323 297.936 50.7285 297.146 49.1478C298.726 49.9381 304.256 55.4708 313.737 50.7285C320.848 47.567 325.589 49.9381 328.749 52.3093C330.329 53.89 331.909 55.4708 332.699 57.8419L334.28 61.7938" stroke="#A51898" stroke-width="4" stroke-miterlimit="10"/>
<path d="M282.924 155.058H278.974C276.603 155.058 274.233 155.058 271.863 154.268C267.912 152.687 263.962 149.526 262.382 142.412C260.802 132.137 253.691 129.766 252.111 128.976C253.691 128.186 260.802 125.024 262.382 114.749C263.172 107.636 267.912 104.474 271.073 102.893C273.443 102.103 275.813 102.103 277.393 102.103H281.344" stroke="#A51898" stroke-width="4" stroke-miterlimit="10"/>
<path d="M396.696 123.443L400.646 125.024C403.017 126.605 405.387 128.186 406.967 129.766C409.337 132.928 411.708 138.46 408.547 146.364C404.597 156.639 409.337 163.753 410.917 164.543C409.337 164.543 400.646 162.962 393.536 171.656C388.795 177.979 382.474 178.77 378.524 177.979C376.154 177.189 373.784 176.399 371.413 174.818L367.463 172.447" stroke="#A51898" stroke-width="4" stroke-miterlimit="10"/>
<path d="M366.673 80.7629L369.833 78.3917C372.203 76.811 374.574 76.0206 377.734 75.2302C381.684 74.4398 388.005 75.2302 392.746 81.5532C399.856 90.2474 408.547 89.457 410.127 88.6666C408.547 90.2474 403.807 96.5704 407.757 106.845C410.917 114.749 408.547 119.491 405.387 123.443C403.807 125.024 401.436 126.605 399.856 128.186L395.906 129.766" stroke="#A51898" stroke-width="4" stroke-miterlimit="10"/>
<path d="M314.527 85.5051V81.5533C314.527 79.1821 314.527 76.0206 316.108 73.6495C317.688 69.6976 321.638 64.9553 329.539 64.1649C340.6 62.5842 343.76 54.6804 344.55 53.0996C345.341 54.6804 348.501 62.5842 359.562 64.1649C367.463 64.9553 371.413 70.488 372.203 74.4398C372.993 76.811 372.993 79.1821 372.993 81.5533L372.203 86.2955" stroke="#A51898" stroke-width="4" stroke-miterlimit="10"/>
<path d="M292.405 132.928L288.455 130.557C286.084 128.976 283.714 127.395 282.134 125.814C279.764 122.653 277.394 117.12 280.554 109.216C284.504 98.9416 279.764 91.8282 278.184 91.0378C279.764 91.0378 288.455 92.6186 295.565 83.9244C300.306 77.6014 306.627 76.811 310.577 77.6014C312.947 78.3917 315.317 79.1821 317.688 80.7629L321.638 83.134" stroke="#A51898" stroke-width="4" stroke-miterlimit="10"/>
<path d="M322.428 175.608L318.478 177.979C316.108 179.56 313.737 180.351 310.577 181.141C306.627 181.931 300.306 181.141 295.565 174.818C288.455 166.124 279.764 166.914 278.184 167.704C279.764 166.124 284.504 159.801 280.554 149.526C277.394 141.622 279.764 136.88 282.924 132.928C284.504 131.347 286.875 129.766 288.455 128.186L292.405 126.605" stroke="#A51898" stroke-width="4" stroke-miterlimit="10"/>
</g>
<g filter="url(#filter0_f_176_993)">
<ellipse cx="241" cy="255.5" rx="168" ry="194.5" fill="url(#paint0_radial_176_993)" fill-opacity="0.8" style="mix-blend-mode:screen"/>
</g>
<g clip-path="url(#clip1_176_993)">
<path d="M487.483 416.839C486.422 416.707 485.495 417.104 484.567 417.501C481.255 419.223 478.472 421.608 475.292 423.33C465.884 428.231 444.684 416.177 448.791 403.99C450.116 400.016 455.152 399.088 459.392 398.426C461.909 398.029 464.824 397.101 465.487 394.584C465.884 392.597 464.559 390.61 462.969 389.418C457.537 385.444 449.851 386.769 443.889 389.683C441.504 390.875 439.251 392.2 436.733 392.862C434.216 393.525 429.181 393.127 428.253 390.743C415.4 359.745 381.612 337.756 371.541 305.831C366.374 289.405 363.194 272.317 358.026 255.758C352.858 239.2 345.968 221.449 331.658 211.647C324.105 206.481 314.697 205.421 305.952 203.036C293.364 199.725 280.776 194.029 270.971 185.418C268.983 179.06 267.923 172.436 267.923 165.681C271.103 164.753 274.018 162.104 275.874 159.322C277.596 156.54 278.656 153.361 279.584 150.314C280.909 145.81 281.174 140.777 281.571 135.875C281.969 136.008 282.499 136.14 282.896 136.14C285.811 136.14 287.799 133.358 288.461 130.577C289.124 127.795 288.726 124.881 289.389 122.099C289.919 119.582 291.111 117.33 291.906 114.945C292.702 112.561 292.834 109.779 291.509 107.527C291.244 107.13 290.846 106.6 290.316 106.468C289.786 106.335 289.256 106.335 288.726 106.468C288.461 106.6 288.196 106.6 287.931 106.732C288.064 102.494 287.799 98.1221 287.136 93.8831C285.811 84.7429 282.896 75.6026 276.801 68.7143C276.669 68.4494 276.404 68.3169 276.271 68.1844C277.199 65.1377 277.596 61.9585 277.596 58.5143C277.596 39.8364 263.021 24.7351 245.133 24.7351C227.112 24.7351 212.669 39.8364 212.669 58.5143C212.669 61.826 213.199 65.1377 213.994 68.1844C213.862 68.3169 213.597 68.5818 213.464 68.7143C207.369 75.6026 204.454 84.7429 203.129 93.8831C202.466 98.1221 202.201 102.494 202.334 106.732C202.069 106.6 201.804 106.468 201.539 106.468C201.009 106.335 200.479 106.203 199.949 106.468C199.419 106.6 199.154 107.13 198.756 107.527C197.431 109.647 197.696 112.429 198.359 114.945C199.154 117.33 200.346 119.714 200.876 122.099C201.406 124.881 201.141 127.795 201.804 130.577C202.466 133.358 204.586 136.14 207.369 136.14C207.899 136.14 208.296 136.008 208.694 135.875C209.224 140.777 209.489 145.81 210.682 150.314C211.609 153.494 212.669 156.673 214.392 159.322C216.114 162.104 219.162 164.753 222.342 165.681C222.342 172.304 221.414 179.06 219.294 185.418C209.356 194.029 196.901 199.592 184.313 203.036C175.568 205.421 166.16 206.481 158.607 211.647C144.297 221.449 137.407 239.2 132.239 255.758C127.071 272.317 124.024 289.273 118.724 305.831C108.653 337.756 74.8648 359.878 62.0119 390.743C60.9519 393.127 56.0493 393.525 53.5317 392.862C51.0141 392.2 48.7615 390.875 46.3765 389.683C40.4138 386.769 32.7285 385.444 27.2959 389.418C25.7058 390.61 24.2483 392.597 24.7783 394.584C25.3083 397.101 28.3559 398.029 30.8735 398.426C34.9811 399.088 40.0163 400.016 41.4738 403.99C45.5814 416.177 24.3808 428.231 14.973 423.33C11.6604 421.608 8.87781 419.223 5.69771 417.501C4.77018 416.971 3.71015 416.574 2.78262 416.839C1.45758 417.104 0.530051 418.429 0.397547 419.886C0.265043 421.21 0.795059 422.668 1.32508 423.86C3.44514 428.364 7.28776 432.073 11.7929 434.192C14.0455 438.564 16.298 442.67 20.8032 444.922C21.2007 457.771 29.946 470.223 41.3413 476.184C52.7367 482.145 65.8546 483.47 78.5749 484C123.229 485.59 198.491 476.052 245.265 466.647C292.039 475.919 367.301 485.59 411.955 484C424.676 483.47 437.793 482.145 449.189 476.184C460.584 470.223 469.329 457.771 469.727 444.922C474.232 442.67 476.352 438.696 478.737 434.192C483.242 432.073 487.085 428.364 489.205 423.86C489.868 422.668 490.265 421.21 490.133 419.886C489.868 418.429 488.94 417.104 487.483 416.839ZM170.798 393.657C139.394 390.213 105.473 396.307 77.1174 410.083C88.3802 399.751 99.6431 389.551 110.773 379.218C120.844 369.945 131.047 360.673 139.394 349.678C155.825 327.953 164.835 299.87 172.52 273.774C171.328 288.081 176.23 302.784 185.903 313.514C190.541 341.332 185.241 369.681 170.798 393.657ZM319.202 393.657C304.759 369.681 299.327 341.332 304.229 313.647C313.902 302.917 318.805 288.213 317.612 273.906C325.298 300.003 334.308 328.086 350.738 349.81C358.954 360.805 369.156 370.078 379.359 379.351C390.622 389.683 401.885 399.883 413.015 410.216C384.659 396.307 350.606 390.213 319.202 393.657Z" fill="#1D0A1C"/>
</g>
<circle cx="245" cy="95" r="8.5" fill="#202DA3" stroke="#6773E5"/>
<circle cx="245" cy="165" r="8.5" fill="#1AC4D7" stroke="#BCF7FF"/>
<circle cx="245" cy="229" r="8.5" fill="#30A946" stroke="#7DDF8F"/>
<circle cx="245" cy="296" r="8.5" fill="#FCE620" stroke="#C4BC6F"/>
<circle cx="245" cy="359" r="8.5" fill="#E86C00" stroke="#E5BB96"/>
<circle cx="245" cy="419" r="8.5" fill="#E30505" stroke="#F87D7D"/>
<g filter="url(#filter1_f_176_993)">
<circle cx="245" cy="24" r="14" fill="#F775EB"/>
</g>
<circle cx="245" cy="24" r="9" fill="#A51898"/>
<defs>
<filter id="filter0_f_176_993" x="54.2" y="42.2" width="373.6" height="426.6" filterUnits="userSpaceOnUse" color-interpolation-filters="sRGB">
<feFlood flood-opacity="0" result="BackgroundImageFix"/>
<feBlend mode="normal" in="SourceGraphic" in2="BackgroundImageFix" result="shape"/>
<feGaussianBlur stdDeviation="9.4" result="effect1_foregroundBlur_176_993"/>
</filter>
<filter id="filter1_f_176_993" x="221.6" y="0.6" width="46.8" height="46.8" filterUnits="userSpaceOnUse" color-interpolation-filters="sRGB">
<feFlood flood-opacity="0" result="BackgroundImageFix"/>
<feBlend mode="normal" in="SourceGraphic" in2="BackgroundImageFix" result="shape"/>
<feGaussianBlur stdDeviation="4.7" result="effect1_foregroundBlur_176_993"/>
</filter>
<radialGradient id="paint0_radial_176_993" cx="0" cy="0" r="1" gradientUnits="userSpaceOnUse" gradientTransform="translate(241 255.5) rotate(90) scale(194.5 168)">
<stop stop-color="#B12B8F"/>
<stop offset="1" stop-color="#BB10FF" stop-opacity="0"/>
</radialGradient>
<clipPath id="clip0_176_993">
<rect width="199.891" height="230" fill="white" transform="translate(245 12)"/>
</clipPath>
<clipPath id="clip1_176_993">
<rect width="490" height="459" fill="white" transform="translate(0 25)"/>
</clipPath>
</defs>
</svg>
