<svg width="490" height="474" viewBox="0 0 490 474" fill="none" xmlns="http://www.w3.org/2000/svg">
<g clip-path="url(#clip0_176_1049)">
<path d="M341.128 38.6914V36.2223C341.128 34.5762 341.128 32.9301 341.951 31.284C342.774 28.8149 345.243 25.5227 350.181 24.6996C357.589 23.8766 359.235 18.1153 360.058 17.2922C360.058 18.1153 362.527 23.8766 369.934 24.6996C374.873 25.5227 377.342 28.8149 378.165 31.284C378.988 32.9301 378.988 34.5762 378.988 36.2223V39.5145" stroke="#1AC4D7" stroke-width="4" stroke-miterlimit="10"/>
<path d="M313.967 51.0371L312.321 48.5679C311.498 46.9219 311.498 45.2758 311.498 43.6297C311.498 41.1605 312.321 37.0453 317.259 34.5762C323.021 30.4609 323.021 24.6996 323.021 23.8766C323.844 24.6996 327.959 28.8149 334.543 26.3457C339.482 24.6996 342.774 27.1688 345.243 28.8149C346.066 29.6379 346.889 31.284 347.712 32.9301L348.535 36.2223" stroke="#1AC4D7" stroke-width="4" stroke-miterlimit="10"/>
<path d="M292.568 72.4363L290.922 70.7902C289.276 69.9671 288.453 68.321 287.63 66.6749C286.807 64.2058 285.984 60.0906 289.276 55.9754C294.214 50.214 291.745 45.2758 290.922 44.4527C291.745 44.4527 297.506 46.9219 303.268 41.9836C307.383 38.6914 311.498 39.5145 313.967 41.1605C315.613 41.9836 316.436 42.8066 318.082 44.4527L319.728 46.9219" stroke="#1AC4D7" stroke-width="4" stroke-miterlimit="10"/>
<path d="M281.868 101.243L279.399 100.42C277.753 99.5968 276.107 98.7738 275.284 97.9507C272.815 95.4816 271.169 92.1894 271.992 87.2511C274.461 79.8437 270.346 75.7285 269.523 74.9054C270.346 74.9054 276.107 74.9054 280.222 69.1441C282.691 64.2059 285.984 63.3828 289.276 63.3828C290.922 63.3828 292.568 64.2059 293.391 65.0289L295.86 66.675" stroke="#1AC4D7" stroke-width="4" stroke-miterlimit="10"/>
<path d="M282.691 130.873H280.222C278.576 130.873 276.93 130.873 275.284 130.049C272.815 129.226 269.523 126.757 268.7 121.819C267.877 114.412 262.115 112.766 261.292 111.942C262.115 111.942 267.877 109.473 268.7 102.066C269.523 97.1277 272.815 94.6585 275.284 93.8355C276.93 93.0124 278.576 93.0125 280.222 93.0125H283.514" stroke="#1AC4D7" stroke-width="4" stroke-miterlimit="10"/>
<path d="M295.037 158.856L292.568 159.679C290.922 160.502 289.276 160.502 287.63 160.502C285.16 160.502 281.045 159.679 278.576 154.741C274.461 148.156 269.523 148.156 267.876 148.979C268.7 148.156 272.815 144.041 271.169 137.457C269.523 132.519 271.992 129.226 273.638 126.757C274.461 125.934 276.107 125.111 277.753 124.288L280.222 123.465" stroke="#1AC4D7" stroke-width="4" stroke-miterlimit="10"/>
<path d="M316.436 179.432L314.79 181.078C313.967 182.724 312.321 183.547 310.675 184.37C308.206 185.193 304.091 186.016 299.975 182.724C294.214 178.609 289.276 180.255 287.63 181.078C288.453 180.255 290.099 175.317 285.984 168.733C282.691 164.617 283.514 160.502 284.337 158.033C285.161 156.387 285.984 155.564 287.63 153.918L290.099 152.272" stroke="#1AC4D7" stroke-width="4" stroke-miterlimit="10"/>
<path d="M345.243 190.132L344.42 192.601C343.597 194.247 342.774 195.893 341.951 196.716C340.305 198.362 337.012 200.831 331.251 199.185C323.844 198.362 319.728 201.654 318.905 203.3C318.905 202.477 318.905 196.716 313.144 192.601C308.206 189.309 307.383 186.016 307.383 182.724C307.383 181.078 308.206 179.432 309.029 177.786L310.675 175.317" stroke="#1AC4D7" stroke-width="4" stroke-miterlimit="10"/>
<path d="M374.873 189.309V191.778C374.873 193.424 374.873 195.07 374.049 196.716C373.226 199.185 370.757 202.477 365.819 203.3C358.412 204.123 356.766 209.885 355.942 210.708C355.942 209.885 353.473 204.123 346.066 203.3C341.128 202.477 338.659 199.185 337.835 196.716C337.012 195.07 337.012 193.424 337.012 191.778V188.486" stroke="#1AC4D7" stroke-width="4" stroke-miterlimit="10"/>
<path d="M402.856 176.963L403.679 179.432C404.502 181.078 404.502 182.724 404.502 184.37C404.502 186.84 403.679 190.955 398.741 193.424C392.156 197.539 392.156 202.477 392.979 204.124C392.156 203.3 388.041 199.185 381.457 200.831C376.519 202.477 373.226 200.008 370.757 198.362C369.934 197.539 369.111 195.893 368.288 194.247L367.465 191.778" stroke="#1AC4D7" stroke-width="4" stroke-miterlimit="10"/>
<path d="M423.432 155.564L425.078 157.21C426.724 158.033 427.547 159.679 428.37 161.325C429.193 163.794 430.016 167.91 426.724 172.025C422.609 177.786 424.255 182.724 425.078 184.37C424.255 183.547 419.317 181.901 412.732 186.017C408.617 189.309 404.502 188.486 402.033 187.663C400.387 186.84 399.564 186.017 397.918 184.37L396.271 181.901" stroke="#1AC4D7" stroke-width="4" stroke-miterlimit="10"/>
<path d="M434.132 127.58L436.601 128.403C438.247 129.226 439.893 130.049 440.716 130.873C442.362 132.519 444.831 135.811 443.185 141.572C441.539 148.979 445.654 152.272 446.477 153.095C445.654 153.095 439.893 153.095 435.778 158.856C433.309 163.794 429.193 164.617 426.724 163.794C425.078 163.794 423.432 162.971 421.786 162.148H420.14" stroke="#1AC4D7" stroke-width="4" stroke-miterlimit="10"/>
<path d="M433.309 97.1276H435.778C437.424 97.1276 439.07 97.1276 440.716 97.9506C443.185 98.7736 446.477 101.243 447.3 106.181C448.123 113.588 453.885 115.235 454.708 116.058C453.885 116.058 448.123 118.527 447.3 125.934C446.477 130.872 443.185 133.342 440.716 134.165C439.07 134.988 437.424 134.988 435.778 134.988H432.486" stroke="#1AC4D7" stroke-width="4" stroke-miterlimit="10"/>
<path d="M420.963 69.9671L423.432 69.1441C425.078 68.321 426.724 68.321 428.37 68.321C430.839 68.321 434.955 69.1441 437.424 74.0824C441.539 80.6667 446.477 80.6667 448.123 79.8437C447.3 79.8437 444.008 83.9589 445.654 90.5433C447.3 95.4815 444.831 98.7737 443.185 101.243C442.362 102.066 440.716 102.889 439.07 103.712L435.778 104.535" stroke="#1AC4D7" stroke-width="4" stroke-miterlimit="10"/>
<path d="M399.564 48.568L401.21 46.9219C402.033 45.2758 403.679 44.4528 405.325 43.6297C407.794 42.8067 411.909 41.9836 416.025 45.2758C421.786 49.391 426.724 47.7449 428.37 46.9219C427.547 47.7449 425.901 52.6832 430.016 59.2676C433.309 63.3828 432.486 67.498 431.662 69.9672C430.839 71.6133 430.016 72.4363 428.37 74.0824L425.901 75.7285" stroke="#1AC4D7" stroke-width="4" stroke-miterlimit="10"/>
<path d="M371.58 37.8684L372.403 35.3992C373.226 33.7532 374.049 32.1071 374.873 31.284C376.519 29.6379 379.811 27.1688 385.572 28.8149C392.979 30.461 396.272 26.3458 397.095 25.5227C397.095 26.3458 397.095 32.1071 402.856 36.2223C407.794 38.6914 408.617 42.8067 407.794 45.2758C407.794 46.9219 406.971 48.568 406.148 50.2141V52.6832" stroke="#1AC4D7" stroke-width="4" stroke-miterlimit="10"/>
<path d="M406.609 175.656C440.365 148.727 445.899 99.5328 418.971 65.7768C392.042 32.0209 342.847 26.4863 309.091 53.4151C275.335 80.3439 269.801 129.539 296.73 163.295C323.658 197.05 372.853 202.585 406.609 175.656Z" stroke="#1AC4D7" stroke-width="4" stroke-miterlimit="10"/>
<path d="M357.589 190.955L324.667 133.342L291.745 75.7284H357.589H424.255L391.333 133.342L357.589 190.955Z" stroke="#1AC4D7" stroke-width="4" stroke-miterlimit="10"/>
<path d="M396.272 114.411C396.272 135.811 378.988 152.272 358.412 152.272C337.012 152.272 320.552 134.988 320.552 114.411C320.552 93.0123 337.835 76.5514 358.412 76.5514C378.988 75.7284 396.272 93.0123 396.272 114.411Z" stroke="#1AC4D7" stroke-width="4" stroke-miterlimit="10"/>
</g>
<g filter="url(#filter0_f_176_1049)">
<ellipse cx="241" cy="245.5" rx="168" ry="194.5" fill="url(#paint0_radial_176_1049)" fill-opacity="0.8" style="mix-blend-mode:screen"/>
</g>
<g clip-path="url(#clip1_176_1049)">
<path d="M487.483 406.839C486.422 406.707 485.495 407.104 484.567 407.501C481.255 409.223 478.472 411.608 475.292 413.33C465.884 418.231 444.684 406.177 448.791 393.99C450.116 390.016 455.152 389.088 459.392 388.426C461.909 388.029 464.824 387.101 465.487 384.584C465.884 382.597 464.559 380.61 462.969 379.418C457.537 375.444 449.851 376.769 443.889 379.683C441.504 380.875 439.251 382.2 436.733 382.862C434.216 383.525 429.181 383.127 428.253 380.743C415.4 349.746 381.612 327.756 371.541 295.831C366.374 279.405 363.194 262.317 358.026 245.758C352.858 229.2 345.968 211.449 331.658 201.647C324.105 196.481 314.697 195.421 305.952 193.036C293.364 189.725 280.776 184.029 270.971 175.418C268.983 169.06 267.923 162.436 267.923 155.681C271.103 154.753 274.018 152.104 275.874 149.322C277.596 146.54 278.656 143.361 279.584 140.314C280.909 135.81 281.174 130.777 281.571 125.875C281.969 126.008 282.499 126.14 282.896 126.14C285.811 126.14 287.799 123.358 288.461 120.577C289.124 117.795 288.726 114.881 289.389 112.099C289.919 109.582 291.111 107.33 291.906 104.945C292.702 102.561 292.834 99.7793 291.509 97.5273C291.244 97.1299 290.846 96.6 290.316 96.4676C289.786 96.3351 289.256 96.3351 288.726 96.4676C288.461 96.6 288.196 96.6 287.931 96.7325C288.064 92.4936 287.799 88.1221 287.136 83.8832C285.811 74.7429 282.896 65.6026 276.801 58.7143C276.669 58.4494 276.404 58.3169 276.271 58.1845C277.199 55.1377 277.596 51.9585 277.596 48.5143C277.596 29.8364 263.021 14.7351 245.133 14.7351C227.112 14.7351 212.669 29.8364 212.669 48.5143C212.669 51.826 213.199 55.1377 213.994 58.1845C213.862 58.3169 213.597 58.5819 213.464 58.7143C207.369 65.6026 204.454 74.7429 203.129 83.8832C202.466 88.1221 202.201 92.4936 202.334 96.7325C202.069 96.6 201.804 96.4676 201.539 96.4676C201.009 96.3351 200.479 96.2026 199.949 96.4676C199.419 96.6 199.154 97.1299 198.756 97.5273C197.431 99.6468 197.696 102.429 198.359 104.945C199.154 107.33 200.346 109.714 200.876 112.099C201.406 114.881 201.141 117.795 201.804 120.577C202.466 123.358 204.586 126.14 207.369 126.14C207.899 126.14 208.296 126.008 208.694 125.875C209.224 130.777 209.489 135.81 210.682 140.314C211.609 143.494 212.669 146.673 214.392 149.322C216.114 152.104 219.162 154.753 222.342 155.681C222.342 162.304 221.414 169.06 219.294 175.418C209.356 184.029 196.901 189.592 184.313 193.036C175.568 195.421 166.16 196.481 158.607 201.647C144.297 211.449 137.407 229.2 132.239 245.758C127.071 262.317 124.024 279.273 118.724 295.831C108.653 327.756 74.8648 349.878 62.0119 380.743C60.9519 383.127 56.0493 383.525 53.5317 382.862C51.0141 382.2 48.7615 380.875 46.3765 379.683C40.4138 376.769 32.7285 375.444 27.2959 379.418C25.7058 380.61 24.2483 382.597 24.7783 384.584C25.3083 387.101 28.3559 388.029 30.8735 388.426C34.9811 389.088 40.0163 390.016 41.4738 393.99C45.5814 406.177 24.3808 418.231 14.973 413.33C11.6604 411.608 8.87781 409.223 5.69771 407.501C4.77018 406.971 3.71015 406.574 2.78262 406.839C1.45758 407.104 0.530051 408.429 0.397547 409.886C0.265043 411.21 0.795059 412.668 1.32508 413.86C3.44514 418.364 7.28776 422.073 11.7929 424.192C14.0455 428.564 16.298 432.67 20.8032 434.922C21.2007 447.771 29.946 460.223 41.3413 466.184C52.7367 472.146 65.8546 473.47 78.5749 474C123.229 475.59 198.491 466.052 245.265 456.647C292.039 465.92 367.301 475.59 411.955 474C424.676 473.47 437.793 472.146 449.189 466.184C460.584 460.223 469.329 447.771 469.727 434.922C474.232 432.67 476.352 428.696 478.737 424.192C483.242 422.073 487.085 418.364 489.205 413.86C489.868 412.668 490.265 411.21 490.133 409.886C489.868 408.429 488.94 407.104 487.483 406.839ZM170.798 383.657C139.394 380.213 105.473 386.307 77.1174 400.083C88.3802 389.751 99.6431 379.551 110.773 369.218C120.844 359.945 131.047 350.673 139.394 339.678C155.825 317.953 164.835 289.87 172.52 263.774C171.328 278.081 176.23 292.784 185.903 303.514C190.541 331.333 185.241 359.681 170.798 383.657ZM319.202 383.657C304.759 359.681 299.327 331.332 304.229 303.647C313.902 292.917 318.805 278.213 317.612 263.907C325.298 290.003 334.308 318.086 350.738 339.81C358.954 350.805 369.156 360.078 379.359 369.351C390.622 379.683 401.885 389.883 413.015 400.216C384.659 386.307 350.606 380.213 319.202 383.657Z" fill="#1D0A1C"/>
</g>
<circle cx="245" cy="85" r="8.5" fill="#202DA3" stroke="#6773E5"/>
<g filter="url(#filter1_f_176_1049)">
<circle cx="245" cy="155" r="14" fill="#519EA8"/>
</g>
<circle cx="245" cy="155" r="9" fill="#1AC4D7"/>
<circle cx="245" cy="219" r="8.5" fill="#30A946" stroke="#7DDF8F"/>
<circle cx="245" cy="286" r="8.5" fill="#FCE620" stroke="#C4BC6F"/>
<circle cx="245" cy="349" r="8.5" fill="#E86C00" stroke="#E5BB96"/>
<circle cx="245" cy="409" r="8.5" fill="#E30505" stroke="#F87D7D"/>
<circle cx="245" cy="14" r="8.5" fill="#A51898" stroke="#F775EB"/>
<defs>
<filter id="filter0_f_176_1049" x="54.2" y="32.2" width="373.6" height="426.6" filterUnits="userSpaceOnUse" color-interpolation-filters="sRGB">
<feFlood flood-opacity="0" result="BackgroundImageFix"/>
<feBlend mode="normal" in="SourceGraphic" in2="BackgroundImageFix" result="shape"/>
<feGaussianBlur stdDeviation="9.4" result="effect1_foregroundBlur_176_1049"/>
</filter>
<filter id="filter1_f_176_1049" x="221.6" y="131.6" width="46.8" height="46.8" filterUnits="userSpaceOnUse" color-interpolation-filters="sRGB">
<feFlood flood-opacity="0" result="BackgroundImageFix"/>
<feBlend mode="normal" in="SourceGraphic" in2="BackgroundImageFix" result="shape"/>
<feGaussianBlur stdDeviation="4.7" result="effect1_foregroundBlur_176_1049"/>
</filter>
<radialGradient id="paint0_radial_176_1049" cx="0" cy="0" r="1" gradientUnits="userSpaceOnUse" gradientTransform="translate(241 245.5) rotate(90) scale(194.5 168)">
<stop stop-color="#1AC4D7"/>
<stop offset="1" stop-color="#5EEFFF" stop-opacity="0"/>
</radialGradient>
<clipPath id="clip0_176_1049">
<rect width="200" height="200" fill="white" transform="translate(258 14)"/>
</clipPath>
<clipPath id="clip1_176_1049">
<rect width="490" height="459" fill="white" transform="translate(0 15)"/>
</clipPath>
</defs>
</svg>
