<svg width="490" height="474" viewBox="0 0 490 474" fill="none" xmlns="http://www.w3.org/2000/svg">
<g clip-path="url(#clip0_178_1304)">
<path d="M355.367 180.924C391.86 180.924 421.443 151.341 421.443 114.848C421.443 78.3554 391.86 48.7722 355.367 48.7722C318.874 48.7722 289.291 78.3554 289.291 114.848C289.291 151.341 318.874 180.924 355.367 180.924Z" stroke="#E86C00" stroke-width="4" stroke-miterlimit="10"/>
<path d="M317.19 60.519V55.3798C317.19 51.7089 317.19 48.7722 318.658 45.1013C320.861 39.9621 325.266 34.0887 335.544 32.6203C350.228 30.4178 353.899 20.1393 354.633 17.9368C355.367 20.1393 359.038 30.4178 373.722 32.6203C384 34.0887 388.405 39.9621 390.608 45.1013C391.342 48.038 392.076 50.9747 391.342 54.6456L390.608 60.519" stroke="#E86C00" stroke-width="4" stroke-miterlimit="10"/>
<path d="M288.557 120.722L284.152 117.785C281.215 116.317 278.279 114.114 276.076 111.177C272.405 106.772 270.203 100.165 273.873 90.6203C279.013 77.4051 272.405 68.595 270.937 67.1267C273.139 67.8608 284.152 69.3292 292.962 57.5824C299.57 49.5064 306.911 48.7722 312.051 49.5064C315.722 50.2406 317.924 51.7089 320.861 53.1773L325.266 56.114" stroke="#E86C00" stroke-width="4" stroke-miterlimit="10"/>
<path d="M326.734 175.051L322.329 177.987C319.392 180.19 316.456 180.924 312.785 181.658C307.646 182.392 299.57 180.924 293.696 172.848C284.886 161.101 273.873 163.304 271.671 163.304C273.139 161.835 279.747 153.76 274.608 139.81C270.937 130.266 273.873 122.924 277.544 119.253C279.747 117.051 281.949 114.848 284.886 113.38L290.025 111.177" stroke="#E86C00" stroke-width="4" stroke-miterlimit="10"/>
<path d="M392.81 169.911V175.051C392.81 178.721 392.81 181.658 391.342 185.329C389.139 190.468 384.734 196.342 374.456 197.81C359.772 200.013 356.101 210.291 355.367 212.494C354.633 210.291 350.962 200.013 336.279 197.81C326 196.342 321.595 190.468 319.393 185.329C318.658 182.392 317.924 179.456 318.658 175.785L319.393 169.911" stroke="#E86C00" stroke-width="4" stroke-miterlimit="10"/>
<path d="M421.443 109.709L426.582 111.912C429.519 113.38 432.456 115.582 434.658 118.519C438.329 122.924 440.532 129.532 436.861 139.076C431.722 152.291 438.329 161.101 439.798 162.57C437.595 161.836 426.582 160.367 417.772 172.114C411.165 180.19 403.823 180.924 398.684 180.19C395.747 179.456 392.81 177.987 389.874 176.519L385.469 173.582" stroke="#E86C00" stroke-width="4" stroke-miterlimit="10"/>
<path d="M383.266 54.6457L388.405 51.709C391.342 49.5065 394.279 48.7723 397.949 48.0381C403.089 47.3039 411.165 48.7723 417.038 56.8482C425.848 68.5951 436.861 66.3925 439.063 66.3925C437.595 67.8609 430.987 76.671 436.127 89.8862C439.798 99.4305 436.861 106.772 433.19 110.443C430.987 112.646 428.785 114.848 425.848 116.317L420.709 118.519" stroke="#E86C00" stroke-width="4" stroke-miterlimit="10"/>
<path d="M355.367 167.709C384.561 167.709 408.228 144.042 408.228 114.848C408.228 85.6539 384.561 61.9873 355.367 61.9873C326.173 61.9873 302.506 85.6539 302.506 114.848C302.506 144.042 326.173 167.709 355.367 167.709Z" stroke="#E86C00" stroke-width="4" stroke-miterlimit="10"/>
<path d="M394.279 100.899C394.279 122.19 376.658 139.81 355.367 139.81C334.076 139.81 316.456 122.19 316.456 100.899C316.456 79.6076 334.076 61.9873 355.367 61.9873C376.658 61.9873 394.279 78.8734 394.279 100.899Z" stroke="#E86C00" stroke-width="4" stroke-miterlimit="10"/>
</g>
<g filter="url(#filter0_f_178_1304)">
<ellipse cx="241" cy="245.5" rx="168" ry="194.5" fill="url(#paint0_radial_178_1304)" fill-opacity="0.8" style="mix-blend-mode:screen"/>
</g>
<g clip-path="url(#clip1_178_1304)">
<path d="M487.483 406.839C486.422 406.707 485.495 407.104 484.567 407.501C481.255 409.223 478.472 411.608 475.292 413.33C465.884 418.231 444.684 406.177 448.791 393.99C450.116 390.016 455.152 389.088 459.392 388.426C461.909 388.029 464.824 387.101 465.487 384.584C465.884 382.597 464.559 380.61 462.969 379.418C457.537 375.444 449.851 376.769 443.889 379.683C441.504 380.875 439.251 382.2 436.733 382.862C434.216 383.525 429.181 383.127 428.253 380.743C415.4 349.746 381.612 327.756 371.541 295.831C366.374 279.405 363.194 262.317 358.026 245.758C352.858 229.2 345.968 211.449 331.658 201.647C324.105 196.481 314.697 195.421 305.952 193.036C293.364 189.725 280.776 184.029 270.971 175.418C268.983 169.06 267.923 162.436 267.923 155.681C271.103 154.753 274.018 152.104 275.874 149.322C277.596 146.54 278.656 143.361 279.584 140.314C280.909 135.81 281.174 130.777 281.571 125.875C281.969 126.008 282.499 126.14 282.896 126.14C285.811 126.14 287.799 123.358 288.461 120.577C289.124 117.795 288.726 114.881 289.389 112.099C289.919 109.582 291.111 107.33 291.906 104.945C292.702 102.561 292.834 99.7793 291.509 97.5273C291.244 97.1299 290.846 96.6 290.316 96.4676C289.786 96.3351 289.256 96.3351 288.726 96.4676C288.461 96.6 288.196 96.6 287.931 96.7325C288.064 92.4936 287.799 88.1221 287.136 83.8832C285.811 74.7429 282.896 65.6026 276.801 58.7143C276.669 58.4494 276.404 58.3169 276.271 58.1845C277.199 55.1377 277.596 51.9585 277.596 48.5143C277.596 29.8364 263.021 14.7351 245.133 14.7351C227.112 14.7351 212.669 29.8364 212.669 48.5143C212.669 51.826 213.199 55.1377 213.994 58.1845C213.862 58.3169 213.597 58.5819 213.464 58.7143C207.369 65.6026 204.454 74.7429 203.129 83.8832C202.466 88.1221 202.201 92.4936 202.334 96.7325C202.069 96.6 201.804 96.4676 201.539 96.4676C201.009 96.3351 200.479 96.2026 199.949 96.4676C199.419 96.6 199.154 97.1299 198.756 97.5273C197.431 99.6468 197.696 102.429 198.359 104.945C199.154 107.33 200.346 109.714 200.876 112.099C201.406 114.881 201.141 117.795 201.804 120.577C202.466 123.358 204.586 126.14 207.369 126.14C207.899 126.14 208.296 126.008 208.694 125.875C209.224 130.777 209.489 135.81 210.682 140.314C211.609 143.494 212.669 146.673 214.392 149.322C216.114 152.104 219.162 154.753 222.342 155.681C222.342 162.304 221.414 169.06 219.294 175.418C209.356 184.029 196.901 189.592 184.313 193.036C175.568 195.421 166.16 196.481 158.607 201.647C144.297 211.449 137.407 229.2 132.239 245.758C127.071 262.317 124.024 279.273 118.724 295.831C108.653 327.756 74.8648 349.878 62.0119 380.743C60.9519 383.127 56.0493 383.525 53.5317 382.862C51.0141 382.2 48.7615 380.875 46.3765 379.683C40.4138 376.769 32.7285 375.444 27.2959 379.418C25.7058 380.61 24.2483 382.597 24.7783 384.584C25.3083 387.101 28.3559 388.029 30.8735 388.426C34.9811 389.088 40.0163 390.016 41.4738 393.99C45.5814 406.177 24.3808 418.231 14.973 413.33C11.6604 411.608 8.87781 409.223 5.69771 407.501C4.77018 406.971 3.71015 406.574 2.78262 406.839C1.45758 407.104 0.530051 408.429 0.397547 409.886C0.265043 411.21 0.795059 412.668 1.32508 413.86C3.44514 418.364 7.28776 422.073 11.7929 424.192C14.0455 428.564 16.298 432.67 20.8032 434.922C21.2007 447.771 29.946 460.223 41.3413 466.184C52.7367 472.146 65.8546 473.47 78.5749 474C123.229 475.59 198.491 466.052 245.265 456.647C292.039 465.92 367.301 475.59 411.955 474C424.676 473.47 437.793 472.146 449.189 466.184C460.584 460.223 469.329 447.771 469.727 434.922C474.232 432.67 476.352 428.696 478.737 424.192C483.242 422.073 487.085 418.364 489.205 413.86C489.868 412.668 490.265 411.21 490.133 409.886C489.868 408.429 488.94 407.104 487.483 406.839ZM170.798 383.657C139.394 380.213 105.473 386.307 77.1174 400.083C88.3802 389.751 99.6431 379.551 110.773 369.218C120.844 359.945 131.047 350.673 139.394 339.678C155.825 317.953 164.835 289.87 172.52 263.774C171.328 278.081 176.23 292.784 185.903 303.514C190.541 331.333 185.241 359.681 170.798 383.657ZM319.202 383.657C304.759 359.681 299.327 331.332 304.229 303.647C313.902 292.917 318.805 278.213 317.612 263.907C325.298 290.003 334.308 318.086 350.738 339.81C358.954 350.805 369.156 360.078 379.359 369.351C390.622 379.683 401.885 389.883 413.015 400.216C384.659 386.307 350.606 380.213 319.202 383.657Z" fill="#1D0A1C"/>
</g>
<circle cx="245" cy="85" r="8.5" fill="#202DA3" stroke="#6773E5"/>
<circle cx="245" cy="155" r="8.5" fill="#1AC4D7" stroke="#BCF7FF"/>
<circle cx="245" cy="219" r="8.5" fill="#30A946" stroke="#7DDF8F"/>
<circle cx="245" cy="286" r="8.5" fill="#FCE620" stroke="#C4BC6F"/>
<g filter="url(#filter1_f_178_1304)">
<circle cx="245" cy="349" r="14" fill="#E5BB96"/>
</g>
<circle cx="245" cy="349" r="9" fill="#E86C00"/>
<circle cx="245" cy="409" r="8.5" fill="#E30505" stroke="#F87D7D"/>
<circle cx="245" cy="14" r="8.5" fill="#A51898" stroke="#F775EB"/>
<defs>
<filter id="filter0_f_178_1304" x="54.2" y="32.2" width="373.6" height="426.6" filterUnits="userSpaceOnUse" color-interpolation-filters="sRGB">
<feFlood flood-opacity="0" result="BackgroundImageFix"/>
<feBlend mode="normal" in="SourceGraphic" in2="BackgroundImageFix" result="shape"/>
<feGaussianBlur stdDeviation="9.4" result="effect1_foregroundBlur_178_1304"/>
</filter>
<filter id="filter1_f_178_1304" x="221.6" y="325.6" width="46.8" height="46.8" filterUnits="userSpaceOnUse" color-interpolation-filters="sRGB">
<feFlood flood-opacity="0" result="BackgroundImageFix"/>
<feBlend mode="normal" in="SourceGraphic" in2="BackgroundImageFix" result="shape"/>
<feGaussianBlur stdDeviation="4.7" result="effect1_foregroundBlur_178_1304"/>
</filter>
<radialGradient id="paint0_radial_178_1304" cx="0" cy="0" r="1" gradientUnits="userSpaceOnUse" gradientTransform="translate(241 245.5) rotate(90) scale(194.5 168)">
<stop stop-color="#E86C00"/>
<stop offset="1" stop-color="#FCB16F" stop-opacity="0"/>
</radialGradient>
<clipPath id="clip0_178_1304">
<rect width="174" height="199.696" fill="white" transform="translate(268 15)"/>
</clipPath>
<clipPath id="clip1_178_1304">
<rect width="490" height="459" fill="white" transform="translate(0 15)"/>
</clipPath>
</defs>
</svg>
