<svg width="50" height="50" viewBox="0 0 50 50" fill="none" xmlns="http://www.w3.org/2000/svg">
<rect x="0.0585938" width="49.9411" height="49.9411" rx="5" fill="white" fill-opacity="0.1"/>
<path d="M33.4848 31.5707C34.0055 32.0914 34.0055 32.9356 33.4848 33.4563C32.9641 33.977 32.1199 33.977 31.5992 33.4563L16.5142 18.3714C15.9935 17.8507 15.9935 17.0065 16.5142 16.4858C17.0349 15.9651 17.8791 15.9651 18.3998 16.4858L33.4848 31.5707Z" fill="white"/>
<path d="M16.5152 31.5707L31.6002 16.4858C32.1209 15.9651 32.9651 15.9651 33.4858 16.4858C34.0065 17.0065 34.0065 17.8507 33.4858 18.3714L18.4008 33.4563C17.8801 33.977 17.0359 33.977 16.5152 33.4563C15.9945 32.9356 15.9945 32.0914 16.5152 31.5707Z" fill="white"/>
</svg>
