<svg width="1280" height="832" viewBox="0 0 1280 832" fill="none" xmlns="http://www.w3.org/2000/svg">
<rect x="-2" width="1282.21" height="832" fill="url(#paint0_linear_163_3404)"/>
<g opacity="0.6" filter="url(#filter0_f_163_3404)">
<path d="M1199.69 242.143C1200.36 242.595 1200.52 243.5 1200.19 244.102C1199.69 244.705 1198.69 244.856 1198.02 244.555C1197.35 244.102 1197.18 243.198 1197.52 242.595C1197.85 241.993 1198.85 241.842 1199.69 242.143Z" fill="#F4DEFA"/>
<path d="M812.42 473.173C813.255 473.625 813.422 474.529 812.921 475.283C812.42 476.036 811.417 476.187 810.582 475.735C809.747 475.283 809.58 474.379 810.081 473.625C810.582 472.872 811.584 472.57 812.42 473.173Z" fill="#F4DEFA"/>
<path d="M721.367 467.597C722.537 468.35 722.871 469.857 722.035 470.912C721.2 471.967 719.529 472.269 718.36 471.515C717.19 470.762 716.856 469.255 717.692 468.2C718.527 467.145 720.198 466.843 721.367 467.597Z" fill="#F4DEFA"/>
<g opacity="0.5712">
<path d="M621.628 488.394C622.797 489.148 623.131 490.655 622.296 491.71C621.461 492.765 619.79 493.066 618.621 492.313C617.451 491.559 617.117 490.052 617.952 488.997C618.788 487.942 620.458 487.641 621.628 488.394Z" fill="#F4DEFA"/>
</g>
<g opacity="0.2044">
<path d="M588.38 435.798C589.717 436.552 590.051 438.21 589.215 439.415C588.38 440.621 586.542 440.922 585.206 440.169C583.869 439.415 583.535 437.758 584.37 436.552C585.206 435.346 587.044 435.045 588.38 435.798Z" fill="#F4DEFA"/>
</g>
<g opacity="0.9521">
<path d="M596.4 406.26C597.736 407.165 598.07 408.822 597.235 410.028C596.233 411.234 594.395 411.535 593.058 410.782C591.722 409.877 591.388 408.22 592.223 407.014C593.225 405.808 595.063 405.507 596.4 406.26Z" fill="#F4DEFA"/>
</g>
<g opacity="0.8985">
<path d="M618.954 455.842C620.458 456.746 620.792 458.555 619.789 459.911C618.787 461.267 616.782 461.569 615.278 460.665C613.775 459.76 613.441 457.952 614.443 456.596C615.446 455.39 617.45 455.089 618.954 455.842Z" fill="#F4DEFA"/>
</g>
<g opacity="0.9328">
<path d="M533.65 354.562C534.986 355.315 535.32 356.973 534.485 358.329C533.65 359.535 531.812 359.836 530.308 359.083C528.972 358.329 528.638 356.672 529.473 355.315C530.475 354.11 532.313 353.808 533.65 354.562Z" fill="#F4DEFA"/>
</g>
<path d="M81.9988 327.377C83.5025 328.282 83.8366 330.09 82.8342 331.296C81.8318 332.652 79.8269 332.953 78.4904 332.049C76.9867 331.145 76.6526 329.337 77.655 328.131C78.6574 326.925 80.6623 326.624 81.9988 327.377Z" fill="#F4DEFA"/>
<path d="M153.838 398.058C155.007 398.811 155.341 400.167 154.506 401.222C153.671 402.277 152.167 402.579 150.998 401.825C149.828 401.072 149.494 399.715 150.329 398.66C151.165 397.605 152.668 397.455 153.838 398.058Z" fill="#F4DEFA"/>
<path d="M180.57 328.734C181.405 329.336 181.739 330.391 181.071 331.145C180.403 331.898 179.233 332.2 178.398 331.597C177.562 330.994 177.228 329.939 177.897 329.186C178.398 328.432 179.567 328.131 180.57 328.734Z" fill="#F4DEFA"/>
<g opacity="0.766">
<path d="M49.4198 244.339C50.2552 244.791 50.4222 245.846 49.921 246.6C49.4198 247.353 48.2503 247.504 47.415 247.052C46.5796 246.6 46.4126 245.545 46.9138 244.791C47.415 244.038 48.5845 243.736 49.4198 244.339Z" fill="#F4DEFA"/>
</g>
<g opacity="0.6208">
<path d="M457.439 384.802C458.609 385.555 458.943 387.062 458.108 388.117C457.272 389.172 455.602 389.473 454.432 388.72C453.263 387.966 452.928 386.459 453.764 385.404C454.599 384.35 456.27 384.048 457.439 384.802Z" fill="#F4DEFA"/>
</g>
<g opacity="0.9716">
<path d="M377.549 386.797C378.384 387.249 378.551 388.304 378.05 389.208C377.549 389.962 376.379 390.112 375.377 389.66C374.542 389.208 374.374 388.153 374.876 387.249C375.544 386.496 376.713 386.345 377.549 386.797Z" fill="#F4DEFA"/>
</g>
<g opacity="0.8655">
<path d="M517.375 416.659C518.21 417.111 518.377 418.015 517.876 418.769C517.375 419.522 516.372 419.673 515.537 419.221C514.702 418.769 514.535 417.864 515.036 417.111C515.537 416.357 516.539 416.207 517.375 416.659Z" fill="#F4DEFA"/>
</g>
<g opacity="0.6978">
<path d="M641.675 491.559C642.844 492.313 643.178 493.82 642.343 494.875C641.508 495.93 639.837 496.231 638.667 495.477C637.498 494.724 637.164 493.217 637.999 492.162C638.835 491.107 640.505 490.806 641.675 491.559Z" fill="#F4DEFA"/>
</g>
<path d="M713.515 524.262C714.35 524.865 714.684 525.92 714.016 526.673C713.348 527.427 712.178 527.728 711.343 527.125C710.508 526.522 710.174 525.468 710.842 524.714C711.51 523.81 712.68 523.659 713.515 524.262Z" fill="#F4DEFA"/>
<g opacity="0.4183">
<path d="M543.772 490.353C544.942 491.107 545.276 492.463 544.441 493.518C543.605 494.573 542.102 494.875 540.932 494.121C539.763 493.367 539.428 492.011 540.264 490.956C541.099 489.901 542.603 489.751 543.772 490.353Z" fill="#F4DEFA"/>
</g>
<g opacity="0.3442">
<path d="M444.366 480.708C445.536 481.462 445.87 482.969 445.034 484.175C444.199 485.229 442.528 485.531 441.192 484.777C440.022 484.024 439.688 482.517 440.524 481.311C441.526 480.256 443.197 479.955 444.366 480.708Z" fill="#F4DEFA"/>
</g>
<g opacity="0.107">
<path d="M416.8 497.436C417.969 498.039 418.136 499.546 417.468 500.451C416.8 501.355 415.129 501.656 414.127 501.053C412.957 500.45 412.79 498.943 413.458 498.039C414.127 496.984 415.63 496.834 416.8 497.436Z" fill="#F4DEFA"/>
</g>
<g opacity="0.8454">
<path d="M469.594 284.19C470.262 284.642 470.429 285.395 469.928 285.998C469.427 286.601 468.592 286.752 467.923 286.3C467.255 285.848 467.088 285.094 467.589 284.491C468.09 283.888 468.926 283.888 469.594 284.19Z" fill="#F4DEFA"/>
</g>
<g opacity="0.8801">
<path d="M496.158 177.19C496.492 177.34 496.659 177.792 496.325 178.093C496.158 178.394 495.657 178.545 495.323 178.244C494.989 178.093 494.822 177.641 495.156 177.34C495.323 177.039 495.657 177.039 496.158 177.19Z" fill="#F4DEFA"/>
</g>
<g opacity="0.2181">
<path d="M341.785 184.876C342.62 185.328 342.787 186.232 342.286 186.986C341.785 187.739 340.783 187.89 339.947 187.438C339.112 186.986 338.945 186.081 339.446 185.328C339.947 184.574 341.117 184.424 341.785 184.876Z" fill="#F4DEFA"/>
</g>
<g opacity="0.995">
<path d="M245.721 216.071C246.389 216.524 246.556 217.428 246.222 218.031C245.721 218.633 244.718 218.784 244.05 218.483C243.382 218.031 243.215 217.126 243.549 216.524C244.05 215.77 245.053 215.619 245.721 216.071Z" fill="#F4DEFA"/>
</g>
<path d="M285.818 360.899C286.487 361.351 286.654 362.255 286.32 362.858C285.818 363.461 284.816 363.611 284.148 363.31C283.479 362.858 283.312 361.953 283.647 361.351C284.148 360.748 285.15 360.446 285.818 360.899Z" fill="#F4DEFA"/>
<g opacity="0.8077">
<path d="M371.857 254.049C373.027 254.803 373.361 256.159 372.526 257.214C371.69 258.269 370.187 258.57 369.017 257.817C367.848 257.063 367.513 255.707 368.349 254.652C369.184 253.597 370.688 253.295 371.857 254.049Z" fill="#F4DEFA"/>
</g>
<g opacity="0.5958">
<path d="M234.86 186.081C235.529 186.533 235.696 187.438 235.362 188.041C234.86 188.643 233.858 188.794 233.19 188.493C232.521 188.041 232.354 187.136 232.689 186.533C233.023 185.931 234.025 185.78 234.86 186.081Z" fill="#F4DEFA"/>
</g>
<g opacity="0.1713">
<path d="M338.945 159.557C339.614 160.009 339.781 160.914 339.447 161.517C338.945 162.119 337.943 162.27 337.275 161.969C336.606 161.517 336.439 160.612 336.774 160.009C337.108 159.407 338.277 159.105 338.945 159.557Z" fill="#F4DEFA"/>
</g>
<g opacity="0.3056">
<path d="M357.825 204.015C358.66 204.618 358.994 205.673 358.326 206.426C357.657 207.18 356.488 207.481 355.653 206.879C354.817 206.276 354.483 205.221 355.151 204.467C355.653 203.714 356.822 203.563 357.825 204.015Z" fill="#F4DEFA"/>
</g>
<g opacity="0.7292">
<path d="M420.643 215.77C421.813 216.524 422.147 217.88 421.312 218.935C420.476 219.99 418.973 220.291 417.803 219.538C416.634 218.784 416.3 217.428 417.135 216.373C417.803 215.318 419.474 215.017 420.643 215.77Z" fill="#F4DEFA"/>
</g>
<g opacity="0.2636">
<path d="M317.561 173.724C318.229 174.176 318.396 175.08 318.062 175.683C317.561 176.286 316.558 176.436 315.89 176.135C315.222 175.683 315.055 174.778 315.389 174.176C315.723 173.422 316.725 173.271 317.561 173.724Z" fill="#F4DEFA"/>
</g>
<path d="M371.692 72.2995C372.36 72.7517 372.527 73.6559 372.193 74.2587C371.691 74.8615 370.689 75.0122 370.021 74.7108C369.353 74.2587 369.185 73.3545 369.52 72.7517C370.021 72.1488 371.023 71.9981 371.692 72.2995Z" fill="#F4DEFA"/>
<path d="M418.805 68.2305C419.473 68.6827 419.64 69.5869 419.306 70.1897C418.805 70.7925 417.802 70.9432 417.134 70.6418C416.466 70.1897 416.299 69.2855 416.633 68.6827C417.134 68.0798 418.137 67.7784 418.805 68.2305Z" fill="#F4DEFA"/>
<path d="M438.52 86.7672C439.188 87.2193 439.355 88.1235 439.021 88.7263C438.52 89.3291 437.517 89.4798 436.849 89.1784C436.181 88.7263 436.014 87.8221 436.348 87.2193C436.849 86.4658 437.851 86.315 438.52 86.7672Z" fill="#F4DEFA"/>
<path d="M463.746 69.8883C464.414 70.3404 464.582 71.2446 464.247 71.8474C463.746 72.4503 462.744 72.601 462.076 72.2996C461.407 71.8474 461.24 70.9432 461.574 70.3404C462.075 69.5869 463.078 69.4362 463.746 69.8883Z" fill="#F4DEFA"/>
<path d="M347.466 0.262879C348.134 0.714991 348.301 1.61922 347.967 2.22203C347.299 2.82485 346.464 2.97556 345.628 2.52344C344.96 2.07133 344.793 1.1671 345.127 0.564287C345.795 -0.0385301 346.798 -0.189234 347.466 0.262879Z" fill="#F4DEFA"/>
<path d="M332.095 17.1418C332.763 17.5939 332.93 18.4981 332.596 19.1009C332.095 19.7037 331.092 19.8544 330.424 19.553C329.756 19.1009 329.589 18.1967 329.923 17.5939C330.424 16.8404 331.427 16.6897 332.095 17.1418Z" fill="#F4DEFA"/>
<path d="M215.817 33.1164C216.485 33.5686 216.652 34.4728 216.318 35.0756C215.817 35.6784 214.814 35.8291 214.146 35.5277C213.478 35.0756 213.31 34.1714 213.645 33.5686C214.146 32.9657 215.148 32.6643 215.817 33.1164Z" fill="#F4DEFA"/>
<path d="M67.6251 18.7996C68.2934 19.2517 68.4605 20.1559 68.1263 20.7587C67.6251 21.3615 66.6227 21.5122 65.9544 21.2108C65.2861 20.7587 65.1191 19.8545 65.4532 19.2517C65.9544 18.4981 66.9568 18.3474 67.6251 18.7996Z" fill="#F4DEFA"/>
<path d="M118.915 22.7179C119.583 23.17 119.75 24.0742 119.416 24.677C118.915 25.2798 117.913 25.4305 117.244 25.1291C116.576 24.677 116.409 23.7728 116.743 23.17C117.244 22.5672 118.247 22.2658 118.915 22.7179Z" fill="#F4DEFA"/>
<path d="M59.1046 69.4362C59.7729 69.8883 59.9399 70.7926 59.6058 71.3954C59.1046 71.9982 58.1022 72.1489 57.4339 71.8475C56.7656 71.3954 56.5986 70.4912 56.9327 69.8883C57.4339 69.1348 58.4363 68.9841 59.1046 69.4362Z" fill="#F4DEFA"/>
<path d="M12.9923 62.3531C13.6606 62.8053 13.8276 63.7095 13.4935 64.3123C12.9923 64.9151 11.9899 65.0658 11.3216 64.7644C10.6533 64.3123 10.4863 63.4081 10.8204 62.8053C11.3216 62.2024 12.324 62.0517 12.9923 62.3531Z" fill="#F4DEFA"/>
<path d="M42.5636 127.457C43.2319 127.909 43.3989 128.814 43.0648 129.416C42.5636 130.019 41.5612 130.17 40.8929 129.869C40.2246 129.416 40.0575 128.512 40.3917 127.909C40.8929 127.156 41.8953 127.005 42.5636 127.457Z" fill="#F4DEFA"/>
<path d="M25.6905 131.526C26.3588 131.978 26.5259 132.883 26.1917 133.485C25.6905 134.088 24.6881 134.239 24.0198 133.938C23.3516 133.485 23.1845 132.581 23.5186 131.978C24.0198 131.225 25.0223 131.074 25.6905 131.526Z" fill="#F4DEFA"/>
<path d="M71.6339 39.2953C72.3022 39.7474 72.4692 40.6517 72.1351 41.2545C71.6339 41.8573 70.6315 42.008 69.9632 41.7066C69.2949 41.2545 69.1279 40.3503 69.462 39.7474C69.9632 38.9939 70.9656 38.8432 71.6339 39.2953Z" fill="#F4DEFA"/>
<path d="M7.31358 102.139C7.98186 102.591 8.14893 103.495 7.81479 104.098C7.31358 104.701 6.31116 104.852 5.64289 104.55C4.97461 104.098 4.80754 103.194 5.14168 102.591C5.64289 101.988 6.47823 101.687 7.31358 102.139Z" fill="#F4DEFA"/>
<path d="M103.879 231.142C104.547 231.594 104.714 232.498 104.38 233.101C103.879 233.704 102.877 233.855 102.208 233.553C101.54 233.101 101.373 232.197 101.707 231.594C102.208 230.991 103.211 230.84 103.879 231.142Z" fill="#F4DEFA"/>
<path d="M56.5987 332.566C57.267 333.018 57.4341 333.922 57.0999 334.525C56.5987 335.128 55.5963 335.279 54.928 334.977C54.2598 334.525 54.0927 333.621 54.4268 333.018C54.928 332.264 55.9305 332.114 56.5987 332.566Z" fill="#F4DEFA"/>
<path d="M94.3565 436.703C95.0248 437.155 95.1919 438.059 94.8578 438.662C94.3566 439.265 93.3541 439.415 92.6859 439.114C92.0176 438.662 91.8505 437.758 92.1846 437.155C92.6859 436.401 93.6883 436.25 94.3565 436.703Z" fill="#F4DEFA"/>
<path d="M153.665 473.776C154.333 474.228 154.5 475.132 154.166 475.735C153.665 476.338 152.663 476.488 151.994 476.187C151.326 475.735 151.159 474.831 151.493 474.228C151.827 473.474 152.83 473.324 153.665 473.776Z" fill="#F4DEFA"/>
<g opacity="0.7855">
<path d="M9.31749 510.698C9.98576 511.151 10.1528 512.055 9.81869 512.658C9.31749 513.26 8.31507 513.411 7.64679 513.11C6.97852 512.658 6.81145 511.753 7.14558 511.151C7.64679 510.397 8.64921 510.246 9.31749 510.698Z" fill="#F4DEFA"/>
</g>
<g opacity="0.6587">
<path d="M46.5743 487.339C47.2426 487.791 47.4097 488.696 47.0755 489.298C46.5743 489.901 45.5719 490.052 44.9036 489.751C44.2354 489.298 44.0683 488.394 44.4024 487.791C44.9036 487.038 45.906 486.887 46.5743 487.339Z" fill="#F4DEFA"/>
</g>
<path d="M78.6515 440.169C79.3197 440.621 79.4868 441.525 79.1527 442.128C78.6515 442.731 77.6491 442.881 76.9808 442.58C76.3125 442.128 76.1454 441.224 76.4796 440.621C76.9808 439.867 77.9832 439.717 78.6515 440.169Z" fill="#F4DEFA"/>
<path d="M76.9815 449.362C77.6498 449.814 77.8169 450.718 77.4828 451.321C76.9815 451.924 75.9791 452.074 75.3109 451.773C74.6426 451.321 74.4755 450.417 74.8096 449.814C75.1438 449.06 76.1462 448.91 76.9815 449.362Z" fill="#F4DEFA"/>
<g opacity="0.426">
<path d="M32.7071 520.946C33.3754 521.398 33.5425 522.303 33.2083 522.905C32.7071 523.508 31.7047 523.659 31.0364 523.358C30.3682 522.905 30.2011 522.001 30.5352 521.398C31.0364 520.796 32.0389 520.494 32.7071 520.946Z" fill="#F4DEFA"/>
</g>
<g opacity="0.1658">
<path d="M73.9747 548.073C74.643 548.525 74.8101 549.429 74.4759 550.032C73.9747 550.635 72.9723 550.786 72.304 550.484C71.6357 550.032 71.4687 549.128 71.8028 548.525C72.304 547.772 73.3064 547.621 73.9747 548.073Z" fill="#F4DEFA"/>
</g>
<g opacity="0.1779">
<path d="M52.589 542.346C53.2573 542.798 53.4243 543.703 53.0902 544.306C52.589 544.908 51.5866 545.059 50.9183 544.758C50.25 544.306 50.0829 543.401 50.4171 542.798C50.9183 542.045 51.9207 541.894 52.589 542.346Z" fill="#F4DEFA"/>
</g>
<g opacity="0.3975">
<path d="M102.04 519.741C102.708 520.193 102.875 521.097 102.541 521.7C102.04 522.303 101.038 522.453 100.369 522.152C99.7012 521.7 99.5341 520.796 99.8682 520.193C100.369 519.439 101.372 519.289 102.04 519.741Z" fill="#F4DEFA"/>
</g>
<g opacity="0.1677">
<path d="M65.4523 545.21C66.1205 545.662 66.2876 546.566 65.9535 547.169C65.4523 547.772 64.4498 547.922 63.7816 547.621C63.1133 547.169 62.9462 546.265 63.2804 545.662C63.7816 545.059 64.6169 544.758 65.4523 545.21Z" fill="#F4DEFA"/>
</g>
<g opacity="0.1133">
<path d="M74.6417 565.705C75.31 566.157 75.4771 567.062 75.1429 567.665C74.6417 568.267 73.6393 568.418 72.971 568.117C72.3027 567.664 72.1357 566.76 72.4698 566.157C72.971 565.555 73.8064 565.404 74.6417 565.705Z" fill="#F4DEFA"/>
</g>
<g opacity="0.3335">
<path d="M68.4601 508.589C69.1283 509.041 69.2954 509.945 68.9613 510.548C68.4601 511.151 67.4576 511.301 66.7894 511C66.1211 510.548 65.954 509.644 66.2882 509.041C66.7894 508.287 67.6247 508.137 68.4601 508.589Z" fill="#F4DEFA"/>
</g>
<g opacity="0.4937">
<path d="M70.6319 493.518C71.3002 493.97 71.4673 494.874 71.1332 495.477C70.6319 496.08 69.6295 496.231 68.9613 495.929C68.293 495.477 68.1259 494.573 68.46 493.97C68.9612 493.367 69.9637 493.217 70.6319 493.518Z" fill="#F4DEFA"/>
</g>
<g opacity="0.7598">
<path d="M145.312 721.534C145.98 721.986 146.147 722.89 145.813 723.493C145.312 724.096 144.309 724.246 143.641 723.945C142.973 723.493 142.806 722.589 143.14 721.986C143.474 721.232 144.476 721.082 145.312 721.534Z" fill="#F4DEFA"/>
</g>
<path d="M9.48448 762.827C10.1528 763.279 10.3198 764.183 9.98569 764.786C9.48448 765.389 8.48206 765.539 7.81379 765.238C7.14551 764.786 6.97844 763.882 7.31258 763.279C7.81379 762.525 8.8162 762.375 9.48448 762.827Z" fill="#F4DEFA"/>
<g opacity="0.7634">
<path d="M91.8507 780.761C92.519 781.213 92.686 782.117 92.3519 782.72C91.8507 783.323 90.8483 783.473 90.18 783.172C89.5117 782.72 89.3446 781.816 89.6788 781.213C90.18 780.459 91.1824 780.308 91.8507 780.761Z" fill="#F4DEFA"/>
</g>
<g opacity="0.6922">
<path d="M142.473 771.869C143.141 772.321 143.308 773.225 142.974 773.828C142.473 774.431 141.47 774.582 140.802 774.28C140.134 773.828 139.967 772.924 140.301 772.321C140.802 771.567 141.637 771.417 142.473 771.869Z" fill="#F4DEFA"/>
</g>
<path d="M304.529 750.62C305.198 751.072 305.365 751.976 305.031 752.579C304.529 753.182 303.527 753.332 302.859 753.031C302.19 752.579 302.023 751.675 302.358 751.072C302.859 750.318 303.861 750.168 304.529 750.62Z" fill="#F4DEFA"/>
<path d="M322.238 797.79C322.907 798.242 323.074 799.146 322.74 799.749C322.238 800.352 321.236 800.503 320.568 800.201C319.899 799.9 319.732 798.845 320.066 798.242C320.568 797.489 321.57 797.338 322.238 797.79Z" fill="#F4DEFA"/>
<path d="M606.256 741.276C606.59 741.427 606.59 741.879 606.423 742.03C606.256 742.331 605.755 742.331 605.588 742.18C605.421 742.03 605.254 741.578 605.421 741.427C605.588 741.125 605.922 741.125 606.256 741.276Z" fill="#F4DEFA"/>
<path d="M649.862 684.31C650.531 684.762 650.698 685.666 650.364 686.269C649.862 686.872 648.86 687.022 648.192 686.721C647.523 686.269 647.356 685.365 647.69 684.762C648.192 684.008 649.194 683.858 649.862 684.31Z" fill="#F4DEFA"/>
<path d="M556.637 715.807C557.305 716.259 557.472 717.163 557.138 717.766C556.637 718.369 555.634 718.519 554.966 718.218C554.298 717.766 554.131 716.862 554.465 716.259C554.799 715.656 555.801 715.355 556.637 715.807Z" fill="#F4DEFA"/>
<path d="M477.612 732.385C478.281 732.837 478.448 733.741 478.114 734.344C477.612 734.946 476.61 735.097 475.942 734.796C475.273 734.344 475.106 733.439 475.441 732.837C475.942 732.083 476.944 731.932 477.612 732.385Z" fill="#F4DEFA"/>
<path d="M551.456 798.393C552.124 798.845 552.292 799.749 551.957 800.352C551.456 800.955 550.454 801.106 549.785 800.804C549.117 800.352 548.95 799.448 549.284 798.845C549.785 798.092 550.788 797.941 551.456 798.393Z" fill="#F4DEFA"/>
<path d="M587.712 740.824C588.213 741.125 588.38 741.728 588.046 742.18C587.712 742.632 587.043 742.783 586.542 742.482C586.041 742.18 585.874 741.577 586.208 741.125C586.542 740.673 587.21 740.523 587.712 740.824Z" fill="#F4DEFA"/>
<path d="M636.161 726.658C636.662 726.959 636.829 727.713 636.495 728.165C636.161 728.617 635.326 728.768 634.824 728.466C634.323 728.165 634.156 727.411 634.49 726.959C634.824 726.507 635.493 726.356 636.161 726.658Z" fill="#F4DEFA"/>
<path d="M573.512 771.718C574.18 772.17 574.347 773.075 574.013 773.678C573.512 774.28 572.509 774.431 571.841 774.13C571.173 773.678 571.006 772.773 571.34 772.171C571.841 771.417 572.844 771.266 573.512 771.718Z" fill="#F4DEFA"/>
<path d="M578.022 792.365C578.69 792.817 578.857 793.721 578.523 794.324C578.022 794.927 577.019 795.078 576.351 794.776C575.683 794.324 575.516 793.42 575.85 792.817C576.184 792.063 577.186 791.913 578.022 792.365Z" fill="#F4DEFA"/>
<path d="M630.649 778.651C631.317 778.952 631.484 779.706 630.983 780.308C630.649 780.911 629.813 781.062 629.145 780.61C628.477 780.308 628.31 779.555 628.811 778.952C629.145 778.349 629.98 778.349 630.649 778.651Z" fill="#F4DEFA"/>
<path d="M691.797 767.197C692.298 767.499 692.465 768.252 692.131 768.704C691.797 769.156 690.961 769.307 690.46 769.006C689.959 768.704 689.792 767.951 690.126 767.499C690.46 767.046 691.128 766.896 691.797 767.197Z" fill="#F4DEFA"/>
<path d="M636.329 829.438C636.997 829.89 637.165 830.794 636.83 831.397C636.329 832 635.327 832.151 634.658 831.849C633.99 831.397 633.823 830.493 634.157 829.89C634.491 829.137 635.494 828.986 636.329 829.438Z" fill="#F4DEFA"/>
<path d="M658.883 820.848C659.551 821.3 659.718 822.204 659.384 822.807C658.883 823.41 657.88 823.56 657.212 823.259C656.544 822.807 656.377 821.903 656.711 821.3C657.212 820.546 658.215 820.396 658.883 820.848Z" fill="#F4DEFA"/>
<path d="M711.01 814.368C711.678 814.82 711.845 815.724 711.511 816.327C711.01 816.93 710.007 817.08 709.339 816.779C708.671 816.327 708.504 815.423 708.838 814.82C709.172 814.066 710.175 813.916 711.01 814.368Z" fill="#F4DEFA"/>
<g opacity="0.9881">
<path d="M1213.55 748.208C1214.22 748.661 1214.39 749.565 1214.05 750.168C1213.55 750.77 1212.55 750.921 1211.88 750.62C1211.21 750.168 1211.05 749.263 1211.38 748.661C1211.88 747.907 1212.89 747.756 1213.55 748.208Z" fill="#F4DEFA"/>
</g>
<g opacity="0.9698">
<path d="M1054 643.77C1054.67 644.222 1054.84 645.127 1054.5 645.729C1054 646.332 1053 646.483 1052.33 646.181C1051.66 645.729 1051.5 644.825 1051.83 644.222C1052.33 643.469 1053.33 643.318 1054 643.77Z" fill="#F4DEFA"/>
</g>
<path d="M1126.68 675.72C1127.35 676.172 1127.51 677.076 1127.18 677.679C1126.68 678.282 1125.68 678.432 1125.01 678.131C1124.34 677.679 1124.17 676.775 1124.51 676.172C1125.01 675.418 1125.84 675.268 1126.68 675.72Z" fill="#F4DEFA"/>
<path d="M1119.66 716.108C1120.33 716.56 1120.5 717.465 1120.16 718.068C1119.66 718.67 1118.66 718.821 1117.99 718.52C1117.32 718.068 1117.16 717.163 1117.49 716.56C1117.99 715.807 1118.99 715.656 1119.66 716.108Z" fill="#F4DEFA"/>
<g opacity="0.3407">
<path d="M1093.43 751.976C1094.1 752.428 1094.27 753.332 1093.93 753.935C1093.43 754.538 1092.43 754.688 1091.76 754.387C1091.09 753.935 1090.92 753.031 1091.26 752.428C1091.76 751.674 1092.6 751.524 1093.43 751.976Z" fill="#F4DEFA"/>
</g>
<g opacity="0.1215">
<path d="M1105.63 772.773C1106.3 773.225 1106.46 774.129 1106.13 774.732C1105.63 775.335 1104.63 775.486 1103.96 775.184C1103.29 774.732 1103.12 773.828 1103.46 773.225C1103.96 772.472 1104.96 772.321 1105.63 772.773Z" fill="#F4DEFA"/>
</g>
<g opacity="0.4028">
<path d="M1068.87 754.236C1069.54 754.689 1069.71 755.593 1069.37 756.196C1068.87 756.798 1067.87 756.949 1067.2 756.648C1066.53 756.196 1066.37 755.291 1066.7 754.689C1067.2 754.086 1068.04 753.784 1068.87 754.236Z" fill="#F4DEFA"/>
</g>
<g opacity="0.7828">
<path d="M1134.03 732.987C1134.7 733.439 1134.86 734.343 1134.53 734.946C1134.03 735.549 1133.03 735.7 1132.36 735.398C1131.69 734.946 1131.52 734.042 1131.86 733.439C1132.36 732.686 1133.36 732.535 1134.03 732.987Z" fill="#F4DEFA"/>
</g>
<g opacity="0.6629">
<path d="M1150.57 743.838C1151.24 744.29 1151.4 745.194 1151.07 745.797C1150.57 746.4 1149.57 746.551 1148.9 746.249C1148.23 745.797 1148.06 744.893 1148.4 744.29C1148.9 743.537 1149.9 743.386 1150.57 743.838Z" fill="#F4DEFA"/>
</g>
<g opacity="0.8131">
<path d="M1176.63 739.92C1177.3 740.372 1177.47 741.276 1177.13 741.879C1176.63 742.481 1175.63 742.632 1174.96 742.331C1174.29 741.879 1174.12 740.974 1174.46 740.372C1174.96 739.618 1175.96 739.467 1176.63 739.92Z" fill="#F4DEFA"/>
</g>
<g opacity="0.9946">
<path d="M1191.33 724.699C1192 725.151 1192.17 726.055 1191.84 726.658C1191.33 727.261 1190.33 727.412 1189.66 727.11C1189 726.658 1188.83 725.754 1189.16 725.151C1189.66 724.397 1190.67 724.247 1191.33 724.699Z" fill="#F4DEFA"/>
</g>
<path d="M1222.08 732.686C1222.74 733.138 1222.91 734.042 1222.58 734.645C1222.24 735.248 1221.07 735.398 1220.4 735.097C1219.74 734.645 1219.57 733.741 1219.9 733.138C1220.4 732.384 1221.41 732.234 1222.08 732.686Z" fill="#F4DEFA"/>
<path d="M1248.14 769.006C1248.81 769.458 1248.97 770.362 1248.64 770.965C1248.14 771.568 1247.14 771.718 1246.47 771.417C1245.8 770.965 1245.63 770.061 1245.97 769.458C1246.47 768.855 1247.47 768.554 1248.14 769.006Z" fill="#F4DEFA"/>
<g opacity="0.089722">
<path d="M1090.42 780.158C1091.09 780.61 1091.26 781.514 1090.92 782.117C1090.42 782.72 1089.42 782.87 1088.75 782.569C1088.08 782.117 1087.92 781.213 1088.25 780.61C1088.75 780.007 1089.75 779.706 1090.42 780.158Z" fill="#F4DEFA"/>
</g>
<path d="M968.462 730.727C969.13 731.179 969.297 732.083 968.963 732.686C968.462 733.289 967.46 733.439 966.791 733.138C966.123 732.686 965.956 731.782 966.29 731.179C966.791 730.425 967.627 730.274 968.462 730.727Z" fill="#F4DEFA"/>
<path d="M960.777 690.79C961.446 691.242 961.613 692.147 961.279 692.749C960.777 693.352 959.775 693.503 959.107 693.202C958.438 692.749 958.271 691.845 958.606 691.242C959.107 690.489 960.109 690.338 960.777 690.79Z" fill="#F4DEFA"/>
<path d="M945.408 729.069C946.077 729.521 946.244 730.425 945.909 731.028C945.408 731.631 944.406 731.782 943.738 731.48C943.069 731.028 942.902 730.124 943.236 729.521C943.738 728.918 944.74 728.617 945.408 729.069Z" fill="#F4DEFA"/>
<path d="M1239.12 391.943C1239.78 392.396 1239.95 393.3 1239.62 393.903C1239.12 394.505 1238.11 394.656 1237.44 394.355C1236.78 393.903 1236.61 392.998 1236.94 392.396C1237.44 391.642 1238.28 391.491 1239.12 391.943Z" fill="#F4DEFA"/>
<path d="M1279.55 311.166C1280.22 311.618 1280.38 312.522 1280.05 313.125C1279.55 313.728 1278.54 313.879 1277.88 313.577C1277.21 313.125 1277.04 312.221 1277.38 311.618C1277.88 310.865 1278.88 310.714 1279.55 311.166Z" fill="#F4DEFA"/>
<path d="M1185.99 233.855C1186.66 234.307 1186.82 235.06 1186.32 235.814C1185.82 236.417 1184.99 236.567 1184.15 236.115C1183.48 235.663 1183.32 234.91 1183.82 234.156C1184.32 233.553 1185.32 233.402 1185.99 233.855Z" fill="#F4DEFA"/>
<g opacity="0.881">
<path d="M1184.65 193.014C1184.99 193.164 1185.15 193.616 1184.82 193.917C1184.65 194.218 1184.15 194.369 1183.82 194.068C1183.48 193.917 1183.31 193.465 1183.65 193.164C1183.82 193.014 1184.32 192.863 1184.65 193.014Z" fill="#F4DEFA"/>
</g>
<g opacity="0.3999">
<path d="M1188.33 170.559C1188.99 171.011 1189.16 171.764 1188.66 172.367C1188.16 172.97 1187.32 173.121 1186.65 172.669C1185.99 172.217 1185.82 171.463 1186.32 170.86C1186.65 170.408 1187.66 170.257 1188.33 170.559Z" fill="#F4DEFA"/>
</g>
<path d="M1271.86 148.857C1272.53 149.31 1272.7 150.214 1272.36 150.817C1271.86 151.419 1270.86 151.57 1270.19 151.269C1269.52 150.817 1269.36 149.912 1269.69 149.31C1270.19 148.707 1271.19 148.405 1271.86 148.857Z" fill="#F4DEFA"/>
<g opacity="0.9949">
<path d="M1253.48 131.978C1254.15 132.431 1254.32 133.335 1253.98 133.938C1253.48 134.54 1252.48 134.691 1251.81 134.39C1251.14 133.938 1250.98 133.033 1251.31 132.431C1251.81 131.677 1252.82 131.526 1253.48 131.978Z" fill="#F4DEFA"/>
</g>
<g opacity="0.6899">
<path d="M1230.26 112.538C1230.93 112.99 1231.1 113.894 1230.76 114.497C1230.26 115.1 1229.26 115.25 1228.59 114.949C1227.92 114.497 1227.76 113.592 1228.09 112.99C1228.59 112.236 1229.59 112.085 1230.26 112.538Z" fill="#F4DEFA"/>
</g>
<g opacity="0.6101">
<path d="M1207.54 76.0672C1208.21 76.5193 1208.37 77.4235 1208.04 78.0263C1207.54 78.6292 1206.54 78.7799 1205.87 78.4785C1205.2 78.0263 1205.03 77.1221 1205.37 76.5193C1205.87 75.9165 1206.7 75.6151 1207.54 76.0672Z" fill="#F4DEFA"/>
</g>
<g opacity="0.9324">
<path d="M1136.37 47.4333C1137.04 47.8854 1137.2 48.7897 1136.87 49.3925C1136.37 49.9953 1135.37 50.146 1134.7 49.8446C1134.03 49.3925 1133.86 48.4883 1134.2 47.8854C1134.53 47.2826 1135.7 46.9812 1136.37 47.4333Z" fill="#F4DEFA"/>
</g>
<g opacity="0.7558">
<path d="M1023.26 90.9869C1023.93 91.439 1024.1 92.3432 1023.76 92.9461C1023.26 93.5489 1022.26 93.6996 1021.59 93.3982C1020.92 92.946 1020.76 92.0418 1021.09 91.439C1021.59 90.8362 1022.59 90.5348 1023.26 90.9869Z" fill="#F4DEFA"/>
</g>
<path d="M1072.88 45.1728C1073.55 45.6249 1073.72 46.5291 1073.38 47.1319C1072.88 47.7347 1071.88 47.8854 1071.21 47.584C1070.54 47.1319 1070.37 46.2277 1070.71 45.6249C1071.21 44.8713 1072.21 44.7206 1072.88 45.1728Z" fill="#F4DEFA"/>
<g opacity="0.7067">
<path d="M1082.4 84.5065C1083.07 84.9586 1083.24 85.8629 1082.9 86.4657C1082.4 87.0685 1081.4 87.2192 1080.73 86.9178C1080.06 86.4657 1079.9 85.5615 1080.23 84.9586C1080.56 84.2051 1081.57 84.0544 1082.4 84.5065Z" fill="#F4DEFA"/>
</g>
<g opacity="0.5053">
<path d="M1055.17 105.605C1055.84 106.057 1056.01 106.962 1055.67 107.564C1055.17 108.167 1054.17 108.318 1053.5 108.016C1052.83 107.564 1052.67 106.66 1053 106.057C1053.34 105.455 1054.34 105.153 1055.17 105.605Z" fill="#F4DEFA"/>
</g>
<g opacity="0.1406">
<path d="M1123.84 115.853C1124.51 116.305 1124.67 117.209 1124.34 117.812C1123.84 118.415 1122.83 118.566 1122.17 118.264C1121.5 117.812 1121.33 116.908 1121.67 116.305C1122.17 115.552 1123 115.401 1123.84 115.853Z" fill="#F4DEFA"/>
</g>
<path d="M959.441 143.432C960.109 143.884 960.276 144.788 959.942 145.391C959.441 145.994 958.438 146.145 957.77 145.843C957.102 145.391 956.934 144.487 957.269 143.884C957.77 143.13 958.772 142.98 959.441 143.432Z" fill="#F4DEFA"/>
<path d="M665.399 390.888C666.067 391.341 666.234 392.094 665.733 392.697C665.232 393.3 664.396 393.45 663.728 392.998C663.06 392.546 662.893 391.793 663.394 391.19C663.895 390.738 664.73 390.587 665.399 390.888Z" fill="#F4DEFA"/>
<path d="M95.0302 342.448C96.5338 343.352 96.868 345.16 95.8656 346.667C94.8631 348.024 92.8583 348.325 91.1876 347.421C89.684 346.517 89.3499 344.708 90.3523 343.201C91.5218 341.845 93.5266 341.543 95.0302 342.448Z" fill="#F4DEFA"/>
<g opacity="0.8346">
<path d="M15.8383 275.384C16.8407 275.987 17.1749 277.193 16.5066 278.097C15.8383 279.001 14.5018 279.303 13.4993 278.7C12.4969 278.097 12.1628 276.891 12.8311 275.987C13.3323 275.083 14.8359 274.782 15.8383 275.384Z" fill="#F4DEFA"/>
</g>
<g opacity="0.8779">
<path d="M82.333 267.698C83.3354 268.301 83.5024 269.507 82.8342 270.26C82.1659 271.164 80.8293 271.315 79.994 270.712C78.9915 270.11 78.8245 268.904 79.4928 268.15C79.994 267.397 81.3306 267.095 82.333 267.698Z" fill="#F4DEFA"/>
</g>
<path d="M783.684 403.849C784.686 404.452 784.853 405.507 784.185 406.411C783.516 407.315 782.347 407.466 781.345 406.863C780.342 406.26 780.175 405.205 780.843 404.301C781.512 403.548 782.848 403.246 783.684 403.849Z" fill="#F4DEFA"/>
<path d="M103.835 671.793C104.67 672.245 104.837 673.15 104.336 673.903C103.835 674.657 102.832 674.807 101.997 674.355C101.162 673.903 100.995 672.999 101.496 672.245C102.164 671.492 103.166 671.341 103.835 671.793Z" fill="#F4DEFA"/>
<path d="M815.594 449.211C816.429 449.663 816.596 450.718 816.095 451.472C815.594 452.225 814.424 452.376 813.589 451.924C812.753 451.471 812.586 450.417 813.088 449.663C813.589 448.91 814.758 448.608 815.594 449.211Z" fill="#F4DEFA"/>
<path d="M896.79 389.231C897.458 389.683 897.626 390.587 897.291 391.19C896.79 391.793 895.788 391.943 895.12 391.642C894.451 391.19 894.284 390.286 894.618 389.683C895.119 389.08 896.122 388.779 896.79 389.231Z" fill="#F4DEFA"/>
<path d="M926.194 351.253C926.863 351.705 927.03 352.609 926.696 353.212C926.194 353.815 925.192 353.966 924.524 353.664C923.855 353.212 923.688 352.308 924.023 351.705C924.524 350.952 925.526 350.801 926.194 351.253Z" fill="#F4DEFA"/>
<path d="M872.063 257.214C872.731 257.666 872.898 258.57 872.564 259.173C872.063 259.776 871.06 259.926 870.392 259.625C869.724 259.173 869.557 258.269 869.891 257.666C870.392 257.063 871.394 256.912 872.063 257.214Z" fill="#F4DEFA"/>
<path d="M909.32 212.003C909.989 212.455 910.156 213.359 909.822 213.962C909.32 214.565 908.318 214.715 907.65 214.414C906.982 213.962 906.814 213.057 907.148 212.455C907.65 211.701 908.652 211.55 909.32 212.003Z" fill="#F4DEFA"/>
<g opacity="0.5379">
<path d="M988.846 270.928C989.514 271.38 989.681 272.284 989.347 272.887C988.846 273.49 987.843 273.64 987.175 273.339C986.507 272.887 986.34 271.983 986.674 271.38C987.008 270.626 988.01 270.476 988.846 270.928Z" fill="#F4DEFA"/>
</g>
<g opacity="0.7473">
<path d="M1046.49 420.426C1047.15 420.879 1047.32 421.783 1046.99 422.386C1046.49 422.988 1045.48 423.139 1044.82 422.838C1044.15 422.386 1043.98 421.481 1044.31 420.879C1044.82 420.276 1045.82 419.974 1046.49 420.426Z" fill="#F4DEFA"/>
</g>
<g opacity="0.4628">
<path d="M1036.46 523.358C1037.13 523.81 1037.29 524.714 1036.96 525.317C1036.46 525.92 1035.46 526.07 1034.79 525.769C1034.12 525.317 1033.95 524.413 1034.29 523.81C1034.79 523.056 1035.79 522.905 1036.46 523.358Z" fill="#F4DEFA"/>
</g>
<g opacity="0.201">
<path d="M1077.22 496.231C1077.89 496.683 1078.06 497.587 1077.73 498.19C1077.22 498.793 1076.22 498.943 1075.55 498.642C1074.89 498.19 1074.72 497.286 1075.05 496.683C1075.55 495.929 1076.39 495.779 1077.22 496.231Z" fill="#F4DEFA"/>
</g>
<g opacity="0.5161">
<path d="M1052.67 453.581C1053.34 454.034 1053.5 454.938 1053.17 455.541C1052.67 456.143 1051.66 456.294 1051 455.993C1050.33 455.541 1050.16 454.636 1050.5 454.034C1051 453.28 1052 453.129 1052.67 453.581Z" fill="#F4DEFA"/>
</g>
<g opacity="0.9764">
<path d="M982.498 471.214C983.166 471.666 983.333 472.57 982.999 473.173C982.498 473.776 981.496 473.927 980.827 473.625C980.159 473.324 979.992 472.269 980.326 471.666C980.827 470.912 981.83 470.762 982.498 471.214Z" fill="#F4DEFA"/>
</g>
<path d="M991.352 514.918C992.02 515.37 992.187 516.274 991.853 516.877C991.352 517.48 990.349 517.631 989.681 517.329C989.013 516.877 988.846 515.973 989.18 515.37C989.681 514.617 990.683 514.466 991.352 514.918Z" fill="#F4DEFA"/>
<g opacity="0.2926">
<path d="M1051.33 529.537C1052 529.989 1052.17 530.893 1051.83 531.496C1051.5 532.099 1050.33 532.249 1049.66 531.948C1048.99 531.496 1048.82 530.591 1049.16 529.989C1049.66 529.235 1050.66 529.084 1051.33 529.537Z" fill="#F4DEFA"/>
</g>
<g opacity="0.8331">
<path d="M1003.72 501.656C1004.38 502.108 1004.55 503.013 1004.22 503.615C1003.71 504.218 1002.71 504.369 1002.04 504.067C1001.38 503.615 1001.21 502.711 1001.54 502.108C1002.04 501.355 1003.05 501.204 1003.72 501.656Z" fill="#F4DEFA"/>
</g>
<g opacity="0.5947">
<path d="M1026.94 478.9C1027.6 479.352 1027.77 480.256 1027.44 480.859C1026.94 481.462 1025.93 481.612 1025.27 481.311C1024.6 480.859 1024.43 479.955 1024.76 479.352C1025.27 478.598 1026.1 478.448 1026.94 478.9Z" fill="#F4DEFA"/>
</g>
<g opacity="0.3619">
<path d="M1053.17 485.983C1053.83 486.435 1054 487.339 1053.67 487.942C1053.17 488.545 1052.16 488.696 1051.5 488.394C1050.83 487.942 1050.66 487.038 1050.99 486.435C1051.5 485.681 1052.5 485.531 1053.17 485.983Z" fill="#F4DEFA"/>
</g>
<g opacity="0.726">
<path d="M1015.24 529.687C1015.91 530.139 1016.08 531.044 1015.74 531.646C1015.24 532.249 1014.24 532.4 1013.57 532.098C1012.9 531.646 1012.74 530.742 1013.07 530.139C1013.57 529.386 1014.57 529.235 1015.24 529.687Z" fill="#F4DEFA"/>
</g>
<g opacity="0.175">
<path d="M932.876 596.901C933.544 597.353 933.711 598.258 933.377 598.86C932.876 599.463 931.874 599.614 931.205 599.313C930.537 598.861 930.37 597.956 930.704 597.353C931.205 596.751 932.208 596.449 932.876 596.901Z" fill="#F4DEFA"/>
</g>
<g opacity="0.7698">
<path d="M1008.89 604.889C1009.56 605.341 1009.73 606.245 1009.39 606.848C1008.89 607.451 1007.89 607.601 1007.22 607.3C1006.55 606.848 1006.39 605.944 1006.72 605.341C1007.22 604.587 1008.23 604.437 1008.89 604.889Z" fill="#F4DEFA"/>
</g>
<g opacity="0.9234">
<path d="M1130.69 587.859C1131.35 588.311 1131.52 589.215 1131.19 589.818C1130.69 590.421 1129.68 590.572 1129.02 590.27C1128.35 589.818 1128.18 588.914 1128.51 588.311C1129.02 587.708 1130.02 587.407 1130.69 587.859Z" fill="#F4DEFA"/>
</g>
<path d="M1163.1 588.16C1163.77 588.612 1163.94 589.517 1163.6 590.12C1163.1 590.722 1162.1 590.873 1161.43 590.572C1160.76 590.12 1160.59 589.215 1160.93 588.613C1161.43 588.01 1162.43 587.708 1163.1 588.16Z" fill="#F4DEFA"/>
<g opacity="0.6533">
<path d="M1180.93 505.567C1181.6 506.019 1181.77 506.923 1181.43 507.526C1180.93 508.129 1179.93 508.28 1179.26 507.978C1178.59 507.526 1178.43 506.622 1178.76 506.019C1179.26 505.266 1180.26 505.115 1180.93 505.567Z" fill="#F4DEFA"/>
</g>
<path d="M1176.13 569.473C1176.8 569.925 1176.96 570.83 1176.63 571.432C1176.13 572.035 1175.13 572.186 1174.46 571.885C1173.79 571.432 1173.62 570.528 1173.96 569.925C1174.46 569.172 1175.46 569.021 1176.13 569.473Z" fill="#F4DEFA"/>
<g opacity="0.7182">
<path d="M1022.76 608.656C1023.43 609.108 1023.59 610.013 1023.26 610.615C1022.76 611.218 1021.76 611.369 1021.09 611.068C1020.42 610.615 1020.25 609.711 1020.59 609.108C1021.09 608.355 1021.92 608.204 1022.76 608.656Z" fill="#F4DEFA"/>
</g>
<g opacity="0.9913">
<path d="M523.223 604.738C523.891 605.19 524.058 606.094 523.724 606.697C523.223 607.3 522.22 607.451 521.552 607.149C520.884 606.697 520.717 605.793 521.051 605.19C521.552 604.437 522.554 604.286 523.223 604.738Z" fill="#F4DEFA"/>
</g>
<g opacity="0.6311">
<path d="M355.987 604.286C356.656 604.738 356.823 605.642 356.489 606.245C355.987 606.848 354.985 606.999 354.317 606.697C353.648 606.245 353.481 605.341 353.816 604.738C354.317 603.984 355.319 603.834 355.987 604.286Z" fill="#F4DEFA"/>
</g>
<g opacity="0.1746">
<path d="M348.802 535.715C349.637 536.168 349.804 537.222 349.303 537.976C348.802 538.729 347.632 538.88 346.797 538.428C345.961 537.976 345.794 536.921 346.296 536.167C346.797 535.414 347.966 535.113 348.802 535.715Z" fill="#F4DEFA"/>
</g>
<g opacity="0.1311">
<path d="M364.507 501.505C365.509 502.108 365.676 503.163 365.008 504.067C364.34 504.972 363.17 505.122 362.168 504.519C361.165 503.917 360.998 502.862 361.667 501.957C362.335 501.053 363.504 500.902 364.507 501.505Z" fill="#F4DEFA"/>
</g>
<g opacity="0.9713">
<path d="M301.857 487.791C302.525 488.243 302.859 489.148 302.358 489.901C301.857 490.504 300.854 490.805 300.019 490.353C299.351 489.901 299.016 488.997 299.518 488.243C300.186 487.641 301.188 487.339 301.857 487.791Z" fill="#F4DEFA"/>
</g>
<path d="M295.006 417.563C295.674 418.015 295.841 418.919 295.507 419.522C295.173 420.125 294.004 420.276 293.335 419.974C292.667 419.522 292.5 418.618 292.834 418.015C293.335 417.262 294.171 417.111 295.006 417.563Z" fill="#F4DEFA"/>
<path d="M287.821 446.649C288.49 447.101 288.657 448.006 288.323 448.608C287.821 449.211 286.819 449.362 286.151 449.06C285.482 448.608 285.315 447.704 285.649 447.101C286.151 446.498 287.153 446.197 287.821 446.649Z" fill="#F4DEFA"/>
<g opacity="0.4118">
<path d="M466.086 332.415C467.589 333.32 467.924 335.128 466.921 336.334C465.919 337.69 463.914 337.991 462.577 337.087C461.074 336.183 460.74 334.374 461.742 333.169C462.744 331.812 464.749 331.511 466.086 332.415Z" fill="#F4DEFA"/>
</g>
<g opacity="0.8946">
<path d="M529.906 268.818C531.075 269.571 531.409 270.928 530.574 272.133C529.739 273.339 528.235 273.49 526.899 272.736C525.562 271.983 525.395 270.626 526.23 269.421C527.066 268.366 528.736 268.064 529.906 268.818Z" fill="#F4DEFA"/>
</g>
<g opacity="0.8718">
<path d="M343.76 285.623C345.431 286.678 345.932 288.788 344.762 290.446C343.593 291.953 341.254 292.405 339.416 291.35C337.578 290.295 337.244 288.185 338.414 286.527C339.583 285.02 341.922 284.568 343.76 285.623Z" fill="#F4DEFA"/>
</g>
<g opacity="0.7204">
<path d="M525.228 201.604C526.231 202.207 526.398 203.412 525.73 204.166C525.061 204.919 523.725 205.221 522.889 204.618C521.887 204.015 521.72 202.81 522.388 202.056C523.057 201.303 524.226 201.001 525.228 201.604Z" fill="#F4DEFA"/>
</g>
<path d="M608.93 160.612C609.598 161.064 609.765 161.969 609.431 162.571C608.93 163.174 607.927 163.325 607.259 163.024C606.591 162.571 606.424 161.667 606.758 161.064C607.259 160.462 608.262 160.311 608.93 160.612Z" fill="#F4DEFA"/>
<path d="M623.966 98.9742C624.301 99.1249 624.301 99.577 624.134 99.7277C623.966 100.029 623.465 100.029 623.298 99.8784C622.963 99.7277 622.963 99.2756 623.13 99.1249C623.298 98.8235 623.799 98.8235 623.966 98.9742Z" fill="#F4DEFA"/>
<path d="M652.032 87.2193C652.7 87.5207 652.7 88.2742 652.366 88.877C652.032 89.4798 651.197 89.4798 650.528 89.1784C649.86 88.877 649.86 88.1235 650.194 87.5207C650.695 86.9178 651.531 86.7671 652.032 87.2193Z" fill="#F4DEFA"/>
<path d="M682.442 105.002C683.11 105.455 683.277 106.359 682.943 106.962C682.442 107.564 681.439 107.715 680.771 107.414C680.103 106.962 679.935 106.057 680.27 105.455C680.771 104.701 681.773 104.55 682.442 105.002Z" fill="#F4DEFA"/>
<g opacity="0.9604">
<path d="M693.633 107.715C694.301 108.167 694.468 109.071 694.134 109.674C693.633 110.277 692.63 110.428 691.962 110.126C691.294 109.674 691.127 108.77 691.461 108.167C691.795 107.564 692.798 107.263 693.633 107.715Z" fill="#F4DEFA"/>
</g>
<g opacity="0.3769">
<path d="M748.431 122.484C749.099 122.936 749.266 123.84 748.932 124.443C748.431 125.046 747.428 125.197 746.76 124.895C746.092 124.443 745.925 123.539 746.259 122.936C746.76 122.333 747.763 122.032 748.431 122.484Z" fill="#F4DEFA"/>
</g>
<g opacity="0.3162">
<path d="M776.668 101.687C777.336 102.139 777.503 103.043 777.169 103.646C776.668 104.249 775.666 104.4 774.997 104.098C774.329 103.646 774.162 102.742 774.496 102.139C774.997 101.386 776 101.235 776.668 101.687Z" fill="#F4DEFA"/>
</g>
<path d="M696.139 55.7221C696.807 56.1742 696.974 57.0784 696.64 57.6812C696.139 58.2841 695.136 58.4348 694.468 58.1333C693.8 57.6812 693.633 56.777 693.967 56.1742C694.468 55.4207 695.303 55.27 696.139 55.7221Z" fill="#F4DEFA"/>
<g opacity="0.6765">
<path d="M733.899 94.1517C734.567 94.6038 734.734 95.508 734.4 96.1109C733.899 96.7137 732.896 96.8644 732.228 96.563C731.56 96.1109 731.393 95.2066 731.727 94.6038C732.228 93.8503 733.23 93.6996 733.899 94.1517Z" fill="#F4DEFA"/>
</g>
<path d="M753.612 27.8419C754.281 28.294 754.448 29.1982 754.114 29.801C753.779 30.4038 752.61 30.5545 751.942 30.2531C751.273 29.801 751.106 28.8968 751.44 28.294C751.942 27.6912 752.944 27.3897 753.612 27.8419Z" fill="#F4DEFA"/>
<path d="M703.323 26.4855C703.992 26.9376 704.159 27.8418 703.825 28.4446C703.323 29.0474 702.321 29.1981 701.653 28.8967C700.984 28.4446 700.817 27.5404 701.151 26.9376C701.653 26.1841 702.488 26.0334 703.323 26.4855Z" fill="#F4DEFA"/>
<g opacity="0.94">
<path d="M744.423 49.8446C745.091 50.2967 745.258 51.201 744.924 51.8038C744.423 52.4066 743.421 52.5573 742.752 52.2559C742.084 51.8038 741.917 50.8996 742.251 50.2967C742.752 49.5432 743.755 49.3925 744.423 49.8446Z" fill="#F4DEFA"/>
</g>
<g opacity="0.9911">
<path d="M801.227 53.6123C801.895 54.0644 802.062 54.9686 801.728 55.5714C801.227 56.1742 800.224 56.3249 799.556 56.0235C798.888 55.5714 798.721 54.6672 799.055 54.0644C799.556 53.4616 800.558 53.1601 801.227 53.6123Z" fill="#F4DEFA"/>
</g>
<g opacity="0.482">
<path d="M795.88 83.4517C796.548 83.9038 796.715 84.808 796.381 85.4108C795.88 86.0137 794.878 86.1644 794.209 85.863C793.541 85.4108 793.374 84.5066 793.708 83.9038C794.209 83.1503 795.212 82.9996 795.88 83.4517Z" fill="#F4DEFA"/>
</g>
<g opacity="0.5606">
<path d="M823.446 82.0954C824.115 82.5475 824.282 83.4517 823.948 84.0545C823.446 84.6574 822.444 84.8081 821.776 84.5067C821.107 84.0545 820.94 83.1503 821.274 82.5475C821.776 81.794 822.611 81.6433 823.446 82.0954Z" fill="#F4DEFA"/>
</g>
<path d="M705.161 215.017C705.83 215.469 705.997 216.373 705.662 216.976C705.161 217.579 704.159 217.729 703.491 217.428C702.822 216.976 702.655 216.071 702.989 215.469C703.491 214.866 704.493 214.564 705.161 215.017Z" fill="#F4DEFA"/>
<g opacity="0.9222">
<path d="M74.6473 293.77C75.8168 294.524 76.1509 295.88 75.3156 296.935C74.4802 297.99 72.9766 298.291 71.8071 297.538C70.6376 296.784 70.3035 295.428 71.1388 294.373C71.8071 293.318 73.4778 293.017 74.6473 293.77Z" fill="#F4DEFA"/>
</g>
<g opacity="0.7022">
<path d="M417.37 284.485C418.874 285.39 419.208 287.198 418.205 288.404C417.203 289.76 415.198 290.061 413.861 289.157C412.358 288.253 412.024 286.445 413.026 285.239C413.861 283.883 415.866 283.581 417.37 284.485Z" fill="#F4DEFA"/>
</g>
<path d="M2.13958 353.148C3.30906 353.901 3.64319 355.408 2.80785 356.463C1.9725 357.518 0.301785 357.82 -0.867701 357.066C-2.03719 356.313 -2.37131 354.805 -1.53597 353.751C-0.700621 352.696 0.970093 352.394 2.13958 353.148Z" fill="#F4DEFA"/>
<path d="M740.746 273.641C741.414 274.093 741.582 274.997 741.247 275.6C740.746 276.203 739.744 276.353 739.075 276.052C738.407 275.6 738.24 274.696 738.574 274.093C739.076 273.339 740.078 273.189 740.746 273.641Z" fill="#F4DEFA"/>
<path d="M788.195 252.693C788.864 253.145 789.031 254.049 788.697 254.652C788.195 255.255 787.193 255.405 786.525 255.104C785.856 254.652 785.689 253.748 786.024 253.145C786.525 252.391 787.36 252.241 788.195 252.693Z" fill="#F4DEFA"/>
<path d="M141.475 265.136C142.31 265.588 142.477 266.643 141.976 267.397C141.474 268.15 140.305 268.301 139.47 267.849C138.634 267.397 138.467 266.342 138.968 265.588C139.47 264.835 140.639 264.534 141.475 265.136Z" fill="#F4DEFA"/>
<g opacity="0.9913">
<path d="M457.064 647.99C457.732 648.442 457.899 649.346 457.565 649.949C457.064 650.552 456.061 650.702 455.393 650.401C454.725 649.949 454.558 649.045 454.892 648.442C455.393 647.688 456.395 647.538 457.064 647.99Z" fill="#F4DEFA"/>
</g>
<g opacity="0.9913">
<path d="M463.746 636.084C464.415 636.536 464.582 637.29 464.081 637.893C463.579 638.496 462.744 638.646 462.076 638.194C461.407 637.742 461.24 636.989 461.742 636.386C462.243 635.934 463.078 635.783 463.746 636.084Z" fill="#F4DEFA"/>
</g>
<g opacity="0.9913">
<path d="M499.5 653.265C500.001 653.566 500.001 654.017 499.667 654.469C499.333 654.921 498.832 654.921 498.331 654.62C497.829 654.319 497.829 653.867 498.164 653.415C498.498 653.114 499.166 653.114 499.5 653.265Z" fill="#F4DEFA"/>
</g>
<g opacity="0.9913">
<path d="M516.707 655.073C517.208 655.374 517.375 656.128 517.041 656.58C516.707 657.032 515.872 657.183 515.37 656.882C514.869 656.58 514.702 655.827 515.036 655.374C515.37 654.922 516.039 654.772 516.707 655.073Z" fill="#F4DEFA"/>
</g>
<g opacity="0.9913">
<path d="M515.704 667.28C516.373 667.732 516.54 668.486 516.039 669.089C515.537 669.692 514.702 669.842 514.034 669.39C513.365 668.938 513.198 668.185 513.7 667.582C514.201 666.979 515.036 666.828 515.704 667.28Z" fill="#F4DEFA"/>
</g>
<g opacity="0.9913">
<path d="M504.844 630.056C505.346 630.358 505.513 630.96 505.179 631.413C504.844 631.865 504.176 632.015 503.675 631.714C503.174 631.413 503.007 630.81 503.341 630.358C503.675 629.905 504.343 629.755 504.844 630.056Z" fill="#F4DEFA"/>
</g>
<g opacity="0.9913">
<path d="M453.555 596.751C454.223 597.203 454.557 598.107 454.056 598.71C453.555 599.313 452.552 599.614 451.884 599.162C451.216 598.71 450.882 597.806 451.383 597.203C451.884 596.6 452.72 596.449 453.555 596.751Z" fill="#F4DEFA"/>
</g>
<g opacity="0.9913">
<path d="M449.546 581.982C450.214 582.434 450.548 583.338 450.047 583.941C449.546 584.544 448.544 584.845 447.875 584.393C447.207 583.941 446.873 583.037 447.374 582.434C447.875 581.831 448.878 581.529 449.546 581.982Z" fill="#F4DEFA"/>
</g>
<path d="M363.505 342.663C363.839 342.813 364.006 343.265 363.672 343.717C363.505 344.018 363.004 344.169 362.503 343.868C362.168 343.717 362.001 343.265 362.335 342.813C362.67 342.512 363.171 342.362 363.505 342.663Z" fill="#F4DEFA"/>
<path d="M365.176 347.787C365.511 347.938 365.511 348.39 365.344 348.541C365.176 348.842 364.675 348.842 364.508 348.691C364.173 348.54 364.173 348.088 364.34 347.938C364.507 347.787 364.842 347.636 365.176 347.787Z" fill="#F4DEFA"/>
<path d="M351.643 346.581C352.145 346.883 352.312 347.636 351.977 348.088C351.643 348.541 350.808 348.691 350.307 348.39C349.806 348.088 349.639 347.335 349.973 346.883C350.307 346.431 351.142 346.28 351.643 346.581Z" fill="#F4DEFA"/>
<path d="M353.981 352.459C354.482 352.76 354.649 353.363 354.315 353.815C353.981 354.267 353.313 354.418 352.812 354.117C352.31 353.815 352.143 353.212 352.478 352.76C352.979 352.308 353.647 352.157 353.981 352.459Z" fill="#F4DEFA"/>
<path d="M374.364 341.608C374.531 341.759 374.697 342.06 374.531 342.211C374.364 342.362 374.03 342.512 373.863 342.362C373.696 342.211 373.529 341.91 373.696 341.759C373.863 341.608 374.197 341.457 374.364 341.608Z" fill="#F4DEFA"/>
<path d="M385.223 346.28C385.39 346.431 385.39 346.582 385.39 346.733C385.223 346.885 385.056 346.885 384.89 346.885C384.723 346.733 384.723 346.582 384.723 346.431C384.89 346.129 385.056 346.129 385.223 346.28Z" fill="#F4DEFA"/>
<path d="M374.864 345.828C375.031 345.979 375.031 346.13 375.031 346.281C374.864 346.432 374.697 346.432 374.53 346.432C374.363 346.432 374.363 346.13 374.363 345.979C374.53 345.828 374.697 345.677 374.864 345.828Z" fill="#F4DEFA"/>
<g opacity="0.995">
<path d="M223.167 262.036C223.835 262.488 224.002 263.393 223.668 263.995C223.167 264.598 222.165 264.749 221.496 264.448C220.828 263.995 220.661 263.091 220.995 262.488C221.496 261.886 222.499 261.584 223.167 262.036Z" fill="#F4DEFA"/>
</g>
<g opacity="0.995">
<path d="M183.571 243.952C184.24 244.404 184.407 245.308 184.073 245.911C183.571 246.514 182.569 246.664 181.901 246.363C181.232 245.911 181.065 245.007 181.399 244.404C181.901 243.65 182.736 243.5 183.571 243.952Z" fill="#F4DEFA"/>
</g>
<g opacity="0.9952">
<path d="M163.523 235.814C164.191 236.266 164.358 237.17 164.024 237.773C163.523 238.376 162.52 238.526 161.852 238.225C161.184 237.773 161.017 236.869 161.351 236.266C161.852 235.512 162.854 235.362 163.523 235.814Z" fill="#F4DEFA"/>
</g>
<g opacity="0.9871">
<path d="M188.583 233.553C189.251 234.005 189.418 234.909 189.084 235.512C188.583 236.115 187.581 236.266 186.912 235.964C186.244 235.512 186.077 234.608 186.411 234.005C186.912 233.252 187.915 233.101 188.583 233.553Z" fill="#F4DEFA"/>
</g>
<g opacity="0.988">
<path d="M193.762 238.828C194.43 239.28 194.597 240.184 194.263 240.787C193.762 241.39 192.759 241.541 192.091 241.239C191.423 240.787 191.256 239.883 191.59 239.28C192.091 238.526 192.926 238.376 193.762 238.828Z" fill="#F4DEFA"/>
</g>
<g opacity="0.9614">
<path d="M176.554 209.29C177.222 209.742 177.389 210.646 177.055 211.249C176.554 211.852 175.551 212.002 174.883 211.701C174.215 211.249 174.048 210.345 174.382 209.742C174.883 208.988 175.886 208.838 176.554 209.29Z" fill="#F4DEFA"/>
</g>
<g opacity="0.1406">
<path d="M1112.31 174.176C1112.98 174.628 1113.15 175.532 1112.81 176.135C1112.31 176.738 1111.31 176.888 1110.64 176.587C1109.97 176.135 1109.8 175.231 1110.14 174.628C1110.64 173.874 1111.47 173.724 1112.31 174.176Z" fill="#F4DEFA"/>
</g>
<g opacity="0.163">
<path d="M1094.43 159.256C1095.1 159.708 1095.27 160.612 1094.93 161.215C1094.43 161.818 1093.43 161.969 1092.76 161.667C1092.09 161.215 1091.93 160.311 1092.26 159.708C1092.76 159.105 1093.77 158.804 1094.43 159.256Z" fill="#F4DEFA"/>
</g>
<g opacity="0.2667">
<path d="M1052.33 153.831C1053 154.283 1053.17 155.187 1052.83 155.79C1052.33 156.393 1051.33 156.543 1050.66 156.242C1049.99 155.79 1049.83 154.886 1050.16 154.283C1050.66 153.529 1051.66 153.379 1052.33 153.831Z" fill="#F4DEFA"/>
</g>
<g opacity="0.2275">
<path d="M1086.25 144.487C1086.92 144.939 1087.08 145.843 1086.75 146.446C1086.25 147.049 1085.24 147.2 1084.58 146.898C1083.91 146.446 1083.74 145.542 1084.08 144.939C1084.58 144.186 1085.58 144.035 1086.25 144.487Z" fill="#F4DEFA"/>
</g>
<g opacity="0.206">
<path d="M1113.65 138.911C1114.31 139.363 1114.48 140.267 1114.15 140.87C1113.65 141.473 1112.64 141.624 1111.98 141.322C1111.31 140.87 1111.14 139.966 1111.47 139.363C1111.81 138.61 1112.81 138.459 1113.65 138.911Z" fill="#F4DEFA"/>
</g>
<g opacity="0.1909">
<path d="M1088.08 190C1088.75 190.452 1088.92 191.356 1088.59 191.959C1088.08 192.562 1087.08 192.712 1086.41 192.411C1085.75 191.959 1085.58 191.055 1085.91 190.452C1086.41 189.698 1087.42 189.548 1088.08 190Z" fill="#F4DEFA"/>
</g>
<g opacity="0.1914">
<path d="M1075.55 199.042C1076.22 199.494 1076.39 200.398 1076.05 201.001C1075.55 201.604 1074.55 201.755 1073.88 201.453C1073.21 201.001 1073.05 200.097 1073.38 199.494C1073.72 198.74 1074.72 198.59 1075.55 199.042Z" fill="#F4DEFA"/>
</g>
<g opacity="0.8192">
<path d="M1178.8 206.276C1179.14 206.426 1179.14 206.728 1178.97 207.029C1178.8 207.33 1178.47 207.331 1178.14 207.18C1177.8 207.029 1177.8 206.728 1177.97 206.426C1178.14 206.276 1178.47 206.125 1178.8 206.276Z" fill="#F4DEFA"/>
</g>
<g opacity="0.7208">
<path d="M1208.04 176.135C1208.71 176.587 1208.88 177.34 1208.37 177.943C1207.87 178.546 1207.04 178.697 1206.37 178.245C1205.7 177.793 1205.53 177.039 1206.04 176.436C1206.54 175.833 1207.37 175.833 1208.04 176.135Z" fill="#F4DEFA"/>
</g>
<g opacity="0.8385">
<path d="M1215.22 213.208C1215.89 213.66 1216.06 214.414 1215.56 215.167C1215.06 215.77 1214.22 215.921 1213.38 215.469C1212.72 215.016 1212.55 214.263 1213.05 213.509C1213.55 212.907 1214.39 212.756 1215.22 213.208Z" fill="#F4DEFA"/>
</g>
<path d="M1159.93 353.062C1160.59 353.514 1160.76 354.418 1160.43 355.021C1159.93 355.624 1158.92 355.774 1158.26 355.473C1157.59 355.021 1157.42 354.117 1157.75 353.514C1158.26 352.76 1159.09 352.61 1159.93 353.062Z" fill="#F4DEFA"/>
<path d="M1163.77 374.763C1164.43 375.215 1164.6 376.12 1164.27 376.722C1163.93 377.325 1162.76 377.476 1162.1 377.174C1161.43 376.722 1161.26 375.818 1161.59 375.215C1161.93 374.462 1162.93 374.311 1163.77 374.763Z" fill="#F4DEFA"/>
<path d="M1190.5 412.138C1191.17 412.59 1191.33 413.494 1191 414.097C1190.5 414.7 1189.5 414.85 1188.83 414.549C1188.16 414.097 1187.99 413.193 1188.33 412.59C1188.83 411.836 1189.83 411.686 1190.5 412.138Z" fill="#F4DEFA"/>
<path d="M1176.63 443.786C1177.3 444.238 1177.47 445.142 1177.13 445.745C1176.63 446.347 1175.63 446.498 1174.96 446.197C1174.29 445.745 1174.12 444.84 1174.46 444.238C1174.96 443.484 1175.96 443.333 1176.63 443.786Z" fill="#F4DEFA"/>
<path d="M867.051 485.832C867.886 486.284 868.053 487.339 867.552 487.942C867.051 488.695 865.881 488.846 865.213 488.394C864.545 487.942 864.211 486.887 864.712 486.284C865.213 485.681 866.383 485.38 867.051 485.832Z" fill="#F4DEFA"/>
<path d="M862.542 515.672C863.377 516.124 863.544 517.179 863.043 517.781C862.542 518.384 861.372 518.686 860.704 518.234C859.869 517.781 859.702 516.726 860.203 516.124C860.704 515.37 861.706 515.219 862.542 515.672Z" fill="#F4DEFA"/>
<path d="M832.469 554.403C832.97 554.704 833.137 555.458 832.803 555.91C832.469 556.362 831.633 556.513 831.132 556.211C830.631 555.91 830.464 555.156 830.798 554.704C831.299 554.101 831.967 554.101 832.469 554.403Z" fill="#F4DEFA"/>
<path d="M835.81 569.322C836.144 569.624 836.311 570.075 835.977 570.376C835.643 570.678 835.141 570.828 834.807 570.527C834.473 570.226 834.306 569.774 834.64 569.473C834.807 569.172 835.475 569.172 835.81 569.322Z" fill="#F4DEFA"/>
<path d="M873.567 570.227C874.068 570.528 874.235 571.131 873.901 571.583C873.567 572.035 872.899 572.186 872.398 571.884C871.896 571.583 871.729 570.98 872.063 570.528C872.398 570.076 873.066 569.925 873.567 570.227Z" fill="#F4DEFA"/>
<path d="M867.721 571.734C868.222 572.035 868.222 572.487 868.055 572.94C867.888 573.392 867.219 573.392 866.718 573.241C866.217 572.94 866.217 572.487 866.384 572.035C866.551 571.583 867.219 571.432 867.721 571.734Z" fill="#F4DEFA"/>
<path d="M878.246 545.36C878.58 545.511 878.747 545.963 878.413 546.414C878.246 546.716 877.745 546.866 877.244 546.565C876.91 546.414 876.743 545.963 877.077 545.511C877.411 545.21 877.912 545.21 878.246 545.36Z" fill="#F4DEFA"/>
<path d="M857.36 551.539C857.695 551.84 857.862 552.292 857.527 552.593C857.193 552.894 856.692 553.045 856.358 552.744C856.024 552.443 855.857 551.991 856.191 551.69C856.358 551.389 857.026 551.238 857.36 551.539Z" fill="#F4DEFA"/>
<path d="M841.49 541.291C842.158 541.744 842.325 542.497 841.824 543.1C841.323 543.703 840.487 543.853 839.819 543.401C839.151 542.949 838.984 542.196 839.485 541.593C839.986 541.141 840.988 540.99 841.49 541.291Z" fill="#F4DEFA"/>
<path d="M854.02 546.867C854.522 547.169 854.522 547.621 854.355 548.073C854.02 548.525 853.519 548.525 853.018 548.374C852.517 548.073 852.517 547.621 852.684 547.169C852.851 546.717 853.519 546.566 854.02 546.867Z" fill="#F4DEFA"/>
<path d="M887.099 550.484C887.433 550.785 887.6 551.237 887.266 551.538C886.932 551.84 886.43 551.99 886.096 551.689C885.762 551.388 885.595 550.936 885.929 550.635C886.263 550.334 886.764 550.334 887.099 550.484Z" fill="#F4DEFA"/>
<path d="M882.423 553.348C882.757 553.498 882.757 553.95 882.59 554.251C882.423 554.552 881.921 554.552 881.587 554.402C881.253 554.251 881.253 553.799 881.42 553.498C881.587 553.197 882.089 553.046 882.423 553.348Z" fill="#F4DEFA"/>
<path d="M862.875 545.36C863.209 545.662 863.376 546.113 863.042 546.565C862.708 546.866 862.207 547.017 861.706 546.716C861.372 546.414 861.204 545.963 861.539 545.511C861.873 545.21 862.374 545.059 862.875 545.36Z" fill="#F4DEFA"/>
<path d="M859.534 540.086C860.035 540.387 860.202 540.99 859.868 541.442C859.534 541.894 858.866 542.045 858.364 541.743C857.863 541.442 857.696 540.839 858.03 540.387C858.364 539.784 859.033 539.784 859.534 540.086Z" fill="#F4DEFA"/>
<path d="M885.763 541.291C886.265 541.593 886.432 542.196 886.097 542.497C885.763 542.949 885.095 543.1 884.761 542.798C884.26 542.497 884.093 541.894 884.427 541.593C884.594 540.99 885.262 540.99 885.763 541.291Z" fill="#F4DEFA"/>
</g>
<g filter="url(#filter1_f_163_3404)">
<ellipse cx="115.313" cy="607.41" rx="4.38093" ry="4.74787" fill="white"/>
</g>
<g filter="url(#filter2_f_163_3404)">
<ellipse cx="175.672" cy="626.402" rx="4.38093" ry="4.74787" fill="white"/>
</g>
<g filter="url(#filter3_f_163_3404)">
<ellipse cx="182.486" cy="697.092" rx="4.38093" ry="4.74787" fill="white"/>
</g>
<g filter="url(#filter4_f_163_3404)">
<ellipse cx="84.1589" cy="376.347" rx="7.07689" ry="7.66963" fill="white"/>
</g>
<g filter="url(#filter5_f_163_3404)">
<ellipse cx="1238" cy="264" rx="4.84615" ry="6.23077" fill="white"/>
</g>
<g filter="url(#filter6_f_163_3404)">
<ellipse cx="1154.86" cy="88.3288" rx="4.35918" ry="5.91781" fill="white"/>
</g>
<g filter="url(#filter7_f_163_3404)">
<ellipse cx="1076.68" cy="757.759" rx="4.71793" ry="5.11309" fill="white"/>
</g>
<g filter="url(#filter8_f_163_3404)">
<ellipse cx="223.479" cy="96.6641" rx="4.71793" ry="5.11309" fill="white"/>
</g>
<g filter="url(#filter9_f_163_3404)">
<ellipse cx="1096.64" cy="685.486" rx="3.70694" ry="4.01743" fill="white"/>
</g>
<g filter="url(#filter10_f_163_3404)">
<ellipse cx="582.61" cy="322.538" rx="3.70694" ry="4.01743" fill="white"/>
</g>
<defs>
<filter id="filter0_f_163_3404" x="-3.5" y="-1.5" width="1285.21" height="835" filterUnits="userSpaceOnUse" color-interpolation-filters="sRGB">
<feFlood flood-opacity="0" result="BackgroundImageFix"/>
<feBlend mode="normal" in="SourceGraphic" in2="BackgroundImageFix" result="shape"/>
<feGaussianBlur stdDeviation="0.75" result="effect1_foregroundBlur_163_3404"/>
</filter>
<filter id="filter1_f_163_3404" x="105.784" y="597.352" width="19.0563" height="20.1161" filterUnits="userSpaceOnUse" color-interpolation-filters="sRGB">
<feFlood flood-opacity="0" result="BackgroundImageFix"/>
<feBlend mode="normal" in="SourceGraphic" in2="BackgroundImageFix" result="shape"/>
<feGaussianBlur stdDeviation="1.6" result="effect1_foregroundBlur_163_3404"/>
</filter>
<filter id="filter2_f_163_3404" x="166.144" y="616.344" width="19.0563" height="20.1161" filterUnits="userSpaceOnUse" color-interpolation-filters="sRGB">
<feFlood flood-opacity="0" result="BackgroundImageFix"/>
<feBlend mode="normal" in="SourceGraphic" in2="BackgroundImageFix" result="shape"/>
<feGaussianBlur stdDeviation="1.6" result="effect1_foregroundBlur_163_3404"/>
</filter>
<filter id="filter3_f_163_3404" x="172.958" y="687.034" width="19.0563" height="20.1161" filterUnits="userSpaceOnUse" color-interpolation-filters="sRGB">
<feFlood flood-opacity="0" result="BackgroundImageFix"/>
<feBlend mode="normal" in="SourceGraphic" in2="BackgroundImageFix" result="shape"/>
<feGaussianBlur stdDeviation="1.6" result="effect1_foregroundBlur_163_3404"/>
</filter>
<filter id="filter4_f_163_3404" x="70.7365" y="362.069" width="26.8443" height="28.5567" filterUnits="userSpaceOnUse" color-interpolation-filters="sRGB">
<feFlood flood-opacity="0" result="BackgroundImageFix"/>
<feBlend mode="normal" in="SourceGraphic" in2="BackgroundImageFix" result="shape"/>
<feGaussianBlur stdDeviation="1.6" result="effect1_foregroundBlur_163_3404"/>
</filter>
<filter id="filter5_f_163_3404" x="1227.8" y="251.8" width="20.4" height="24.4" filterUnits="userSpaceOnUse" color-interpolation-filters="sRGB">
<feFlood flood-opacity="0" result="BackgroundImageFix"/>
<feBlend mode="normal" in="SourceGraphic" in2="BackgroundImageFix" result="shape"/>
<feGaussianBlur stdDeviation="1.6" result="effect1_foregroundBlur_163_3404"/>
</filter>
<filter id="filter6_f_163_3404" x="1145.36" y="76.5808" width="18.9928" height="23.4959" filterUnits="userSpaceOnUse" color-interpolation-filters="sRGB">
<feFlood flood-opacity="0" result="BackgroundImageFix"/>
<feBlend mode="normal" in="SourceGraphic" in2="BackgroundImageFix" result="shape"/>
<feGaussianBlur stdDeviation="1.6" result="effect1_foregroundBlur_163_3404"/>
</filter>
<filter id="filter7_f_163_3404" x="1066.67" y="747.174" width="20.0299" height="21.1711" filterUnits="userSpaceOnUse" color-interpolation-filters="sRGB">
<feFlood flood-opacity="0" result="BackgroundImageFix"/>
<feBlend mode="normal" in="SourceGraphic" in2="BackgroundImageFix" result="shape"/>
<feGaussianBlur stdDeviation="1.6" result="effect1_foregroundBlur_163_3404"/>
</filter>
<filter id="filter8_f_163_3404" x="213.464" y="86.0785" width="20.0299" height="21.1711" filterUnits="userSpaceOnUse" color-interpolation-filters="sRGB">
<feFlood flood-opacity="0" result="BackgroundImageFix"/>
<feBlend mode="normal" in="SourceGraphic" in2="BackgroundImageFix" result="shape"/>
<feGaussianBlur stdDeviation="1.6" result="effect1_foregroundBlur_163_3404"/>
</filter>
<filter id="filter9_f_163_3404" x="1088.09" y="676.483" width="17.109" height="18.0059" filterUnits="userSpaceOnUse" color-interpolation-filters="sRGB">
<feFlood flood-opacity="0" result="BackgroundImageFix"/>
<feBlend mode="normal" in="SourceGraphic" in2="BackgroundImageFix" result="shape"/>
<feGaussianBlur stdDeviation="1.6" result="effect1_foregroundBlur_163_3404"/>
</filter>
<filter id="filter10_f_163_3404" x="574.056" y="313.535" width="17.109" height="18.0059" filterUnits="userSpaceOnUse" color-interpolation-filters="sRGB">
<feFlood flood-opacity="0" result="BackgroundImageFix"/>
<feBlend mode="normal" in="SourceGraphic" in2="BackgroundImageFix" result="shape"/>
<feGaussianBlur stdDeviation="1.6" result="effect1_foregroundBlur_163_3404"/>
</filter>
<linearGradient id="paint0_linear_163_3404" x1="-2" y1="712.999" x2="1382.32" y2="564.819" gradientUnits="userSpaceOnUse">
<stop stop-color="#1D0A1C"/>
<stop offset="1" stop-color="#4F1C4C"/>
</linearGradient>
</defs>
</svg>
