<svg width="1280" height="832" viewBox="0 0 1280 832" fill="none" xmlns="http://www.w3.org/2000/svg">
<g clip-path="url(#clip0_63_11520)">
<rect width="1280" height="832" fill="#FCF7FE"/>
<rect width="1280" height="832" fill="url(#paint0_radial_63_11520)"/>
<g filter="url(#filter0_f_63_11520)">
<path d="M2212 1353C2212 2220.64 1508.64 2924 641 2924C-226.639 2924 -930 2220.64 -930 1353C-930 485.361 -226.639 -218 641 -218C1508.64 -218 2212 485.361 2212 1353Z" fill="#E4AEF2"/>
</g>
<path d="M679.844 55.7051V57.085H672.918V55.7051H679.844ZM673.182 50.2031V63H671.485V50.2031H673.182ZM681.32 50.2031V63H679.633V50.2031H681.32ZM683.658 58.3506V58.1484C683.658 57.4629 683.758 56.8271 683.957 56.2412C684.156 55.6494 684.443 55.1367 684.818 54.7031C685.193 54.2637 685.647 53.9238 686.181 53.6836C686.714 53.4375 687.312 53.3145 687.974 53.3145C688.642 53.3145 689.242 53.4375 689.775 53.6836C690.314 53.9238 690.771 54.2637 691.146 54.7031C691.527 55.1367 691.817 55.6494 692.017 56.2412C692.216 56.8271 692.315 57.4629 692.315 58.1484V58.3506C692.315 59.0361 692.216 59.6719 692.017 60.2578C691.817 60.8438 691.527 61.3564 691.146 61.7959C690.771 62.2295 690.317 62.5693 689.784 62.8154C689.257 63.0557 688.659 63.1758 687.991 63.1758C687.323 63.1758 686.723 63.0557 686.189 62.8154C685.656 62.5693 685.199 62.2295 684.818 61.7959C684.443 61.3564 684.156 60.8438 683.957 60.2578C683.758 59.6719 683.658 59.0361 683.658 58.3506ZM685.284 58.1484V58.3506C685.284 58.8252 685.34 59.2734 685.451 59.6953C685.562 60.1113 685.729 60.4805 685.952 60.8027C686.181 61.125 686.465 61.3799 686.805 61.5674C687.145 61.749 687.54 61.8398 687.991 61.8398C688.437 61.8398 688.826 61.749 689.16 61.5674C689.5 61.3799 689.781 61.125 690.004 60.8027C690.227 60.4805 690.394 60.1113 690.505 59.6953C690.622 59.2734 690.681 58.8252 690.681 58.3506V58.1484C690.681 57.6797 690.622 57.2373 690.505 56.8213C690.394 56.3994 690.224 56.0273 689.995 55.7051C689.772 55.377 689.491 55.1191 689.151 54.9316C688.817 54.7441 688.425 54.6504 687.974 54.6504C687.528 54.6504 687.136 54.7441 686.796 54.9316C686.462 55.1191 686.181 55.377 685.952 55.7051C685.729 56.0273 685.562 56.3994 685.451 56.8213C685.34 57.2373 685.284 57.6797 685.284 58.1484ZM695.972 55.3799V63H694.337V53.4902H695.884L695.972 55.3799ZM695.638 57.8848L694.882 57.8584C694.888 57.208 694.973 56.6074 695.137 56.0566C695.301 55.5 695.544 55.0166 695.866 54.6064C696.188 54.1963 696.59 53.8799 697.07 53.6572C697.551 53.4287 698.107 53.3145 698.74 53.3145C699.186 53.3145 699.596 53.3789 699.971 53.5078C700.346 53.6309 700.671 53.8271 700.946 54.0967C701.222 54.3662 701.436 54.7119 701.588 55.1338C701.74 55.5557 701.816 56.0654 701.816 56.6631V63H700.19V56.7422C700.19 56.2441 700.105 55.8457 699.936 55.5469C699.771 55.248 699.537 55.0312 699.232 54.8965C698.928 54.7559 698.57 54.6855 698.16 54.6855C697.68 54.6855 697.278 54.7705 696.956 54.9404C696.634 55.1104 696.376 55.3447 696.183 55.6436C695.989 55.9424 695.849 56.2852 695.761 56.6719C695.679 57.0527 695.638 57.457 695.638 57.8848ZM701.799 56.9883L700.709 57.3223C700.715 56.8008 700.8 56.2998 700.964 55.8193C701.134 55.3389 701.377 54.9111 701.693 54.5361C702.016 54.1611 702.411 53.8652 702.88 53.6484C703.349 53.4258 703.885 53.3145 704.488 53.3145C704.998 53.3145 705.449 53.3818 705.842 53.5166C706.24 53.6514 706.574 53.8594 706.844 54.1406C707.119 54.416 707.327 54.7705 707.468 55.2041C707.608 55.6377 707.679 56.1533 707.679 56.751V63H706.044V56.7334C706.044 56.2002 705.959 55.7871 705.789 55.4941C705.625 55.1953 705.391 54.9873 705.086 54.8701C704.787 54.7471 704.43 54.6855 704.014 54.6855C703.656 54.6855 703.34 54.7471 703.064 54.8701C702.789 54.9932 702.558 55.1631 702.37 55.3799C702.183 55.5908 702.039 55.834 701.939 56.1094C701.846 56.3848 701.799 56.6777 701.799 56.9883ZM714.086 63.1758C713.424 63.1758 712.823 63.0645 712.284 62.8418C711.751 62.6133 711.291 62.2939 710.904 61.8838C710.523 61.4736 710.23 60.9873 710.025 60.4248C709.82 59.8623 709.718 59.2471 709.718 58.5791V58.21C709.718 57.4365 709.832 56.748 710.061 56.1445C710.289 55.5352 710.6 55.0195 710.992 54.5977C711.385 54.1758 711.83 53.8564 712.328 53.6396C712.826 53.4229 713.342 53.3145 713.875 53.3145C714.555 53.3145 715.141 53.4316 715.633 53.666C716.131 53.9004 716.538 54.2285 716.854 54.6504C717.171 55.0664 717.405 55.5586 717.558 56.127C717.71 56.6895 717.786 57.3047 717.786 57.9727V58.7021H710.685V57.375H716.16V57.252C716.137 56.8301 716.049 56.4199 715.896 56.0215C715.75 55.623 715.516 55.2949 715.193 55.0371C714.871 54.7793 714.432 54.6504 713.875 54.6504C713.506 54.6504 713.166 54.7295 712.855 54.8877C712.545 55.04 712.278 55.2686 712.056 55.5732C711.833 55.8779 711.66 56.25 711.537 56.6895C711.414 57.1289 711.353 57.6357 711.353 58.21V58.5791C711.353 59.0303 711.414 59.4551 711.537 59.8535C711.666 60.2461 711.851 60.5918 712.091 60.8906C712.337 61.1895 712.633 61.4238 712.979 61.5938C713.33 61.7637 713.729 61.8486 714.174 61.8486C714.748 61.8486 715.234 61.7314 715.633 61.4971C716.031 61.2627 716.38 60.9492 716.679 60.5566L717.663 61.3389C717.458 61.6494 717.197 61.9453 716.881 62.2266C716.564 62.5078 716.175 62.7363 715.712 62.9121C715.255 63.0879 714.713 63.1758 714.086 63.1758Z" fill="black"/>
<path d="M757.942 56.6279V61.3125C757.784 61.5469 757.532 61.8105 757.187 62.1035C756.841 62.3906 756.363 62.6426 755.754 62.8594C755.15 63.0703 754.371 63.1758 753.416 63.1758C752.637 63.1758 751.919 63.041 751.263 62.7715C750.612 62.4961 750.047 62.0977 749.566 61.5762C749.092 61.0488 748.723 60.4102 748.459 59.6602C748.201 58.9043 748.072 58.0488 748.072 57.0938V56.1006C748.072 55.1455 748.184 54.293 748.406 53.543C748.635 52.793 748.969 52.1572 749.408 51.6357C749.848 51.1084 750.387 50.71 751.025 50.4404C751.664 50.165 752.396 50.0273 753.223 50.0273C754.201 50.0273 755.019 50.1973 755.675 50.5371C756.337 50.8711 756.853 51.334 757.222 51.9258C757.597 52.5176 757.837 53.1914 757.942 53.9473H756.246C756.17 53.4844 756.018 53.0625 755.789 52.6816C755.566 52.3008 755.247 51.9961 754.831 51.7676C754.415 51.5332 753.879 51.416 753.223 51.416C752.631 51.416 752.118 51.5244 751.685 51.7412C751.251 51.958 750.894 52.2686 750.612 52.6729C750.331 53.0771 750.12 53.5664 749.979 54.1406C749.845 54.7148 749.777 55.3623 749.777 56.083V57.0938C749.777 57.832 749.862 58.4912 750.032 59.0713C750.208 59.6514 750.457 60.1465 750.779 60.5566C751.102 60.9609 751.485 61.2686 751.931 61.4795C752.382 61.6904 752.88 61.7959 753.425 61.7959C754.028 61.7959 754.518 61.7461 754.893 61.6465C755.268 61.541 755.561 61.418 755.771 61.2773C755.982 61.1309 756.144 60.9932 756.255 60.8643V57.999H753.293V56.6279H757.942ZM766.116 61.374V56.4785C766.116 56.1035 766.04 55.7783 765.888 55.5029C765.741 55.2217 765.519 55.0049 765.22 54.8525C764.921 54.7002 764.552 54.624 764.112 54.624C763.702 54.624 763.342 54.6943 763.031 54.835C762.727 54.9756 762.486 55.1602 762.311 55.3887C762.141 55.6172 762.056 55.8633 762.056 56.127H760.43C760.43 55.7871 760.518 55.4502 760.693 55.1162C760.869 54.7822 761.121 54.4805 761.449 54.2109C761.783 53.9355 762.182 53.7188 762.645 53.5605C763.113 53.3965 763.635 53.3145 764.209 53.3145C764.9 53.3145 765.51 53.4316 766.037 53.666C766.57 53.9004 766.986 54.2549 767.285 54.7295C767.59 55.1982 767.742 55.7871 767.742 56.4961V60.9258C767.742 61.2422 767.769 61.5791 767.821 61.9365C767.88 62.2939 767.965 62.6016 768.076 62.8594V63H766.38C766.298 62.8125 766.233 62.5635 766.187 62.2529C766.14 61.9365 766.116 61.6436 766.116 61.374ZM766.397 57.2344L766.415 58.377H764.771C764.309 58.377 763.896 58.415 763.532 58.4912C763.169 58.5615 762.864 58.6699 762.618 58.8164C762.372 58.9629 762.185 59.1475 762.056 59.3701C761.927 59.5869 761.862 59.8418 761.862 60.1348C761.862 60.4336 761.93 60.7061 762.064 60.9521C762.199 61.1982 762.401 61.3945 762.671 61.541C762.946 61.6816 763.283 61.752 763.682 61.752C764.18 61.752 764.619 61.6465 765 61.4355C765.381 61.2246 765.683 60.9668 765.905 60.6621C766.134 60.3574 766.257 60.0615 766.274 59.7744L766.969 60.5566C766.928 60.8027 766.816 61.0752 766.635 61.374C766.453 61.6729 766.21 61.96 765.905 62.2354C765.606 62.5049 765.249 62.7305 764.833 62.9121C764.423 63.0879 763.96 63.1758 763.444 63.1758C762.8 63.1758 762.234 63.0498 761.748 62.7979C761.268 62.5459 760.893 62.209 760.623 61.7871C760.359 61.3594 760.228 60.8818 760.228 60.3545C760.228 59.8447 760.327 59.3965 760.526 59.0098C760.726 58.6172 761.013 58.292 761.388 58.0342C761.763 57.7705 762.214 57.5713 762.741 57.4365C763.269 57.3018 763.857 57.2344 764.508 57.2344H766.397ZM772.066 49.5V63H770.432V49.5H772.066ZM776.443 49.5V63H774.809V49.5H776.443ZM783 63.1758C782.338 63.1758 781.737 63.0645 781.198 62.8418C780.665 62.6133 780.205 62.2939 779.818 61.8838C779.438 61.4736 779.145 60.9873 778.939 60.4248C778.734 59.8623 778.632 59.2471 778.632 58.5791V58.21C778.632 57.4365 778.746 56.748 778.975 56.1445C779.203 55.5352 779.514 55.0195 779.906 54.5977C780.299 54.1758 780.744 53.8564 781.242 53.6396C781.74 53.4229 782.256 53.3145 782.789 53.3145C783.469 53.3145 784.055 53.4316 784.547 53.666C785.045 53.9004 785.452 54.2285 785.769 54.6504C786.085 55.0664 786.319 55.5586 786.472 56.127C786.624 56.6895 786.7 57.3047 786.7 57.9727V58.7021H779.599V57.375H785.074V57.252C785.051 56.8301 784.963 56.4199 784.811 56.0215C784.664 55.623 784.43 55.2949 784.107 55.0371C783.785 54.7793 783.346 54.6504 782.789 54.6504C782.42 54.6504 782.08 54.7295 781.77 54.8877C781.459 55.04 781.192 55.2686 780.97 55.5732C780.747 55.8779 780.574 56.25 780.451 56.6895C780.328 57.1289 780.267 57.6357 780.267 58.21V58.5791C780.267 59.0303 780.328 59.4551 780.451 59.8535C780.58 60.2461 780.765 60.5918 781.005 60.8906C781.251 61.1895 781.547 61.4238 781.893 61.5938C782.244 61.7637 782.643 61.8486 783.088 61.8486C783.662 61.8486 784.148 61.7314 784.547 61.4971C784.945 61.2627 785.294 60.9492 785.593 60.5566L786.577 61.3389C786.372 61.6494 786.111 61.9453 785.795 62.2266C785.479 62.5078 785.089 62.7363 784.626 62.9121C784.169 63.0879 783.627 63.1758 783 63.1758ZM790.225 54.9844V63H788.599V53.4902H790.181L790.225 54.9844ZM793.195 53.4375L793.187 54.9492C793.052 54.9199 792.923 54.9023 792.8 54.8965C792.683 54.8848 792.548 54.8789 792.396 54.8789C792.021 54.8789 791.689 54.9375 791.402 55.0547C791.115 55.1719 790.872 55.3359 790.673 55.5469C790.474 55.7578 790.315 56.0098 790.198 56.3027C790.087 56.5898 790.014 56.9062 789.979 57.252L789.521 57.5156C789.521 56.9414 789.577 56.4023 789.688 55.8984C789.806 55.3945 789.984 54.9492 790.225 54.5625C790.465 54.1699 790.77 53.8652 791.139 53.6484C791.514 53.4258 791.959 53.3145 792.475 53.3145C792.592 53.3145 792.727 53.3291 792.879 53.3584C793.031 53.3818 793.137 53.4082 793.195 53.4375ZM797.528 62.0156L800.174 53.4902H801.914L798.1 64.4678C798.012 64.7021 797.895 64.9541 797.748 65.2236C797.607 65.499 797.426 65.7598 797.203 66.0059C796.98 66.252 796.711 66.4512 796.395 66.6035C796.084 66.7617 795.712 66.8408 795.278 66.8408C795.149 66.8408 794.985 66.8232 794.786 66.7881C794.587 66.7529 794.446 66.7236 794.364 66.7002L794.355 65.3818C794.402 65.3877 794.476 65.3936 794.575 65.3994C794.681 65.4111 794.754 65.417 794.795 65.417C795.164 65.417 795.478 65.3672 795.735 65.2676C795.993 65.1738 796.21 65.0127 796.386 64.7842C796.567 64.5615 796.723 64.2539 796.852 63.8613L797.528 62.0156ZM795.586 53.4902L798.056 60.873L798.478 62.5869L797.309 63.1846L793.811 53.4902H795.586Z" fill="black"/>
<path d="M839.306 59.7656C839.306 59.4668 839.259 59.2031 839.165 58.9746C839.077 58.7402 838.919 58.5293 838.69 58.3418C838.468 58.1543 838.157 57.9756 837.759 57.8057C837.366 57.6357 836.868 57.4629 836.265 57.2871C835.632 57.0996 835.061 56.8916 834.551 56.6631C834.041 56.4287 833.604 56.1621 833.241 55.8633C832.878 55.5645 832.6 55.2217 832.406 54.835C832.213 54.4482 832.116 54.0059 832.116 53.5078C832.116 53.0098 832.219 52.5498 832.424 52.1279C832.629 51.7061 832.922 51.3398 833.303 51.0293C833.689 50.7129 834.149 50.4668 834.683 50.291C835.216 50.1152 835.811 50.0273 836.467 50.0273C837.428 50.0273 838.242 50.2119 838.91 50.5811C839.584 50.9443 840.097 51.4219 840.448 52.0137C840.8 52.5996 840.976 53.2266 840.976 53.8945H839.288C839.288 53.4141 839.186 52.9893 838.98 52.6201C838.775 52.2451 838.465 51.9521 838.049 51.7412C837.633 51.5244 837.105 51.416 836.467 51.416C835.863 51.416 835.365 51.5068 834.973 51.6885C834.58 51.8701 834.287 52.1162 834.094 52.4268C833.906 52.7373 833.812 53.0918 833.812 53.4902C833.812 53.7598 833.868 54.0059 833.979 54.2285C834.097 54.4453 834.275 54.6475 834.516 54.835C834.762 55.0225 835.072 55.1953 835.447 55.3535C835.828 55.5117 836.282 55.6641 836.81 55.8105C837.536 56.0156 838.163 56.2441 838.69 56.4961C839.218 56.748 839.651 57.0322 839.991 57.3486C840.337 57.6592 840.592 58.0137 840.756 58.4121C840.926 58.8047 841.011 59.25 841.011 59.748C841.011 60.2695 840.905 60.7412 840.694 61.1631C840.483 61.585 840.182 61.9453 839.789 62.2441C839.396 62.543 838.925 62.7744 838.374 62.9385C837.829 63.0967 837.22 63.1758 836.546 63.1758C835.954 63.1758 835.371 63.0938 834.797 62.9297C834.229 62.7656 833.71 62.5195 833.241 62.1914C832.778 61.8633 832.406 61.459 832.125 60.9785C831.85 60.4922 831.712 59.9297 831.712 59.291H833.399C833.399 59.7305 833.484 60.1084 833.654 60.4248C833.824 60.7354 834.056 60.9932 834.349 61.1982C834.647 61.4033 834.984 61.5557 835.359 61.6553C835.74 61.749 836.136 61.7959 836.546 61.7959C837.138 61.7959 837.639 61.7139 838.049 61.5498C838.459 61.3857 838.77 61.1514 838.98 60.8467C839.197 60.542 839.306 60.1816 839.306 59.7656ZM844.553 49.5V63H842.927V49.5H844.553ZM844.166 57.8848L843.489 57.8584C843.495 57.208 843.592 56.6074 843.779 56.0566C843.967 55.5 844.23 55.0166 844.57 54.6064C844.91 54.1963 845.314 53.8799 845.783 53.6572C846.258 53.4287 846.782 53.3145 847.356 53.3145C847.825 53.3145 848.247 53.3789 848.622 53.5078C848.997 53.6309 849.316 53.8301 849.58 54.1055C849.85 54.3809 850.055 54.7383 850.195 55.1777C850.336 55.6113 850.406 56.1416 850.406 56.7686V63H848.771V56.751C848.771 56.2529 848.698 55.8545 848.552 55.5557C848.405 55.251 848.191 55.0312 847.91 54.8965C847.629 54.7559 847.283 54.6855 846.873 54.6855C846.469 54.6855 846.1 54.7705 845.766 54.9404C845.438 55.1104 845.153 55.3447 844.913 55.6436C844.679 55.9424 844.494 56.2852 844.359 56.6719C844.23 57.0527 844.166 57.457 844.166 57.8848ZM852.41 58.3506V58.1484C852.41 57.4629 852.51 56.8271 852.709 56.2412C852.908 55.6494 853.195 55.1367 853.57 54.7031C853.945 54.2637 854.399 53.9238 854.933 53.6836C855.466 53.4375 856.063 53.3145 856.726 53.3145C857.394 53.3145 857.994 53.4375 858.527 53.6836C859.066 53.9238 859.523 54.2637 859.898 54.7031C860.279 55.1367 860.569 55.6494 860.769 56.2412C860.968 56.8271 861.067 57.4629 861.067 58.1484V58.3506C861.067 59.0361 860.968 59.6719 860.769 60.2578C860.569 60.8438 860.279 61.3564 859.898 61.7959C859.523 62.2295 859.069 62.5693 858.536 62.8154C858.009 63.0557 857.411 63.1758 856.743 63.1758C856.075 63.1758 855.475 63.0557 854.941 62.8154C854.408 62.5693 853.951 62.2295 853.57 61.7959C853.195 61.3564 852.908 60.8438 852.709 60.2578C852.51 59.6719 852.41 59.0361 852.41 58.3506ZM854.036 58.1484V58.3506C854.036 58.8252 854.092 59.2734 854.203 59.6953C854.314 60.1113 854.481 60.4805 854.704 60.8027C854.933 61.125 855.217 61.3799 855.557 61.5674C855.896 61.749 856.292 61.8398 856.743 61.8398C857.188 61.8398 857.578 61.749 857.912 61.5674C858.252 61.3799 858.533 61.125 858.756 60.8027C858.979 60.4805 859.146 60.1113 859.257 59.6953C859.374 59.2734 859.433 58.8252 859.433 58.3506V58.1484C859.433 57.6797 859.374 57.2373 859.257 56.8213C859.146 56.3994 858.976 56.0273 858.747 55.7051C858.524 55.377 858.243 55.1191 857.903 54.9316C857.569 54.7441 857.177 54.6504 856.726 54.6504C856.28 54.6504 855.888 54.7441 855.548 54.9316C855.214 55.1191 854.933 55.377 854.704 55.7051C854.481 56.0273 854.314 56.3994 854.203 56.8213C854.092 57.2373 854.036 57.6797 854.036 58.1484ZM864.732 55.3184V66.6562H863.098V53.4902H864.592L864.732 55.3184ZM871.14 58.166V58.3506C871.14 59.042 871.058 59.6836 870.894 60.2754C870.729 60.8613 870.489 61.3711 870.173 61.8047C869.862 62.2383 869.479 62.5752 869.021 62.8154C868.564 63.0557 868.04 63.1758 867.448 63.1758C866.845 63.1758 866.312 63.0762 865.849 62.877C865.386 62.6777 864.993 62.3877 864.671 62.0068C864.349 61.626 864.091 61.1689 863.897 60.6357C863.71 60.1025 863.581 59.502 863.511 58.834V57.8496C863.581 57.1465 863.713 56.5166 863.906 55.96C864.1 55.4033 864.354 54.9287 864.671 54.5361C864.993 54.1377 865.383 53.8359 865.84 53.6309C866.297 53.4199 866.824 53.3145 867.422 53.3145C868.02 53.3145 868.55 53.4316 869.013 53.666C869.476 53.8945 869.865 54.2227 870.182 54.6504C870.498 55.0781 870.735 55.5908 870.894 56.1885C871.058 56.7803 871.14 57.4395 871.14 58.166ZM869.505 58.3506V58.166C869.505 57.6914 869.455 57.2461 869.355 56.8301C869.256 56.4082 869.101 56.0391 868.89 55.7227C868.685 55.4004 868.421 55.1484 868.099 54.9668C867.776 54.7793 867.393 54.6855 866.947 54.6855C866.537 54.6855 866.18 54.7559 865.875 54.8965C865.576 55.0371 865.321 55.2275 865.11 55.4678C864.899 55.7021 864.727 55.9717 864.592 56.2764C864.463 56.5752 864.366 56.8857 864.302 57.208V59.4844C864.419 59.8945 864.583 60.2812 864.794 60.6445C865.005 61.002 865.286 61.292 865.638 61.5146C865.989 61.7314 866.432 61.8398 866.965 61.8398C867.404 61.8398 867.782 61.749 868.099 61.5674C868.421 61.3799 868.685 61.125 868.89 60.8027C869.101 60.4805 869.256 60.1113 869.355 59.6953C869.455 59.2734 869.505 58.8252 869.505 58.3506Z" fill="black"/>
<path d="M906.047 57.0146H902.804L902.786 55.6523H905.73C906.217 55.6523 906.642 55.5703 907.005 55.4062C907.368 55.2422 907.649 55.0078 907.849 54.7031C908.054 54.3926 908.156 54.0234 908.156 53.5957C908.156 53.127 908.065 52.7461 907.884 52.4531C907.708 52.1543 907.436 51.9375 907.066 51.8027C906.703 51.6621 906.24 51.5918 905.678 51.5918H903.182V63H901.485V50.2031H905.678C906.334 50.2031 906.92 50.2705 907.436 50.4053C907.951 50.5342 908.388 50.7393 908.745 51.0205C909.108 51.2959 909.384 51.6475 909.571 52.0752C909.759 52.5029 909.853 53.0156 909.853 53.6133C909.853 54.1406 909.718 54.6182 909.448 55.0459C909.179 55.4678 908.804 55.8135 908.323 56.083C907.849 56.3525 907.292 56.5254 906.653 56.6016L906.047 57.0146ZM905.968 63H902.136L903.094 61.6201H905.968C906.507 61.6201 906.964 61.5264 907.339 61.3389C907.72 61.1514 908.01 60.8877 908.209 60.5479C908.408 60.2021 908.508 59.7949 908.508 59.3262C908.508 58.8516 908.423 58.4414 908.253 58.0957C908.083 57.75 907.816 57.4834 907.453 57.2959C907.09 57.1084 906.621 57.0146 906.047 57.0146H903.63L903.647 55.6523H906.952L907.312 56.1445C907.928 56.1973 908.449 56.373 908.877 56.6719C909.305 56.9648 909.63 57.3398 909.853 57.7969C910.081 58.2539 910.195 58.7578 910.195 59.3086C910.195 60.1055 910.02 60.7793 909.668 61.3301C909.322 61.875 908.833 62.291 908.2 62.5781C907.567 62.8594 906.823 63 905.968 63ZM914.221 49.5V63H912.586V49.5H914.221ZM916.4 58.3506V58.1484C916.4 57.4629 916.5 56.8271 916.699 56.2412C916.898 55.6494 917.186 55.1367 917.561 54.7031C917.936 54.2637 918.39 53.9238 918.923 53.6836C919.456 53.4375 920.054 53.3145 920.716 53.3145C921.384 53.3145 921.984 53.4375 922.518 53.6836C923.057 53.9238 923.514 54.2637 923.889 54.7031C924.27 55.1367 924.56 55.6494 924.759 56.2412C924.958 56.8271 925.058 57.4629 925.058 58.1484V58.3506C925.058 59.0361 924.958 59.6719 924.759 60.2578C924.56 60.8438 924.27 61.3564 923.889 61.7959C923.514 62.2295 923.06 62.5693 922.526 62.8154C921.999 63.0557 921.401 63.1758 920.733 63.1758C920.065 63.1758 919.465 63.0557 918.932 62.8154C918.398 62.5693 917.941 62.2295 917.561 61.7959C917.186 61.3564 916.898 60.8438 916.699 60.2578C916.5 59.6719 916.4 59.0361 916.4 58.3506ZM918.026 58.1484V58.3506C918.026 58.8252 918.082 59.2734 918.193 59.6953C918.305 60.1113 918.472 60.4805 918.694 60.8027C918.923 61.125 919.207 61.3799 919.547 61.5674C919.887 61.749 920.282 61.8398 920.733 61.8398C921.179 61.8398 921.568 61.749 921.902 61.5674C922.242 61.3799 922.523 61.125 922.746 60.8027C922.969 60.4805 923.136 60.1113 923.247 59.6953C923.364 59.2734 923.423 58.8252 923.423 58.3506V58.1484C923.423 57.6797 923.364 57.2373 923.247 56.8213C923.136 56.3994 922.966 56.0273 922.737 55.7051C922.515 55.377 922.233 55.1191 921.894 54.9316C921.56 54.7441 921.167 54.6504 920.716 54.6504C920.271 54.6504 919.878 54.7441 919.538 54.9316C919.204 55.1191 918.923 55.377 918.694 55.7051C918.472 56.0273 918.305 56.3994 918.193 56.8213C918.082 57.2373 918.026 57.6797 918.026 58.1484ZM933.258 53.4902H934.734V62.7979C934.734 63.6357 934.564 64.3506 934.225 64.9424C933.885 65.5342 933.41 65.9824 932.801 66.2871C932.197 66.5977 931.5 66.7529 930.709 66.7529C930.381 66.7529 929.994 66.7002 929.549 66.5947C929.109 66.4951 928.676 66.3223 928.248 66.0762C927.826 65.8359 927.472 65.5107 927.185 65.1006L928.037 64.1338C928.436 64.6143 928.852 64.9482 929.285 65.1357C929.725 65.3232 930.158 65.417 930.586 65.417C931.102 65.417 931.547 65.3203 931.922 65.127C932.297 64.9336 932.587 64.6465 932.792 64.2656C933.003 63.8906 933.108 63.4277 933.108 62.877V55.582L933.258 53.4902ZM926.71 58.3506V58.166C926.71 57.4395 926.795 56.7803 926.965 56.1885C927.141 55.5908 927.39 55.0781 927.712 54.6504C928.04 54.2227 928.436 53.8945 928.898 53.666C929.361 53.4316 929.883 53.3145 930.463 53.3145C931.061 53.3145 931.582 53.4199 932.027 53.6309C932.479 53.8359 932.859 54.1377 933.17 54.5361C933.486 54.9287 933.735 55.4033 933.917 55.96C934.099 56.5166 934.225 57.1465 934.295 57.8496V58.6582C934.23 59.3555 934.104 59.9824 933.917 60.5391C933.735 61.0957 933.486 61.5703 933.17 61.9629C932.859 62.3555 932.479 62.6572 932.027 62.8682C931.576 63.0732 931.049 63.1758 930.445 63.1758C929.877 63.1758 929.361 63.0557 928.898 62.8154C928.441 62.5752 928.049 62.2383 927.721 61.8047C927.393 61.3711 927.141 60.8613 926.965 60.2754C926.795 59.6836 926.71 59.042 926.71 58.3506ZM928.336 58.166V58.3506C928.336 58.8252 928.383 59.2705 928.477 59.6865C928.576 60.1025 928.726 60.4688 928.925 60.7852C929.13 61.1016 929.391 61.3506 929.707 61.5322C930.023 61.708 930.401 61.7959 930.841 61.7959C931.38 61.7959 931.825 61.6816 932.177 61.4531C932.528 61.2246 932.807 60.9229 933.012 60.5479C933.223 60.1729 933.387 59.7656 933.504 59.3262V57.208C933.439 56.8857 933.34 56.5752 933.205 56.2764C933.076 55.9717 932.906 55.7021 932.695 55.4678C932.49 55.2275 932.235 55.0371 931.931 54.8965C931.626 54.7559 931.269 54.6855 930.858 54.6855C930.413 54.6855 930.029 54.7793 929.707 54.9668C929.391 55.1484 929.13 55.4004 928.925 55.7227C928.726 56.0391 928.576 56.4082 928.477 56.8301C928.383 57.2461 928.336 57.6914 928.336 58.166Z" fill="black"/>
<path d="M970.047 57.0146H966.804L966.786 55.6523H969.73C970.217 55.6523 970.642 55.5703 971.005 55.4062C971.368 55.2422 971.649 55.0078 971.849 54.7031C972.054 54.3926 972.156 54.0234 972.156 53.5957C972.156 53.127 972.065 52.7461 971.884 52.4531C971.708 52.1543 971.436 51.9375 971.066 51.8027C970.703 51.6621 970.24 51.5918 969.678 51.5918H967.182V63H965.485V50.2031H969.678C970.334 50.2031 970.92 50.2705 971.436 50.4053C971.951 50.5342 972.388 50.7393 972.745 51.0205C973.108 51.2959 973.384 51.6475 973.571 52.0752C973.759 52.5029 973.853 53.0156 973.853 53.6133C973.853 54.1406 973.718 54.6182 973.448 55.0459C973.179 55.4678 972.804 55.8135 972.323 56.083C971.849 56.3525 971.292 56.5254 970.653 56.6016L970.047 57.0146ZM969.968 63H966.136L967.094 61.6201H969.968C970.507 61.6201 970.964 61.5264 971.339 61.3389C971.72 61.1514 972.01 60.8877 972.209 60.5479C972.408 60.2021 972.508 59.7949 972.508 59.3262C972.508 58.8516 972.423 58.4414 972.253 58.0957C972.083 57.75 971.816 57.4834 971.453 57.2959C971.09 57.1084 970.621 57.0146 970.047 57.0146H967.63L967.647 55.6523H970.952L971.312 56.1445C971.928 56.1973 972.449 56.373 972.877 56.6719C973.305 56.9648 973.63 57.3398 973.853 57.7969C974.081 58.2539 974.195 58.7578 974.195 59.3086C974.195 60.1055 974.02 60.7793 973.668 61.3301C973.322 61.875 972.833 62.291 972.2 62.5781C971.567 62.8594 970.823 63 969.968 63ZM976.023 58.3506V58.1484C976.023 57.4629 976.123 56.8271 976.322 56.2412C976.521 55.6494 976.809 55.1367 977.184 54.7031C977.559 54.2637 978.013 53.9238 978.546 53.6836C979.079 53.4375 979.677 53.3145 980.339 53.3145C981.007 53.3145 981.607 53.4375 982.141 53.6836C982.68 53.9238 983.137 54.2637 983.512 54.7031C983.893 55.1367 984.183 55.6494 984.382 56.2412C984.581 56.8271 984.681 57.4629 984.681 58.1484V58.3506C984.681 59.0361 984.581 59.6719 984.382 60.2578C984.183 60.8438 983.893 61.3564 983.512 61.7959C983.137 62.2295 982.683 62.5693 982.149 62.8154C981.622 63.0557 981.024 63.1758 980.356 63.1758C979.688 63.1758 979.088 63.0557 978.555 62.8154C978.021 62.5693 977.564 62.2295 977.184 61.7959C976.809 61.3564 976.521 60.8438 976.322 60.2578C976.123 59.6719 976.023 59.0361 976.023 58.3506ZM977.649 58.1484V58.3506C977.649 58.8252 977.705 59.2734 977.816 59.6953C977.928 60.1113 978.095 60.4805 978.317 60.8027C978.546 61.125 978.83 61.3799 979.17 61.5674C979.51 61.749 979.905 61.8398 980.356 61.8398C980.802 61.8398 981.191 61.749 981.525 61.5674C981.865 61.3799 982.146 61.125 982.369 60.8027C982.592 60.4805 982.759 60.1113 982.87 59.6953C982.987 59.2734 983.046 58.8252 983.046 58.3506V58.1484C983.046 57.6797 982.987 57.2373 982.87 56.8213C982.759 56.3994 982.589 56.0273 982.36 55.7051C982.138 55.377 981.856 55.1191 981.517 54.9316C981.183 54.7441 980.79 54.6504 980.339 54.6504C979.894 54.6504 979.501 54.7441 979.161 54.9316C978.827 55.1191 978.546 55.377 978.317 55.7051C978.095 56.0273 977.928 56.3994 977.816 56.8213C977.705 57.2373 977.649 57.6797 977.649 58.1484ZM986.289 58.3506V58.1484C986.289 57.4629 986.389 56.8271 986.588 56.2412C986.787 55.6494 987.074 55.1367 987.449 54.7031C987.824 54.2637 988.278 53.9238 988.812 53.6836C989.345 53.4375 989.942 53.3145 990.604 53.3145C991.272 53.3145 991.873 53.4375 992.406 53.6836C992.945 53.9238 993.402 54.2637 993.777 54.7031C994.158 55.1367 994.448 55.6494 994.647 56.2412C994.847 56.8271 994.946 57.4629 994.946 58.1484V58.3506C994.946 59.0361 994.847 59.6719 994.647 60.2578C994.448 60.8438 994.158 61.3564 993.777 61.7959C993.402 62.2295 992.948 62.5693 992.415 62.8154C991.888 63.0557 991.29 63.1758 990.622 63.1758C989.954 63.1758 989.354 63.0557 988.82 62.8154C988.287 62.5693 987.83 62.2295 987.449 61.7959C987.074 61.3564 986.787 60.8438 986.588 60.2578C986.389 59.6719 986.289 59.0361 986.289 58.3506ZM987.915 58.1484V58.3506C987.915 58.8252 987.971 59.2734 988.082 59.6953C988.193 60.1113 988.36 60.4805 988.583 60.8027C988.812 61.125 989.096 61.3799 989.436 61.5674C989.775 61.749 990.171 61.8398 990.622 61.8398C991.067 61.8398 991.457 61.749 991.791 61.5674C992.131 61.3799 992.412 61.125 992.635 60.8027C992.857 60.4805 993.024 60.1113 993.136 59.6953C993.253 59.2734 993.312 58.8252 993.312 58.3506V58.1484C993.312 57.6797 993.253 57.2373 993.136 56.8213C993.024 56.3994 992.854 56.0273 992.626 55.7051C992.403 55.377 992.122 55.1191 991.782 54.9316C991.448 54.7441 991.056 54.6504 990.604 54.6504C990.159 54.6504 989.767 54.7441 989.427 54.9316C989.093 55.1191 988.812 55.377 988.583 55.7051C988.36 56.0273 988.193 56.3994 988.082 56.8213C987.971 57.2373 987.915 57.6797 987.915 58.1484ZM998.62 49.5V63H996.985V49.5H998.62ZM1004.43 53.4902L1000.28 57.9287L997.961 60.3369L997.829 58.6055L999.49 56.6191L1002.44 53.4902H1004.43ZM1002.94 63L999.552 58.4648L1000.4 57.0146L1004.86 63H1002.94ZM1020.66 50.2031V63H1018.96L1012.52 53.1299V63H1010.82V50.2031H1012.52L1018.98 60.0996V50.2031H1020.66ZM1022.99 58.3506V58.1484C1022.99 57.4629 1023.09 56.8271 1023.29 56.2412C1023.49 55.6494 1023.78 55.1367 1024.15 54.7031C1024.53 54.2637 1024.98 53.9238 1025.51 53.6836C1026.05 53.4375 1026.65 53.3145 1027.31 53.3145C1027.98 53.3145 1028.58 53.4375 1029.11 53.6836C1029.65 53.9238 1030.11 54.2637 1030.48 54.7031C1030.86 55.1367 1031.15 55.6494 1031.35 56.2412C1031.55 56.8271 1031.65 57.4629 1031.65 58.1484V58.3506C1031.65 59.0361 1031.55 59.6719 1031.35 60.2578C1031.15 60.8438 1030.86 61.3564 1030.48 61.7959C1030.11 62.2295 1029.65 62.5693 1029.12 62.8154C1028.59 63.0557 1027.99 63.1758 1027.33 63.1758C1026.66 63.1758 1026.06 63.0557 1025.52 62.8154C1024.99 62.5693 1024.53 62.2295 1024.15 61.7959C1023.78 61.3564 1023.49 60.8438 1023.29 60.2578C1023.09 59.6719 1022.99 59.0361 1022.99 58.3506ZM1024.62 58.1484V58.3506C1024.62 58.8252 1024.67 59.2734 1024.79 59.6953C1024.9 60.1113 1025.06 60.4805 1025.29 60.8027C1025.51 61.125 1025.8 61.3799 1026.14 61.5674C1026.48 61.749 1026.87 61.8398 1027.33 61.8398C1027.77 61.8398 1028.16 61.749 1028.49 61.5674C1028.83 61.3799 1029.12 61.125 1029.34 60.8027C1029.56 60.4805 1029.73 60.1113 1029.84 59.6953C1029.96 59.2734 1030.01 58.8252 1030.01 58.3506V58.1484C1030.01 57.6797 1029.96 57.2373 1029.84 56.8213C1029.73 56.3994 1029.56 56.0273 1029.33 55.7051C1029.11 55.377 1028.83 55.1191 1028.49 54.9316C1028.15 54.7441 1027.76 54.6504 1027.31 54.6504C1026.86 54.6504 1026.47 54.7441 1026.13 54.9316C1025.8 55.1191 1025.51 55.377 1025.29 55.7051C1025.06 56.0273 1024.9 56.3994 1024.79 56.8213C1024.67 57.2373 1024.62 57.6797 1024.62 58.1484ZM1036.1 61.3125L1038.54 53.4902H1039.61L1039.4 55.0459L1036.91 63H1035.87L1036.1 61.3125ZM1034.45 53.4902L1036.54 61.4004L1036.69 63H1035.59L1032.83 53.4902H1034.45ZM1041.95 61.3389L1043.94 53.4902H1045.55L1042.79 63H1041.7L1041.95 61.3389ZM1039.85 53.4902L1042.24 61.1807L1042.51 63H1041.48L1038.92 55.0283L1038.71 53.4902H1039.85Z" fill="black"/>
<path d="M1080.22 51.3369L1075.99 63H1074.25L1079.13 50.2031H1080.25L1080.22 51.3369ZM1083.77 63L1079.53 51.3369L1079.5 50.2031H1080.62L1085.51 63H1083.77ZM1083.55 58.2627V59.6514H1076.36V58.2627H1083.55ZM1086.97 49.5H1088.61V61.1543L1088.47 63H1086.97V49.5ZM1095.03 58.166V58.3506C1095.03 59.042 1094.95 59.6836 1094.79 60.2754C1094.62 60.8613 1094.38 61.3711 1094.07 61.8047C1093.75 62.2383 1093.36 62.5752 1092.91 62.8154C1092.45 63.0557 1091.92 63.1758 1091.33 63.1758C1090.73 63.1758 1090.2 63.0732 1089.74 62.8682C1089.29 62.6572 1088.91 62.3555 1088.6 61.9629C1088.29 61.5703 1088.04 61.0957 1087.85 60.5391C1087.67 59.9824 1087.54 59.3555 1087.47 58.6582V57.8496C1087.54 57.1465 1087.67 56.5166 1087.85 55.96C1088.04 55.4033 1088.29 54.9287 1088.6 54.5361C1088.91 54.1377 1089.29 53.8359 1089.74 53.6309C1090.19 53.4199 1090.72 53.3145 1091.31 53.3145C1091.91 53.3145 1092.44 53.4316 1092.91 53.666C1093.37 53.8945 1093.75 54.2227 1094.07 54.6504C1094.38 55.0781 1094.62 55.5908 1094.79 56.1885C1094.95 56.7803 1095.03 57.4395 1095.03 58.166ZM1093.4 58.3506V58.166C1093.4 57.6914 1093.35 57.2461 1093.27 56.8301C1093.18 56.4082 1093.04 56.0391 1092.84 55.7227C1092.65 55.4004 1092.4 55.1484 1092.08 54.9668C1091.76 54.7793 1091.37 54.6855 1090.91 54.6855C1090.5 54.6855 1090.14 54.7559 1089.84 54.8965C1089.54 55.0371 1089.28 55.2275 1089.07 55.4678C1088.86 55.7021 1088.69 55.9717 1088.55 56.2764C1088.43 56.5752 1088.33 56.8857 1088.26 57.208V59.3262C1088.36 59.7363 1088.51 60.1318 1088.72 60.5127C1088.94 60.8877 1089.23 61.1953 1089.58 61.4355C1089.95 61.6758 1090.39 61.7959 1090.93 61.7959C1091.37 61.7959 1091.74 61.708 1092.05 61.5322C1092.37 61.3506 1092.62 61.1016 1092.82 60.7852C1093.02 60.4688 1093.16 60.1025 1093.26 59.6865C1093.35 59.2705 1093.4 58.8252 1093.4 58.3506ZM1096.66 58.3506V58.1484C1096.66 57.4629 1096.76 56.8271 1096.96 56.2412C1097.16 55.6494 1097.44 55.1367 1097.82 54.7031C1098.19 54.2637 1098.65 53.9238 1099.18 53.6836C1099.71 53.4375 1100.31 53.3145 1100.97 53.3145C1101.64 53.3145 1102.24 53.4375 1102.78 53.6836C1103.31 53.9238 1103.77 54.2637 1104.15 54.7031C1104.53 55.1367 1104.82 55.6494 1105.02 56.2412C1105.22 56.8271 1105.32 57.4629 1105.32 58.1484V58.3506C1105.32 59.0361 1105.22 59.6719 1105.02 60.2578C1104.82 60.8438 1104.53 61.3564 1104.15 61.7959C1103.77 62.2295 1103.32 62.5693 1102.78 62.8154C1102.26 63.0557 1101.66 63.1758 1100.99 63.1758C1100.32 63.1758 1099.72 63.0557 1099.19 62.8154C1098.66 62.5693 1098.2 62.2295 1097.82 61.7959C1097.44 61.3564 1097.16 60.8438 1096.96 60.2578C1096.76 59.6719 1096.66 59.0361 1096.66 58.3506ZM1098.28 58.1484V58.3506C1098.28 58.8252 1098.34 59.2734 1098.45 59.6953C1098.56 60.1113 1098.73 60.4805 1098.95 60.8027C1099.18 61.125 1099.46 61.3799 1099.8 61.5674C1100.14 61.749 1100.54 61.8398 1100.99 61.8398C1101.44 61.8398 1101.83 61.749 1102.16 61.5674C1102.5 61.3799 1102.78 61.125 1103 60.8027C1103.23 60.4805 1103.39 60.1113 1103.5 59.6953C1103.62 59.2734 1103.68 58.8252 1103.68 58.3506V58.1484C1103.68 57.6797 1103.62 57.2373 1103.5 56.8213C1103.39 56.3994 1103.22 56.0273 1103 55.7051C1102.77 55.377 1102.49 55.1191 1102.15 54.9316C1101.82 54.7441 1101.42 54.6504 1100.97 54.6504C1100.53 54.6504 1100.14 54.7441 1099.8 54.9316C1099.46 55.1191 1099.18 55.377 1098.95 55.7051C1098.73 56.0273 1098.56 56.3994 1098.45 56.8213C1098.34 57.2373 1098.28 57.6797 1098.28 58.1484ZM1113.17 60.8027V53.4902H1114.81V63H1113.25L1113.17 60.8027ZM1113.48 58.7988L1114.16 58.7812C1114.16 59.4141 1114.09 60 1113.96 60.5391C1113.83 61.0723 1113.62 61.5352 1113.32 61.9277C1113.03 62.3203 1112.65 62.6279 1112.17 62.8506C1111.7 63.0674 1111.12 63.1758 1110.44 63.1758C1109.98 63.1758 1109.55 63.1084 1109.17 62.9736C1108.78 62.8389 1108.46 62.6309 1108.18 62.3496C1107.91 62.0684 1107.69 61.7021 1107.54 61.251C1107.39 60.7998 1107.32 60.2578 1107.32 59.625V53.4902H1108.95V59.6426C1108.95 60.0703 1108.99 60.4248 1109.09 60.7061C1109.19 60.9814 1109.32 61.2012 1109.48 61.3652C1109.65 61.5234 1109.84 61.6348 1110.04 61.6992C1110.25 61.7637 1110.47 61.7959 1110.69 61.7959C1111.39 61.7959 1111.93 61.6641 1112.34 61.4004C1112.74 61.1309 1113.03 60.7705 1113.21 60.3193C1113.39 59.8623 1113.48 59.3555 1113.48 58.7988ZM1121.27 53.4902V54.7383H1116.13V53.4902H1121.27ZM1117.87 51.1787H1119.49V60.6445C1119.49 60.9668 1119.54 61.21 1119.64 61.374C1119.74 61.5381 1119.87 61.6465 1120.03 61.6992C1120.19 61.752 1120.36 61.7783 1120.54 61.7783C1120.67 61.7783 1120.81 61.7666 1120.96 61.7432C1121.11 61.7139 1121.23 61.6904 1121.3 61.6729L1121.31 63C1121.18 63.041 1121.01 63.0791 1120.8 63.1143C1120.6 63.1553 1120.35 63.1758 1120.05 63.1758C1119.66 63.1758 1119.29 63.0967 1118.96 62.9385C1118.62 62.7803 1118.36 62.5166 1118.16 62.1475C1117.96 61.7725 1117.87 61.2686 1117.87 60.6357V51.1787ZM1135.21 50.2031H1136.89V58.8604C1136.89 59.8213 1136.68 60.6211 1136.25 61.2598C1135.83 61.8984 1135.26 62.3789 1134.55 62.7012C1133.84 63.0176 1133.08 63.1758 1132.25 63.1758C1131.39 63.1758 1130.6 63.0176 1129.9 62.7012C1129.2 62.3789 1128.65 61.8984 1128.24 61.2598C1127.83 60.6211 1127.63 59.8213 1127.63 58.8604V50.2031H1129.31V58.8604C1129.31 59.5283 1129.43 60.0791 1129.68 60.5127C1129.92 60.9463 1130.27 61.2686 1130.71 61.4795C1131.15 61.6904 1131.67 61.7959 1132.25 61.7959C1132.85 61.7959 1133.36 61.6904 1133.8 61.4795C1134.25 61.2686 1134.59 60.9463 1134.84 60.5127C1135.08 60.0791 1135.21 59.5283 1135.21 58.8604V50.2031ZM1144.85 60.4775C1144.85 60.2432 1144.8 60.0264 1144.69 59.8271C1144.59 59.6221 1144.38 59.4375 1144.07 59.2734C1143.76 59.1035 1143.29 58.957 1142.66 58.834C1142.13 58.7227 1141.66 58.5908 1141.23 58.4385C1140.81 58.2861 1140.45 58.1016 1140.15 57.8848C1139.85 57.668 1139.63 57.4131 1139.47 57.1201C1139.31 56.8271 1139.23 56.4844 1139.23 56.0918C1139.23 55.7168 1139.31 55.3623 1139.48 55.0283C1139.65 54.6943 1139.89 54.3984 1140.19 54.1406C1140.5 53.8828 1140.87 53.6807 1141.31 53.5342C1141.74 53.3877 1142.22 53.3145 1142.76 53.3145C1143.52 53.3145 1144.17 53.4492 1144.71 53.7188C1145.25 53.9883 1145.66 54.3486 1145.95 54.7998C1146.23 55.2451 1146.38 55.7402 1146.38 56.2852H1144.75C1144.75 56.0215 1144.67 55.7666 1144.51 55.5205C1144.36 55.2686 1144.14 55.0605 1143.84 54.8965C1143.54 54.7324 1143.18 54.6504 1142.76 54.6504C1142.31 54.6504 1141.94 54.7207 1141.66 54.8613C1141.38 54.9961 1141.18 55.1689 1141.05 55.3799C1140.93 55.5908 1140.87 55.8135 1140.87 56.0479C1140.87 56.2236 1140.9 56.3818 1140.96 56.5225C1141.02 56.6572 1141.13 56.7832 1141.29 56.9004C1141.45 57.0117 1141.67 57.1172 1141.96 57.2168C1142.24 57.3164 1142.61 57.416 1143.06 57.5156C1143.83 57.6914 1144.48 57.9023 1144.98 58.1484C1145.48 58.3945 1145.86 58.6963 1146.11 59.0537C1146.35 59.4111 1146.47 59.8447 1146.47 60.3545C1146.47 60.7705 1146.39 61.1514 1146.21 61.4971C1146.04 61.8428 1145.79 62.1416 1145.46 62.3936C1145.14 62.6396 1144.75 62.833 1144.3 62.9736C1143.86 63.1084 1143.36 63.1758 1142.8 63.1758C1141.96 63.1758 1141.25 63.0264 1140.67 62.7275C1140.09 62.4287 1139.65 62.042 1139.36 61.5674C1139.06 61.0928 1138.91 60.5918 1138.91 60.0645H1140.54C1140.57 60.5098 1140.69 60.8643 1140.93 61.1279C1141.16 61.3857 1141.45 61.5703 1141.79 61.6816C1142.13 61.7871 1142.47 61.8398 1142.8 61.8398C1143.25 61.8398 1143.62 61.7812 1143.92 61.6641C1144.22 61.5469 1144.45 61.3857 1144.61 61.1807C1144.77 60.9756 1144.85 60.7412 1144.85 60.4775Z" fill="black"/>
<path d="M1192.25 67.5C1193.22 67.5 1194 66.7165 1194 65.75C1194 64.7835 1193.22 64 1192.25 64C1191.28 64 1190.5 64.7835 1190.5 65.75C1190.5 66.7165 1191.28 67.5 1192.25 67.5Z" fill="black"/>
<path d="M1184.25 67.5C1185.22 67.5 1186 66.7165 1186 65.75C1186 64.7835 1185.22 64 1184.25 64C1183.28 64 1182.5 64.7835 1182.5 65.75C1182.5 66.7165 1183.28 67.5 1184.25 67.5Z" fill="black"/>
<path d="M1180.84 48.94L1180.64 51.39C1180.6 51.86 1180.97 52.25 1181.44 52.25H1196.75C1197.17 52.25 1197.52 51.93 1197.55 51.51C1197.68 49.74 1196.33 48.3 1194.56 48.3H1182.27C1182.17 47.86 1181.97 47.44 1181.66 47.09C1181.16 46.56 1180.46 46.25 1179.74 46.25H1178C1177.59 46.25 1177.25 46.59 1177.25 47C1177.25 47.41 1177.59 47.75 1178 47.75H1179.74C1180.05 47.75 1180.34 47.88 1180.55 48.1C1180.76 48.33 1180.86 48.63 1180.84 48.94Z" fill="black"/>
<path d="M1196.51 53.75H1181.17C1180.75 53.75 1180.41 54.07 1180.37 54.48L1180.01 58.83C1179.87 60.54 1181.21 62 1182.92 62H1194.04C1195.54 62 1196.86 60.77 1196.97 59.27L1197.3 54.6C1197.34 54.14 1196.98 53.75 1196.51 53.75Z" fill="black"/>
</g>
<defs>
<filter id="filter0_f_63_11520" x="-990" y="-278" width="3262" height="3262" filterUnits="userSpaceOnUse" color-interpolation-filters="sRGB">
<feFlood flood-opacity="0" result="BackgroundImageFix"/>
<feBlend mode="normal" in="SourceGraphic" in2="BackgroundImageFix" result="shape"/>
<feGaussianBlur stdDeviation="30" result="effect1_foregroundBlur_63_11520"/>
</filter>
<radialGradient id="paint0_radial_63_11520" cx="0" cy="0" r="1" gradientUnits="userSpaceOnUse" gradientTransform="translate(694.5 626.5) rotate(-90) scale(626.5 963.846)">
<stop stop-color="#30112E"/>
<stop offset="1" stop-color="#0F0F0F"/>
</radialGradient>
<clipPath id="clip0_63_11520">
<rect width="1280" height="832" fill="white"/>
</clipPath>
</defs>
</svg>
