<svg width="1280" height="495" viewBox="0 0 1280 495" fill="none" xmlns="http://www.w3.org/2000/svg">
<rect x="-1" y="2" width="1282.21" height="491" fill="url(#paint0_linear_88_711)"/>
<g opacity="0.4" filter="url(#filter0_f_88_711)">
<path d="M1200.69 144.899C1201.36 145.166 1201.52 145.7 1201.19 146.056C1200.69 146.411 1199.69 146.5 1199.02 146.322C1198.35 146.056 1198.18 145.522 1198.52 145.166C1198.85 144.811 1199.85 144.722 1200.69 144.899Z" fill="#F4DEFA"/>
<path d="M813.42 281.24C814.255 281.507 814.422 282.041 813.921 282.485C813.42 282.93 812.417 283.019 811.582 282.752C810.747 282.485 810.58 281.952 811.081 281.507C811.582 281.062 812.584 280.885 813.42 281.24Z" fill="#F4DEFA"/>
<path d="M722.367 277.95C723.537 278.394 723.871 279.284 723.035 279.906C722.2 280.529 720.529 280.707 719.36 280.262C718.19 279.817 717.856 278.928 718.692 278.305C719.527 277.683 721.198 277.505 722.367 277.95Z" fill="#F4DEFA"/>
<g opacity="0.5712">
<path d="M622.628 290.223C623.797 290.668 624.131 291.557 623.296 292.18C622.461 292.802 620.79 292.98 619.621 292.535C618.451 292.091 618.117 291.201 618.952 290.579C619.788 289.956 621.458 289.778 622.628 290.223Z" fill="#F4DEFA"/>
</g>
<g opacity="0.2044">
<path d="M589.38 259.184C590.717 259.629 591.051 260.607 590.215 261.318C589.38 262.03 587.542 262.208 586.206 261.763C584.869 261.318 584.535 260.34 585.37 259.629C586.206 258.917 588.044 258.739 589.38 259.184Z" fill="#F4DEFA"/>
</g>
<g opacity="0.9521">
<path d="M597.4 241.752C598.736 242.286 599.07 243.264 598.235 243.976C597.233 244.687 595.395 244.865 594.058 244.42C592.722 243.887 592.388 242.908 593.223 242.197C594.225 241.485 596.063 241.308 597.4 241.752Z" fill="#F4DEFA"/>
</g>
<g opacity="0.8985">
<path d="M619.954 271.013C621.458 271.546 621.792 272.613 620.789 273.414C619.787 274.214 617.782 274.392 616.278 273.859C614.775 273.325 614.441 272.258 615.443 271.457C616.446 270.746 618.45 270.568 619.954 271.013Z" fill="#F4DEFA"/>
</g>
<g opacity="0.9328">
<path d="M534.65 211.243C535.986 211.687 536.32 212.665 535.485 213.466C534.65 214.177 532.812 214.355 531.308 213.911C529.972 213.466 529.638 212.488 530.473 211.687C531.475 210.976 533.313 210.798 534.65 211.243Z" fill="#F4DEFA"/>
</g>
<path d="M82.9988 195.2C84.5025 195.733 84.8366 196.801 83.8342 197.512C82.8318 198.313 80.8269 198.491 79.4904 197.957C77.9867 197.423 77.6526 196.356 78.655 195.645C79.6574 194.933 81.6623 194.755 82.9988 195.2Z" fill="#F4DEFA"/>
<path d="M154.838 236.911C156.007 237.356 156.341 238.157 155.506 238.779C154.671 239.402 153.167 239.58 151.998 239.135C150.828 238.69 150.494 237.89 151.329 237.267C152.165 236.645 153.668 236.556 154.838 236.911Z" fill="#F4DEFA"/>
<path d="M181.57 196C182.405 196.356 182.739 196.979 182.071 197.423C181.403 197.868 180.233 198.046 179.398 197.69C178.562 197.334 178.228 196.712 178.897 196.267C179.398 195.822 180.567 195.644 181.57 196Z" fill="#F4DEFA"/>
<g opacity="0.766">
<path d="M50.4198 146.195C51.2552 146.462 51.4222 147.085 50.921 147.529C50.4198 147.974 49.2503 148.063 48.415 147.796C47.5796 147.529 47.4126 146.907 47.9138 146.462C48.415 146.017 49.5845 145.84 50.4198 146.195Z" fill="#F4DEFA"/>
</g>
<g opacity="0.6208">
<path d="M458.439 229.088C459.609 229.533 459.943 230.423 459.108 231.045C458.272 231.668 456.602 231.846 455.432 231.401C454.263 230.956 453.928 230.067 454.764 229.444C455.599 228.822 457.27 228.644 458.439 229.088Z" fill="#F4DEFA"/>
</g>
<g opacity="0.9716">
<path d="M378.549 230.266C379.384 230.533 379.551 231.155 379.05 231.689C378.549 232.134 377.379 232.223 376.377 231.956C375.542 231.689 375.374 231.066 375.876 230.533C376.544 230.088 377.713 229.999 378.549 230.266Z" fill="#F4DEFA"/>
</g>
<g opacity="0.8655">
<path d="M518.375 247.889C519.21 248.156 519.377 248.689 518.876 249.134C518.375 249.579 517.372 249.667 516.537 249.401C515.702 249.134 515.535 248.6 516.036 248.156C516.537 247.711 517.539 247.622 518.375 247.889Z" fill="#F4DEFA"/>
</g>
<g opacity="0.6978">
<path d="M642.675 292.091C643.844 292.535 644.178 293.425 643.343 294.047C642.508 294.67 640.837 294.848 639.667 294.403C638.498 293.958 638.164 293.069 638.999 292.447C639.835 291.824 641.505 291.646 642.675 292.091Z" fill="#F4DEFA"/>
</g>
<path d="M714.515 311.39C715.35 311.746 715.684 312.368 715.016 312.813C714.348 313.258 713.178 313.436 712.343 313.08C711.508 312.724 711.174 312.102 711.842 311.657C712.51 311.123 713.68 311.034 714.515 311.39Z" fill="#F4DEFA"/>
<g opacity="0.4183">
<path d="M544.772 291.379C545.942 291.824 546.276 292.624 545.441 293.247C544.605 293.869 543.102 294.047 541.932 293.603C540.763 293.158 540.428 292.358 541.264 291.735C542.099 291.112 543.603 291.023 544.772 291.379Z" fill="#F4DEFA"/>
</g>
<g opacity="0.3442">
<path d="M445.366 285.687C446.536 286.132 446.87 287.021 446.034 287.733C445.199 288.355 443.528 288.533 442.192 288.089C441.022 287.644 440.688 286.754 441.524 286.043C442.526 285.42 444.197 285.243 445.366 285.687Z" fill="#F4DEFA"/>
</g>
<g opacity="0.107">
<path d="M417.8 295.559C418.969 295.915 419.136 296.804 418.468 297.338C417.8 297.872 416.129 298.049 415.127 297.694C413.957 297.338 413.79 296.449 414.458 295.915C415.127 295.292 416.63 295.203 417.8 295.559Z" fill="#F4DEFA"/>
</g>
<g opacity="0.8454">
<path d="M470.594 169.713C471.262 169.98 471.429 170.424 470.928 170.78C470.427 171.136 469.592 171.225 468.923 170.958C468.255 170.691 468.088 170.247 468.589 169.891C469.09 169.535 469.926 169.535 470.594 169.713Z" fill="#F4DEFA"/>
</g>
<g opacity="0.8801">
<path d="M497.158 106.567C497.492 106.656 497.659 106.923 497.325 107.101C497.158 107.278 496.657 107.367 496.323 107.19C495.989 107.101 495.822 106.834 496.156 106.656C496.323 106.479 496.657 106.479 497.158 106.567Z" fill="#F4DEFA"/>
</g>
<g opacity="0.2181">
<path d="M342.785 111.103C343.62 111.37 343.787 111.904 343.286 112.348C342.785 112.793 341.783 112.882 340.947 112.615C340.112 112.348 339.945 111.815 340.446 111.37C340.947 110.925 342.117 110.837 342.785 111.103Z" fill="#F4DEFA"/>
</g>
<g opacity="0.995">
<path d="M246.721 129.513C247.389 129.78 247.556 130.314 247.222 130.67C246.721 131.025 245.718 131.114 245.05 130.936C244.382 130.67 244.215 130.136 244.549 129.78C245.05 129.335 246.053 129.247 246.721 129.513Z" fill="#F4DEFA"/>
</g>
<path d="M286.818 214.982C287.487 215.249 287.654 215.783 287.32 216.138C286.818 216.494 285.816 216.583 285.148 216.405C284.479 216.138 284.312 215.605 284.647 215.249C285.148 214.893 286.15 214.715 286.818 214.982Z" fill="#F4DEFA"/>
<g opacity="0.8077">
<path d="M372.857 151.926C374.027 152.37 374.361 153.171 373.526 153.793C372.69 154.416 371.187 154.594 370.017 154.149C368.848 153.704 368.513 152.904 369.349 152.281C370.184 151.659 371.688 151.481 372.857 151.926Z" fill="#F4DEFA"/>
</g>
<g opacity="0.5958">
<path d="M235.86 111.815C236.529 112.082 236.696 112.615 236.362 112.971C235.86 113.327 234.858 113.416 234.19 113.238C233.521 112.971 233.354 112.437 233.689 112.082C234.023 111.726 235.025 111.637 235.86 111.815Z" fill="#F4DEFA"/>
</g>
<g opacity="0.1713">
<path d="M339.945 96.1619C340.614 96.4287 340.781 96.9623 340.447 97.318C339.945 97.6738 338.943 97.7627 338.275 97.5848C337.606 97.318 337.439 96.7844 337.774 96.4287C338.108 96.0729 339.277 95.895 339.945 96.1619Z" fill="#F4DEFA"/>
</g>
<g opacity="0.3056">
<path d="M358.825 122.398C359.66 122.754 359.994 123.377 359.326 123.821C358.657 124.266 357.488 124.444 356.653 124.088C355.817 123.732 355.483 123.11 356.151 122.665C356.653 122.22 357.822 122.132 358.825 122.398Z" fill="#F4DEFA"/>
</g>
<g opacity="0.7292">
<path d="M421.643 129.335C422.813 129.78 423.147 130.581 422.312 131.203C421.476 131.826 419.973 132.004 418.803 131.559C417.634 131.114 417.3 130.314 418.135 129.691C418.803 129.069 420.474 128.891 421.643 129.335Z" fill="#F4DEFA"/>
</g>
<g opacity="0.2636">
<path d="M318.561 104.522C319.229 104.789 319.396 105.322 319.062 105.678C318.561 106.034 317.558 106.123 316.89 105.945C316.222 105.678 316.055 105.144 316.389 104.789C316.723 104.344 317.725 104.255 318.561 104.522Z" fill="#F4DEFA"/>
</g>
<path d="M372.692 44.6672C373.36 44.934 373.527 45.4676 373.193 45.8234C372.691 46.1791 371.689 46.2681 371.021 46.0902C370.353 45.8234 370.185 45.2897 370.52 44.934C371.021 44.5783 372.023 44.4893 372.692 44.6672Z" fill="#F4DEFA"/>
<path d="M419.805 42.2659C420.473 42.5327 420.64 43.0663 420.306 43.422C419.805 43.7778 418.802 43.8667 418.134 43.6889C417.466 43.422 417.299 42.8884 417.633 42.5327C418.134 42.1769 419.137 41.999 419.805 42.2659Z" fill="#F4DEFA"/>
<path d="M439.52 53.2051C440.188 53.472 440.355 54.0056 440.021 54.3613C439.52 54.7171 438.517 54.806 437.849 54.6281C437.181 54.3613 437.014 53.8277 437.348 53.472C437.849 53.0273 438.851 52.9383 439.52 53.2051Z" fill="#F4DEFA"/>
<path d="M464.746 43.2442C465.414 43.511 465.582 44.0446 465.247 44.4004C464.746 44.7561 463.744 44.8451 463.076 44.6672C462.407 44.4004 462.24 43.8668 462.574 43.511C463.075 43.0663 464.078 42.9774 464.746 43.2442Z" fill="#F4DEFA"/>
<path d="M348.466 2.15514C349.134 2.42195 349.301 2.95557 348.967 3.31132C348.299 3.66707 347.464 3.75601 346.628 3.4892C345.96 3.22238 345.793 2.68876 346.127 2.33301C346.795 1.97726 347.798 1.88832 348.466 2.15514Z" fill="#F4DEFA"/>
<path d="M333.095 12.1161C333.763 12.383 333.93 12.9166 333.596 13.2723C333.095 13.6281 332.092 13.717 331.424 13.5391C330.756 13.2723 330.589 12.7387 330.923 12.383C331.424 11.9383 332.427 11.8493 333.095 12.1161Z" fill="#F4DEFA"/>
<path d="M216.817 21.5435C217.485 21.8103 217.652 22.3439 217.318 22.6997C216.817 23.0554 215.814 23.1444 215.146 22.9665C214.478 22.6997 214.31 22.1661 214.645 21.8103C215.146 21.4546 216.148 21.2767 216.817 21.5435Z" fill="#F4DEFA"/>
<path d="M68.6251 13.0944C69.2934 13.3612 69.4605 13.8948 69.1263 14.2506C68.6251 14.6063 67.6227 14.6953 66.9544 14.5174C66.2861 14.2506 66.1191 13.717 66.4532 13.3612C66.9544 12.9165 67.9568 12.8276 68.6251 13.0944Z" fill="#F4DEFA"/>
<path d="M119.915 15.4068C120.583 15.6736 120.75 16.2072 120.416 16.563C119.915 16.9187 118.913 17.0077 118.244 16.8298C117.576 16.563 117.409 16.0293 117.743 15.6736C118.244 15.3178 119.247 15.14 119.915 15.4068Z" fill="#F4DEFA"/>
<path d="M60.1046 42.9774C60.7729 43.2442 60.9399 43.7778 60.6058 44.1335C60.1046 44.4893 59.1022 44.5782 58.4339 44.4003C57.7656 44.1335 57.5986 43.5999 57.9327 43.2442C58.4339 42.7995 59.4363 42.7105 60.1046 42.9774Z" fill="#F4DEFA"/>
<path d="M13.9923 38.7973C14.6606 39.0641 14.8276 39.5977 14.4935 39.9535C13.9923 40.3092 12.9899 40.3982 12.3216 40.2203C11.6533 39.9535 11.4863 39.4199 11.8204 39.0641C12.3216 38.7084 13.324 38.6194 13.9923 38.7973Z" fill="#F4DEFA"/>
<path d="M43.5636 77.2182C44.2319 77.485 44.3989 78.0186 44.0648 78.3744C43.5636 78.7301 42.5612 78.8191 41.8929 78.6412C41.2246 78.3744 41.0575 77.8408 41.3917 77.485C41.8929 77.0403 42.8953 76.9514 43.5636 77.2182Z" fill="#F4DEFA"/>
<path d="M26.6905 79.6195C27.3588 79.8863 27.5259 80.4199 27.1917 80.7757C26.6905 81.1314 25.6881 81.2204 25.0198 81.0425C24.3516 80.7757 24.1845 80.2421 24.5186 79.8863C25.0198 79.4416 26.0223 79.3527 26.6905 79.6195Z" fill="#F4DEFA"/>
<path d="M72.6339 25.1899C73.3022 25.4567 73.4692 25.9903 73.1351 26.3461C72.6339 26.7018 71.6315 26.7907 70.9632 26.6129C70.2949 26.3461 70.1279 25.8124 70.462 25.4567C70.9632 25.012 71.9656 24.9231 72.6339 25.1899Z" fill="#F4DEFA"/>
<path d="M8.31358 62.2768C8.98186 62.5436 9.14893 63.0772 8.81479 63.433C8.31358 63.7887 7.31116 63.8777 6.64289 63.6998C5.97461 63.433 5.80754 62.8993 6.14168 62.5436C6.64289 62.1878 7.47823 62.01 8.31358 62.2768Z" fill="#F4DEFA"/>
<path d="M104.879 138.407C105.547 138.674 105.714 139.207 105.38 139.563C104.879 139.919 103.877 140.008 103.208 139.83C102.54 139.563 102.373 139.03 102.707 138.674C103.208 138.318 104.211 138.229 104.879 138.407Z" fill="#F4DEFA"/>
<path d="M57.5987 198.262C58.267 198.529 58.4341 199.062 58.0999 199.418C57.5987 199.774 56.5963 199.863 55.928 199.685C55.2598 199.418 55.0927 198.884 55.4268 198.529C55.928 198.084 56.9305 197.995 57.5987 198.262Z" fill="#F4DEFA"/>
<path d="M95.3565 259.717C96.0248 259.984 96.1919 260.518 95.8578 260.874C95.3566 261.229 94.3541 261.318 93.6859 261.14C93.0176 260.874 92.8505 260.34 93.1846 259.984C93.6859 259.54 94.6883 259.451 95.3565 259.717Z" fill="#F4DEFA"/>
<path d="M154.665 281.596C155.333 281.863 155.5 282.396 155.166 282.752C154.665 283.108 153.663 283.197 152.994 283.019C152.326 282.752 152.159 282.219 152.493 281.863C152.827 281.418 153.83 281.329 154.665 281.596Z" fill="#F4DEFA"/>
<g opacity="0.7855">
<path d="M10.3175 303.386C10.9858 303.653 11.1528 304.186 10.8187 304.542C10.3175 304.898 9.31507 304.987 8.64679 304.809C7.97852 304.542 7.81145 304.008 8.14558 303.653C8.64679 303.208 9.64921 303.119 10.3175 303.386Z" fill="#F4DEFA"/>
</g>
<g opacity="0.6587">
<path d="M47.5743 289.6C48.2426 289.867 48.4097 290.401 48.0755 290.757C47.5743 291.112 46.5719 291.201 45.9036 291.023C45.2354 290.757 45.0683 290.223 45.4024 289.867C45.9036 289.423 46.906 289.334 47.5743 289.6Z" fill="#F4DEFA"/>
</g>
<path d="M79.6515 261.763C80.3197 262.03 80.4868 262.563 80.1527 262.919C79.6515 263.275 78.6491 263.364 77.9808 263.186C77.3125 262.919 77.1454 262.386 77.4796 262.03C77.9808 261.585 78.9832 261.496 79.6515 261.763Z" fill="#F4DEFA"/>
<path d="M77.9815 267.188C78.6498 267.455 78.8169 267.989 78.4828 268.344C77.9815 268.7 76.9791 268.789 76.3109 268.611C75.6426 268.344 75.4755 267.811 75.8096 267.455C76.1438 267.01 77.1462 266.921 77.9815 267.188Z" fill="#F4DEFA"/>
<g opacity="0.426">
<path d="M33.7071 309.433C34.3754 309.7 34.5425 310.234 34.2083 310.59C33.7071 310.945 32.7047 311.034 32.0364 310.856C31.3682 310.59 31.2011 310.056 31.5352 309.7C32.0364 309.344 33.0389 309.167 33.7071 309.433Z" fill="#F4DEFA"/>
</g>
<g opacity="0.1658">
<path d="M74.9747 325.442C75.643 325.709 75.8101 326.243 75.4759 326.598C74.9747 326.954 73.9723 327.043 73.304 326.865C72.6357 326.598 72.4687 326.065 72.8028 325.709C73.304 325.264 74.3064 325.175 74.9747 325.442Z" fill="#F4DEFA"/>
</g>
<g opacity="0.1779">
<path d="M53.589 322.063C54.2573 322.329 54.4243 322.863 54.0902 323.219C53.589 323.575 52.5866 323.663 51.9183 323.486C51.25 323.219 51.0829 322.685 51.4171 322.329C51.9183 321.885 52.9207 321.796 53.589 322.063Z" fill="#F4DEFA"/>
</g>
<g opacity="0.3975">
<path d="M103.04 308.722C103.708 308.989 103.875 309.522 103.541 309.878C103.04 310.234 102.038 310.323 101.369 310.145C100.701 309.878 100.534 309.345 100.868 308.989C101.369 308.544 102.372 308.455 103.04 308.722Z" fill="#F4DEFA"/>
</g>
<g opacity="0.1677">
<path d="M66.4523 323.752C67.1205 324.019 67.2876 324.553 66.9535 324.909C66.4523 325.264 65.4498 325.353 64.7816 325.175C64.1133 324.909 63.9462 324.375 64.2804 324.019C64.7816 323.663 65.6169 323.486 66.4523 323.752Z" fill="#F4DEFA"/>
</g>
<g opacity="0.1133">
<path d="M75.6417 335.848C76.31 336.115 76.4771 336.648 76.1429 337.004C75.6417 337.36 74.6393 337.449 73.971 337.271C73.3027 337.004 73.1357 336.47 73.4698 336.115C73.971 335.759 74.8064 335.67 75.6417 335.848Z" fill="#F4DEFA"/>
</g>
<g opacity="0.3335">
<path d="M69.4601 302.141C70.1283 302.407 70.2954 302.941 69.9613 303.297C69.4601 303.653 68.4576 303.742 67.7894 303.564C67.1211 303.297 66.954 302.763 67.2882 302.407C67.7894 301.963 68.6247 301.874 69.4601 302.141Z" fill="#F4DEFA"/>
</g>
<g opacity="0.4937">
<path d="M71.6319 293.247C72.3002 293.514 72.4673 294.047 72.1332 294.403C71.6319 294.759 70.6295 294.848 69.9613 294.67C69.293 294.403 69.1259 293.869 69.46 293.514C69.9612 293.158 70.9637 293.069 71.6319 293.247Z" fill="#F4DEFA"/>
</g>
<g opacity="0.7598">
<path d="M146.312 427.809C146.98 428.076 147.147 428.609 146.813 428.965C146.312 429.321 145.309 429.41 144.641 429.232C143.973 428.965 143.806 428.432 144.14 428.076C144.474 427.631 145.476 427.542 146.312 427.809Z" fill="#F4DEFA"/>
</g>
<path d="M10.4845 452.178C11.1528 452.445 11.3198 452.978 10.9857 453.334C10.4845 453.69 9.48206 453.779 8.81379 453.601C8.14551 453.334 7.97844 452.8 8.31258 452.445C8.81379 452 9.8162 451.911 10.4845 452.178Z" fill="#F4DEFA"/>
<g opacity="0.7634">
<path d="M92.8507 462.761C93.519 463.028 93.686 463.562 93.3519 463.918C92.8507 464.273 91.8483 464.362 91.18 464.184C90.5117 463.918 90.3446 463.384 90.6788 463.028C91.18 462.584 92.1824 462.495 92.8507 462.761Z" fill="#F4DEFA"/>
</g>
<g opacity="0.6922">
<path d="M143.473 457.514C144.141 457.781 144.308 458.314 143.974 458.67C143.473 459.026 142.47 459.115 141.802 458.937C141.134 458.67 140.967 458.136 141.301 457.781C141.802 457.336 142.637 457.247 143.473 457.514Z" fill="#F4DEFA"/>
</g>
<path d="M305.529 444.974C306.198 445.241 306.365 445.774 306.031 446.13C305.529 446.486 304.527 446.575 303.859 446.397C303.19 446.13 303.023 445.596 303.358 445.241C303.859 444.796 304.861 444.707 305.529 444.974Z" fill="#F4DEFA"/>
<path d="M323.238 472.811C323.907 473.078 324.074 473.612 323.74 473.967C323.238 474.323 322.236 474.412 321.568 474.234C320.899 474.056 320.732 473.434 321.066 473.078C321.568 472.633 322.57 472.544 323.238 472.811Z" fill="#F4DEFA"/>
<path d="M607.256 439.46C607.59 439.549 607.59 439.816 607.423 439.904C607.256 440.082 606.755 440.082 606.588 439.993C606.421 439.904 606.254 439.638 606.421 439.549C606.588 439.371 606.922 439.371 607.256 439.46Z" fill="#F4DEFA"/>
<path d="M650.862 405.841C651.531 406.108 651.698 406.642 651.364 406.998C650.862 407.353 649.86 407.442 649.192 407.264C648.523 406.998 648.356 406.464 648.69 406.108C649.192 405.663 650.194 405.575 650.862 405.841Z" fill="#F4DEFA"/>
<path d="M557.637 424.429C558.305 424.696 558.472 425.23 558.138 425.585C557.637 425.941 556.634 426.03 555.966 425.852C555.298 425.585 555.131 425.052 555.465 424.696C555.799 424.34 556.801 424.162 557.637 424.429Z" fill="#F4DEFA"/>
<path d="M478.612 434.212C479.281 434.479 479.448 435.013 479.114 435.369C478.612 435.724 477.61 435.813 476.942 435.635C476.273 435.369 476.106 434.835 476.441 434.479C476.942 434.035 477.944 433.946 478.612 434.212Z" fill="#F4DEFA"/>
<path d="M552.456 473.167C553.124 473.434 553.292 473.967 552.957 474.323C552.456 474.679 551.454 474.768 550.785 474.59C550.117 474.323 549.95 473.789 550.284 473.434C550.785 472.989 551.788 472.9 552.456 473.167Z" fill="#F4DEFA"/>
<path d="M588.712 439.193C589.213 439.371 589.38 439.727 589.046 439.993C588.712 440.26 588.043 440.349 587.542 440.171C587.041 439.993 586.874 439.638 587.208 439.371C587.542 439.104 588.21 439.015 588.712 439.193Z" fill="#F4DEFA"/>
<path d="M637.161 430.833C637.662 431.011 637.829 431.455 637.495 431.722C637.161 431.989 636.326 432.078 635.824 431.9C635.323 431.722 635.156 431.277 635.49 431.011C635.824 430.744 636.493 430.655 637.161 430.833Z" fill="#F4DEFA"/>
<path d="M574.512 457.425C575.18 457.692 575.347 458.226 575.013 458.581C574.512 458.937 573.509 459.026 572.841 458.848C572.173 458.581 572.006 458.048 572.34 457.692C572.841 457.247 573.844 457.158 574.512 457.425Z" fill="#F4DEFA"/>
<path d="M579.022 469.61C579.69 469.876 579.857 470.41 579.523 470.766C579.022 471.121 578.019 471.21 577.351 471.033C576.683 470.766 576.516 470.232 576.85 469.876C577.184 469.432 578.186 469.343 579.022 469.61Z" fill="#F4DEFA"/>
<path d="M631.649 461.516C632.317 461.694 632.484 462.139 631.983 462.495C631.649 462.85 630.813 462.939 630.145 462.672C629.477 462.495 629.31 462.05 629.811 461.694C630.145 461.338 630.98 461.338 631.649 461.516Z" fill="#F4DEFA"/>
<path d="M692.797 454.757C693.298 454.935 693.465 455.38 693.131 455.646C692.797 455.913 691.961 456.002 691.46 455.824C690.959 455.646 690.792 455.202 691.126 454.935C691.46 454.668 692.128 454.579 692.797 454.757Z" fill="#F4DEFA"/>
<path d="M637.329 491.488C637.997 491.755 638.165 492.289 637.83 492.644C637.329 493 636.327 493.089 635.658 492.911C634.99 492.644 634.823 492.111 635.157 491.755C635.491 491.31 636.494 491.221 637.329 491.488Z" fill="#F4DEFA"/>
<path d="M659.883 486.419C660.551 486.685 660.718 487.219 660.384 487.575C659.883 487.931 658.88 488.019 658.212 487.842C657.544 487.575 657.377 487.041 657.711 486.685C658.212 486.241 659.215 486.152 659.883 486.419Z" fill="#F4DEFA"/>
<path d="M712.01 482.594C712.678 482.861 712.845 483.395 712.511 483.751C712.01 484.106 711.007 484.195 710.339 484.017C709.671 483.751 709.504 483.217 709.838 482.861C710.172 482.417 711.175 482.328 712.01 482.594Z" fill="#F4DEFA"/>
<g opacity="0.9881">
<path d="M1214.55 443.551C1215.22 443.818 1215.39 444.351 1215.05 444.707C1214.55 445.063 1213.55 445.152 1212.88 444.974C1212.21 444.707 1212.05 444.173 1212.38 443.818C1212.88 443.373 1213.89 443.284 1214.55 443.551Z" fill="#F4DEFA"/>
</g>
<g opacity="0.9698">
<path d="M1055 381.917C1055.67 382.184 1055.84 382.718 1055.5 383.073C1055 383.429 1054 383.518 1053.33 383.34C1052.66 383.073 1052.5 382.54 1052.83 382.184C1053.33 381.739 1054.33 381.65 1055 381.917Z" fill="#F4DEFA"/>
</g>
<path d="M1127.68 400.772C1128.35 401.039 1128.51 401.572 1128.18 401.928C1127.68 402.284 1126.68 402.373 1126.01 402.195C1125.34 401.928 1125.17 401.395 1125.51 401.039C1126.01 400.594 1126.84 400.505 1127.68 400.772Z" fill="#F4DEFA"/>
<path d="M1120.66 424.607C1121.33 424.874 1121.5 425.408 1121.16 425.763C1120.66 426.119 1119.66 426.208 1118.99 426.03C1118.32 425.763 1118.16 425.23 1118.49 424.874C1118.99 424.429 1119.99 424.34 1120.66 424.607Z" fill="#F4DEFA"/>
<g opacity="0.3407">
<path d="M1094.43 445.774C1095.1 446.041 1095.27 446.575 1094.93 446.93C1094.43 447.286 1093.43 447.375 1092.76 447.197C1092.09 446.93 1091.92 446.397 1092.26 446.041C1092.76 445.596 1093.6 445.507 1094.43 445.774Z" fill="#F4DEFA"/>
</g>
<g opacity="0.1215">
<path d="M1106.63 458.048C1107.3 458.314 1107.46 458.848 1107.13 459.204C1106.63 459.559 1105.63 459.648 1104.96 459.471C1104.29 459.204 1104.12 458.67 1104.46 458.314C1104.96 457.87 1105.96 457.781 1106.63 458.048Z" fill="#F4DEFA"/>
</g>
<g opacity="0.4028">
<path d="M1069.87 447.108C1070.54 447.375 1070.71 447.909 1070.37 448.264C1069.87 448.62 1068.87 448.709 1068.2 448.531C1067.53 448.264 1067.37 447.731 1067.7 447.375C1068.2 447.019 1069.04 446.841 1069.87 447.108Z" fill="#F4DEFA"/>
</g>
<g opacity="0.7828">
<path d="M1135.03 434.568C1135.7 434.835 1135.86 435.368 1135.53 435.724C1135.03 436.08 1134.03 436.169 1133.36 435.991C1132.69 435.724 1132.52 435.191 1132.86 434.835C1133.36 434.39 1134.36 434.301 1135.03 434.568Z" fill="#F4DEFA"/>
</g>
<g opacity="0.6629">
<path d="M1151.57 440.972C1152.24 441.238 1152.4 441.772 1152.07 442.128C1151.57 442.484 1150.57 442.572 1149.9 442.395C1149.23 442.128 1149.06 441.594 1149.4 441.238C1149.9 440.794 1150.9 440.705 1151.57 440.972Z" fill="#F4DEFA"/>
</g>
<g opacity="0.8131">
<path d="M1177.63 438.659C1178.3 438.926 1178.47 439.46 1178.13 439.815C1177.63 440.171 1176.63 440.26 1175.96 440.082C1175.29 439.815 1175.12 439.282 1175.46 438.926C1175.96 438.481 1176.96 438.392 1177.63 438.659Z" fill="#F4DEFA"/>
</g>
<g opacity="0.9946">
<path d="M1192.33 429.677C1193 429.944 1193.17 430.477 1192.84 430.833C1192.33 431.189 1191.33 431.278 1190.66 431.1C1190 430.833 1189.83 430.299 1190.16 429.944C1190.66 429.499 1191.67 429.41 1192.33 429.677Z" fill="#F4DEFA"/>
</g>
<path d="M1223.08 434.39C1223.74 434.657 1223.91 435.191 1223.58 435.546C1223.24 435.902 1222.07 435.991 1221.4 435.813C1220.74 435.546 1220.57 435.013 1220.9 434.657C1221.4 434.212 1222.41 434.123 1223.08 434.39Z" fill="#F4DEFA"/>
<path d="M1249.14 455.824C1249.81 456.091 1249.97 456.625 1249.64 456.98C1249.14 457.336 1248.14 457.425 1247.47 457.247C1246.8 456.98 1246.63 456.447 1246.97 456.091C1247.47 455.735 1248.47 455.557 1249.14 455.824Z" fill="#F4DEFA"/>
<g opacity="0.089722">
<path d="M1091.42 462.406C1092.09 462.672 1092.26 463.206 1091.92 463.562C1091.42 463.917 1090.42 464.006 1089.75 463.829C1089.08 463.562 1088.92 463.028 1089.25 462.672C1089.75 462.317 1090.75 462.139 1091.42 462.406Z" fill="#F4DEFA"/>
</g>
<path d="M969.462 433.234C970.13 433.501 970.297 434.035 969.963 434.39C969.462 434.746 968.46 434.835 967.791 434.657C967.123 434.39 966.956 433.857 967.29 433.501C967.791 433.056 968.627 432.967 969.462 433.234Z" fill="#F4DEFA"/>
<path d="M961.777 409.666C962.446 409.933 962.613 410.466 962.279 410.822C961.777 411.178 960.775 411.267 960.107 411.089C959.438 410.822 959.271 410.288 959.606 409.933C960.107 409.488 961.109 409.399 961.777 409.666Z" fill="#F4DEFA"/>
<path d="M946.408 432.256C947.077 432.523 947.244 433.056 946.909 433.412C946.408 433.768 945.406 433.857 944.738 433.679C944.069 433.412 943.902 432.878 944.236 432.523C944.738 432.167 945.74 431.989 946.408 432.256Z" fill="#F4DEFA"/>
<path d="M1240.12 233.303C1240.78 233.57 1240.95 234.104 1240.62 234.459C1240.12 234.815 1239.11 234.904 1238.44 234.726C1237.78 234.459 1237.61 233.926 1237.94 233.57C1238.44 233.125 1239.28 233.036 1240.12 233.303Z" fill="#F4DEFA"/>
<path d="M1280.55 185.633C1281.22 185.9 1281.38 186.433 1281.05 186.789C1280.55 187.145 1279.54 187.234 1278.88 187.056C1278.21 186.789 1278.04 186.255 1278.38 185.9C1278.88 185.455 1279.88 185.366 1280.55 185.633Z" fill="#F4DEFA"/>
<path d="M1186.99 140.008C1187.66 140.275 1187.82 140.719 1187.32 141.164C1186.82 141.52 1185.99 141.609 1185.15 141.342C1184.48 141.075 1184.32 140.63 1184.82 140.186C1185.32 139.83 1186.32 139.741 1186.99 140.008Z" fill="#F4DEFA"/>
<g opacity="0.881">
<path d="M1185.65 115.906C1185.99 115.995 1186.15 116.261 1185.82 116.439C1185.65 116.617 1185.15 116.706 1184.82 116.528C1184.48 116.439 1184.31 116.173 1184.65 115.995C1184.82 115.906 1185.32 115.817 1185.65 115.906Z" fill="#F4DEFA"/>
</g>
<g opacity="0.3999">
<path d="M1189.33 102.654C1189.99 102.921 1190.16 103.366 1189.66 103.722C1189.16 104.077 1188.32 104.166 1187.65 103.899C1186.99 103.633 1186.82 103.188 1187.32 102.832C1187.65 102.565 1188.66 102.476 1189.33 102.654Z" fill="#F4DEFA"/>
</g>
<path d="M1272.86 89.8473C1273.53 90.1141 1273.7 90.6478 1273.36 91.0035C1272.86 91.3593 1271.86 91.4482 1271.19 91.2703C1270.52 91.0035 1270.36 90.4699 1270.69 90.1141C1271.19 89.7584 1272.19 89.5805 1272.86 89.8473Z" fill="#F4DEFA"/>
<g opacity="0.9949">
<path d="M1254.48 79.8863C1255.15 80.1531 1255.32 80.6867 1254.98 81.0425C1254.48 81.3982 1253.48 81.4872 1252.81 81.3093C1252.14 81.0425 1251.98 80.5089 1252.31 80.1531C1252.81 79.7084 1253.82 79.6195 1254.48 79.8863Z" fill="#F4DEFA"/>
</g>
<g opacity="0.6899">
<path d="M1231.26 68.4134C1231.93 68.6802 1232.1 69.2138 1231.76 69.5696C1231.26 69.9253 1230.26 70.0143 1229.59 69.8364C1228.92 69.5696 1228.76 69.036 1229.09 68.6802C1229.59 68.2355 1230.59 68.1466 1231.26 68.4134Z" fill="#F4DEFA"/>
</g>
<g opacity="0.6101">
<path d="M1208.54 46.8906C1209.21 47.1574 1209.37 47.691 1209.04 48.0468C1208.54 48.4025 1207.54 48.4915 1206.87 48.3136C1206.2 48.0468 1206.03 47.5132 1206.37 47.1574C1206.87 46.8017 1207.7 46.6238 1208.54 46.8906Z" fill="#F4DEFA"/>
</g>
<g opacity="0.9324">
<path d="M1137.37 29.9925C1138.04 30.2593 1138.2 30.7929 1137.87 31.1487C1137.37 31.5044 1136.37 31.5933 1135.7 31.4155C1135.03 31.1487 1134.86 30.615 1135.2 30.2593C1135.53 29.9035 1136.7 29.7257 1137.37 29.9925Z" fill="#F4DEFA"/>
</g>
<g opacity="0.7558">
<path d="M1024.26 55.6954C1024.93 55.9622 1025.1 56.4958 1024.76 56.8515C1024.26 57.2073 1023.26 57.2962 1022.59 57.1184C1021.92 56.8515 1021.76 56.3179 1022.09 55.9622C1022.59 55.6064 1023.59 55.4286 1024.26 55.6954Z" fill="#F4DEFA"/>
</g>
<path d="M1073.88 28.6584C1074.55 28.9253 1074.72 29.4589 1074.38 29.8146C1073.88 30.1704 1072.88 30.2593 1072.21 30.0814C1071.54 29.8146 1071.37 29.281 1071.71 28.9253C1072.21 28.4806 1073.21 28.3916 1073.88 28.6584Z" fill="#F4DEFA"/>
<g opacity="0.7067">
<path d="M1083.4 51.871C1084.07 52.1378 1084.24 52.6715 1083.9 53.0272C1083.4 53.383 1082.4 53.4719 1081.73 53.294C1081.06 53.0272 1080.9 52.4936 1081.23 52.1378C1081.56 51.6932 1082.57 51.6042 1083.4 51.871Z" fill="#F4DEFA"/>
</g>
<g opacity="0.5053">
<path d="M1056.17 64.3223C1056.84 64.5891 1057.01 65.1228 1056.67 65.4785C1056.17 65.8342 1055.17 65.9232 1054.5 65.7453C1053.83 65.4785 1053.67 64.9449 1054 64.5891C1054.34 64.2334 1055.34 64.0555 1056.17 64.3223Z" fill="#F4DEFA"/>
</g>
<g opacity="0.1406">
<path d="M1124.84 70.3701C1125.51 70.6369 1125.67 71.1705 1125.34 71.5262C1124.84 71.882 1123.83 71.9709 1123.17 71.793C1122.5 71.5262 1122.33 70.9926 1122.67 70.6369C1123.17 70.1922 1124 70.1032 1124.84 70.3701Z" fill="#F4DEFA"/>
</g>
<path d="M960.441 86.6455C961.109 86.9123 961.276 87.4459 960.942 87.8017C960.441 88.1574 959.438 88.2464 958.77 88.0685C958.102 87.8017 957.934 87.2681 958.269 86.9123C958.77 86.4676 959.772 86.3787 960.441 86.6455Z" fill="#F4DEFA"/>
<path d="M666.399 232.681C667.067 232.947 667.234 233.392 666.733 233.748C666.232 234.104 665.396 234.192 664.728 233.926C664.06 233.659 663.893 233.214 664.394 232.858C664.895 232.592 665.73 232.503 666.399 232.681Z" fill="#F4DEFA"/>
<path d="M96.0302 204.094C97.5338 204.627 97.868 205.694 96.8656 206.584C95.8631 207.384 93.8583 207.562 92.1876 207.028C90.684 206.495 90.3499 205.428 91.3523 204.538C92.5218 203.738 94.5266 203.56 96.0302 204.094Z" fill="#F4DEFA"/>
<g opacity="0.8346">
<path d="M16.8383 164.517C17.8407 164.872 18.1749 165.584 17.5066 166.117C16.8383 166.651 15.5018 166.829 14.4993 166.473C13.4969 166.117 13.1628 165.406 13.8311 164.872C14.3323 164.339 15.8359 164.161 16.8383 164.517Z" fill="#F4DEFA"/>
</g>
<g opacity="0.8779">
<path d="M83.333 159.981C84.3354 160.336 84.5024 161.048 83.8342 161.493C83.1659 162.026 81.8293 162.115 80.994 161.759C79.9915 161.404 79.8245 160.692 80.4928 160.247C80.994 159.803 82.3306 159.625 83.333 159.981Z" fill="#F4DEFA"/>
</g>
<path d="M784.684 240.329C785.686 240.685 785.853 241.308 785.185 241.841C784.516 242.375 783.347 242.464 782.345 242.108C781.342 241.752 781.175 241.13 781.843 240.596C782.512 240.151 783.848 239.973 784.684 240.329Z" fill="#F4DEFA"/>
<path d="M104.835 398.455C105.67 398.722 105.837 399.255 105.336 399.7C104.835 400.145 103.832 400.234 102.997 399.967C102.162 399.7 101.995 399.167 102.496 398.722C103.164 398.277 104.166 398.188 104.835 398.455Z" fill="#F4DEFA"/>
<path d="M816.594 267.099C817.429 267.366 817.596 267.989 817.095 268.433C816.594 268.878 815.424 268.967 814.589 268.7C813.753 268.433 813.586 267.811 814.088 267.366C814.589 266.921 815.758 266.743 816.594 267.099Z" fill="#F4DEFA"/>
<path d="M897.79 231.702C898.458 231.969 898.626 232.503 898.291 232.858C897.79 233.214 896.788 233.303 896.12 233.125C895.451 232.858 895.284 232.325 895.618 231.969C896.119 231.613 897.122 231.435 897.79 231.702Z" fill="#F4DEFA"/>
<path d="M927.194 209.29C927.863 209.557 928.03 210.09 927.696 210.446C927.194 210.802 926.192 210.891 925.524 210.713C924.855 210.446 924.688 209.913 925.023 209.557C925.524 209.112 926.526 209.023 927.194 209.29Z" fill="#F4DEFA"/>
<path d="M873.063 153.793C873.731 154.06 873.898 154.594 873.564 154.949C873.063 155.305 872.06 155.394 871.392 155.216C870.724 154.949 870.557 154.416 870.891 154.06C871.392 153.704 872.394 153.615 873.063 153.793Z" fill="#F4DEFA"/>
<path d="M910.32 127.112C910.989 127.379 911.156 127.912 910.822 128.268C910.32 128.624 909.318 128.713 908.65 128.535C907.982 128.268 907.814 127.735 908.148 127.379C908.65 126.934 909.652 126.845 910.32 127.112Z" fill="#F4DEFA"/>
<g opacity="0.5379">
<path d="M989.846 161.886C990.514 162.153 990.681 162.687 990.347 163.043C989.846 163.398 988.843 163.487 988.175 163.309C987.507 163.043 987.34 162.509 987.674 162.153C988.008 161.709 989.01 161.62 989.846 161.886Z" fill="#F4DEFA"/>
</g>
<g opacity="0.7473">
<path d="M1047.49 250.112C1048.15 250.379 1048.32 250.913 1047.99 251.268C1047.49 251.624 1046.48 251.713 1045.82 251.535C1045.15 251.268 1044.98 250.735 1045.31 250.379C1045.82 250.023 1046.82 249.845 1047.49 250.112Z" fill="#F4DEFA"/>
</g>
<g opacity="0.4628">
<path d="M1037.46 310.856C1038.13 311.123 1038.29 311.657 1037.96 312.013C1037.46 312.368 1036.46 312.457 1035.79 312.279C1035.12 312.013 1034.95 311.479 1035.29 311.123C1035.79 310.679 1036.79 310.59 1037.46 310.856Z" fill="#F4DEFA"/>
</g>
<g opacity="0.201">
<path d="M1078.22 294.848C1078.89 295.115 1079.06 295.648 1078.73 296.004C1078.22 296.36 1077.22 296.449 1076.55 296.271C1075.89 296.004 1075.72 295.47 1076.05 295.115C1076.55 294.67 1077.39 294.581 1078.22 294.848Z" fill="#F4DEFA"/>
</g>
<g opacity="0.5161">
<path d="M1053.67 269.678C1054.34 269.945 1054.5 270.479 1054.17 270.835C1053.67 271.19 1052.66 271.279 1052 271.101C1051.33 270.835 1051.16 270.301 1051.5 269.945C1052 269.501 1053 269.412 1053.67 269.678Z" fill="#F4DEFA"/>
</g>
<g opacity="0.9764">
<path d="M983.498 280.084C984.166 280.351 984.333 280.885 983.999 281.24C983.498 281.596 982.496 281.685 981.827 281.507C981.159 281.329 980.992 280.707 981.326 280.351C981.827 279.906 982.83 279.817 983.498 280.084Z" fill="#F4DEFA"/>
</g>
<path d="M992.352 305.876C993.02 306.143 993.187 306.676 992.853 307.032C992.352 307.388 991.349 307.477 990.681 307.299C990.013 307.032 989.846 306.498 990.18 306.143C990.681 305.698 991.683 305.609 992.352 305.876Z" fill="#F4DEFA"/>
<g opacity="0.2926">
<path d="M1052.33 314.503C1053 314.77 1053.17 315.303 1052.83 315.659C1052.5 316.015 1051.33 316.104 1050.66 315.926C1049.99 315.659 1049.82 315.125 1050.16 314.77C1050.66 314.325 1051.66 314.236 1052.33 314.503Z" fill="#F4DEFA"/>
</g>
<g opacity="0.8331">
<path d="M1004.72 298.049C1005.38 298.316 1005.55 298.85 1005.22 299.206C1004.71 299.561 1003.71 299.65 1003.04 299.472C1002.38 299.206 1002.21 298.672 1002.54 298.316C1003.04 297.872 1004.05 297.783 1004.72 298.049Z" fill="#F4DEFA"/>
</g>
<g opacity="0.5947">
<path d="M1027.94 284.62C1028.6 284.887 1028.77 285.42 1028.44 285.776C1027.94 286.132 1026.93 286.221 1026.27 286.043C1025.6 285.776 1025.43 285.243 1025.76 284.887C1026.27 284.442 1027.1 284.353 1027.94 284.62Z" fill="#F4DEFA"/>
</g>
<g opacity="0.3619">
<path d="M1054.17 288.8C1054.83 289.067 1055 289.6 1054.67 289.956C1054.17 290.312 1053.16 290.401 1052.5 290.223C1051.83 289.956 1051.66 289.423 1051.99 289.067C1052.5 288.622 1053.5 288.533 1054.17 288.8Z" fill="#F4DEFA"/>
</g>
<g opacity="0.726">
<path d="M1016.24 314.592C1016.91 314.859 1017.08 315.392 1016.74 315.748C1016.24 316.104 1015.24 316.193 1014.57 316.015C1013.9 315.748 1013.74 315.214 1014.07 314.859C1014.57 314.414 1015.57 314.325 1016.24 314.592Z" fill="#F4DEFA"/>
</g>
<g opacity="0.175">
<path d="M933.876 354.258C934.544 354.525 934.711 355.058 934.377 355.414C933.876 355.77 932.874 355.859 932.205 355.681C931.537 355.414 931.37 354.88 931.704 354.525C932.205 354.169 933.208 353.991 933.876 354.258Z" fill="#F4DEFA"/>
</g>
<g opacity="0.7698">
<path d="M1009.89 358.972C1010.56 359.238 1010.73 359.772 1010.39 360.128C1009.89 360.484 1008.89 360.572 1008.22 360.395C1007.55 360.128 1007.39 359.594 1007.72 359.238C1008.22 358.794 1009.23 358.705 1009.89 358.972Z" fill="#F4DEFA"/>
</g>
<g opacity="0.9234">
<path d="M1131.69 348.922C1132.35 349.188 1132.52 349.722 1132.19 350.078C1131.69 350.434 1130.68 350.523 1130.02 350.345C1129.35 350.078 1129.18 349.544 1129.51 349.188C1130.02 348.833 1131.02 348.655 1131.69 348.922Z" fill="#F4DEFA"/>
</g>
<path d="M1164.1 349.099C1164.77 349.366 1164.94 349.9 1164.6 350.256C1164.1 350.611 1163.1 350.7 1162.43 350.522C1161.76 350.256 1161.59 349.722 1161.93 349.366C1162.43 349.01 1163.43 348.833 1164.1 349.099Z" fill="#F4DEFA"/>
<g opacity="0.6533">
<path d="M1181.93 300.357C1182.6 300.624 1182.77 301.158 1182.43 301.514C1181.93 301.869 1180.93 301.958 1180.26 301.78C1179.59 301.514 1179.43 300.98 1179.76 300.624C1180.26 300.18 1181.26 300.091 1181.93 300.357Z" fill="#F4DEFA"/>
</g>
<path d="M1177.13 338.071C1177.8 338.338 1177.96 338.872 1177.63 339.228C1177.13 339.583 1176.13 339.672 1175.46 339.494C1174.79 339.228 1174.62 338.694 1174.96 338.338C1175.46 337.893 1176.46 337.805 1177.13 338.071Z" fill="#F4DEFA"/>
<g opacity="0.7182">
<path d="M1023.76 361.195C1024.43 361.462 1024.59 361.995 1024.26 362.351C1023.76 362.707 1022.76 362.796 1022.09 362.618C1021.42 362.351 1021.25 361.818 1021.59 361.462C1022.09 361.017 1022.92 360.928 1023.76 361.195Z" fill="#F4DEFA"/>
</g>
<g opacity="0.9913">
<path d="M524.223 358.883C524.891 359.149 525.058 359.683 524.724 360.039C524.223 360.395 523.22 360.483 522.552 360.306C521.884 360.039 521.717 359.505 522.051 359.149C522.552 358.705 523.554 358.616 524.223 358.883Z" fill="#F4DEFA"/>
</g>
<g opacity="0.6311">
<path d="M356.987 358.616C357.656 358.883 357.823 359.416 357.489 359.772C356.987 360.128 355.985 360.217 355.317 360.039C354.648 359.772 354.481 359.238 354.816 358.883C355.317 358.438 356.319 358.349 356.987 358.616Z" fill="#F4DEFA"/>
</g>
<g opacity="0.1746">
<path d="M349.802 318.149C350.637 318.416 350.804 319.039 350.303 319.483C349.802 319.928 348.632 320.017 347.797 319.75C346.961 319.483 346.794 318.861 347.296 318.416C347.797 317.971 348.966 317.794 349.802 318.149Z" fill="#F4DEFA"/>
</g>
<g opacity="0.1311">
<path d="M365.507 297.96C366.509 298.316 366.676 298.939 366.008 299.472C365.34 300.006 364.17 300.095 363.168 299.739C362.165 299.383 361.998 298.761 362.667 298.227C363.335 297.694 364.504 297.605 365.507 297.96Z" fill="#F4DEFA"/>
</g>
<g opacity="0.9713">
<path d="M302.857 289.867C303.525 290.134 303.859 290.668 303.358 291.112C302.857 291.468 301.854 291.646 301.019 291.379C300.351 291.112 300.016 290.579 300.518 290.134C301.186 289.778 302.188 289.6 302.857 289.867Z" fill="#F4DEFA"/>
</g>
<path d="M296.006 248.422C296.674 248.689 296.841 249.223 296.507 249.579C296.173 249.934 295.004 250.023 294.335 249.845C293.667 249.579 293.5 249.045 293.834 248.689C294.335 248.245 295.171 248.156 296.006 248.422Z" fill="#F4DEFA"/>
<path d="M288.821 265.587C289.49 265.854 289.657 266.388 289.323 266.744C288.821 267.099 287.819 267.188 287.151 267.01C286.482 266.744 286.315 266.21 286.649 265.854C287.151 265.499 288.153 265.321 288.821 265.587Z" fill="#F4DEFA"/>
<g opacity="0.4118">
<path d="M467.086 198.173C468.589 198.707 468.924 199.774 467.921 200.485C466.919 201.286 464.914 201.464 463.577 200.93C462.074 200.396 461.74 199.329 462.742 198.618C463.744 197.817 465.749 197.639 467.086 198.173Z" fill="#F4DEFA"/>
</g>
<g opacity="0.8946">
<path d="M530.906 160.641C532.075 161.086 532.409 161.886 531.574 162.598C530.739 163.309 529.235 163.398 527.899 162.954C526.562 162.509 526.395 161.709 527.23 160.997C528.066 160.375 529.736 160.197 530.906 160.641Z" fill="#F4DEFA"/>
</g>
<g opacity="0.8718">
<path d="M344.76 170.559C346.431 171.181 346.932 172.427 345.762 173.405C344.593 174.294 342.254 174.561 340.416 173.939C338.578 173.316 338.244 172.071 339.414 171.093C340.583 170.203 342.922 169.936 344.76 170.559Z" fill="#F4DEFA"/>
</g>
<g opacity="0.7204">
<path d="M526.228 120.975C527.231 121.331 527.398 122.043 526.73 122.487C526.061 122.932 524.725 123.11 523.889 122.754C522.887 122.398 522.72 121.687 523.388 121.242C524.057 120.798 525.226 120.62 526.228 120.975Z" fill="#F4DEFA"/>
</g>
<path d="M609.93 96.7844C610.598 97.0512 610.765 97.5848 610.431 97.9406C609.93 98.2963 608.927 98.3852 608.259 98.2074C607.591 97.9406 607.424 97.4069 607.758 97.0512C608.259 96.6954 609.262 96.6065 609.93 96.7844Z" fill="#F4DEFA"/>
<path d="M624.966 60.4091C625.301 60.498 625.301 60.7648 625.134 60.8537C624.966 61.0316 624.465 61.0316 624.298 60.9427C623.963 60.8537 623.963 60.5869 624.13 60.498C624.298 60.3201 624.799 60.3201 624.966 60.4091Z" fill="#F4DEFA"/>
<path d="M653.032 53.4719C653.7 53.6498 653.7 54.0945 653.366 54.4502C653.032 54.806 652.197 54.806 651.528 54.6281C650.86 54.4502 650.86 54.0055 651.194 53.6498C651.695 53.294 652.531 53.2051 653.032 53.4719Z" fill="#F4DEFA"/>
<path d="M683.442 63.9665C684.11 64.2334 684.277 64.767 683.943 65.1227C683.442 65.4785 682.439 65.5674 681.771 65.3896C681.103 65.1227 680.935 64.5891 681.27 64.2334C681.771 63.7887 682.773 63.6997 683.442 63.9665Z" fill="#F4DEFA"/>
<g opacity="0.9604">
<path d="M694.633 65.5674C695.301 65.8342 695.468 66.3679 695.134 66.7236C694.633 67.0794 693.63 67.1683 692.962 66.9904C692.294 66.7236 692.127 66.19 692.461 65.8342C692.795 65.4785 693.798 65.3006 694.633 65.5674Z" fill="#F4DEFA"/>
</g>
<g opacity="0.3769">
<path d="M749.431 74.2833C750.099 74.5501 750.266 75.0837 749.932 75.4394C749.431 75.7952 748.428 75.8841 747.76 75.7062C747.092 75.4394 746.925 74.9058 747.259 74.5501C747.76 74.1943 748.763 74.0164 749.431 74.2833Z" fill="#F4DEFA"/>
</g>
<g opacity="0.3162">
<path d="M777.668 62.0099C778.336 62.2768 778.503 62.8104 778.169 63.1661C777.668 63.5219 776.666 63.6108 775.997 63.4329C775.329 63.1661 775.162 62.6325 775.496 62.2768C775.997 61.8321 777 61.7431 777.668 62.0099Z" fill="#F4DEFA"/>
</g>
<path d="M697.139 34.8841C697.807 35.1509 697.974 35.6845 697.64 36.0403C697.139 36.396 696.136 36.485 695.468 36.3071C694.8 36.0403 694.633 35.5067 694.967 35.1509C695.468 34.7062 696.303 34.6173 697.139 34.8841Z" fill="#F4DEFA"/>
<g opacity="0.6765">
<path d="M734.899 57.563C735.567 57.8299 735.734 58.3635 735.4 58.7192C734.899 59.075 733.896 59.1639 733.228 58.986C732.56 58.7192 732.393 58.1856 732.727 57.8299C733.228 57.3852 734.23 57.2962 734.899 57.563Z" fill="#F4DEFA"/>
</g>
<path d="M754.612 18.4307C755.281 18.6975 755.448 19.2311 755.114 19.5869C754.779 19.9426 753.61 20.0316 752.942 19.8537C752.273 19.5869 752.106 19.0533 752.44 18.6975C752.942 18.3418 753.944 18.1639 754.612 18.4307Z" fill="#F4DEFA"/>
<path d="M704.323 17.6302C704.992 17.8971 705.159 18.4307 704.825 18.7864C704.323 19.1422 703.321 19.2311 702.653 19.0532C701.984 18.7864 701.817 18.2528 702.151 17.8971C702.653 17.4524 703.488 17.3634 704.323 17.6302Z" fill="#F4DEFA"/>
<g opacity="0.94">
<path d="M745.423 31.4155C746.091 31.6823 746.258 32.216 745.924 32.5717C745.423 32.9275 744.421 33.0164 743.752 32.8385C743.084 32.5717 742.917 32.0381 743.251 31.6823C743.752 31.2377 744.755 31.1487 745.423 31.4155Z" fill="#F4DEFA"/>
</g>
<g opacity="0.9911">
<path d="M802.227 33.639C802.895 33.9058 803.062 34.4394 802.728 34.7951C802.227 35.1509 801.224 35.2398 800.556 35.062C799.888 34.7951 799.721 34.2615 800.055 33.9058C800.556 33.55 801.558 33.3722 802.227 33.639Z" fill="#F4DEFA"/>
</g>
<g opacity="0.482">
<path d="M796.88 51.2485C797.548 51.5153 797.715 52.049 797.381 52.4047C796.88 52.7605 795.878 52.8494 795.209 52.6715C794.541 52.4047 794.374 51.8711 794.708 51.5153C795.209 51.0707 796.212 50.9817 796.88 51.2485Z" fill="#F4DEFA"/>
</g>
<g opacity="0.5606">
<path d="M824.446 50.4481C825.115 50.7149 825.282 51.2486 824.948 51.6043C824.446 51.9601 823.444 52.049 822.776 51.8711C822.107 51.6043 821.94 51.0707 822.274 50.7149C822.776 50.2702 823.611 50.1813 824.446 50.4481Z" fill="#F4DEFA"/>
</g>
<path d="M706.161 128.891C706.83 129.158 706.997 129.691 706.662 130.047C706.161 130.403 705.159 130.492 704.491 130.314C703.822 130.047 703.655 129.513 703.989 129.158C704.491 128.802 705.493 128.624 706.161 128.891Z" fill="#F4DEFA"/>
<g opacity="0.9222">
<path d="M75.6473 175.367C76.8168 175.811 77.1509 176.612 76.3156 177.234C75.4802 177.857 73.9766 178.035 72.8071 177.59C71.6376 177.146 71.3035 176.345 72.1388 175.723C72.8071 175.1 74.4778 174.922 75.6473 175.367Z" fill="#F4DEFA"/>
</g>
<g opacity="0.7022">
<path d="M418.37 169.887C419.874 170.421 420.208 171.488 419.205 172.2C418.203 173 416.198 173.178 414.861 172.644C413.358 172.111 413.024 171.044 414.026 170.332C414.861 169.532 416.866 169.354 418.37 169.887Z" fill="#F4DEFA"/>
</g>
<path d="M3.13958 210.408C4.30906 210.853 4.64319 211.742 3.80785 212.365C2.9725 212.987 1.30178 213.165 0.132299 212.72C-1.03719 212.276 -1.37131 211.386 -0.535968 210.764C0.299379 210.141 1.97009 209.963 3.13958 210.408Z" fill="#F4DEFA"/>
<path d="M741.746 163.487C742.414 163.754 742.582 164.288 742.247 164.644C741.746 164.999 740.744 165.088 740.075 164.91C739.407 164.644 739.24 164.11 739.574 163.754C740.076 163.31 741.078 163.221 741.746 163.487Z" fill="#F4DEFA"/>
<path d="M789.195 151.125C789.864 151.392 790.031 151.925 789.697 152.281C789.195 152.637 788.193 152.726 787.525 152.548C786.856 152.281 786.689 151.748 787.024 151.392C787.525 150.947 788.36 150.858 789.195 151.125Z" fill="#F4DEFA"/>
<path d="M142.475 158.469C143.31 158.735 143.477 159.358 142.976 159.803C142.474 160.247 141.305 160.336 140.47 160.07C139.634 159.803 139.467 159.18 139.968 158.735C140.47 158.291 141.639 158.113 142.475 158.469Z" fill="#F4DEFA"/>
<g opacity="0.9913">
<path d="M458.064 384.407C458.732 384.674 458.899 385.208 458.565 385.564C458.064 385.919 457.061 386.008 456.393 385.83C455.725 385.564 455.558 385.03 455.892 384.674C456.393 384.23 457.395 384.141 458.064 384.407Z" fill="#F4DEFA"/>
</g>
<g opacity="0.9913">
<path d="M464.746 377.381C465.415 377.648 465.582 378.093 465.081 378.449C464.579 378.804 463.744 378.893 463.076 378.627C462.407 378.36 462.24 377.915 462.742 377.559C463.243 377.293 464.078 377.204 464.746 377.381Z" fill="#F4DEFA"/>
</g>
<g opacity="0.9913">
<path d="M500.5 387.52C501.001 387.698 501.001 387.965 500.667 388.231C500.333 388.498 499.832 388.498 499.331 388.32C498.829 388.142 498.829 387.876 499.164 387.609C499.498 387.431 500.166 387.431 500.5 387.52Z" fill="#F4DEFA"/>
</g>
<g opacity="0.9913">
<path d="M517.707 388.588C518.208 388.766 518.375 389.21 518.041 389.477C517.707 389.744 516.872 389.833 516.37 389.655C515.869 389.477 515.702 389.032 516.036 388.766C516.37 388.499 517.039 388.41 517.707 388.588Z" fill="#F4DEFA"/>
</g>
<g opacity="0.9913">
<path d="M516.704 395.792C517.373 396.058 517.54 396.503 517.039 396.859C516.537 397.215 515.702 397.304 515.034 397.037C514.365 396.77 514.198 396.325 514.7 395.969C515.201 395.614 516.036 395.525 516.704 395.792Z" fill="#F4DEFA"/>
</g>
<g opacity="0.9913">
<path d="M505.844 373.824C506.346 374.002 506.513 374.358 506.179 374.624C505.844 374.891 505.176 374.98 504.675 374.802C504.174 374.624 504.007 374.269 504.341 374.002C504.675 373.735 505.343 373.646 505.844 373.824Z" fill="#F4DEFA"/>
</g>
<g opacity="0.9913">
<path d="M454.555 354.169C455.223 354.436 455.557 354.969 455.056 355.325C454.555 355.681 453.552 355.859 452.884 355.592C452.216 355.325 451.882 354.791 452.383 354.436C452.884 354.08 453.72 353.991 454.555 354.169Z" fill="#F4DEFA"/>
</g>
<g opacity="0.9913">
<path d="M450.546 345.453C451.214 345.72 451.548 346.253 451.047 346.609C450.546 346.965 449.544 347.143 448.875 346.876C448.207 346.609 447.873 346.076 448.374 345.72C448.875 345.364 449.878 345.186 450.546 345.453Z" fill="#F4DEFA"/>
</g>
<path d="M364.505 204.221C364.839 204.309 365.006 204.576 364.672 204.843C364.505 205.02 364.004 205.109 363.503 204.931C363.168 204.843 363.001 204.576 363.335 204.309C363.67 204.132 364.171 204.043 364.505 204.221Z" fill="#F4DEFA"/>
<path d="M366.176 207.244C366.511 207.333 366.511 207.6 366.344 207.689C366.176 207.867 365.675 207.867 365.508 207.778C365.173 207.689 365.173 207.422 365.34 207.333C365.507 207.244 365.842 207.156 366.176 207.244Z" fill="#F4DEFA"/>
<path d="M352.643 206.533C353.145 206.711 353.312 207.156 352.977 207.422C352.643 207.689 351.808 207.778 351.307 207.6C350.806 207.422 350.639 206.978 350.973 206.711C351.307 206.444 352.142 206.355 352.643 206.533Z" fill="#F4DEFA"/>
<path d="M354.981 210.001C355.482 210.179 355.649 210.535 355.315 210.802C354.981 211.069 354.313 211.158 353.812 210.98C353.31 210.802 353.143 210.446 353.478 210.179C353.979 209.913 354.647 209.824 354.981 210.001Z" fill="#F4DEFA"/>
<path d="M375.364 203.598C375.531 203.687 375.697 203.865 375.531 203.954C375.364 204.043 375.03 204.132 374.863 204.043C374.696 203.954 374.529 203.776 374.696 203.687C374.863 203.598 375.197 203.509 375.364 203.598Z" fill="#F4DEFA"/>
<path d="M386.223 206.355C386.39 206.444 386.39 206.534 386.39 206.623C386.223 206.712 386.056 206.712 385.89 206.712C385.723 206.623 385.723 206.534 385.723 206.444C385.89 206.266 386.056 206.266 386.223 206.355Z" fill="#F4DEFA"/>
<path d="M375.864 206.088C376.031 206.178 376.031 206.267 376.031 206.356C375.864 206.445 375.697 206.445 375.53 206.445C375.363 206.445 375.363 206.267 375.363 206.178C375.53 206.088 375.697 205.999 375.864 206.088Z" fill="#F4DEFA"/>
<g opacity="0.995">
<path d="M224.167 156.639C224.835 156.906 225.002 157.44 224.668 157.795C224.167 158.151 223.165 158.24 222.496 158.062C221.828 157.795 221.661 157.262 221.995 156.906C222.496 156.55 223.499 156.372 224.167 156.639Z" fill="#F4DEFA"/>
</g>
<g opacity="0.995">
<path d="M184.571 145.967C185.24 146.234 185.407 146.767 185.073 147.123C184.571 147.479 183.569 147.568 182.901 147.39C182.232 147.123 182.065 146.589 182.399 146.234C182.901 145.789 183.736 145.7 184.571 145.967Z" fill="#F4DEFA"/>
</g>
<g opacity="0.9952">
<path d="M164.523 141.164C165.191 141.431 165.358 141.965 165.024 142.32C164.523 142.676 163.52 142.765 162.852 142.587C162.184 142.32 162.017 141.787 162.351 141.431C162.852 140.986 163.854 140.897 164.523 141.164Z" fill="#F4DEFA"/>
</g>
<g opacity="0.9871">
<path d="M189.583 139.83C190.251 140.097 190.418 140.63 190.084 140.986C189.583 141.342 188.581 141.431 187.912 141.253C187.244 140.986 187.077 140.453 187.411 140.097C187.912 139.652 188.915 139.563 189.583 139.83Z" fill="#F4DEFA"/>
</g>
<g opacity="0.988">
<path d="M194.762 142.943C195.43 143.21 195.597 143.743 195.263 144.099C194.762 144.455 193.759 144.544 193.091 144.366C192.423 144.099 192.256 143.565 192.59 143.21C193.091 142.765 193.926 142.676 194.762 142.943Z" fill="#F4DEFA"/>
</g>
<g opacity="0.9614">
<path d="M177.554 125.511C178.222 125.778 178.389 126.312 178.055 126.667C177.554 127.023 176.551 127.112 175.883 126.934C175.215 126.667 175.048 126.134 175.382 125.778C175.883 125.333 176.886 125.244 177.554 125.511Z" fill="#F4DEFA"/>
</g>
<g opacity="0.1406">
<path d="M1113.31 104.789C1113.98 105.056 1114.15 105.589 1113.81 105.945C1113.31 106.301 1112.31 106.39 1111.64 106.212C1110.97 105.945 1110.8 105.411 1111.14 105.056C1111.64 104.611 1112.47 104.522 1113.31 104.789Z" fill="#F4DEFA"/>
</g>
<g opacity="0.163">
<path d="M1095.43 95.9839C1096.1 96.2507 1096.27 96.7844 1095.93 97.1401C1095.43 97.4959 1094.43 97.5848 1093.76 97.4069C1093.09 97.1401 1092.93 96.6065 1093.26 96.2507C1093.76 95.895 1094.77 95.7171 1095.43 95.9839Z" fill="#F4DEFA"/>
</g>
<g opacity="0.2667">
<path d="M1053.33 92.7823C1054 93.0491 1054.17 93.5827 1053.83 93.9385C1053.33 94.2942 1052.33 94.3832 1051.66 94.2053C1050.99 93.9385 1050.83 93.4048 1051.16 93.0491C1051.66 92.6044 1052.66 92.5155 1053.33 92.7823Z" fill="#F4DEFA"/>
</g>
<g opacity="0.2275">
<path d="M1087.25 87.2681C1087.92 87.5349 1088.08 88.0686 1087.75 88.4243C1087.25 88.7801 1086.24 88.869 1085.58 88.6911C1084.91 88.4243 1084.74 87.8907 1085.08 87.5349C1085.58 87.0902 1086.58 87.0013 1087.25 87.2681Z" fill="#F4DEFA"/>
</g>
<g opacity="0.206">
<path d="M1114.65 83.9775C1115.31 84.2443 1115.48 84.7779 1115.15 85.1337C1114.65 85.4894 1113.64 85.5783 1112.98 85.4005C1112.31 85.1337 1112.14 84.6 1112.47 84.2443C1112.81 83.7996 1113.81 83.7107 1114.65 83.9775Z" fill="#F4DEFA"/>
</g>
<g opacity="0.1909">
<path d="M1089.08 114.127C1089.75 114.394 1089.92 114.928 1089.59 115.283C1089.08 115.639 1088.08 115.728 1087.41 115.55C1086.75 115.283 1086.58 114.75 1086.91 114.394C1087.41 113.949 1088.42 113.86 1089.08 114.127Z" fill="#F4DEFA"/>
</g>
<g opacity="0.1914">
<path d="M1076.55 119.463C1077.22 119.73 1077.39 120.264 1077.05 120.62C1076.55 120.975 1075.55 121.064 1074.88 120.886C1074.21 120.62 1074.05 120.086 1074.38 119.73C1074.72 119.286 1075.72 119.197 1076.55 119.463Z" fill="#F4DEFA"/>
</g>
<g opacity="0.8192">
<path d="M1179.8 123.732C1180.14 123.821 1180.14 123.999 1179.97 124.177C1179.8 124.355 1179.47 124.355 1179.14 124.266C1178.8 124.177 1178.8 123.999 1178.97 123.821C1179.14 123.732 1179.47 123.643 1179.8 123.732Z" fill="#F4DEFA"/>
</g>
<g opacity="0.7208">
<path d="M1209.04 105.945C1209.71 106.212 1209.88 106.656 1209.37 107.012C1208.87 107.368 1208.04 107.457 1207.37 107.19C1206.7 106.923 1206.53 106.479 1207.04 106.123C1207.54 105.767 1208.37 105.767 1209.04 105.945Z" fill="#F4DEFA"/>
</g>
<g opacity="0.8385">
<path d="M1216.22 127.823C1216.89 128.09 1217.06 128.535 1216.56 128.98C1216.06 129.335 1215.22 129.424 1214.38 129.158C1213.72 128.891 1213.55 128.446 1214.05 128.001C1214.55 127.646 1215.39 127.557 1216.22 127.823Z" fill="#F4DEFA"/>
</g>
<path d="M1160.93 210.357C1161.59 210.624 1161.76 211.158 1161.43 211.513C1160.93 211.869 1159.92 211.958 1159.26 211.78C1158.59 211.513 1158.42 210.98 1158.75 210.624C1159.26 210.179 1160.09 210.09 1160.93 210.357Z" fill="#F4DEFA"/>
<path d="M1164.77 223.164C1165.43 223.431 1165.6 223.965 1165.27 224.32C1164.93 224.676 1163.76 224.765 1163.1 224.587C1162.43 224.32 1162.26 223.787 1162.59 223.431C1162.93 222.986 1163.93 222.897 1164.77 223.164Z" fill="#F4DEFA"/>
<path d="M1191.5 245.221C1192.17 245.487 1192.33 246.021 1192 246.377C1191.5 246.733 1190.5 246.822 1189.83 246.644C1189.16 246.377 1188.99 245.843 1189.33 245.487C1189.83 245.043 1190.83 244.954 1191.5 245.221Z" fill="#F4DEFA"/>
<path d="M1177.63 263.897C1178.3 264.164 1178.47 264.698 1178.13 265.054C1177.63 265.409 1176.63 265.498 1175.96 265.32C1175.29 265.054 1175.12 264.52 1175.46 264.164C1175.96 263.72 1176.96 263.631 1177.63 263.897Z" fill="#F4DEFA"/>
<path d="M868.051 288.711C868.886 288.978 869.053 289.6 868.552 289.956C868.051 290.401 866.881 290.49 866.213 290.223C865.545 289.956 865.211 289.334 865.712 288.978C866.213 288.622 867.383 288.444 868.051 288.711Z" fill="#F4DEFA"/>
<path d="M863.542 306.321C864.377 306.587 864.544 307.21 864.043 307.566C863.542 307.921 862.372 308.099 861.704 307.832C860.869 307.566 860.702 306.943 861.203 306.587C861.704 306.143 862.706 306.054 863.542 306.321Z" fill="#F4DEFA"/>
<path d="M833.469 329.178C833.97 329.355 834.137 329.8 833.803 330.067C833.469 330.334 832.633 330.423 832.132 330.245C831.631 330.067 831.464 329.622 831.798 329.355C832.299 329 832.967 329 833.469 329.178Z" fill="#F4DEFA"/>
<path d="M836.81 337.982C837.144 338.16 837.311 338.427 836.977 338.604C836.643 338.782 836.141 338.871 835.807 338.693C835.473 338.516 835.306 338.249 835.64 338.071C835.807 337.893 836.475 337.893 836.81 337.982Z" fill="#F4DEFA"/>
<path d="M874.567 338.516C875.068 338.694 875.235 339.049 874.901 339.316C874.567 339.583 873.899 339.672 873.398 339.494C872.896 339.316 872.729 338.961 873.063 338.694C873.398 338.427 874.066 338.338 874.567 338.516Z" fill="#F4DEFA"/>
<path d="M868.721 339.405C869.222 339.583 869.222 339.85 869.055 340.117C868.888 340.384 868.219 340.384 867.718 340.295C867.217 340.117 867.217 339.85 867.384 339.583C867.551 339.316 868.219 339.228 868.721 339.405Z" fill="#F4DEFA"/>
<path d="M879.246 323.841C879.58 323.93 879.747 324.197 879.413 324.463C879.246 324.641 878.745 324.73 878.244 324.552C877.91 324.463 877.743 324.197 878.077 323.93C878.411 323.752 878.912 323.752 879.246 323.841Z" fill="#F4DEFA"/>
<path d="M858.36 327.488C858.695 327.665 858.862 327.932 858.527 328.11C858.193 328.287 857.692 328.376 857.358 328.199C857.024 328.021 856.857 327.754 857.191 327.576C857.358 327.399 858.026 327.31 858.36 327.488Z" fill="#F4DEFA"/>
<path d="M842.49 321.44C843.158 321.707 843.325 322.151 842.824 322.507C842.323 322.863 841.487 322.952 840.819 322.685C840.151 322.418 839.984 321.974 840.485 321.618C840.986 321.351 841.988 321.262 842.49 321.44Z" fill="#F4DEFA"/>
<path d="M855.02 324.731C855.522 324.909 855.522 325.175 855.355 325.442C855.02 325.709 854.519 325.709 854.018 325.62C853.517 325.442 853.517 325.175 853.684 324.909C853.851 324.642 854.519 324.553 855.02 324.731Z" fill="#F4DEFA"/>
<path d="M888.099 326.865C888.433 327.043 888.6 327.309 888.266 327.487C887.932 327.665 887.43 327.754 887.096 327.576C886.762 327.398 886.595 327.132 886.929 326.954C887.263 326.776 887.764 326.776 888.099 326.865Z" fill="#F4DEFA"/>
<path d="M883.423 328.555C883.757 328.644 883.757 328.91 883.59 329.088C883.423 329.266 882.921 329.266 882.587 329.177C882.253 329.088 882.253 328.821 882.42 328.644C882.587 328.466 883.089 328.377 883.423 328.555Z" fill="#F4DEFA"/>
<path d="M863.875 323.841C864.209 324.019 864.376 324.286 864.042 324.552C863.708 324.73 863.207 324.819 862.706 324.641C862.372 324.463 862.204 324.197 862.539 323.93C862.873 323.752 863.374 323.664 863.875 323.841Z" fill="#F4DEFA"/>
<path d="M860.534 320.728C861.035 320.906 861.202 321.262 860.868 321.529C860.534 321.796 859.866 321.885 859.364 321.707C858.863 321.529 858.696 321.173 859.03 320.906C859.364 320.551 860.033 320.551 860.534 320.728Z" fill="#F4DEFA"/>
<path d="M886.763 321.44C887.265 321.618 887.432 321.974 887.097 322.151C886.763 322.418 886.095 322.507 885.761 322.329C885.26 322.151 885.093 321.796 885.427 321.618C885.594 321.262 886.262 321.262 886.763 321.44Z" fill="#F4DEFA"/>
</g>
<g filter="url(#filter1_f_88_711)">
<ellipse cx="116.313" cy="360.46" rx="4.38093" ry="2.80193" fill="white"/>
</g>
<g filter="url(#filter2_f_88_711)">
<ellipse cx="176.672" cy="371.667" rx="4.38093" ry="2.80193" fill="white"/>
</g>
<g filter="url(#filter3_f_88_711)">
<ellipse cx="183.486" cy="413.385" rx="4.38093" ry="2.80193" fill="white"/>
</g>
<g filter="url(#filter4_f_88_711)">
<ellipse cx="85.1589" cy="224.099" rx="7.07689" ry="4.52619" fill="white"/>
</g>
<g filter="url(#filter5_f_88_711)">
<ellipse cx="1238.86" cy="158.941" rx="4.75547" ry="4.65648" fill="white"/>
</g>
<g filter="url(#filter6_f_88_711)">
<ellipse cx="1155.86" cy="54.1267" rx="4.35918" ry="3.49236" fill="white"/>
</g>
<g filter="url(#filter7_f_88_711)">
<ellipse cx="1077.68" cy="449.187" rx="4.71793" ry="3.01746" fill="white"/>
</g>
<g filter="url(#filter8_f_88_711)">
<ellipse cx="224.479" cy="59.0458" rx="4.71793" ry="3.01746" fill="white"/>
</g>
<g filter="url(#filter9_f_88_711)">
<ellipse cx="1097.64" cy="406.536" rx="3.70694" ry="2.37086" fill="white"/>
</g>
<g filter="url(#filter10_f_88_711)">
<ellipse cx="583.61" cy="192.344" rx="3.70694" ry="2.37086" fill="white"/>
</g>
<defs>
<filter id="filter0_f_88_711" x="-2.5" y="0.5" width="1285.21" height="494" filterUnits="userSpaceOnUse" color-interpolation-filters="sRGB">
<feFlood flood-opacity="0" result="BackgroundImageFix"/>
<feBlend mode="normal" in="SourceGraphic" in2="BackgroundImageFix" result="shape"/>
<feGaussianBlur stdDeviation="0.75" result="effect1_foregroundBlur_88_711"/>
</filter>
<filter id="filter1_f_88_711" x="106.784" y="353.212" width="19.0563" height="14.4945" filterUnits="userSpaceOnUse" color-interpolation-filters="sRGB">
<feFlood flood-opacity="0" result="BackgroundImageFix"/>
<feBlend mode="normal" in="SourceGraphic" in2="BackgroundImageFix" result="shape"/>
<feGaussianBlur stdDeviation="1.6" result="effect1_foregroundBlur_88_711"/>
</filter>
<filter id="filter2_f_88_711" x="167.144" y="364.42" width="19.0563" height="14.4945" filterUnits="userSpaceOnUse" color-interpolation-filters="sRGB">
<feFlood flood-opacity="0" result="BackgroundImageFix"/>
<feBlend mode="normal" in="SourceGraphic" in2="BackgroundImageFix" result="shape"/>
<feGaussianBlur stdDeviation="1.6" result="effect1_foregroundBlur_88_711"/>
</filter>
<filter id="filter3_f_88_711" x="173.958" y="406.138" width="19.0563" height="14.4945" filterUnits="userSpaceOnUse" color-interpolation-filters="sRGB">
<feFlood flood-opacity="0" result="BackgroundImageFix"/>
<feBlend mode="normal" in="SourceGraphic" in2="BackgroundImageFix" result="shape"/>
<feGaussianBlur stdDeviation="1.6" result="effect1_foregroundBlur_88_711"/>
</filter>
<filter id="filter4_f_88_711" x="71.7365" y="214.361" width="26.8443" height="19.4757" filterUnits="userSpaceOnUse" color-interpolation-filters="sRGB">
<feFlood flood-opacity="0" result="BackgroundImageFix"/>
<feBlend mode="normal" in="SourceGraphic" in2="BackgroundImageFix" result="shape"/>
<feGaussianBlur stdDeviation="1.6" result="effect1_foregroundBlur_88_711"/>
</filter>
<filter id="filter5_f_88_711" x="1228.79" y="149.015" width="20.1383" height="19.852" filterUnits="userSpaceOnUse" color-interpolation-filters="sRGB">
<feFlood flood-opacity="0" result="BackgroundImageFix"/>
<feBlend mode="normal" in="SourceGraphic" in2="BackgroundImageFix" result="shape"/>
<feGaussianBlur stdDeviation="1.6" result="effect1_foregroundBlur_88_711"/>
</filter>
<filter id="filter6_f_88_711" x="1146.36" y="45.8822" width="18.9928" height="16.489" filterUnits="userSpaceOnUse" color-interpolation-filters="sRGB">
<feFlood flood-opacity="0" result="BackgroundImageFix"/>
<feBlend mode="normal" in="SourceGraphic" in2="BackgroundImageFix" result="shape"/>
<feGaussianBlur stdDeviation="1.6" result="effect1_foregroundBlur_88_711"/>
</filter>
<filter id="filter7_f_88_711" x="1067.67" y="441.629" width="20.0299" height="15.1171" filterUnits="userSpaceOnUse" color-interpolation-filters="sRGB">
<feFlood flood-opacity="0" result="BackgroundImageFix"/>
<feBlend mode="normal" in="SourceGraphic" in2="BackgroundImageFix" result="shape"/>
<feGaussianBlur stdDeviation="1.6" result="effect1_foregroundBlur_88_711"/>
</filter>
<filter id="filter8_f_88_711" x="214.464" y="51.4872" width="20.0299" height="15.1171" filterUnits="userSpaceOnUse" color-interpolation-filters="sRGB">
<feFlood flood-opacity="0" result="BackgroundImageFix"/>
<feBlend mode="normal" in="SourceGraphic" in2="BackgroundImageFix" result="shape"/>
<feGaussianBlur stdDeviation="1.6" result="effect1_foregroundBlur_88_711"/>
</filter>
<filter id="filter9_f_88_711" x="1089.09" y="399.911" width="17.109" height="13.2492" filterUnits="userSpaceOnUse" color-interpolation-filters="sRGB">
<feFlood flood-opacity="0" result="BackgroundImageFix"/>
<feBlend mode="normal" in="SourceGraphic" in2="BackgroundImageFix" result="shape"/>
<feGaussianBlur stdDeviation="1.6" result="effect1_foregroundBlur_88_711"/>
</filter>
<filter id="filter10_f_88_711" x="575.056" y="185.719" width="17.109" height="13.2492" filterUnits="userSpaceOnUse" color-interpolation-filters="sRGB">
<feFlood flood-opacity="0" result="BackgroundImageFix"/>
<feBlend mode="normal" in="SourceGraphic" in2="BackgroundImageFix" result="shape"/>
<feGaussianBlur stdDeviation="1.6" result="effect1_foregroundBlur_88_711"/>
</filter>
<linearGradient id="paint0_linear_88_711" x1="-0.999997" y1="422.772" x2="1354.58" y2="176.893" gradientUnits="userSpaceOnUse">
<stop stop-color="#30112E"/>
<stop offset="1" stop-color="#4F1C4C"/>
</linearGradient>
</defs>
</svg>
