<svg width="1118" height="683" viewBox="0 0 1118 683" fill="none" xmlns="http://www.w3.org/2000/svg">
<rect width="1118" height="683" rx="20" fill="url(#paint0_linear_0_1)"/>
<g opacity="0.4" filter="url(#filter0_f_0_1)">
<path d="M1044.97 71.7825C1045.56 72.1453 1045.7 72.8709 1045.41 73.3545C1044.97 73.8382 1044.1 73.9592 1043.52 73.7173C1042.94 73.3545 1042.8 72.629 1043.09 72.1453C1043.38 71.6616 1044.25 71.5407 1044.97 71.7825Z" fill="#F4DEFA"/>
<path d="M708.21 257.157C708.936 257.519 709.081 258.245 708.646 258.85C708.21 259.454 707.338 259.575 706.612 259.212C705.885 258.85 705.74 258.124 706.176 257.519C706.612 256.915 707.483 256.673 708.21 257.157Z" fill="#F4DEFA"/>
<path d="M629.032 252.683C630.049 253.288 630.34 254.497 629.613 255.343C628.887 256.19 627.434 256.432 626.417 255.827C625.4 255.222 625.11 254.013 625.836 253.167C626.563 252.32 628.015 252.078 629.032 252.683Z" fill="#F4DEFA"/>
<g opacity="0.5712">
<path d="M542.299 269.37C543.316 269.975 543.606 271.184 542.88 272.03C542.154 272.877 540.701 273.119 539.684 272.514C538.667 271.909 538.376 270.7 539.103 269.854C539.829 269.007 541.282 268.765 542.299 269.37Z" fill="#F4DEFA"/>
</g>
<g opacity="0.2044">
<path d="M513.389 227.168C514.551 227.773 514.841 229.103 514.115 230.07C513.389 231.038 511.791 231.279 510.628 230.675C509.466 230.07 509.175 228.74 509.902 227.773C510.628 226.805 512.226 226.563 513.389 227.168Z" fill="#F4DEFA"/>
</g>
<g opacity="0.9521">
<path d="M520.362 203.467C521.524 204.193 521.815 205.523 521.088 206.49C520.217 207.458 518.619 207.7 517.456 207.095C516.294 206.369 516.004 205.039 516.73 204.072C517.602 203.105 519.2 202.863 520.362 203.467Z" fill="#F4DEFA"/>
</g>
<g opacity="0.8985">
<path d="M539.975 243.252C541.282 243.977 541.573 245.428 540.701 246.516C539.829 247.605 538.086 247.847 536.778 247.121C535.471 246.396 535.18 244.944 536.052 243.856C536.924 242.889 538.667 242.647 539.975 243.252Z" fill="#F4DEFA"/>
</g>
<g opacity="0.9328">
<path d="M465.796 161.985C466.958 162.59 467.248 163.92 466.522 165.008C465.796 165.976 464.198 166.218 462.89 165.613C461.728 165.008 461.437 163.678 462.164 162.59C463.035 161.623 464.633 161.381 465.796 161.985Z" fill="#F4DEFA"/>
</g>
<path d="M73.0442 140.172C74.3517 140.898 74.6423 142.349 73.7706 143.316C72.8989 144.405 71.1555 144.647 69.9932 143.921C68.6857 143.195 68.3951 141.744 69.2668 140.777C70.1385 139.81 71.8819 139.568 73.0442 140.172Z" fill="#F4DEFA"/>
<path d="M135.515 196.885C136.532 197.49 136.823 198.578 136.096 199.425C135.37 200.271 134.062 200.513 133.045 199.909C132.028 199.304 131.738 198.216 132.464 197.369C133.19 196.523 134.498 196.402 135.515 196.885Z" fill="#F4DEFA"/>
<path d="M158.761 141.261C159.487 141.745 159.778 142.591 159.196 143.196C158.615 143.801 157.598 144.042 156.872 143.559C156.146 143.075 155.855 142.229 156.436 141.624C156.872 141.019 157.889 140.778 158.761 141.261Z" fill="#F4DEFA"/>
<g opacity="0.766">
<path d="M44.7144 73.5444C45.4408 73.9072 45.5861 74.7536 45.1503 75.3583C44.7144 75.9629 43.6974 76.0838 42.971 75.721C42.2446 75.3583 42.0994 74.5118 42.5352 73.9072C42.9711 73.3026 43.988 73.0607 44.7144 73.5444Z" fill="#F4DEFA"/>
</g>
<g opacity="0.6208">
<path d="M399.524 186.249C400.541 186.854 400.832 188.063 400.106 188.909C399.379 189.756 397.926 189.998 396.909 189.393C395.892 188.788 395.602 187.579 396.328 186.733C397.055 185.886 398.508 185.644 399.524 186.249Z" fill="#F4DEFA"/>
</g>
<g opacity="0.9716">
<path d="M330.052 187.85C330.779 188.212 330.924 189.059 330.488 189.784C330.052 190.389 329.035 190.51 328.163 190.147C327.437 189.784 327.292 188.938 327.728 188.212C328.309 187.608 329.326 187.487 330.052 187.85Z" fill="#F4DEFA"/>
</g>
<g opacity="0.8655">
<path d="M451.643 211.811C452.37 212.174 452.515 212.899 452.079 213.504C451.643 214.109 450.772 214.229 450.045 213.867C449.319 213.504 449.174 212.778 449.609 212.174C450.045 211.569 450.917 211.448 451.643 211.811Z" fill="#F4DEFA"/>
</g>
<g opacity="0.6978">
<path d="M559.733 271.91C560.75 272.514 561.04 273.723 560.314 274.57C559.587 275.416 558.134 275.658 557.117 275.054C556.1 274.449 555.81 273.24 556.536 272.393C557.263 271.547 558.716 271.305 559.733 271.91Z" fill="#F4DEFA"/>
</g>
<path d="M622.204 298.15C622.93 298.634 623.221 299.48 622.64 300.085C622.059 300.689 621.042 300.931 620.315 300.448C619.589 299.964 619.298 299.117 619.879 298.513C620.461 297.787 621.478 297.666 622.204 298.15Z" fill="#F4DEFA"/>
<g opacity="0.4183">
<path d="M474.598 270.942C475.615 271.547 475.906 272.635 475.179 273.481C474.453 274.328 473.145 274.57 472.128 273.965C471.111 273.361 470.821 272.272 471.547 271.426C472.273 270.579 473.581 270.458 474.598 270.942Z" fill="#F4DEFA"/>
</g>
<g opacity="0.3442">
<path d="M388.155 263.204C389.172 263.808 389.463 265.017 388.736 265.985C388.01 266.831 386.557 267.073 385.395 266.468C384.378 265.864 384.087 264.655 384.814 263.687C385.685 262.841 387.138 262.599 388.155 263.204Z" fill="#F4DEFA"/>
</g>
<g opacity="0.107">
<path d="M364.184 276.625C365.201 277.108 365.346 278.318 364.765 279.043C364.184 279.769 362.731 280.011 361.859 279.527C360.843 279.043 360.697 277.834 361.278 277.108C361.86 276.262 363.167 276.141 364.184 276.625Z" fill="#F4DEFA"/>
</g>
<g opacity="0.8454">
<path d="M410.093 105.52C410.674 105.883 410.819 106.488 410.383 106.971C409.947 107.455 409.221 107.576 408.64 107.213C408.059 106.85 407.913 106.246 408.349 105.762C408.785 105.278 409.511 105.278 410.093 105.52Z" fill="#F4DEFA"/>
</g>
<g opacity="0.8801">
<path d="M433.193 19.6649C433.484 19.7858 433.629 20.1486 433.338 20.3904C433.193 20.6323 432.757 20.7532 432.467 20.5113C432.176 20.3904 432.031 20.0276 432.321 19.7858C432.467 19.544 432.757 19.544 433.193 19.6649Z" fill="#F4DEFA"/>
</g>
<g opacity="0.2181">
<path d="M298.952 25.832C299.678 26.1948 299.824 26.9203 299.388 27.5249C298.952 28.1295 298.08 28.2504 297.354 27.8877C296.627 27.5249 296.482 26.7994 296.918 26.1948C297.354 25.5901 298.371 25.4692 298.952 25.832Z" fill="#F4DEFA"/>
</g>
<g opacity="0.995">
<path d="M215.416 50.8632C215.997 51.226 216.142 51.9515 215.852 52.4352C215.416 52.9189 214.544 53.0399 213.963 52.798C213.382 52.4352 213.237 51.7097 213.527 51.226C213.963 50.6214 214.835 50.5005 215.416 50.8632Z" fill="#F4DEFA"/>
</g>
<path d="M250.283 167.07C250.864 167.432 251.009 168.158 250.719 168.642C250.283 169.125 249.411 169.246 248.83 169.004C248.249 168.642 248.104 167.916 248.394 167.432C248.83 166.949 249.702 166.707 250.283 167.07Z" fill="#F4DEFA"/>
<g opacity="0.8077">
<path d="M325.103 81.3354C326.12 81.94 326.41 83.0283 325.684 83.8747C324.958 84.7212 323.65 84.9631 322.633 84.3584C321.616 83.7538 321.326 82.6655 322.052 81.8191C322.778 80.9726 324.086 80.7308 325.103 81.3354Z" fill="#F4DEFA"/>
</g>
<g opacity="0.5958">
<path d="M205.972 26.7987C206.554 27.1614 206.699 27.887 206.408 28.3707C205.972 28.8543 205.101 28.9753 204.52 28.7334C203.938 28.3706 203.793 27.6451 204.084 27.1614C204.374 26.6777 205.246 26.5568 205.972 26.7987Z" fill="#F4DEFA"/>
</g>
<g opacity="0.1713">
<path d="M296.482 5.51646C297.063 5.87923 297.209 6.60476 296.918 7.08845C296.482 7.57214 295.61 7.69307 295.029 7.45123C294.448 7.08846 294.303 6.36292 294.594 5.87923C294.884 5.39554 295.901 5.1537 296.482 5.51646Z" fill="#F4DEFA"/>
</g>
<g opacity="0.3056">
<path d="M312.899 41.1889C313.626 41.6726 313.916 42.5191 313.335 43.1237C312.754 43.7283 311.737 43.9702 311.011 43.4865C310.284 43.0028 309.994 42.1563 310.575 41.5517C311.011 40.9471 312.028 40.8262 312.899 41.1889Z" fill="#F4DEFA"/>
</g>
<g opacity="0.7292">
<path d="M367.526 50.621C368.543 51.2256 368.833 52.3139 368.107 53.1604C367.38 54.0069 366.073 54.2487 365.056 53.6441C364.039 53.0395 363.748 51.9512 364.475 51.1047C365.056 50.2583 366.509 50.0164 367.526 50.621Z" fill="#F4DEFA"/>
</g>
<g opacity="0.2636">
<path d="M277.886 16.8833C278.467 17.246 278.612 17.9716 278.321 18.4552C277.886 18.9389 277.014 19.0599 276.433 18.818C275.852 18.4553 275.706 17.7297 275.997 17.246C276.287 16.6414 277.159 16.5205 277.886 16.8833Z" fill="#F4DEFA"/>
</g>
<path d="M92.0711 62.9554C92.6522 63.3182 92.7975 64.0437 92.5069 64.5274C92.0711 65.0111 91.1994 65.132 90.6182 64.8902C90.0371 64.5274 89.8918 63.8019 90.1824 63.3182C90.6182 62.8345 91.4899 62.7135 92.0711 62.9554Z" fill="#F4DEFA"/>
<path d="M50.9568 144.336C51.5379 144.699 51.6832 145.424 51.3926 145.908C50.9568 146.392 50.0851 146.513 49.504 146.271C48.9229 145.908 48.7776 145.182 49.0681 144.699C49.504 144.094 50.3757 143.973 50.9568 144.336Z" fill="#F4DEFA"/>
<path d="M83.7908 227.894C84.3719 228.256 84.5172 228.982 84.2266 229.466C83.7908 229.949 82.9191 230.07 82.338 229.828C81.7568 229.466 81.6116 228.74 81.9021 228.256C82.338 227.652 83.2097 227.531 83.7908 227.894Z" fill="#F4DEFA"/>
<path d="M135.365 257.641C135.946 258.003 136.091 258.729 135.801 259.213C135.365 259.696 134.493 259.817 133.912 259.575C133.331 259.213 133.186 258.487 133.476 258.003C133.767 257.399 134.639 257.278 135.365 257.641Z" fill="#F4DEFA"/>
<g opacity="0.7855">
<path d="M9.84254 287.267C10.4237 287.629 10.5689 288.355 10.2784 288.839C9.84254 289.322 8.97085 289.443 8.38972 289.201C7.80859 288.839 7.66331 288.113 7.95388 287.629C8.38972 287.025 9.26141 286.904 9.84254 287.267Z" fill="#F4DEFA"/>
</g>
<g opacity="0.6587">
<path d="M42.24 268.523C42.8211 268.886 42.9664 269.612 42.6758 270.095C42.24 270.579 41.3683 270.7 40.7872 270.458C40.2061 270.095 40.0608 269.37 40.3513 268.886C40.7872 268.282 41.6589 268.161 42.24 268.523Z" fill="#F4DEFA"/>
</g>
<path d="M70.1336 230.675C70.7147 231.038 70.86 231.763 70.5694 232.247C70.1336 232.73 69.2619 232.851 68.6807 232.61C68.0996 232.247 67.9543 231.521 68.2449 231.038C68.6807 230.433 69.5524 230.312 70.1336 230.675Z" fill="#F4DEFA"/>
<path d="M68.6814 238.051C69.2625 238.414 69.4078 239.14 69.1172 239.623C68.6814 240.107 67.8097 240.228 67.2286 239.986C66.6475 239.623 66.5022 238.898 66.7927 238.414C67.0833 237.809 67.955 237.688 68.6814 238.051Z" fill="#F4DEFA"/>
<g opacity="0.426">
<path d="M30.1804 295.489C30.7616 295.852 30.9068 296.577 30.6163 297.061C30.1804 297.545 29.3087 297.666 28.7276 297.424C28.1465 297.061 28.0012 296.336 28.2918 295.852C28.7276 295.368 29.5993 295.126 30.1804 295.489Z" fill="#F4DEFA"/>
</g>
<g opacity="0.1658">
<path d="M66.0662 317.256C66.6473 317.619 66.7926 318.344 66.502 318.828C66.0662 319.311 65.1945 319.432 64.6134 319.191C64.0322 318.828 63.8869 318.102 64.1775 317.619C64.6134 317.014 65.485 316.893 66.0662 317.256Z" fill="#F4DEFA"/>
</g>
<g opacity="0.1779">
<path d="M47.4695 312.661C48.0506 313.023 48.1959 313.749 47.9053 314.233C47.4695 314.716 46.5978 314.837 46.0167 314.595C45.4355 314.233 45.2903 313.507 45.5808 313.023C46.0167 312.419 46.8884 312.298 47.4695 312.661Z" fill="#F4DEFA"/>
</g>
<g opacity="0.3975">
<path d="M90.4724 294.522C91.0535 294.885 91.1988 295.611 90.9083 296.094C90.4724 296.578 89.6007 296.699 89.0196 296.457C88.4385 296.094 88.2932 295.369 88.5838 294.885C89.0196 294.281 89.8913 294.16 90.4724 294.522Z" fill="#F4DEFA"/>
</g>
<g opacity="0.1677">
<path d="M58.656 314.958C59.2371 315.321 59.3824 316.046 59.0919 316.53C58.656 317.014 57.7843 317.134 57.2032 316.893C56.6221 316.53 56.4768 315.804 56.7674 315.321C57.2032 314.837 57.9296 314.595 58.656 314.958Z" fill="#F4DEFA"/>
</g>
<g opacity="0.1133">
<path d="M66.6462 331.403C67.2274 331.766 67.3727 332.491 67.0821 332.975C66.6462 333.459 65.7746 333.58 65.1934 333.338C64.6123 332.975 64.467 332.25 64.7576 331.766C65.1934 331.282 65.9198 331.161 66.6462 331.403Z" fill="#F4DEFA"/>
</g>
<g opacity="0.3335">
<path d="M61.2712 285.573C61.8524 285.936 61.9977 286.661 61.7071 287.145C61.2713 287.629 60.3996 287.75 59.8184 287.508C59.2373 287.145 59.092 286.42 59.3826 285.936C59.8184 285.331 60.5448 285.21 61.2712 285.573Z" fill="#F4DEFA"/>
</g>
<g opacity="0.4937">
<path d="M63.1599 273.481C63.7411 273.844 63.8863 274.57 63.5958 275.053C63.1599 275.537 62.2882 275.658 61.7071 275.416C61.126 275.053 60.9807 274.328 61.2713 273.844C61.7071 273.36 62.5788 273.239 63.1599 273.481Z" fill="#F4DEFA"/>
</g>
<g opacity="0.7598">
<path d="M128.101 456.437C128.682 456.8 128.828 457.526 128.537 458.009C128.101 458.493 127.23 458.614 126.649 458.372C126.067 458.009 125.922 457.284 126.213 456.8C126.503 456.196 127.375 456.075 128.101 456.437Z" fill="#F4DEFA"/>
</g>
<path d="M9.98707 489.57C10.5682 489.933 10.7135 490.659 10.4229 491.142C9.98707 491.626 9.11538 491.747 8.53425 491.505C7.95312 491.142 7.80784 490.417 8.09841 489.933C8.53425 489.328 9.40594 489.208 9.98707 489.57Z" fill="#F4DEFA"/>
<g opacity="0.7634">
<path d="M81.6111 503.96C82.1922 504.323 82.3375 505.048 82.0469 505.532C81.6111 506.016 80.7394 506.137 80.1583 505.895C79.5771 505.532 79.4319 504.806 79.7224 504.323C80.1583 503.718 81.03 503.597 81.6111 503.96Z" fill="#F4DEFA"/>
</g>
<g opacity="0.6922">
<path d="M125.632 496.826C126.213 497.188 126.358 497.914 126.067 498.398C125.632 498.881 124.76 499.002 124.179 498.76C123.598 498.398 123.452 497.672 123.743 497.188C124.179 496.584 124.905 496.463 125.632 496.826Z" fill="#F4DEFA"/>
</g>
<path d="M266.554 479.776C267.136 480.139 267.281 480.864 266.99 481.348C266.554 481.832 265.683 481.952 265.102 481.711C264.52 481.348 264.375 480.622 264.666 480.139C265.102 479.534 265.973 479.413 266.554 479.776Z" fill="#F4DEFA"/>
<path d="M281.954 517.624C282.535 517.987 282.68 518.712 282.39 519.196C281.954 519.68 281.082 519.801 280.501 519.559C279.92 519.317 279.775 518.47 280.065 517.987C280.501 517.382 281.373 517.261 281.954 517.624Z" fill="#F4DEFA"/>
<path d="M528.934 472.278C529.224 472.399 529.224 472.762 529.079 472.883C528.934 473.125 528.498 473.125 528.352 473.004C528.207 472.883 528.061 472.52 528.207 472.399C528.352 472.157 528.643 472.157 528.934 472.278Z" fill="#F4DEFA"/>
<path d="M566.852 426.57C567.433 426.933 567.579 427.658 567.288 428.142C566.852 428.625 565.981 428.746 565.4 428.505C564.818 428.142 564.673 427.416 564.964 426.933C565.399 426.328 566.271 426.207 566.852 426.57Z" fill="#F4DEFA"/>
<path d="M485.784 451.842C486.365 452.205 486.51 452.93 486.22 453.414C485.784 453.898 484.912 454.019 484.331 453.777C483.75 453.414 483.605 452.689 483.895 452.205C484.186 451.721 485.058 451.479 485.784 451.842Z" fill="#F4DEFA"/>
<path d="M417.066 465.144C417.647 465.507 417.793 466.232 417.502 466.716C417.066 467.2 416.194 467.321 415.613 467.079C415.032 466.716 414.887 465.99 415.178 465.507C415.613 464.902 416.485 464.781 417.066 465.144Z" fill="#F4DEFA"/>
<path d="M481.28 518.108C481.861 518.471 482.006 519.196 481.716 519.68C481.28 520.164 480.408 520.285 479.827 520.043C479.246 519.68 479.101 518.954 479.391 518.471C479.827 517.866 480.699 517.745 481.28 518.108Z" fill="#F4DEFA"/>
<path d="M512.807 471.915C513.243 472.157 513.388 472.641 513.098 473.004C512.807 473.366 512.226 473.487 511.79 473.246C511.355 473.004 511.209 472.52 511.5 472.157C511.79 471.794 512.371 471.674 512.807 471.915Z" fill="#F4DEFA"/>
<path d="M554.939 460.549C555.375 460.791 555.52 461.395 555.23 461.758C554.939 462.121 554.213 462.242 553.777 462C553.341 461.758 553.196 461.153 553.486 460.791C553.777 460.428 554.358 460.307 554.939 460.549Z" fill="#F4DEFA"/>
<path d="M500.459 496.705C501.04 497.067 501.185 497.793 500.895 498.277C500.459 498.76 499.587 498.881 499.006 498.639C498.425 498.277 498.28 497.551 498.57 497.067C499.006 496.463 499.878 496.342 500.459 496.705Z" fill="#F4DEFA"/>
<path d="M504.381 513.271C504.962 513.634 505.107 514.359 504.816 514.843C504.381 515.327 503.509 515.448 502.928 515.206C502.347 514.843 502.201 514.117 502.492 513.634C502.783 513.029 503.654 512.908 504.381 513.271Z" fill="#F4DEFA"/>
<path d="M550.144 502.267C550.726 502.509 550.871 503.114 550.435 503.597C550.144 504.081 549.418 504.202 548.837 503.839C548.256 503.597 548.111 502.993 548.546 502.509C548.837 502.025 549.563 502.025 550.144 502.267Z" fill="#F4DEFA"/>
<path d="M603.319 493.077C603.755 493.319 603.9 493.923 603.609 494.286C603.319 494.649 602.592 494.77 602.157 494.528C601.721 494.286 601.575 493.682 601.866 493.319C602.157 492.956 602.738 492.835 603.319 493.077Z" fill="#F4DEFA"/>
<path d="M555.085 543.018C555.666 543.381 555.811 544.106 555.521 544.59C555.085 545.074 554.213 545.195 553.632 544.953C553.051 544.59 552.906 543.864 553.196 543.381C553.487 542.776 554.358 542.655 555.085 543.018Z" fill="#F4DEFA"/>
<path d="M574.697 536.125C575.278 536.488 575.423 537.214 575.133 537.697C574.697 538.181 573.825 538.302 573.244 538.06C572.663 537.697 572.518 536.972 572.808 536.488C573.244 535.884 574.116 535.763 574.697 536.125Z" fill="#F4DEFA"/>
<path d="M620.025 530.926C620.606 531.289 620.752 532.014 620.461 532.498C620.025 532.981 619.153 533.102 618.572 532.86C617.991 532.498 617.846 531.772 618.136 531.288C618.427 530.684 619.299 530.563 620.025 530.926Z" fill="#F4DEFA"/>
<g opacity="0.9881">
<path d="M1057.03 477.841C1057.61 478.204 1057.76 478.929 1057.47 479.413C1057.03 479.896 1056.16 480.017 1055.58 479.776C1055 479.413 1054.85 478.687 1055.14 478.204C1055.58 477.599 1056.45 477.478 1057.03 477.841Z" fill="#F4DEFA"/>
</g>
<g opacity="0.9698">
<path d="M918.289 394.041C918.87 394.404 919.015 395.13 918.725 395.613C918.289 396.097 917.417 396.218 916.836 395.976C916.255 395.613 916.11 394.888 916.4 394.404C916.836 393.8 917.708 393.679 918.289 394.041Z" fill="#F4DEFA"/>
</g>
<path d="M981.485 419.677C982.066 420.04 982.211 420.766 981.921 421.249C981.485 421.733 980.613 421.854 980.032 421.612C979.451 421.249 979.306 420.524 979.596 420.04C980.032 419.435 980.759 419.314 981.485 419.677Z" fill="#F4DEFA"/>
<path d="M975.385 452.084C975.966 452.447 976.111 453.172 975.82 453.656C975.384 454.14 974.513 454.261 973.932 454.019C973.351 453.656 973.205 452.93 973.496 452.447C973.932 451.842 974.803 451.721 975.385 452.084Z" fill="#F4DEFA"/>
<g opacity="0.3407">
<path d="M952.574 480.864C953.155 481.226 953.3 481.952 953.01 482.436C952.574 482.919 951.702 483.04 951.121 482.798C950.54 482.436 950.395 481.71 950.685 481.226C951.121 480.622 951.848 480.501 952.574 480.864Z" fill="#F4DEFA"/>
</g>
<g opacity="0.1215">
<path d="M963.18 497.551C963.762 497.914 963.907 498.64 963.616 499.123C963.18 499.607 962.309 499.728 961.728 499.486C961.147 499.123 961.001 498.398 961.292 497.914C961.728 497.309 962.599 497.188 963.18 497.551Z" fill="#F4DEFA"/>
</g>
<g opacity="0.4028">
<path d="M931.22 482.678C931.801 483.04 931.946 483.766 931.655 484.25C931.22 484.733 930.348 484.854 929.767 484.612C929.186 484.25 929.04 483.524 929.331 483.04C929.767 482.557 930.493 482.315 931.22 482.678Z" fill="#F4DEFA"/>
</g>
<g opacity="0.7828">
<path d="M987.879 465.628C988.46 465.991 988.605 466.716 988.315 467.2C987.879 467.684 987.007 467.804 986.426 467.563C985.845 467.2 985.699 466.474 985.99 465.991C986.426 465.386 987.298 465.265 987.879 465.628Z" fill="#F4DEFA"/>
</g>
<g opacity="0.6629">
<path d="M1002.26 474.334C1002.84 474.697 1002.99 475.422 1002.7 475.906C1002.26 476.39 1001.39 476.511 1000.81 476.269C1000.23 475.906 1000.08 475.18 1000.37 474.697C1000.81 474.092 1001.68 473.971 1002.26 474.334Z" fill="#F4DEFA"/>
</g>
<g opacity="0.8131">
<path d="M1024.93 471.19C1025.51 471.553 1025.65 472.279 1025.36 472.762C1024.93 473.246 1024.05 473.367 1023.47 473.125C1022.89 472.762 1022.75 472.037 1023.04 471.553C1023.47 470.949 1024.34 470.828 1024.93 471.19Z" fill="#F4DEFA"/>
</g>
<g opacity="0.9946">
<path d="M1037.71 458.977C1038.29 459.34 1038.44 460.065 1038.15 460.549C1037.71 461.033 1036.84 461.154 1036.26 460.912C1035.68 460.549 1035.53 459.823 1035.82 459.34C1036.26 458.735 1037.13 458.614 1037.71 458.977Z" fill="#F4DEFA"/>
</g>
<path d="M1064.44 465.386C1065.02 465.748 1065.17 466.474 1064.88 466.958C1064.59 467.441 1063.57 467.562 1062.99 467.32C1062.41 466.958 1062.26 466.232 1062.55 465.748C1062.99 465.144 1063.86 465.023 1064.44 465.386Z" fill="#F4DEFA"/>
<path d="M1087.11 494.528C1087.69 494.891 1087.83 495.617 1087.54 496.1C1087.11 496.584 1086.23 496.705 1085.65 496.463C1085.07 496.1 1084.93 495.375 1085.22 494.891C1085.65 494.407 1086.53 494.165 1087.11 494.528Z" fill="#F4DEFA"/>
<g opacity="0.089722">
<path d="M949.96 503.476C950.541 503.839 950.686 504.565 950.396 505.048C949.96 505.532 949.088 505.653 948.507 505.411C947.926 505.048 947.781 504.323 948.071 503.839C948.507 503.355 949.379 503.114 949.96 503.476Z" fill="#F4DEFA"/>
</g>
<path d="M843.904 463.813C844.485 464.176 844.63 464.902 844.34 465.385C843.904 465.869 843.032 465.99 842.451 465.748C841.87 465.385 841.725 464.66 842.015 464.176C842.451 463.572 843.178 463.451 843.904 463.813Z" fill="#F4DEFA"/>
<path d="M837.221 431.769C837.803 432.132 837.948 432.857 837.657 433.341C837.221 433.825 836.35 433.946 835.769 433.704C835.187 433.341 835.042 432.615 835.333 432.132C835.769 431.527 836.64 431.406 837.221 431.769Z" fill="#F4DEFA"/>
<path d="M823.856 462.484C824.437 462.847 824.583 463.572 824.292 464.056C823.856 464.539 822.985 464.66 822.403 464.419C821.822 464.056 821.677 463.33 821.968 462.847C822.403 462.363 823.275 462.121 823.856 462.484Z" fill="#F4DEFA"/>
<path d="M1079.26 191.979C1079.84 192.342 1079.99 193.068 1079.7 193.551C1079.26 194.035 1078.39 194.156 1077.81 193.914C1077.23 193.551 1077.08 192.826 1077.37 192.342C1077.81 191.738 1078.53 191.617 1079.26 191.979Z" fill="#F4DEFA"/>
<path d="M1114.42 127.165C1115 127.528 1115.15 128.254 1114.85 128.737C1114.42 129.221 1113.55 129.342 1112.97 129.1C1112.38 128.737 1112.24 128.012 1112.53 127.528C1112.97 126.924 1113.84 126.803 1114.42 127.165Z" fill="#F4DEFA"/>
<path d="M1033.06 65.1318C1033.64 65.4946 1033.79 66.0992 1033.35 66.7038C1032.92 67.1875 1032.19 67.3084 1031.46 66.9457C1030.88 66.5829 1030.74 65.9783 1031.17 65.3737C1031.61 64.89 1032.48 64.7691 1033.06 65.1318Z" fill="#F4DEFA"/>
<g opacity="0.881">
<path d="M1031.9 32.3616C1032.19 32.4825 1032.34 32.8453 1032.05 33.0871C1031.9 33.329 1031.46 33.4499 1031.17 33.2081C1030.88 33.0871 1030.74 32.7244 1031.03 32.4825C1031.17 32.3616 1031.61 32.2407 1031.9 32.3616Z" fill="#F4DEFA"/>
</g>
<g opacity="0.3999">
<path d="M1035.09 14.3441C1035.67 14.7069 1035.82 15.3115 1035.38 15.7952C1034.95 16.2789 1034.22 16.3998 1033.64 16.037C1033.06 15.6742 1032.91 15.0696 1033.35 14.5859C1033.64 14.2232 1034.51 14.1022 1035.09 14.3441Z" fill="#F4DEFA"/>
</g>
<path d="M580.364 191.133C580.945 191.496 581.09 192.101 580.655 192.584C580.219 193.068 579.492 193.189 578.911 192.826C578.33 192.463 578.185 191.859 578.621 191.375C579.056 191.012 579.783 190.891 580.364 191.133Z" fill="#F4DEFA"/>
<path d="M84.3757 152.265C85.6832 152.991 85.9738 154.442 85.1021 155.651C84.2304 156.739 82.4871 156.981 81.0342 156.256C79.7267 155.53 79.4361 154.079 80.3078 152.87C81.3248 151.782 83.0682 151.54 84.3757 152.265Z" fill="#F4DEFA"/>
<g opacity="0.8346">
<path d="M15.5121 98.4543C16.3838 98.938 16.6744 99.9054 16.0932 100.631C15.5121 101.356 14.3499 101.598 13.4782 101.115C12.6065 100.631 12.3159 99.6635 12.8971 98.938C13.3329 98.2124 14.6404 97.9706 15.5121 98.4543Z" fill="#F4DEFA"/>
</g>
<g opacity="0.8779">
<path d="M73.3351 92.2876C74.2068 92.7713 74.352 93.7387 73.7709 94.3433C73.1898 95.0688 72.0275 95.1897 71.3011 94.706C70.4294 94.2223 70.2842 93.255 70.8653 92.6504C71.3011 92.0457 72.4634 91.8039 73.3351 92.2876Z" fill="#F4DEFA"/>
</g>
<path d="M683.223 201.533C684.094 202.016 684.24 202.863 683.659 203.588C683.077 204.314 682.06 204.435 681.189 203.951C680.317 203.467 680.172 202.621 680.753 201.895C681.334 201.291 682.496 201.049 683.223 201.533Z" fill="#F4DEFA"/>
<path d="M92.033 416.526C92.7594 416.889 92.9047 417.615 92.4688 418.219C92.033 418.824 91.1613 418.945 90.4349 418.582C89.7085 418.219 89.5632 417.494 89.9991 416.889C90.5802 416.284 91.4519 416.164 92.033 416.526Z" fill="#F4DEFA"/>
<path d="M710.971 237.93C711.698 238.293 711.843 239.139 711.407 239.744C710.971 240.349 709.954 240.47 709.228 240.107C708.501 239.744 708.356 238.898 708.792 238.293C709.228 237.688 710.245 237.446 710.971 237.93Z" fill="#F4DEFA"/>
<path d="M781.579 189.803C782.16 190.166 782.305 190.891 782.015 191.375C781.579 191.859 780.707 191.98 780.126 191.738C779.545 191.375 779.4 190.65 779.69 190.166C780.126 189.682 780.998 189.44 781.579 189.803Z" fill="#F4DEFA"/>
<path d="M807.148 159.331C807.729 159.693 807.875 160.419 807.584 160.903C807.148 161.386 806.276 161.507 805.695 161.265C805.114 160.903 804.969 160.177 805.26 159.693C805.695 159.089 806.567 158.968 807.148 159.331Z" fill="#F4DEFA"/>
<path d="M760.077 83.8748C760.658 84.2376 760.803 84.9631 760.513 85.4468C760.077 85.9305 759.205 86.0514 758.624 85.8096C758.043 85.4468 757.898 84.7213 758.188 84.2376C758.624 83.7539 759.496 83.633 760.077 83.8748Z" fill="#F4DEFA"/>
<path d="M792.474 47.5971C793.056 47.9599 793.201 48.6854 792.91 49.1691C792.474 49.6528 791.603 49.7737 791.022 49.5319C790.44 49.1691 790.295 48.4436 790.586 47.9599C791.022 47.3553 791.893 47.2344 792.474 47.5971Z" fill="#F4DEFA"/>
<g opacity="0.5379">
<path d="M861.629 94.8784C862.21 95.2411 862.355 95.9667 862.064 96.4504C861.629 96.9341 860.757 97.055 860.176 96.8131C859.595 96.4504 859.449 95.7248 859.74 95.2411C860.031 94.6365 860.902 94.5156 861.629 94.8784Z" fill="#F4DEFA"/>
</g>
<g opacity="0.7473">
<path d="M911.752 214.834C912.333 215.197 912.478 215.922 912.188 216.406C911.752 216.89 910.88 217.01 910.299 216.769C909.718 216.406 909.572 215.68 909.863 215.197C910.299 214.713 911.171 214.471 911.752 214.834Z" fill="#F4DEFA"/>
</g>
<g opacity="0.4628">
<path d="M903.033 297.424C903.614 297.787 903.759 298.513 903.469 298.996C903.033 299.48 902.161 299.601 901.58 299.359C900.999 298.996 900.854 298.271 901.144 297.787C901.58 297.182 902.452 297.061 903.033 297.424Z" fill="#F4DEFA"/>
</g>
<g opacity="0.201">
<path d="M938.482 275.658C939.063 276.02 939.209 276.746 938.918 277.23C938.482 277.713 937.611 277.834 937.029 277.592C936.448 277.23 936.303 276.504 936.594 276.02C937.029 275.416 937.756 275.295 938.482 275.658Z" fill="#F4DEFA"/>
</g>
<g opacity="0.5161">
<path d="M917.127 241.437C917.708 241.8 917.853 242.525 917.563 243.009C917.127 243.493 916.255 243.614 915.674 243.372C915.093 243.009 914.947 242.283 915.238 241.8C915.674 241.195 916.546 241.074 917.127 241.437Z" fill="#F4DEFA"/>
</g>
<g opacity="0.9764">
<path d="M856.108 255.585C856.689 255.948 856.835 256.673 856.544 257.157C856.108 257.641 855.236 257.761 854.655 257.52C854.074 257.278 853.929 256.431 854.22 255.948C854.655 255.343 855.527 255.222 856.108 255.585Z" fill="#F4DEFA"/>
</g>
<path d="M863.808 290.653C864.389 291.016 864.535 291.741 864.244 292.225C863.808 292.708 862.937 292.829 862.356 292.588C861.774 292.225 861.629 291.499 861.92 291.016C862.356 290.411 863.227 290.29 863.808 290.653Z" fill="#F4DEFA"/>
<g opacity="0.2926">
<path d="M915.964 302.382C916.545 302.745 916.69 303.471 916.4 303.954C916.109 304.438 915.092 304.559 914.511 304.317C913.93 303.954 913.784 303.229 914.075 302.745C914.511 302.14 915.383 302.02 915.964 302.382Z" fill="#F4DEFA"/>
</g>
<g opacity="0.8331">
<path d="M874.558 280.012C875.14 280.374 875.285 281.1 874.994 281.584C874.558 282.067 873.687 282.188 873.106 281.946C872.524 281.584 872.379 280.858 872.67 280.374C873.106 279.77 873.977 279.649 874.558 280.012Z" fill="#F4DEFA"/>
</g>
<g opacity="0.5947">
<path d="M894.753 261.752C895.334 262.115 895.479 262.84 895.189 263.324C894.753 263.808 893.881 263.929 893.3 263.687C892.719 263.324 892.573 262.598 892.864 262.115C893.3 261.51 894.026 261.389 894.753 261.752Z" fill="#F4DEFA"/>
</g>
<g opacity="0.3619">
<path d="M917.561 267.435C918.142 267.798 918.288 268.523 917.997 269.007C917.561 269.491 916.69 269.612 916.108 269.37C915.527 269.007 915.382 268.281 915.673 267.798C916.108 267.193 916.98 267.072 917.561 267.435Z" fill="#F4DEFA"/>
</g>
<g opacity="0.726">
<path d="M884.583 302.503C885.164 302.866 885.309 303.591 885.019 304.075C884.583 304.559 883.711 304.68 883.13 304.438C882.549 304.075 882.404 303.349 882.694 302.866C883.13 302.261 884.002 302.14 884.583 302.503Z" fill="#F4DEFA"/>
</g>
<g opacity="0.175">
<path d="M812.959 356.434C813.54 356.797 813.685 357.523 813.395 358.006C812.959 358.49 812.087 358.611 811.506 358.369C810.925 358.006 810.78 357.281 811.07 356.797C811.506 356.313 812.378 356.072 812.959 356.434Z" fill="#F4DEFA"/>
</g>
<g opacity="0.7698">
<path d="M879.063 362.844C879.644 363.206 879.79 363.932 879.499 364.416C879.063 364.899 878.192 365.02 877.61 364.778C877.029 364.416 876.884 363.69 877.175 363.206C877.61 362.602 878.482 362.481 879.063 362.844Z" fill="#F4DEFA"/>
</g>
<g opacity="0.9234">
<path d="M984.972 349.179C985.554 349.542 985.699 350.267 985.408 350.751C984.972 351.235 984.101 351.356 983.52 351.114C982.939 350.751 982.793 350.026 983.084 349.542C983.52 349.058 984.391 348.816 984.972 349.179Z" fill="#F4DEFA"/>
</g>
<path d="M1013.16 349.421C1013.74 349.784 1013.88 350.509 1013.59 350.993C1013.16 351.476 1012.29 351.597 1011.7 351.356C1011.12 350.993 1010.98 350.267 1011.27 349.784C1011.7 349.3 1012.58 349.058 1013.16 349.421Z" fill="#F4DEFA"/>
<g opacity="0.6533">
<path d="M1028.67 283.149C1029.25 283.512 1029.39 284.238 1029.1 284.721C1028.67 285.205 1027.79 285.326 1027.21 285.084C1026.63 284.721 1026.49 283.996 1026.78 283.512C1027.21 282.908 1028.08 282.787 1028.67 283.149Z" fill="#F4DEFA"/>
</g>
<path d="M1024.49 334.427C1025.07 334.789 1025.22 335.515 1024.92 335.999C1024.49 336.482 1023.62 336.603 1023.04 336.361C1022.46 335.999 1022.31 335.273 1022.6 334.789C1023.04 334.185 1023.91 334.064 1024.49 334.427Z" fill="#F4DEFA"/>
<g opacity="0.7182">
<path d="M891.121 365.866C891.702 366.229 891.847 366.954 891.557 367.438C891.121 367.922 890.249 368.043 889.668 367.801C889.087 367.438 888.942 366.713 889.232 366.229C889.668 365.624 890.394 365.503 891.121 365.866Z" fill="#F4DEFA"/>
</g>
<g opacity="0.9913">
<path d="M456.728 362.722C457.309 363.084 457.455 363.81 457.164 364.294C456.728 364.777 455.857 364.898 455.275 364.656C454.694 364.294 454.549 363.568 454.84 363.084C455.275 362.48 456.147 362.359 456.728 362.722Z" fill="#F4DEFA"/>
</g>
<g opacity="0.6311">
<path d="M311.302 362.359C311.883 362.722 312.028 363.448 311.737 363.931C311.302 364.415 310.43 364.536 309.849 364.294C309.268 363.931 309.122 363.206 309.413 362.722C309.849 362.117 310.72 361.997 311.302 362.359Z" fill="#F4DEFA"/>
</g>
<g opacity="0.1746">
<path d="M305.054 307.34C305.781 307.703 305.926 308.549 305.49 309.154C305.054 309.758 304.037 309.879 303.311 309.516C302.584 309.154 302.439 308.307 302.875 307.703C303.311 307.098 304.328 306.856 305.054 307.34Z" fill="#F4DEFA"/>
</g>
<g opacity="0.1311">
<path d="M318.711 279.89C319.583 280.374 319.728 281.22 319.147 281.946C318.566 282.672 317.549 282.792 316.677 282.309C315.805 281.825 315.66 280.979 316.241 280.253C316.822 279.528 317.839 279.407 318.711 279.89Z" fill="#F4DEFA"/>
</g>
<g opacity="0.9713">
<path d="M264.23 268.887C264.811 269.249 265.102 269.975 264.666 270.579C264.23 271.063 263.358 271.305 262.632 270.942C262.051 270.579 261.76 269.854 262.196 269.249C262.777 268.766 263.649 268.524 264.23 268.887Z" fill="#F4DEFA"/>
</g>
<path d="M258.273 212.536C258.854 212.899 259 213.624 258.709 214.108C258.418 214.592 257.402 214.713 256.82 214.471C256.239 214.108 256.094 213.383 256.385 212.899C256.82 212.294 257.547 212.173 258.273 212.536Z" fill="#F4DEFA"/>
<path d="M252.026 235.875C252.607 236.238 252.753 236.963 252.462 237.447C252.026 237.931 251.154 238.051 250.573 237.81C249.992 237.447 249.847 236.721 250.137 236.238C250.573 235.754 251.445 235.512 252.026 235.875Z" fill="#F4DEFA"/>
<g opacity="0.4118">
<path d="M407.042 144.215C408.35 144.941 408.64 146.392 407.769 147.359C406.897 148.447 405.154 148.689 403.991 147.964C402.684 147.238 402.393 145.787 403.265 144.82C404.137 143.731 405.88 143.489 407.042 144.215Z" fill="#F4DEFA"/>
</g>
<g opacity="0.8946">
<path d="M462.54 93.1855C463.557 93.7901 463.847 94.8784 463.121 95.8458C462.394 96.8132 461.087 96.9341 459.925 96.3295C458.762 95.7248 458.617 94.6365 459.343 93.6692C460.07 92.8227 461.523 92.5809 462.54 93.1855Z" fill="#F4DEFA"/>
</g>
<g opacity="0.8718">
<path d="M300.669 106.669C302.122 107.516 302.558 109.209 301.541 110.539C300.524 111.748 298.49 112.111 296.892 111.264C295.294 110.418 295.003 108.725 296.02 107.395C297.037 106.186 299.071 105.823 300.669 106.669Z" fill="#F4DEFA"/>
</g>
<g opacity="0.7204">
<path d="M458.472 39.2544C459.343 39.7381 459.489 40.7054 458.908 41.3101C458.326 41.9147 457.164 42.1565 456.438 41.6728C455.566 41.1891 455.421 40.2218 456.002 39.6172C456.583 39.0125 457.6 38.7707 458.472 39.2544Z" fill="#F4DEFA"/>
</g>
<path d="M531.259 6.3636C531.84 6.72637 531.985 7.45191 531.694 7.9356C531.259 8.41929 530.387 8.5402 529.806 8.29836C529.225 7.93559 529.079 7.21006 529.37 6.72637C529.806 6.24268 530.677 6.12175 531.259 6.3636Z" fill="#F4DEFA"/>
<path d="M614.94 50.0165C615.521 50.3792 615.667 51.1048 615.376 51.5885C614.94 52.0722 614.069 52.1931 613.487 51.9512C612.906 51.5885 612.761 50.8629 613.052 50.3792C613.487 49.8955 614.359 49.6537 614.94 50.0165Z" fill="#F4DEFA"/>
<g opacity="0.9222">
<path d="M66.6517 113.207C67.6687 113.812 67.9592 114.9 67.2328 115.746C66.5064 116.593 65.1989 116.835 64.1819 116.23C63.1649 115.625 62.8744 114.537 63.6008 113.691C64.1819 112.844 65.6347 112.602 66.6517 113.207Z" fill="#F4DEFA"/>
</g>
<g opacity="0.7022">
<path d="M364.679 105.757C365.986 106.483 366.277 107.934 365.405 108.901C364.534 109.989 362.79 110.231 361.628 109.506C360.32 108.78 360.03 107.329 360.902 106.362C361.628 105.273 363.371 105.031 364.679 105.757Z" fill="#F4DEFA"/>
</g>
<path d="M3.59973 160.851C4.61671 161.455 4.90726 162.664 4.18085 163.511C3.45444 164.357 2.00161 164.599 0.984635 163.995C-0.0323369 163.39 -0.322891 162.181 0.403517 161.334C1.12993 160.488 2.58276 160.246 3.59973 160.851Z" fill="#F4DEFA"/>
<path d="M645.885 97.0551C646.466 97.4179 646.611 98.1434 646.32 98.6271C645.884 99.1108 645.013 99.2317 644.432 98.9899C643.851 98.6271 643.705 97.9016 643.996 97.4179C644.432 96.8133 645.303 96.6924 645.885 97.0551Z" fill="#F4DEFA"/>
<path d="M687.145 80.247C687.726 80.6098 687.872 81.3353 687.581 81.819C687.145 82.3027 686.274 82.4236 685.692 82.1818C685.111 81.819 684.966 81.0935 685.257 80.6098C685.692 80.0052 686.419 79.8843 687.145 80.247Z" fill="#F4DEFA"/>
<path d="M124.764 90.2314C125.491 90.5942 125.636 91.4407 125.2 92.0453C124.764 92.6499 123.747 92.7708 123.021 92.408C122.294 92.0453 122.149 91.1988 122.585 90.5942C123.021 89.9896 124.038 89.7477 124.764 90.2314Z" fill="#F4DEFA"/>
<g opacity="0.9913">
<path d="M399.197 397.427C399.778 397.79 399.923 398.515 399.633 398.999C399.197 399.483 398.325 399.604 397.744 399.362C397.163 398.999 397.018 398.274 397.308 397.79C397.744 397.185 398.616 397.064 399.197 397.427Z" fill="#F4DEFA"/>
</g>
<g opacity="0.9913">
<path d="M405.008 387.874C405.589 388.237 405.734 388.842 405.298 389.325C404.862 389.809 404.136 389.93 403.555 389.567C402.974 389.205 402.828 388.6 403.264 388.116C403.7 387.753 404.426 387.633 405.008 387.874Z" fill="#F4DEFA"/>
</g>
<g opacity="0.9913">
<path d="M436.098 401.66C436.534 401.901 436.534 402.264 436.243 402.627C435.953 402.99 435.517 402.99 435.081 402.748C434.645 402.506 434.645 402.143 434.936 401.78C435.226 401.539 435.808 401.539 436.098 401.66Z" fill="#F4DEFA"/>
</g>
<g opacity="0.9913">
<path d="M451.062 403.111C451.498 403.353 451.643 403.957 451.353 404.32C451.062 404.683 450.336 404.804 449.9 404.562C449.464 404.32 449.319 403.715 449.609 403.353C449.9 402.99 450.481 402.869 451.062 403.111Z" fill="#F4DEFA"/>
</g>
<g opacity="0.9913">
<path d="M450.19 412.905C450.771 413.268 450.917 413.873 450.481 414.356C450.045 414.84 449.318 414.961 448.737 414.598C448.156 414.235 448.011 413.631 448.447 413.147C448.883 412.663 449.609 412.542 450.19 412.905Z" fill="#F4DEFA"/>
</g>
<g opacity="0.9913">
<path d="M440.747 383.037C441.183 383.279 441.328 383.762 441.037 384.125C440.747 384.488 440.166 384.609 439.73 384.367C439.294 384.125 439.149 383.642 439.439 383.279C439.73 382.916 440.311 382.795 440.747 383.037Z" fill="#F4DEFA"/>
</g>
<g opacity="0.9913">
<path d="M396.145 356.313C396.727 356.676 397.017 357.402 396.581 357.885C396.145 358.369 395.274 358.611 394.693 358.248C394.111 357.885 393.821 357.16 394.257 356.676C394.693 356.192 395.419 356.071 396.145 356.313Z" fill="#F4DEFA"/>
</g>
<g opacity="0.9913">
<path d="M392.66 344.463C393.241 344.826 393.532 345.551 393.096 346.035C392.66 346.518 391.788 346.76 391.207 346.397C390.626 346.035 390.336 345.309 390.771 344.826C391.207 344.342 392.079 344.1 392.66 344.463Z" fill="#F4DEFA"/>
</g>
<path d="M317.839 152.438C318.13 152.559 318.275 152.922 317.985 153.285C317.839 153.527 317.404 153.648 316.968 153.406C316.677 153.285 316.532 152.922 316.822 152.559C317.113 152.318 317.549 152.197 317.839 152.438Z" fill="#F4DEFA"/>
<path d="M319.292 156.55C319.583 156.671 319.583 157.034 319.438 157.155C319.292 157.397 318.856 157.397 318.711 157.276C318.42 157.155 318.42 156.792 318.565 156.671C318.711 156.55 319.001 156.429 319.292 156.55Z" fill="#F4DEFA"/>
<path d="M307.524 155.581C307.96 155.823 308.105 156.428 307.814 156.791C307.524 157.153 306.797 157.274 306.362 157.032C305.926 156.791 305.781 156.186 306.071 155.823C306.362 155.46 307.088 155.34 307.524 155.581Z" fill="#F4DEFA"/>
<path d="M309.558 160.299C309.994 160.541 310.139 161.024 309.849 161.387C309.558 161.75 308.977 161.871 308.541 161.629C308.105 161.387 307.96 160.903 308.251 160.541C308.687 160.178 309.268 160.057 309.558 160.299Z" fill="#F4DEFA"/>
<path d="M327.283 151.592C327.429 151.713 327.574 151.955 327.429 152.076C327.283 152.197 326.993 152.318 326.847 152.197C326.702 152.076 326.556 151.834 326.702 151.713C326.847 151.592 327.138 151.471 327.283 151.592Z" fill="#F4DEFA"/>
<path d="M336.726 155.34C336.872 155.461 336.872 155.582 336.872 155.703C336.726 155.824 336.581 155.824 336.435 155.824C336.29 155.703 336.29 155.582 336.29 155.461C336.435 155.219 336.581 155.219 336.726 155.34Z" fill="#F4DEFA"/>
<path d="M327.717 154.977C327.863 155.098 327.863 155.219 327.863 155.34C327.717 155.461 327.572 155.461 327.427 155.461C327.281 155.461 327.281 155.219 327.281 155.098C327.427 154.977 327.572 154.856 327.717 154.977Z" fill="#F4DEFA"/>
<g opacity="0.995">
<path d="M195.803 87.744C196.384 88.1068 196.529 88.8323 196.238 89.316C195.803 89.7997 194.931 89.9206 194.35 89.6788C193.769 89.316 193.623 88.5905 193.914 88.1068C194.35 87.6231 195.221 87.3812 195.803 87.744Z" fill="#F4DEFA"/>
</g>
<g opacity="0.995">
<path d="M161.371 73.2338C161.952 73.5966 162.097 74.3221 161.807 74.8058C161.371 75.2895 160.499 75.4105 159.918 75.1686C159.337 74.8058 159.192 74.0803 159.482 73.5966C159.918 72.992 160.644 72.8711 161.371 73.2338Z" fill="#F4DEFA"/>
</g>
<g opacity="0.9952">
<path d="M143.937 66.7036C144.518 67.0663 144.664 67.7919 144.373 68.2756C143.937 68.7593 143.066 68.8802 142.484 68.6383C141.903 68.2756 141.758 67.55 142.049 67.0663C142.484 66.4617 143.356 66.3408 143.937 66.7036Z" fill="#F4DEFA"/>
</g>
<g opacity="0.9871">
<path d="M165.729 64.8896C166.31 65.2524 166.456 65.9779 166.165 66.4616C165.729 66.9453 164.858 67.0662 164.276 66.8244C163.695 66.4616 163.55 65.7361 163.841 65.2524C164.276 64.6478 165.148 64.5268 165.729 64.8896Z" fill="#F4DEFA"/>
</g>
<g opacity="0.988">
<path d="M170.232 69.122C170.813 69.4848 170.959 70.2103 170.668 70.694C170.232 71.1777 169.36 71.2986 168.779 71.0568C168.198 70.694 168.053 69.9685 168.344 69.4848C168.779 68.8802 169.506 68.7593 170.232 69.122Z" fill="#F4DEFA"/>
</g>
<g opacity="0.9614">
<path d="M155.269 45.4213C155.85 45.7841 155.996 46.5096 155.705 46.9933C155.269 47.477 154.398 47.598 153.816 47.3561C153.235 46.9933 153.09 46.2678 153.381 45.7841C153.816 45.1795 154.688 45.0586 155.269 45.4213Z" fill="#F4DEFA"/>
</g>
<g opacity="0.1406">
<path d="M968.991 17.2465C969.572 17.6093 969.717 18.3348 969.427 18.8185C968.991 19.3022 968.119 19.4231 967.538 19.1813C966.957 18.8185 966.812 18.093 967.102 17.6093C967.538 17.0047 968.265 16.8838 968.991 17.2465Z" fill="#F4DEFA"/>
</g>
<g opacity="0.163">
<path d="M953.446 5.27476C954.027 5.63753 954.172 6.36307 953.882 6.84676C953.446 7.33045 952.574 7.45138 951.993 7.20953C951.412 6.84676 951.267 6.12123 951.557 5.63753C951.993 5.15384 952.865 4.91199 953.446 5.27476Z" fill="#F4DEFA"/>
</g>
<g opacity="0.2667">
<path d="M916.837 0.921341C917.418 1.28411 917.563 2.00965 917.272 2.49334C916.837 2.97703 915.965 3.09795 915.384 2.8561C914.803 2.49333 914.657 1.7678 914.948 1.28411C915.384 0.679499 916.256 0.558573 916.837 0.921341Z" fill="#F4DEFA"/>
</g>
<g opacity="0.1909">
<path d="M947.926 29.9433C948.507 30.3061 948.652 31.0316 948.361 31.5153C947.926 31.999 947.054 32.1199 946.473 31.8781C945.892 31.5153 945.746 30.7898 946.037 30.3061C946.473 29.7015 947.344 29.5805 947.926 29.9433Z" fill="#F4DEFA"/>
</g>
<g opacity="0.1914">
<path d="M937.029 37.1987C937.61 37.5615 937.756 38.287 937.465 38.7707C937.029 39.2544 936.157 39.3753 935.576 39.1334C934.995 38.7707 934.85 38.0451 935.14 37.5614C935.431 36.9568 936.303 36.8359 937.029 37.1987Z" fill="#F4DEFA"/>
</g>
<g opacity="0.8192">
<path d="M1026.81 43.0028C1027.1 43.1238 1027.1 43.3658 1026.96 43.6078C1026.81 43.8499 1026.52 43.8499 1026.23 43.7289C1025.94 43.6079 1025.94 43.3658 1026.09 43.1238C1026.23 43.0028 1026.52 42.8817 1026.81 43.0028Z" fill="#F4DEFA"/>
</g>
<g opacity="0.7208">
<path d="M1052.24 18.8185C1052.82 19.1813 1052.96 19.7859 1052.53 20.2696C1052.09 20.7533 1051.37 20.8742 1050.79 20.5114C1050.2 20.1487 1050.06 19.5441 1050.49 19.0604C1050.93 18.5767 1051.66 18.5767 1052.24 18.8185Z" fill="#F4DEFA"/>
</g>
<g opacity="0.8385">
<path d="M1058.49 48.5654C1059.07 48.9282 1059.21 49.5328 1058.78 50.1374C1058.34 50.6211 1057.61 50.742 1056.89 50.3793C1056.31 50.0165 1056.16 49.4119 1056.6 48.8073C1057.03 48.3236 1057.76 48.2027 1058.49 48.5654Z" fill="#F4DEFA"/>
</g>
<path d="M1010.4 160.782C1010.98 161.144 1011.12 161.87 1010.83 162.354C1010.4 162.837 1009.53 162.958 1008.94 162.716C1008.36 162.354 1008.22 161.628 1008.51 161.144C1008.94 160.54 1009.67 160.419 1010.4 160.782Z" fill="#F4DEFA"/>
<path d="M1013.74 178.194C1014.32 178.557 1014.46 179.283 1014.17 179.766C1013.88 180.25 1012.87 180.371 1012.29 180.129C1011.7 179.766 1011.56 179.041 1011.85 178.557C1012.14 177.952 1013.01 177.832 1013.74 178.194Z" fill="#F4DEFA"/>
<path d="M1036.98 208.183C1037.56 208.546 1037.71 209.271 1037.42 209.755C1036.98 210.239 1036.11 210.36 1035.53 210.118C1034.95 209.755 1034.8 209.03 1035.09 208.546C1035.53 207.941 1036.4 207.82 1036.98 208.183Z" fill="#F4DEFA"/>
<path d="M1024.93 233.577C1025.51 233.94 1025.65 234.665 1025.36 235.149C1024.93 235.633 1024.05 235.754 1023.47 235.512C1022.89 235.149 1022.75 234.424 1023.04 233.94C1023.47 233.335 1024.34 233.214 1024.93 233.577Z" fill="#F4DEFA"/>
<path d="M755.717 267.314C756.444 267.677 756.589 268.524 756.153 269.007C755.717 269.612 754.7 269.733 754.119 269.37C753.538 269.007 753.248 268.161 753.683 267.677C754.119 267.193 755.136 266.952 755.717 267.314Z" fill="#F4DEFA"/>
<path d="M751.796 291.257C752.522 291.62 752.667 292.466 752.232 292.95C751.796 293.433 750.779 293.675 750.198 293.312C749.471 292.95 749.326 292.103 749.762 291.62C750.198 291.015 751.069 290.894 751.796 291.257Z" fill="#F4DEFA"/>
<path d="M725.646 322.335C726.082 322.576 726.227 323.181 725.937 323.544C725.646 323.907 724.92 324.028 724.484 323.786C724.048 323.544 723.903 322.939 724.193 322.576C724.629 322.093 725.21 322.093 725.646 322.335Z" fill="#F4DEFA"/>
<path d="M728.551 334.306C728.842 334.547 728.987 334.91 728.697 335.152C728.406 335.394 727.97 335.515 727.68 335.273C727.389 335.031 727.244 334.668 727.534 334.426C727.68 334.185 728.261 334.185 728.551 334.306Z" fill="#F4DEFA"/>
<path d="M761.385 335.031C761.82 335.273 761.966 335.757 761.675 336.119C761.385 336.482 760.803 336.603 760.368 336.361C759.932 336.119 759.786 335.636 760.077 335.273C760.368 334.91 760.949 334.789 761.385 335.031Z" fill="#F4DEFA"/>
<path d="M756.299 336.24C756.735 336.482 756.735 336.845 756.59 337.207C756.444 337.57 755.863 337.57 755.427 337.449C754.991 337.207 754.991 336.845 755.137 336.482C755.282 336.119 755.863 335.998 756.299 336.24Z" fill="#F4DEFA"/>
<path d="M765.453 315.079C765.743 315.2 765.889 315.563 765.598 315.925C765.453 316.167 765.017 316.288 764.581 316.046C764.29 315.925 764.145 315.563 764.436 315.2C764.726 314.958 765.162 314.958 765.453 315.079Z" fill="#F4DEFA"/>
<path d="M747.293 320.037C747.583 320.278 747.728 320.641 747.438 320.883C747.147 321.125 746.711 321.246 746.421 321.004C746.13 320.762 745.985 320.399 746.276 320.158C746.421 319.916 747.002 319.795 747.293 320.037Z" fill="#F4DEFA"/>
<path d="M733.49 311.814C734.071 312.177 734.216 312.781 733.781 313.265C733.345 313.749 732.618 313.869 732.037 313.507C731.456 313.144 731.311 312.539 731.747 312.056C732.182 311.693 733.054 311.572 733.49 311.814Z" fill="#F4DEFA"/>
<path d="M744.387 316.288C744.823 316.53 744.823 316.893 744.677 317.255C744.387 317.618 743.951 317.618 743.515 317.497C743.079 317.255 743.079 316.893 743.225 316.53C743.37 316.167 743.951 316.046 744.387 316.288Z" fill="#F4DEFA"/>
<path d="M773.152 319.19C773.442 319.432 773.588 319.795 773.297 320.037C773.007 320.279 772.571 320.4 772.28 320.158C771.99 319.916 771.844 319.553 772.135 319.311C772.426 319.069 772.861 319.069 773.152 319.19Z" fill="#F4DEFA"/>
<path d="M769.084 321.488C769.375 321.609 769.375 321.971 769.23 322.213C769.084 322.455 768.648 322.455 768.358 322.334C768.067 322.213 768.067 321.851 768.213 321.609C768.358 321.367 768.794 321.246 769.084 321.488Z" fill="#F4DEFA"/>
<path d="M752.086 315.079C752.377 315.32 752.522 315.683 752.232 316.046C751.941 316.288 751.505 316.409 751.069 316.167C750.779 315.925 750.633 315.562 750.924 315.2C751.215 314.958 751.65 314.837 752.086 315.079Z" fill="#F4DEFA"/>
<path d="M749.181 310.846C749.617 311.088 749.762 311.572 749.472 311.935C749.181 312.297 748.6 312.418 748.164 312.177C747.729 311.935 747.583 311.451 747.874 311.088C748.164 310.605 748.746 310.605 749.181 310.846Z" fill="#F4DEFA"/>
<path d="M771.99 311.814C772.426 312.055 772.571 312.539 772.281 312.781C771.99 313.144 771.409 313.265 771.119 313.023C770.683 312.781 770.537 312.297 770.828 312.055C770.973 311.572 771.554 311.572 771.99 311.814Z" fill="#F4DEFA"/>
</g>
<g filter="url(#filter1_f_0_1)">
<circle cx="73.5639" cy="325.701" r="3.87149" fill="white"/>
</g>
<g filter="url(#filter2_f_0_1)">
<circle cx="126.905" cy="341.187" r="3.87149" fill="white"/>
</g>
<g filter="url(#filter3_f_0_1)">
<circle cx="132.927" cy="398.829" r="3.87149" fill="white"/>
</g>
<g filter="url(#filter4_f_0_1)">
<circle cx="46.0332" cy="137.288" r="6.25394" fill="white"/>
</g>
<g filter="url(#filter5_f_0_1)">
<circle cx="1068.97" cy="219.02" r="6.25394" fill="white"/>
</g>
<g filter="url(#filter6_f_0_1)">
<circle cx="1027.67" cy="195.79" r="5.06271" fill="white"/>
</g>
<g filter="url(#filter7_f_0_1)">
<circle cx="923.14" cy="448.298" r="4.16929" fill="white"/>
</g>
<g filter="url(#filter8_f_0_1)">
<circle cx="940.778" cy="389.365" r="3.27587" fill="white"/>
</g>
<g filter="url(#filter9_f_0_1)">
<circle cx="486.523" cy="93.4121" r="3.27587" fill="white"/>
</g>
<defs>
<filter id="filter0_f_0_1" x="-1.5" y="-124.009" width="1118" height="670.583" filterUnits="userSpaceOnUse" color-interpolation-filters="sRGB">
<feFlood flood-opacity="0" result="BackgroundImageFix"/>
<feBlend mode="normal" in="SourceGraphic" in2="BackgroundImageFix" result="shape"/>
<feGaussianBlur stdDeviation="0.75" result="effect1_foregroundBlur_0_1"/>
</filter>
<filter id="filter1_f_0_1" x="64.7717" y="316.908" width="17.5846" height="17.5841" filterUnits="userSpaceOnUse" color-interpolation-filters="sRGB">
<feFlood flood-opacity="0" result="BackgroundImageFix"/>
<feBlend mode="normal" in="SourceGraphic" in2="BackgroundImageFix" result="shape"/>
<feGaussianBlur stdDeviation="1.6" result="effect1_foregroundBlur_0_1"/>
</filter>
<filter id="filter2_f_0_1" x="118.112" y="332.395" width="17.5846" height="17.5841" filterUnits="userSpaceOnUse" color-interpolation-filters="sRGB">
<feFlood flood-opacity="0" result="BackgroundImageFix"/>
<feBlend mode="normal" in="SourceGraphic" in2="BackgroundImageFix" result="shape"/>
<feGaussianBlur stdDeviation="1.6" result="effect1_foregroundBlur_0_1"/>
</filter>
<filter id="filter3_f_0_1" x="124.135" y="390.037" width="17.5846" height="17.5841" filterUnits="userSpaceOnUse" color-interpolation-filters="sRGB">
<feFlood flood-opacity="0" result="BackgroundImageFix"/>
<feBlend mode="normal" in="SourceGraphic" in2="BackgroundImageFix" result="shape"/>
<feGaussianBlur stdDeviation="1.6" result="effect1_foregroundBlur_0_1"/>
</filter>
<filter id="filter4_f_0_1" x="33.8" y="125.055" width="24.4674" height="24.4669" filterUnits="userSpaceOnUse" color-interpolation-filters="sRGB">
<feFlood flood-opacity="0" result="BackgroundImageFix"/>
<feBlend mode="normal" in="SourceGraphic" in2="BackgroundImageFix" result="shape"/>
<feGaussianBlur stdDeviation="1.6" result="effect1_foregroundBlur_0_1"/>
</filter>
<filter id="filter5_f_0_1" x="1056.73" y="206.787" width="24.4674" height="24.4669" filterUnits="userSpaceOnUse" color-interpolation-filters="sRGB">
<feFlood flood-opacity="0" result="BackgroundImageFix"/>
<feBlend mode="normal" in="SourceGraphic" in2="BackgroundImageFix" result="shape"/>
<feGaussianBlur stdDeviation="1.6" result="effect1_foregroundBlur_0_1"/>
</filter>
<filter id="filter6_f_0_1" x="1017.16" y="185.278" width="21.026" height="21.0255" filterUnits="userSpaceOnUse" color-interpolation-filters="sRGB">
<feFlood flood-opacity="0" result="BackgroundImageFix"/>
<feBlend mode="normal" in="SourceGraphic" in2="BackgroundImageFix" result="shape"/>
<feGaussianBlur stdDeviation="1.6" result="effect1_foregroundBlur_0_1"/>
</filter>
<filter id="filter7_f_0_1" x="913.918" y="439.075" width="18.4449" height="18.4444" filterUnits="userSpaceOnUse" color-interpolation-filters="sRGB">
<feFlood flood-opacity="0" result="BackgroundImageFix"/>
<feBlend mode="normal" in="SourceGraphic" in2="BackgroundImageFix" result="shape"/>
<feGaussianBlur stdDeviation="1.6" result="effect1_foregroundBlur_0_1"/>
</filter>
<filter id="filter8_f_0_1" x="932.846" y="381.433" width="15.8639" height="15.8639" filterUnits="userSpaceOnUse" color-interpolation-filters="sRGB">
<feFlood flood-opacity="0" result="BackgroundImageFix"/>
<feBlend mode="normal" in="SourceGraphic" in2="BackgroundImageFix" result="shape"/>
<feGaussianBlur stdDeviation="1.6" result="effect1_foregroundBlur_0_1"/>
</filter>
<filter id="filter9_f_0_1" x="478.591" y="85.4802" width="15.8639" height="15.8639" filterUnits="userSpaceOnUse" color-interpolation-filters="sRGB">
<feFlood flood-opacity="0" result="BackgroundImageFix"/>
<feBlend mode="normal" in="SourceGraphic" in2="BackgroundImageFix" result="shape"/>
<feGaussianBlur stdDeviation="1.6" result="effect1_foregroundBlur_0_1"/>
</filter>
<linearGradient id="paint0_linear_0_1" x1="4.41322" y1="-4.03573e-05" x2="1113.59" y2="683" gradientUnits="userSpaceOnUse">
<stop stop-color="#371435"/>
<stop offset="1" stop-color="#1D0A1C"/>
</linearGradient>
</defs>
</svg>
