<svg width="18" height="16" viewBox="0 0 18 16" fill="none" xmlns="http://www.w3.org/2000/svg">
<path d="M0.873047 3.15616H17.123C17.4682 3.15616 17.748 2.87635 17.748 2.53116V0.968659C17.748 0.623463 17.4682 0.343658 17.123 0.343658H0.873047C0.527852 0.343658 0.248047 0.623463 0.248047 0.968659V2.53116C0.248047 2.87635 0.527852 3.15616 0.873047 3.15616ZM0.873047 9.40616H17.123C17.4682 9.40616 17.748 9.12636 17.748 8.78116V7.21866C17.748 6.87346 17.4682 6.59366 17.123 6.59366H0.873047C0.527852 6.59366 0.248047 6.87346 0.248047 7.21866V8.78116C0.248047 9.12636 0.527852 9.40616 0.873047 9.40616ZM0.873047 15.6562H17.123C17.4682 15.6562 17.748 15.3764 17.748 15.0312V13.4687C17.748 13.1235 17.4682 12.8437 17.123 12.8437H0.873047C0.527852 12.8437 0.248047 13.1235 0.248047 13.4687V15.0312C0.248047 15.3764 0.527852 15.6562 0.873047 15.6562Z" fill="white"/>
</svg>
