<svg width="1280" height="832" viewBox="0 0 1280 832" fill="none" xmlns="http://www.w3.org/2000/svg">
<rect width="1280" height="832" fill="url(#paint0_radial_0_1)"/>
<g opacity="0.4" filter="url(#filter0_f_0_1)">
<path d="M1215.35 6.50189C1216.03 6.9304 1216.21 7.78742 1215.86 8.35877C1215.35 8.93012 1214.32 9.07296 1213.63 8.78729C1212.95 8.35878 1212.77 7.50175 1213.12 6.9304C1213.46 6.35906 1214.49 6.21622 1215.35 6.50189Z" fill="#F4DEFA"/>
<path d="M817.554 225.47C818.412 225.899 818.584 226.756 818.069 227.47C817.554 228.184 816.524 228.327 815.666 227.899C814.808 227.47 814.637 226.613 815.151 225.899C815.666 225.185 816.696 224.899 817.554 225.47Z" fill="#F4DEFA"/>
<path d="M724.027 220.186C725.228 220.9 725.571 222.328 724.713 223.328C723.855 224.328 722.139 224.613 720.938 223.899C719.737 223.185 719.393 221.757 720.252 220.757C721.11 219.757 722.826 219.471 724.027 220.186Z" fill="#F4DEFA"/>
<g opacity="0.5712">
<path d="M621.576 239.897C622.778 240.611 623.121 242.039 622.263 243.039C621.405 244.039 619.689 244.325 618.487 243.611C617.286 242.897 616.943 241.468 617.801 240.468C618.659 239.468 620.375 239.183 621.576 239.897Z" fill="#F4DEFA"/>
</g>
<g opacity="0.2044">
<path d="M587.426 190.047C588.799 190.761 589.142 192.332 588.284 193.475C587.426 194.618 585.539 194.903 584.166 194.189C582.793 193.475 582.45 191.904 583.308 190.761C584.166 189.618 586.053 189.333 587.426 190.047Z" fill="#F4DEFA"/>
</g>
<g opacity="0.9521">
<path d="M595.663 162.051C597.036 162.908 597.379 164.479 596.521 165.622C595.492 166.765 593.604 167.05 592.231 166.336C590.858 165.479 590.515 163.908 591.373 162.765C592.403 161.623 594.29 161.337 595.663 162.051Z" fill="#F4DEFA"/>
</g>
<g opacity="0.8985">
<path d="M618.83 209.044C620.375 209.901 620.718 211.615 619.689 212.901C618.659 214.186 616.6 214.472 615.055 213.615C613.511 212.758 613.167 211.044 614.197 209.758C615.227 208.616 617.286 208.33 618.83 209.044Z" fill="#F4DEFA"/>
</g>
<g opacity="0.9328">
<path d="M531.209 113.051C532.582 113.765 532.925 115.337 532.067 116.622C531.209 117.765 529.321 118.051 527.777 117.336C526.404 116.622 526.06 115.051 526.918 113.765C527.948 112.623 529.836 112.337 531.209 113.051Z" fill="#F4DEFA"/>
</g>
<path d="M67.2814 87.2861C68.8259 88.1431 69.1691 89.8572 68.1394 90.9999C67.1098 92.2854 65.0505 92.5711 63.6776 91.714C62.1331 90.857 61.7899 89.143 62.8195 88.0003C63.8492 86.8576 65.9085 86.5719 67.2814 87.2861Z" fill="#F4DEFA"/>
<path d="M141.073 154.277C142.274 154.991 142.618 156.276 141.76 157.276C140.902 158.276 139.357 158.562 138.156 157.847C136.954 157.133 136.611 155.848 137.469 154.848C138.327 153.848 139.872 153.705 141.073 154.277Z" fill="#F4DEFA"/>
<path d="M168.532 88.5717C169.39 89.143 169.733 90.1429 169.047 90.8571C168.36 91.5713 167.159 91.8569 166.301 91.2856C165.443 90.7143 165.1 89.7144 165.786 89.0002C166.301 88.286 167.502 88.0003 168.532 88.5717Z" fill="#F4DEFA"/>
<g opacity="0.766">
<path d="M33.8174 8.58319C34.6754 9.0117 34.847 10.0116 34.3322 10.7257C33.8173 11.4399 32.6161 11.5828 31.758 11.1543C30.9 10.7257 30.7284 9.72589 31.2432 9.0117C31.758 8.29752 32.9593 8.01184 33.8174 8.58319Z" fill="#F4DEFA"/>
</g>
<g opacity="0.6208">
<path d="M452.927 141.713C454.129 142.427 454.472 143.855 453.614 144.855C452.756 145.855 451.04 146.141 449.838 145.426C448.637 144.712 448.294 143.284 449.152 142.284C450.01 141.284 451.726 140.999 452.927 141.713Z" fill="#F4DEFA"/>
</g>
<g opacity="0.9716">
<path d="M370.865 143.604C371.723 144.032 371.895 145.032 371.38 145.889C370.865 146.603 369.664 146.746 368.634 146.318C367.776 145.889 367.604 144.889 368.119 144.032C368.806 143.318 370.007 143.175 370.865 143.604Z" fill="#F4DEFA"/>
</g>
<g opacity="0.8655">
<path d="M514.491 171.907C515.349 172.335 515.521 173.192 515.006 173.906C514.491 174.621 513.462 174.763 512.604 174.335C511.746 173.906 511.574 173.049 512.089 172.335C512.604 171.621 513.633 171.478 514.491 171.907Z" fill="#F4DEFA"/>
</g>
<g opacity="0.6978">
<path d="M642.169 242.897C643.37 243.611 643.714 245.039 642.856 246.039C641.997 247.039 640.281 247.325 639.08 246.61C637.879 245.896 637.536 244.468 638.394 243.468C639.252 242.468 640.968 242.182 642.169 242.897Z" fill="#F4DEFA"/>
</g>
<path d="M715.962 273.892C716.82 274.463 717.163 275.463 716.476 276.178C715.79 276.892 714.589 277.177 713.731 276.606C712.873 276.035 712.529 275.035 713.216 274.321C713.902 273.464 715.103 273.321 715.962 273.892Z" fill="#F4DEFA"/>
<g opacity="0.4183">
<path d="M541.606 241.754C542.807 242.468 543.15 243.754 542.292 244.753C541.434 245.753 539.89 246.039 538.688 245.325C537.487 244.611 537.144 243.325 538.002 242.325C538.86 241.325 540.405 241.182 541.606 241.754Z" fill="#F4DEFA"/>
</g>
<g opacity="0.3442">
<path d="M439.498 232.612C440.699 233.326 441.042 234.755 440.184 235.898C439.326 236.897 437.61 237.183 436.237 236.469C435.036 235.755 434.693 234.326 435.551 233.184C436.581 232.184 438.297 231.898 439.498 232.612Z" fill="#F4DEFA"/>
</g>
<g opacity="0.107">
<path d="M411.182 248.467C412.384 249.039 412.555 250.467 411.869 251.324C411.182 252.181 409.466 252.467 408.437 251.895C407.235 251.324 407.064 249.896 407.75 249.039C408.437 248.039 409.981 247.896 411.182 248.467Z" fill="#F4DEFA"/>
</g>
<g opacity="0.8454">
<path d="M465.411 46.3534C466.097 46.7819 466.269 47.496 465.754 48.0674C465.239 48.6387 464.381 48.7816 463.695 48.3531C463.008 47.9245 462.837 47.2104 463.352 46.639C463.866 46.0677 464.724 46.0677 465.411 46.3534Z" fill="#F4DEFA"/>
</g>
<path d="M276.64 119.057C277.327 119.486 277.498 120.343 277.155 120.914C276.64 121.485 275.611 121.628 274.924 121.343C274.238 120.914 274.066 120.057 274.409 119.486C274.924 118.914 275.954 118.629 276.64 119.057Z" fill="#F4DEFA"/>
<g opacity="0.8077">
<path d="M365.019 17.7861C366.22 18.5002 366.563 19.7858 365.705 20.7856C364.847 21.7855 363.303 22.0712 362.102 21.357C360.9 20.6428 360.557 19.3572 361.415 18.3574C362.273 17.3575 363.818 17.0719 365.019 17.7861Z" fill="#F4DEFA"/>
</g>
<path d="M41.1906 92.2039C41.8771 92.6324 42.0487 93.4894 41.7055 94.0608C41.1906 94.6321 40.161 94.775 39.4745 94.4893C38.7881 94.0608 38.6165 93.2038 38.9597 92.6324C39.4745 91.9182 40.5042 91.7754 41.1906 92.2039Z" fill="#F4DEFA"/>
<path d="M79.9748 190.904C80.6612 191.332 80.8329 192.19 80.4896 192.761C79.9748 193.332 78.9451 193.475 78.2587 193.189C77.5723 192.761 77.4007 191.904 77.7439 191.333C78.2587 190.618 79.2884 190.475 79.9748 190.904Z" fill="#F4DEFA"/>
<path d="M140.896 226.042C141.583 226.47 141.754 227.327 141.411 227.899C140.896 228.47 139.867 228.613 139.18 228.327C138.494 227.899 138.322 227.042 138.665 226.47C139.008 225.756 140.038 225.613 140.896 226.042Z" fill="#F4DEFA"/>
<g opacity="0.6587">
<path d="M30.8947 238.897C31.5812 239.326 31.7528 240.183 31.4096 240.754C30.8947 241.325 29.8651 241.468 29.1786 241.182C28.4922 240.754 28.3206 239.897 28.6638 239.326C29.1786 238.611 30.2083 238.469 30.8947 238.897Z" fill="#F4DEFA"/>
</g>
<path d="M63.8435 194.189C64.5299 194.618 64.7015 195.475 64.3583 196.046C63.8435 196.617 62.8138 196.76 62.1274 196.475C61.4409 196.046 61.2693 195.189 61.6125 194.618C62.1274 193.904 63.157 193.761 63.8435 194.189Z" fill="#F4DEFA"/>
<path d="M62.1276 202.902C62.8141 203.331 62.9857 204.188 62.6425 204.759C62.1276 205.331 61.098 205.473 60.4115 205.188C59.7251 204.759 59.5535 203.902 59.8967 203.331C60.2399 202.617 61.2696 202.474 62.1276 202.902Z" fill="#F4DEFA"/>
<g opacity="0.426">
<path d="M16.6501 270.75C17.3365 271.178 17.5082 272.035 17.1649 272.607C16.6501 273.178 15.6204 273.321 14.934 273.035C14.2476 272.607 14.0759 271.75 14.4192 271.178C14.934 270.607 15.9637 270.321 16.6501 270.75Z" fill="#F4DEFA"/>
</g>
<g opacity="0.1658">
<path d="M59.0393 296.46C59.7257 296.889 59.8973 297.746 59.5541 298.317C59.0393 298.888 58.0096 299.031 57.3232 298.746C56.6367 298.317 56.4651 297.46 56.8083 296.889C57.3232 296.175 58.3528 296.032 59.0393 296.46Z" fill="#F4DEFA"/>
</g>
<g opacity="0.1779">
<path d="M37.0725 291.033C37.7589 291.461 37.9305 292.318 37.5873 292.889C37.0725 293.461 36.0428 293.604 35.3564 293.318C34.6699 292.889 34.4983 292.032 34.8415 291.461C35.3564 290.747 36.386 290.604 37.0725 291.033Z" fill="#F4DEFA"/>
</g>
<g opacity="0.3975">
<path d="M87.8684 269.607C88.5548 270.036 88.7264 270.893 88.3832 271.464C87.8684 272.035 86.8387 272.178 86.1523 271.892C85.4658 271.464 85.2942 270.607 85.6374 270.036C86.1523 269.321 87.1819 269.178 87.8684 269.607Z" fill="#F4DEFA"/>
</g>
<g opacity="0.1677">
<path d="M50.2858 293.746C50.9723 294.175 51.1439 295.032 50.8007 295.603C50.2858 296.175 49.2562 296.317 48.5697 296.032C47.8833 295.603 47.7117 294.746 48.0549 294.175C48.5697 293.604 49.4278 293.318 50.2858 293.746Z" fill="#F4DEFA"/>
</g>
<g opacity="0.1133">
<path d="M59.7248 313.172C60.4112 313.601 60.5829 314.458 60.2396 315.029C59.7248 315.6 58.6951 315.743 58.0087 315.457C57.3223 315.029 57.1507 314.172 57.4939 313.601C58.0087 313.029 58.8668 312.886 59.7248 313.172Z" fill="#F4DEFA"/>
</g>
<g opacity="0.3335">
<path d="M53.3752 259.037C54.0616 259.466 54.2333 260.323 53.89 260.894C53.3752 261.465 52.3455 261.608 51.6591 261.322C50.9727 260.894 50.801 260.037 51.1443 259.466C51.6591 258.751 52.5171 258.609 53.3752 259.037Z" fill="#F4DEFA"/>
</g>
<g opacity="0.4937">
<path d="M55.6062 244.753C56.2926 245.182 56.4642 246.039 56.121 246.61C55.6062 247.182 54.5765 247.324 53.8901 247.039C53.2036 246.61 53.032 245.753 53.3752 245.182C53.8901 244.611 54.9197 244.468 55.6062 244.753Z" fill="#F4DEFA"/>
</g>
<g opacity="0.7598">
<path d="M132.316 460.865C133.003 461.294 133.174 462.151 132.831 462.722C132.316 463.293 131.286 463.436 130.6 463.151C129.914 462.722 129.742 461.865 130.085 461.294C130.428 460.58 131.458 460.437 132.316 460.865Z" fill="#F4DEFA"/>
</g>
<g opacity="0.7634">
<path d="M77.4006 517C78.087 517.428 78.2586 518.286 77.9154 518.857C77.4006 519.428 76.3709 519.571 75.6845 519.285C74.998 518.857 74.8264 518 75.1697 517.429C75.6845 516.714 76.7141 516.571 77.4006 517Z" fill="#F4DEFA"/>
</g>
<g opacity="0.6922">
<path d="M129.399 508.573C130.086 509.001 130.257 509.858 129.914 510.43C129.399 511.001 128.369 511.144 127.683 510.858C126.997 510.429 126.825 509.572 127.168 509.001C127.683 508.287 128.541 508.144 129.399 508.573Z" fill="#F4DEFA"/>
</g>
<path d="M295.861 488.433C296.547 488.861 296.719 489.718 296.375 490.29C295.861 490.861 294.831 491.004 294.144 490.718C293.458 490.29 293.286 489.433 293.63 488.861C294.144 488.147 295.174 488.004 295.861 488.433Z" fill="#F4DEFA"/>
<path d="M314.051 533.141C314.737 533.569 314.909 534.426 314.566 534.997C314.051 535.569 313.021 535.712 312.335 535.426C311.648 535.14 311.477 534.14 311.82 533.569C312.335 532.855 313.365 532.712 314.051 533.141Z" fill="#F4DEFA"/>
<path d="M605.789 479.577C606.132 479.72 606.132 480.149 605.96 480.292C605.789 480.578 605.274 480.578 605.102 480.435C604.93 480.292 604.758 479.863 604.93 479.72C605.102 479.434 605.445 479.434 605.789 479.577Z" fill="#F4DEFA"/>
<path d="M650.578 425.585C651.265 426.013 651.436 426.87 651.093 427.441C650.578 428.013 649.549 428.156 648.862 427.87C648.176 427.441 648.004 426.584 648.347 426.013C648.862 425.299 649.892 425.156 650.578 425.585Z" fill="#F4DEFA"/>
<path d="M554.82 455.437C555.506 455.866 555.678 456.723 555.334 457.294C554.82 457.866 553.79 458.008 553.103 457.723C552.417 457.294 552.245 456.437 552.589 455.866C552.932 455.294 553.961 455.009 554.82 455.437Z" fill="#F4DEFA"/>
<path d="M473.648 471.149C474.335 471.578 474.506 472.435 474.163 473.006C473.648 473.578 472.618 473.721 471.932 473.435C471.246 473.006 471.074 472.149 471.417 471.578C471.932 470.864 472.962 470.721 473.648 471.149Z" fill="#F4DEFA"/>
<path d="M549.499 533.712C550.186 534.14 550.357 534.997 550.014 535.569C549.499 536.14 548.47 536.283 547.783 535.997C547.097 535.569 546.925 534.712 547.268 534.14C547.783 533.426 548.813 533.283 549.499 533.712Z" fill="#F4DEFA"/>
<path d="M586.74 479.148C587.254 479.434 587.426 480.005 587.083 480.434C586.74 480.862 586.053 481.005 585.538 480.719C585.024 480.434 584.852 479.862 585.195 479.434C585.538 479.005 586.225 478.863 586.74 479.148Z" fill="#F4DEFA"/>
<path d="M636.506 465.722C637.021 466.007 637.193 466.722 636.85 467.15C636.506 467.579 635.648 467.721 635.134 467.436C634.619 467.15 634.447 466.436 634.79 466.007C635.134 465.579 635.82 465.436 636.506 465.722Z" fill="#F4DEFA"/>
<path d="M572.153 508.43C572.839 508.858 573.011 509.715 572.668 510.287C572.153 510.858 571.123 511.001 570.437 510.715C569.75 510.287 569.579 509.43 569.922 508.858C570.437 508.144 571.467 508.001 572.153 508.43Z" fill="#F4DEFA"/>
<path d="M576.786 527.998C577.473 528.427 577.644 529.284 577.301 529.855C576.786 530.427 575.757 530.569 575.07 530.284C574.384 529.855 574.212 528.998 574.555 528.427C574.899 527.713 575.928 527.57 576.786 527.998Z" fill="#F4DEFA"/>
<path d="M630.843 515C631.53 515.286 631.701 516 631.186 516.571C630.843 517.143 629.985 517.286 629.299 516.857C628.612 516.571 628.441 515.857 628.956 515.286C629.299 514.715 630.157 514.715 630.843 515Z" fill="#F4DEFA"/>
<path d="M693.653 504.145C694.168 504.43 694.34 505.145 693.997 505.573C693.653 506.002 692.795 506.144 692.281 505.859C691.766 505.573 691.594 504.859 691.937 504.43C692.281 504.002 692.967 503.859 693.653 504.145Z" fill="#F4DEFA"/>
<path d="M636.678 563.136C637.365 563.565 637.536 564.422 637.193 564.993C636.678 565.564 635.649 565.707 634.962 565.422C634.276 564.993 634.104 564.136 634.447 563.565C634.791 562.851 635.82 562.708 636.678 563.136Z" fill="#F4DEFA"/>
<path d="M659.845 554.995C660.531 555.423 660.703 556.28 660.36 556.851C659.845 557.423 658.815 557.566 658.129 557.28C657.442 556.851 657.271 555.994 657.614 555.423C658.129 554.709 659.158 554.566 659.845 554.995Z" fill="#F4DEFA"/>
<path d="M713.388 548.853C714.075 549.281 714.246 550.138 713.903 550.71C713.388 551.281 712.359 551.424 711.672 551.138C710.986 550.709 710.814 549.852 711.157 549.281C711.501 548.567 712.53 548.424 713.388 548.853Z" fill="#F4DEFA"/>
<g opacity="0.9881">
<path d="M1229.59 486.147C1230.28 486.576 1230.45 487.433 1230.11 488.004C1229.59 488.576 1228.56 488.718 1227.87 488.433C1227.19 488.004 1227.02 487.147 1227.36 486.576C1227.87 485.862 1228.9 485.719 1229.59 486.147Z" fill="#F4DEFA"/>
</g>
<g opacity="0.9698">
<path d="M1065.7 387.161C1066.39 387.59 1066.56 388.447 1066.22 389.018C1065.7 389.59 1064.67 389.732 1063.99 389.447C1063.3 389.018 1063.13 388.161 1063.47 387.59C1063.99 386.876 1065.02 386.733 1065.7 387.161Z" fill="#F4DEFA"/>
</g>
<path d="M1140.35 417.443C1141.04 417.872 1141.21 418.729 1140.87 419.3C1140.35 419.871 1139.33 420.014 1138.64 419.728C1137.95 419.3 1137.78 418.443 1138.12 417.872C1138.64 417.157 1139.5 417.014 1140.35 417.443Z" fill="#F4DEFA"/>
<path d="M1133.15 455.723C1133.83 456.151 1134 457.008 1133.66 457.58C1133.15 458.151 1132.12 458.294 1131.43 458.008C1130.74 457.58 1130.57 456.723 1130.92 456.151C1131.43 455.437 1132.46 455.294 1133.15 455.723Z" fill="#F4DEFA"/>
<g opacity="0.3407">
<path d="M1106.2 489.718C1106.89 490.147 1107.06 491.004 1106.72 491.575C1106.2 492.146 1105.17 492.289 1104.49 492.004C1103.8 491.575 1103.63 490.718 1103.97 490.147C1104.49 489.432 1105.34 489.29 1106.2 489.718Z" fill="#F4DEFA"/>
</g>
<g opacity="0.1215">
<path d="M1118.73 509.43C1119.42 509.858 1119.59 510.715 1119.25 511.286C1118.73 511.858 1117.7 512.001 1117.01 511.715C1116.33 511.287 1116.16 510.429 1116.5 509.858C1117.01 509.144 1118.04 509.001 1118.73 509.43Z" fill="#F4DEFA"/>
</g>
<g opacity="0.4028">
<path d="M1080.98 491.861C1081.66 492.289 1081.83 493.146 1081.49 493.718C1080.98 494.289 1079.95 494.432 1079.26 494.146C1078.57 493.718 1078.4 492.861 1078.75 492.289C1079.26 491.718 1080.12 491.432 1080.98 491.861Z" fill="#F4DEFA"/>
</g>
<g opacity="0.7828">
<path d="M1147.9 471.721C1148.59 472.149 1148.76 473.006 1148.42 473.578C1147.9 474.149 1146.87 474.292 1146.19 474.006C1145.5 473.578 1145.33 472.721 1145.67 472.149C1146.19 471.435 1147.22 471.292 1147.9 471.721Z" fill="#F4DEFA"/>
</g>
<g opacity="0.6629">
<path d="M1164.89 482.005C1165.58 482.434 1165.75 483.291 1165.41 483.862C1164.89 484.433 1163.86 484.576 1163.18 484.29C1162.49 483.862 1162.32 483.005 1162.66 482.434C1163.18 481.719 1164.21 481.577 1164.89 482.005Z" fill="#F4DEFA"/>
</g>
<g opacity="0.8131">
<path d="M1191.67 478.291C1192.35 478.72 1192.52 479.577 1192.18 480.148C1191.67 480.719 1190.64 480.862 1189.95 480.577C1189.26 480.148 1189.09 479.291 1189.43 478.72C1189.95 478.006 1190.98 477.863 1191.67 478.291Z" fill="#F4DEFA"/>
</g>
<g opacity="0.9946">
<path d="M1206.77 463.865C1207.45 464.293 1207.63 465.151 1207.28 465.722C1206.77 466.293 1205.74 466.436 1205.05 466.15C1204.37 465.722 1204.19 464.865 1204.54 464.293C1205.05 463.579 1206.08 463.436 1206.77 463.865Z" fill="#F4DEFA"/>
</g>
<path d="M1238.34 471.435C1239.03 471.864 1239.2 472.721 1238.86 473.292C1238.52 473.863 1237.31 474.006 1236.63 473.72C1235.94 473.292 1235.77 472.435 1236.11 471.864C1236.63 471.149 1237.66 471.007 1238.34 471.435Z" fill="#F4DEFA"/>
<path d="M1265.12 505.859C1265.8 506.287 1265.97 507.144 1265.63 507.716C1265.12 508.287 1264.09 508.43 1263.4 508.144C1262.71 507.716 1262.54 506.859 1262.88 506.287C1263.4 505.716 1264.43 505.43 1265.12 505.859Z" fill="#F4DEFA"/>
<g opacity="0.089722">
<path d="M1103.11 516.429C1103.8 516.857 1103.97 517.714 1103.63 518.286C1103.11 518.857 1102.08 519 1101.4 518.714C1100.71 518.286 1100.54 517.429 1100.88 516.857C1101.4 516.286 1102.43 516 1103.11 516.429Z" fill="#F4DEFA"/>
</g>
<path d="M977.839 469.578C978.525 470.007 978.697 470.864 978.353 471.435C977.839 472.006 976.809 472.149 976.122 471.864C975.436 471.435 975.264 470.578 975.608 470.007C976.122 469.292 976.981 469.15 977.839 469.578Z" fill="#F4DEFA"/>
<path d="M969.945 431.727C970.631 432.155 970.803 433.012 970.46 433.584C969.945 434.155 968.915 434.298 968.229 434.012C967.542 433.584 967.371 432.727 967.714 432.155C968.229 431.441 969.259 431.298 969.945 431.727Z" fill="#F4DEFA"/>
<path d="M954.157 468.007C954.844 468.436 955.015 469.293 954.672 469.864C954.157 470.435 953.128 470.578 952.441 470.292C951.755 469.864 951.583 469.007 951.926 468.436C952.441 467.864 953.471 467.579 954.157 468.007Z" fill="#F4DEFA"/>
<path d="M1255.85 148.482C1256.53 148.91 1256.71 149.767 1256.36 150.338C1255.85 150.91 1254.82 151.053 1254.13 150.767C1253.45 150.338 1253.27 149.481 1253.62 148.91C1254.13 148.196 1254.99 148.053 1255.85 148.482Z" fill="#F4DEFA"/>
<path d="M1201.28 -1.3541C1201.96 -0.92559 1202.13 -0.211402 1201.62 0.502781C1201.1 1.07413 1200.25 1.21696 1199.39 0.78845C1198.7 0.35994 1198.53 -0.354248 1199.04 -1.06843C1199.56 -1.63978 1200.59 -1.78261 1201.28 -1.3541Z" fill="#F4DEFA"/>
<path d="M666.539 147.482C667.225 147.91 667.397 148.624 666.882 149.196C666.367 149.767 665.509 149.91 664.823 149.481C664.136 149.053 663.965 148.339 664.48 147.767C664.994 147.339 665.852 147.196 666.539 147.482Z" fill="#F4DEFA"/>
<path d="M80.6671 101.57C82.2116 102.427 82.5548 104.141 81.5251 105.569C80.4955 106.855 78.4362 107.14 76.7201 106.283C75.1756 105.426 74.8323 103.712 75.862 102.284C77.0633 100.998 79.1226 100.713 80.6671 101.57Z" fill="#F4DEFA"/>
<g opacity="0.8346">
<path d="M-0.677444 38.0076C0.352216 38.5789 0.695426 39.7216 0.00898552 40.5787C-0.677455 41.4357 -2.05031 41.7213 -3.07998 41.15C-4.10964 40.5786 -4.45285 39.436 -3.76641 38.5789C-3.25157 37.7219 -1.70711 37.4362 -0.677444 38.0076Z" fill="#F4DEFA"/>
</g>
<g opacity="0.8779">
<path d="M67.6252 30.7228C68.6548 31.2941 68.8264 32.4368 68.14 33.151C67.4535 34.008 66.0806 34.1508 65.2226 33.5795C64.1929 33.0081 64.0213 31.8655 64.7078 31.1513C65.2226 30.4371 66.5955 30.1514 67.6252 30.7228Z" fill="#F4DEFA"/>
</g>
<path d="M788.038 159.766C789.068 160.337 789.239 161.337 788.553 162.194C787.867 163.051 786.665 163.194 785.636 162.622C784.606 162.051 784.434 161.051 785.121 160.194C785.807 159.48 787.18 159.194 788.038 159.766Z" fill="#F4DEFA"/>
<path d="M89.7112 413.722C90.5692 414.15 90.7408 415.007 90.226 415.721C89.7112 416.435 88.6815 416.578 87.8235 416.15C86.9654 415.721 86.7938 414.864 87.3086 414.15C87.9951 413.436 89.0247 413.293 89.7112 413.722Z" fill="#F4DEFA"/>
<path d="M820.815 202.759C821.673 203.188 821.845 204.188 821.33 204.902C820.815 205.616 819.614 205.759 818.756 205.33C817.898 204.902 817.726 203.902 818.241 203.188C818.756 202.474 819.957 202.188 820.815 202.759Z" fill="#F4DEFA"/>
<path d="M904.219 145.91C904.905 146.339 905.077 147.196 904.734 147.767C904.219 148.339 903.189 148.481 902.503 148.196C901.816 147.767 901.645 146.91 901.988 146.339C902.503 145.768 903.533 145.482 904.219 145.91Z" fill="#F4DEFA"/>
<path d="M934.422 109.916C935.108 110.344 935.28 111.201 934.936 111.772C934.422 112.344 933.392 112.487 932.705 112.201C932.019 111.772 931.847 110.915 932.191 110.344C932.705 109.63 933.735 109.487 934.422 109.916Z" fill="#F4DEFA"/>
<path d="M878.82 20.7856C879.506 21.2141 879.678 22.0711 879.335 22.6424C878.82 23.2138 877.79 23.3566 877.104 23.071C876.417 22.6425 876.246 21.7854 876.589 21.2141C877.104 20.6427 878.134 20.4999 878.82 20.7856Z" fill="#F4DEFA"/>
<g opacity="0.5379">
<path d="M998.775 33.7837C999.462 34.2122 999.633 35.0693 999.29 35.6406C998.775 36.212 997.745 36.3548 997.059 36.0691C996.373 35.6406 996.201 34.7836 996.544 34.2122C996.887 33.4981 997.917 33.3552 998.775 33.7837Z" fill="#F4DEFA"/>
</g>
<g opacity="0.7473">
<path d="M1057.98 175.478C1058.67 175.906 1058.84 176.763 1058.5 177.334C1057.98 177.906 1056.95 178.049 1056.27 177.763C1055.58 177.335 1055.41 176.477 1055.75 175.906C1056.27 175.335 1057.3 175.049 1057.98 175.478Z" fill="#F4DEFA"/>
</g>
<g opacity="0.4628">
<path d="M1047.68 273.035C1048.37 273.464 1048.54 274.321 1048.2 274.892C1047.68 275.463 1046.65 275.606 1045.97 275.32C1045.28 274.892 1045.11 274.035 1045.45 273.464C1045.97 272.749 1047 272.607 1047.68 273.035Z" fill="#F4DEFA"/>
</g>
<g opacity="0.201">
<path d="M1089.56 247.324C1090.24 247.753 1090.41 248.61 1090.07 249.181C1089.56 249.753 1088.53 249.896 1087.84 249.61C1087.15 249.181 1086.98 248.324 1087.33 247.753C1087.84 247.039 1088.7 246.896 1089.56 247.324Z" fill="#F4DEFA"/>
</g>
<g opacity="0.5161">
<path d="M1064.33 206.902C1065.02 207.33 1065.19 208.187 1064.85 208.759C1064.33 209.33 1063.3 209.473 1062.62 209.187C1061.93 208.759 1061.76 207.902 1062.1 207.33C1062.62 206.616 1063.64 206.473 1064.33 206.902Z" fill="#F4DEFA"/>
</g>
<g opacity="0.9764">
<path d="M992.255 223.614C992.942 224.042 993.113 224.899 992.77 225.47C992.255 226.042 991.225 226.185 990.539 225.899C989.853 225.613 989.681 224.613 990.024 224.042C990.539 223.328 991.569 223.185 992.255 223.614Z" fill="#F4DEFA"/>
</g>
<path d="M1001.35 265.036C1002.04 265.465 1002.21 266.322 1001.87 266.893C1001.35 267.464 1000.32 267.607 999.634 267.322C998.948 266.893 998.776 266.036 999.119 265.465C999.634 264.751 1000.66 264.608 1001.35 265.036Z" fill="#F4DEFA"/>
<g opacity="0.2926">
<path d="M1062.96 278.891C1063.64 279.32 1063.82 280.177 1063.47 280.748C1063.13 281.32 1061.93 281.462 1061.24 281.177C1060.55 280.748 1060.38 279.891 1060.73 279.32C1061.24 278.606 1062.27 278.463 1062.96 278.891Z" fill="#F4DEFA"/>
</g>
<g opacity="0.8331">
<path d="M1014.05 252.467C1014.74 252.895 1014.91 253.752 1014.56 254.323C1014.05 254.895 1013.02 255.038 1012.33 254.752C1011.65 254.323 1011.47 253.466 1011.82 252.895C1012.33 252.181 1013.36 252.038 1014.05 252.467Z" fill="#F4DEFA"/>
</g>
<g opacity="0.5947">
<path d="M1037.9 230.898C1038.59 231.327 1038.76 232.184 1038.42 232.755C1037.9 233.327 1036.87 233.469 1036.19 233.184C1035.5 232.755 1035.33 231.898 1035.67 231.327C1036.19 230.613 1037.04 230.47 1037.9 230.898Z" fill="#F4DEFA"/>
</g>
<g opacity="0.3619">
<path d="M1064.84 237.612C1065.53 238.04 1065.7 238.897 1065.36 239.468C1064.84 240.04 1063.82 240.183 1063.13 239.897C1062.44 239.468 1062.27 238.611 1062.61 238.04C1063.13 237.326 1064.16 237.183 1064.84 237.612Z" fill="#F4DEFA"/>
</g>
<g opacity="0.726">
<path d="M1025.89 279.034C1026.58 279.463 1026.75 280.32 1026.41 280.891C1025.89 281.462 1024.86 281.605 1024.17 281.32C1023.49 280.891 1023.32 280.034 1023.66 279.463C1024.17 278.748 1025.2 278.606 1025.89 279.034Z" fill="#F4DEFA"/>
</g>
<g opacity="0.175">
<path d="M941.286 342.739C941.972 343.168 942.144 344.025 941.801 344.596C941.286 345.168 940.256 345.31 939.57 345.025C938.883 344.596 938.712 343.739 939.055 343.168C939.57 342.597 940.599 342.311 941.286 342.739Z" fill="#F4DEFA"/>
</g>
<g opacity="0.7698">
<path d="M1019.37 350.31C1020.06 350.738 1020.23 351.595 1019.88 352.167C1019.37 352.738 1018.34 352.881 1017.65 352.595C1016.97 352.167 1016.8 351.31 1017.14 350.738C1017.65 350.024 1018.68 349.881 1019.37 350.31Z" fill="#F4DEFA"/>
</g>
<g opacity="0.9234">
<path d="M1144.47 334.169C1145.16 334.598 1145.33 335.455 1144.99 336.026C1144.47 336.597 1143.44 336.74 1142.76 336.455C1142.07 336.026 1141.9 335.169 1142.24 334.598C1142.76 334.026 1143.79 333.741 1144.47 334.169Z" fill="#F4DEFA"/>
</g>
<path d="M1177.76 334.455C1178.45 334.883 1178.62 335.74 1178.28 336.312C1177.76 336.883 1176.74 337.026 1176.05 336.74C1175.36 336.312 1175.19 335.455 1175.53 334.883C1176.05 334.312 1177.08 334.026 1177.76 334.455Z" fill="#F4DEFA"/>
<g opacity="0.6533">
<path d="M1196.08 256.173C1196.77 256.602 1196.94 257.459 1196.6 258.03C1196.08 258.602 1195.05 258.744 1194.37 258.459C1193.68 258.03 1193.51 257.173 1193.85 256.602C1194.37 255.888 1195.4 255.745 1196.08 256.173Z" fill="#F4DEFA"/>
</g>
<path d="M1191.15 316.743C1191.84 317.172 1192.01 318.029 1191.66 318.6C1191.15 319.171 1190.12 319.314 1189.43 319.028C1188.75 318.6 1188.58 317.743 1188.92 317.172C1189.43 316.457 1190.46 316.315 1191.15 316.743Z" fill="#F4DEFA"/>
<g opacity="0.7182">
<path d="M1033.61 353.881C1034.3 354.309 1034.47 355.166 1034.13 355.738C1033.61 356.309 1032.58 356.452 1031.9 356.166C1031.21 355.738 1031.04 354.881 1031.38 354.309C1031.9 353.595 1032.75 353.452 1033.61 353.881Z" fill="#F4DEFA"/>
</g>
<g opacity="0.9913">
<path d="M520.497 350.167C521.184 350.595 521.355 351.452 521.012 352.024C520.497 352.595 519.468 352.738 518.781 352.452C518.095 352.024 517.923 351.167 518.266 350.595C518.781 349.881 519.811 349.738 520.497 350.167Z" fill="#F4DEFA"/>
</g>
<g opacity="0.6311">
<path d="M348.717 349.738C349.403 350.167 349.575 351.024 349.231 351.595C348.717 352.167 347.687 352.309 347 352.024C346.314 351.595 346.142 350.738 346.486 350.167C347 349.453 348.03 349.31 348.717 349.738Z" fill="#F4DEFA"/>
</g>
<g opacity="0.1746">
<path d="M341.336 284.748C342.194 285.176 342.366 286.176 341.851 286.89C341.336 287.604 340.135 287.747 339.277 287.319C338.419 286.89 338.247 285.89 338.762 285.176C339.277 284.462 340.478 284.176 341.336 284.748Z" fill="#F4DEFA"/>
</g>
<g opacity="0.1311">
<path d="M357.468 252.324C358.498 252.895 358.67 253.895 357.983 254.752C357.297 255.609 356.096 255.752 355.066 255.18C354.036 254.609 353.865 253.609 354.551 252.752C355.237 251.895 356.439 251.752 357.468 252.324Z" fill="#F4DEFA"/>
</g>
<g opacity="0.9713">
<path d="M293.115 239.326C293.801 239.754 294.144 240.611 293.63 241.325C293.115 241.897 292.085 242.182 291.227 241.754C290.541 241.325 290.197 240.468 290.712 239.754C291.399 239.183 292.428 238.897 293.115 239.326Z" fill="#F4DEFA"/>
</g>
<path d="M286.078 172.764C286.765 173.192 286.936 174.049 286.593 174.621C286.25 175.192 285.049 175.335 284.362 175.049C283.676 174.621 283.504 173.764 283.847 173.192C284.362 172.478 285.22 172.335 286.078 172.764Z" fill="#F4DEFA"/>
<path d="M278.699 200.331C279.385 200.76 279.557 201.617 279.214 202.188C278.699 202.76 277.669 202.902 276.983 202.617C276.296 202.188 276.125 201.331 276.468 200.76C276.983 200.189 278.012 199.903 278.699 200.331Z" fill="#F4DEFA"/>
<g opacity="0.4118">
<path d="M461.808 92.0611C463.352 92.9181 463.695 94.6321 462.666 95.7748C461.636 97.0603 459.577 97.346 458.204 96.489C456.659 95.632 456.316 93.9179 457.346 92.7752C458.376 91.4897 460.435 91.204 461.808 92.0611Z" fill="#F4DEFA"/>
</g>
<g opacity="0.8946">
<path d="M527.363 31.784C528.564 32.4982 528.907 33.7837 528.049 34.9264C527.191 36.0691 525.647 36.2119 524.274 35.4977C522.901 34.7836 522.729 33.498 523.587 32.3553C524.446 31.3555 526.162 31.0698 527.363 31.784Z" fill="#F4DEFA"/>
</g>
<g opacity="0.8718">
<path d="M336.158 47.7118C337.874 48.7117 338.389 50.7114 337.187 52.2826C335.986 53.7109 333.583 54.1395 331.696 53.1396C329.808 52.1398 329.465 50.14 330.666 48.5688C331.867 47.1405 334.27 46.712 336.158 47.7118Z" fill="#F4DEFA"/>
</g>
<g opacity="0.9222">
<path d="M59.7304 55.4336C60.9316 56.1478 61.2748 57.4333 60.4168 58.4332C59.5587 59.433 58.0142 59.7187 56.813 59.0045C55.6117 58.2903 55.2685 57.0048 56.1265 56.0049C56.813 55.0051 58.5291 54.7194 59.7304 55.4336Z" fill="#F4DEFA"/>
</g>
<g opacity="0.7022">
<path d="M411.768 46.6334C413.312 47.4905 413.655 49.2045 412.626 50.3472C411.596 51.6327 409.537 51.9184 408.164 51.0614C406.619 50.2044 406.276 48.4903 407.306 47.3476C408.164 46.0621 410.223 45.7764 411.768 46.6334Z" fill="#F4DEFA"/>
</g>
<path d="M743.934 36.3548C744.621 36.7833 744.792 37.6403 744.449 38.2117C743.934 38.783 742.905 38.9259 742.218 38.6402C741.532 38.2117 741.36 37.3546 741.703 36.7833C742.218 36.0691 743.248 35.9263 743.934 36.3548Z" fill="#F4DEFA"/>
<path d="M792.672 16.5005C793.358 16.929 793.53 17.7861 793.186 18.3574C792.672 18.9288 791.642 19.0716 790.955 18.7859C790.269 18.3574 790.097 17.5004 790.441 16.929C790.955 16.2149 791.814 16.072 792.672 16.5005Z" fill="#F4DEFA"/>
<path d="M128.374 28.2946C129.233 28.7231 129.404 29.723 128.889 30.4372C128.374 31.1513 127.173 31.2942 126.315 30.8657C125.457 30.4372 125.286 29.4373 125.8 28.7231C126.315 28.0089 127.516 27.7233 128.374 28.2946Z" fill="#F4DEFA"/>
<g opacity="0.9913">
<path d="M452.54 391.161C453.227 391.589 453.398 392.446 453.055 393.018C452.54 393.589 451.511 393.732 450.824 393.446C450.138 393.018 449.966 392.161 450.309 391.589C450.824 390.875 451.854 390.732 452.54 391.161Z" fill="#F4DEFA"/>
</g>
<g opacity="0.9913">
<path d="M459.405 379.877C460.091 380.305 460.263 381.02 459.748 381.591C459.233 382.162 458.375 382.305 457.688 381.877C457.002 381.448 456.83 380.734 457.345 380.162C457.86 379.734 458.718 379.591 459.405 379.877Z" fill="#F4DEFA"/>
</g>
<g opacity="0.9913">
<path d="M496.13 396.16C496.645 396.446 496.645 396.874 496.301 397.303C495.958 397.731 495.443 397.731 494.928 397.446C494.414 397.16 494.414 396.732 494.757 396.303C495.1 396.017 495.786 396.017 496.13 396.16Z" fill="#F4DEFA"/>
</g>
<g opacity="0.9913">
<path d="M513.804 397.874C514.319 398.16 514.491 398.874 514.148 399.303C513.804 399.731 512.946 399.874 512.431 399.588C511.917 399.303 511.745 398.588 512.088 398.16C512.431 397.731 513.118 397.589 513.804 397.874Z" fill="#F4DEFA"/>
</g>
<g opacity="0.9913">
<path d="M512.775 409.444C513.462 409.873 513.633 410.587 513.118 411.158C512.604 411.729 511.745 411.872 511.059 411.444C510.373 411.015 510.201 410.301 510.716 409.73C511.231 409.158 512.089 409.016 512.775 409.444Z" fill="#F4DEFA"/>
</g>
<g opacity="0.9913">
<path d="M501.62 374.163C502.135 374.449 502.307 375.02 501.964 375.449C501.621 375.877 500.934 376.02 500.419 375.735C499.904 375.449 499.733 374.877 500.076 374.449C500.419 374.02 501.106 373.878 501.62 374.163Z" fill="#F4DEFA"/>
</g>
<g opacity="0.9913">
<path d="M448.936 342.597C449.623 343.025 449.966 343.882 449.451 344.453C448.936 345.025 447.907 345.31 447.22 344.882C446.534 344.453 446.191 343.596 446.705 343.025C447.22 342.454 448.078 342.311 448.936 342.597Z" fill="#F4DEFA"/>
</g>
<g opacity="0.9913">
<path d="M444.819 328.598C445.505 329.027 445.848 329.884 445.333 330.455C444.819 331.027 443.789 331.312 443.103 330.884C442.416 330.455 442.073 329.598 442.588 329.027C443.103 328.456 444.132 328.17 444.819 328.598Z" fill="#F4DEFA"/>
</g>
<path d="M356.439 101.774C356.782 101.917 356.953 102.345 356.61 102.774C356.439 103.06 355.924 103.202 355.409 102.917C355.066 102.774 354.894 102.345 355.237 101.917C355.581 101.631 356.095 101.488 356.439 101.774Z" fill="#F4DEFA"/>
<path d="M358.156 106.63C358.499 106.773 358.499 107.202 358.327 107.345C358.156 107.631 357.64 107.631 357.469 107.488C357.125 107.345 357.125 106.916 357.297 106.773C357.469 106.63 357.812 106.487 358.156 106.63Z" fill="#F4DEFA"/>
<path d="M344.254 105.488C344.769 105.773 344.94 106.488 344.597 106.916C344.254 107.345 343.396 107.487 342.881 107.202C342.366 106.916 342.195 106.202 342.538 105.773C342.881 105.345 343.739 105.202 344.254 105.488Z" fill="#F4DEFA"/>
<path d="M346.657 111.058C347.171 111.344 347.343 111.915 347 112.344C346.657 112.772 345.97 112.915 345.455 112.629C344.941 112.344 344.769 111.772 345.112 111.344C345.627 110.915 346.313 110.773 346.657 111.058Z" fill="#F4DEFA"/>
<path d="M367.594 100.774C367.766 100.917 367.938 101.203 367.766 101.346C367.594 101.489 367.251 101.632 367.079 101.489C366.907 101.346 366.735 101.06 366.907 100.917C367.079 100.774 367.422 100.631 367.594 100.774Z" fill="#F4DEFA"/>
<path d="M378.749 105.202C378.92 105.345 378.92 105.488 378.92 105.631C378.749 105.774 378.577 105.774 378.405 105.774C378.233 105.631 378.233 105.488 378.233 105.345C378.405 105.059 378.577 105.059 378.749 105.202Z" fill="#F4DEFA"/>
<path d="M368.108 104.774C368.279 104.916 368.279 105.059 368.279 105.202C368.108 105.345 367.936 105.345 367.764 105.345C367.592 105.345 367.592 105.059 367.592 104.916C367.764 104.774 367.936 104.631 368.108 104.774Z" fill="#F4DEFA"/>
<g opacity="0.995">
<path d="M212.286 25.3563C212.973 25.7848 213.144 26.6419 212.801 27.2132C212.286 27.7846 211.257 27.9274 210.57 27.6417C209.884 27.2132 209.712 26.3562 210.055 25.7848C210.57 25.2135 211.6 24.9278 212.286 25.3563Z" fill="#F4DEFA"/>
</g>
<g opacity="0.995">
<path d="M171.614 8.21595C172.301 8.64446 172.473 9.50148 172.129 10.0728C171.614 10.6442 170.585 10.787 169.898 10.5013C169.212 10.0728 169.04 9.21581 169.384 8.64446C169.898 7.93028 170.756 7.78744 171.614 8.21595Z" fill="#F4DEFA"/>
</g>
<g opacity="0.9952">
<path d="M151.022 0.502769C151.708 0.931279 151.88 1.7883 151.537 2.35965C151.022 2.931 149.992 3.07384 149.306 2.78816C148.619 2.35965 148.448 1.50263 148.791 0.931284C149.306 0.217101 150.335 0.0742595 151.022 0.502769Z" fill="#F4DEFA"/>
</g>
<g opacity="0.9871">
<path d="M176.763 -1.63975C177.449 -1.21124 177.621 -0.354214 177.278 0.217133C176.763 0.788479 175.733 0.93132 175.047 0.645647C174.36 0.217137 174.189 -0.639887 174.532 -1.21123C175.047 -1.92542 176.076 -2.06826 176.763 -1.63975Z" fill="#F4DEFA"/>
</g>
<g opacity="0.988">
<path d="M182.083 3.35955C182.769 3.78806 182.941 4.64508 182.598 5.21643C182.083 5.78778 181.053 5.93062 180.367 5.64495C179.68 5.21644 179.509 4.35941 179.852 3.78806C180.367 3.07388 181.225 2.93104 182.083 3.35955Z" fill="#F4DEFA"/>
</g>
<path d="M1174.51 111.63C1175.19 112.058 1175.36 112.915 1175.02 113.487C1174.51 114.058 1173.48 114.201 1172.79 113.915C1172.1 113.487 1171.93 112.63 1172.27 112.058C1172.79 111.344 1173.65 111.201 1174.51 111.63Z" fill="#F4DEFA"/>
<path d="M1178.45 132.198C1179.14 132.627 1179.31 133.484 1178.97 134.055C1178.62 134.626 1177.42 134.769 1176.73 134.484C1176.05 134.055 1175.88 133.198 1176.22 132.627C1176.56 131.913 1177.59 131.77 1178.45 132.198Z" fill="#F4DEFA"/>
<path d="M1205.91 167.622C1206.59 168.05 1206.77 168.907 1206.42 169.478C1205.91 170.05 1204.88 170.193 1204.19 169.907C1203.51 169.478 1203.33 168.621 1203.68 168.05C1204.19 167.336 1205.22 167.193 1205.91 167.622Z" fill="#F4DEFA"/>
<path d="M1191.67 197.617C1192.35 198.046 1192.52 198.903 1192.18 199.474C1191.67 200.046 1190.64 200.188 1189.95 199.903C1189.26 199.474 1189.09 198.617 1189.43 198.046C1189.95 197.332 1190.98 197.189 1191.67 197.617Z" fill="#F4DEFA"/>
<path d="M873.671 237.469C874.529 237.897 874.701 238.897 874.186 239.468C873.671 240.183 872.47 240.325 871.784 239.897C871.097 239.468 870.754 238.469 871.269 237.897C871.784 237.326 872.985 237.04 873.671 237.469Z" fill="#F4DEFA"/>
<path d="M869.038 265.75C869.896 266.179 870.068 267.179 869.553 267.75C869.038 268.321 867.837 268.607 867.151 268.179C866.293 267.75 866.121 266.75 866.636 266.179C867.151 265.465 868.18 265.322 869.038 265.75Z" fill="#F4DEFA"/>
<path d="M838.15 302.459C838.664 302.745 838.836 303.459 838.493 303.888C838.15 304.316 837.292 304.459 836.777 304.174C836.262 303.888 836.09 303.174 836.433 302.745C836.948 302.174 837.635 302.174 838.15 302.459Z" fill="#F4DEFA"/>
<path d="M841.581 316.6C841.924 316.886 842.096 317.314 841.752 317.6C841.409 317.886 840.894 318.029 840.551 317.743C840.208 317.457 840.036 317.029 840.379 316.743C840.551 316.457 841.237 316.457 841.581 316.6Z" fill="#F4DEFA"/>
<path d="M880.364 317.457C880.879 317.743 881.051 318.314 880.707 318.743C880.364 319.171 879.678 319.314 879.163 319.028C878.648 318.743 878.476 318.171 878.82 317.743C879.163 317.314 879.849 317.172 880.364 317.457Z" fill="#F4DEFA"/>
<path d="M874.358 318.886C874.873 319.171 874.873 319.6 874.702 320.028C874.53 320.457 873.844 320.457 873.329 320.314C872.814 320.028 872.814 319.6 872.985 319.171C873.157 318.743 873.843 318.6 874.358 318.886Z" fill="#F4DEFA"/>
<path d="M885.17 293.889C885.513 294.032 885.684 294.461 885.341 294.889C885.17 295.175 884.655 295.318 884.14 295.032C883.797 294.889 883.625 294.461 883.968 294.032C884.312 293.746 884.826 293.746 885.17 293.889Z" fill="#F4DEFA"/>
<path d="M863.718 299.745C864.061 300.031 864.233 300.46 863.89 300.745C863.546 301.031 863.032 301.174 862.688 300.888C862.345 300.602 862.173 300.174 862.517 299.888C862.688 299.603 863.375 299.46 863.718 299.745Z" fill="#F4DEFA"/>
<path d="M847.415 290.033C848.101 290.461 848.273 291.175 847.758 291.747C847.243 292.318 846.385 292.461 845.699 292.032C845.012 291.604 844.841 290.89 845.356 290.318C845.87 289.89 846.9 289.747 847.415 290.033Z" fill="#F4DEFA"/>
<path d="M860.286 295.318C860.801 295.603 860.801 296.032 860.629 296.46C860.286 296.889 859.771 296.889 859.256 296.746C858.742 296.46 858.742 296.032 858.913 295.603C859.085 295.175 859.771 295.032 860.286 295.318Z" fill="#F4DEFA"/>
<path d="M894.265 298.746C894.608 299.031 894.78 299.46 894.436 299.746C894.093 300.031 893.578 300.174 893.235 299.888C892.892 299.603 892.72 299.174 893.064 298.888C893.407 298.603 893.922 298.603 894.265 298.746Z" fill="#F4DEFA"/>
<path d="M889.46 301.46C889.803 301.602 889.803 302.031 889.631 302.317C889.46 302.602 888.945 302.602 888.602 302.459C888.258 302.317 888.259 301.888 888.43 301.602C888.602 301.317 889.117 301.174 889.46 301.46Z" fill="#F4DEFA"/>
<path d="M869.381 293.889C869.724 294.175 869.896 294.603 869.553 295.032C869.21 295.318 868.695 295.46 868.18 295.175C867.837 294.889 867.665 294.461 868.008 294.032C868.352 293.746 868.866 293.604 869.381 293.889Z" fill="#F4DEFA"/>
<path d="M865.949 288.89C866.464 289.175 866.636 289.747 866.292 290.175C865.949 290.604 865.263 290.747 864.748 290.461C864.233 290.175 864.061 289.604 864.405 289.176C864.748 288.604 865.434 288.604 865.949 288.89Z" fill="#F4DEFA"/>
<path d="M892.892 290.033C893.407 290.318 893.579 290.89 893.235 291.175C892.892 291.604 892.206 291.747 891.863 291.461C891.348 291.175 891.176 290.604 891.519 290.318C891.691 289.747 892.377 289.747 892.892 290.033Z" fill="#F4DEFA"/>
</g>
<defs>
<filter id="filter0_f_0_1" x="-20.5" y="-224.5" width="1320.06" height="791.564" filterUnits="userSpaceOnUse" color-interpolation-filters="sRGB">
<feFlood flood-opacity="0" result="BackgroundImageFix"/>
<feBlend mode="normal" in="SourceGraphic" in2="BackgroundImageFix" result="shape"/>
<feGaussianBlur stdDeviation="0.75" result="effect1_foregroundBlur_0_1"/>
</filter>
<radialGradient id="paint0_radial_0_1" cx="0" cy="0" r="1" gradientUnits="userSpaceOnUse" gradientTransform="translate(694.5 626.5) rotate(-90) scale(626.5 963.846)">
<stop stop-color="#30112E"/>
<stop offset="1" stop-color="#0F0F0F"/>
</radialGradient>
</defs>
</svg>
