<svg width="390" height="844" viewBox="0 0 390 844" fill="none" xmlns="http://www.w3.org/2000/svg">
<rect width="390" height="844" fill="url(#paint0_radial_0_1)"/>
<g opacity="0.4" filter="url(#filter0_f_0_1)">
<path d="M309.564 317.909C310.117 318.185 310.228 318.737 309.896 319.197C309.564 319.657 308.901 319.749 308.348 319.473C307.796 319.197 307.685 318.645 308.017 318.185C308.348 317.724 309.012 317.54 309.564 317.909Z" fill="#F4DEFA"/>
<path d="M249.315 314.504C250.089 314.964 250.31 315.884 249.758 316.528C249.205 317.172 248.099 317.356 247.325 316.896C246.552 316.436 246.33 315.516 246.883 314.872C247.436 314.228 248.542 314.044 249.315 314.504Z" fill="#F4DEFA"/>
<g opacity="0.5712">
<path d="M183.313 327.202C184.087 327.662 184.308 328.582 183.756 329.227C183.203 329.871 182.097 330.055 181.323 329.595C180.55 329.135 180.329 328.214 180.881 327.57C181.434 326.926 182.54 326.742 183.313 327.202Z" fill="#F4DEFA"/>
</g>
<g opacity="0.2044">
<path d="M161.314 295.088C162.198 295.549 162.42 296.561 161.867 297.297C161.314 298.033 160.098 298.217 159.214 297.757C158.329 297.297 158.108 296.285 158.661 295.549C159.214 294.812 160.43 294.628 161.314 295.088Z" fill="#F4DEFA"/>
</g>
<g opacity="0.9521">
<path d="M166.62 277.053C167.504 277.605 167.725 278.617 167.173 279.354C166.509 280.09 165.293 280.274 164.409 279.814C163.524 279.262 163.303 278.249 163.856 277.513C164.519 276.777 165.735 276.593 166.62 277.053Z" fill="#F4DEFA"/>
</g>
<g opacity="0.8985">
<path d="M181.548 307.327C182.543 307.879 182.764 308.983 182.1 309.811C181.437 310.639 180.11 310.823 179.116 310.271C178.121 309.719 177.899 308.615 178.563 307.787C179.226 307.051 180.553 306.867 181.548 307.327Z" fill="#F4DEFA"/>
</g>
<g opacity="0.9328">
<path d="M125.098 245.487C125.983 245.947 126.204 246.959 125.651 247.788C125.098 248.524 123.882 248.708 122.887 248.248C122.003 247.788 121.782 246.775 122.335 245.947C122.998 245.211 124.214 245.027 125.098 245.487Z" fill="#F4DEFA"/>
</g>
<g opacity="0.6208">
<path d="M74.6708 263.951C75.4447 264.411 75.6658 265.331 75.1131 265.975C74.5603 266.62 73.4548 266.804 72.6809 266.343C71.907 265.883 71.6859 264.963 72.2387 264.319C72.7915 263.675 73.897 263.491 74.6708 263.951Z" fill="#F4DEFA"/>
</g>
<g opacity="0.9716">
<path d="M21.8031 265.169C22.3558 265.445 22.4664 266.089 22.1347 266.642C21.8031 267.102 21.0292 267.194 20.3659 266.918C19.8131 266.642 19.7026 265.997 20.0342 265.445C20.4764 264.985 21.2503 264.893 21.8031 265.169Z" fill="#F4DEFA"/>
</g>
<g opacity="0.8655">
<path d="M114.33 283.402C114.883 283.678 114.993 284.23 114.662 284.691C114.33 285.151 113.667 285.243 113.114 284.967C112.561 284.691 112.451 284.138 112.782 283.678C113.114 283.218 113.777 283.126 114.33 283.402Z" fill="#F4DEFA"/>
</g>
<g opacity="0.6978">
<path d="M196.583 329.135C197.357 329.595 197.578 330.515 197.025 331.159C196.472 331.803 195.367 331.987 194.593 331.527C193.819 331.067 193.598 330.147 194.151 329.503C194.704 328.859 195.809 328.675 196.583 329.135Z" fill="#F4DEFA"/>
</g>
<path d="M244.119 349.102C244.672 349.47 244.893 350.114 244.451 350.574C244.009 351.035 243.235 351.219 242.682 350.85C242.129 350.482 241.908 349.838 242.35 349.378C242.793 348.826 243.567 348.734 244.119 349.102Z" fill="#F4DEFA"/>
<g opacity="0.4183">
<path d="M131.799 328.398C132.572 328.858 132.794 329.687 132.241 330.331C131.688 330.975 130.693 331.159 129.919 330.699C129.145 330.239 128.924 329.411 129.477 328.766C130.03 328.122 131.025 328.03 131.799 328.398Z" fill="#F4DEFA"/>
</g>
<g opacity="0.3442">
<path d="M66.0158 322.509C66.7897 322.969 67.0108 323.89 66.458 324.626C65.9052 325.27 64.7997 325.454 63.9153 324.994C63.1414 324.534 62.9203 323.614 63.4731 322.877C64.1364 322.233 65.2419 322.049 66.0158 322.509Z" fill="#F4DEFA"/>
</g>
<g opacity="0.107">
<path d="M47.7744 332.723C48.5483 333.091 48.6588 334.011 48.2166 334.564C47.7744 335.116 46.6689 335.3 46.0055 334.932C45.2317 334.564 45.1211 333.643 45.5633 333.091C46.0055 332.447 47.0005 332.355 47.7744 332.723Z" fill="#F4DEFA"/>
</g>
<g opacity="0.8454">
<path d="M82.7109 202.52C83.1531 202.796 83.2636 203.256 82.932 203.624C82.6003 203.992 82.0476 204.084 81.6054 203.808C81.1632 203.532 81.0526 203.072 81.3842 202.704C81.7159 202.336 82.2687 202.336 82.7109 202.52Z" fill="#F4DEFA"/>
</g>
<g opacity="0.8801">
<path d="M100.29 137.188C100.511 137.28 100.621 137.556 100.4 137.74C100.29 137.924 99.958 138.016 99.7369 137.832C99.5158 137.74 99.4053 137.464 99.6264 137.28C99.7369 137.096 99.958 137.096 100.29 137.188Z" fill="#F4DEFA"/>
</g>
<g opacity="0.8077">
<path d="M18.0388 184.116C18.8127 184.577 19.0338 185.405 18.481 186.049C17.9283 186.693 16.9333 186.877 16.1594 186.417C15.3855 185.957 15.1645 185.129 15.7172 184.485C16.27 183.84 17.2649 183.656 18.0388 184.116Z" fill="#F4DEFA"/>
</g>
<g opacity="0.3056">
<path d="M8.75019 153.567C9.30295 153.935 9.52406 154.579 9.08185 155.039C8.63964 155.499 7.86576 155.683 7.313 155.315C6.76023 154.947 6.53913 154.303 6.98134 153.843C7.31299 153.383 8.08687 153.291 8.75019 153.567Z" fill="#F4DEFA"/>
</g>
<g opacity="0.7292">
<path d="M50.3162 160.744C51.09 161.204 51.3111 162.032 50.7584 162.677C50.2056 163.321 49.2106 163.505 48.4368 163.045C47.6629 162.585 47.4418 161.756 47.9946 161.112C48.4368 160.468 49.5423 160.284 50.3162 160.744Z" fill="#F4DEFA"/>
</g>
<path d="M17.9266 73.1445C18.3689 73.4205 18.4794 73.9726 18.2583 74.3407C17.9266 74.7087 17.2633 74.8008 16.8211 74.6167C16.3789 74.3407 16.2684 73.7886 16.4895 73.4205C16.8211 73.0524 17.4844 72.9604 17.9266 73.1445Z" fill="#F4DEFA"/>
<path d="M49.1044 70.66C49.5466 70.936 49.6571 71.4881 49.436 71.8562C49.1044 72.2243 48.4411 72.3163 47.9989 72.1323C47.5566 71.8562 47.4461 71.3041 47.6672 70.936C47.9989 70.568 48.6622 70.3839 49.1044 70.66Z" fill="#F4DEFA"/>
<path d="M62.1493 81.978C62.5915 82.2541 62.7021 82.8062 62.481 83.1742C62.1493 83.5423 61.486 83.6343 61.0438 83.4503C60.6016 83.1742 60.491 82.6221 60.7121 82.2541C61.0438 81.794 61.7071 81.702 62.1493 81.978Z" fill="#F4DEFA"/>
<path d="M78.8427 71.6722C79.2849 71.9482 79.3954 72.5003 79.1743 72.8684C78.8427 73.2365 78.1794 73.3285 77.7371 73.1444C77.2949 72.8684 77.1844 72.3163 77.4055 71.9482C77.7371 71.4882 78.4005 71.3961 78.8427 71.6722Z" fill="#F4DEFA"/>
<path d="M1.89658 29.1605C2.33879 29.4366 2.44933 29.9887 2.22823 30.3567C1.78602 30.7248 1.23326 30.8168 0.680495 30.5408C0.238284 30.2647 0.127728 29.7126 0.348833 29.3445C0.791044 28.9765 1.45437 28.8845 1.89658 29.1605Z" fill="#F4DEFA"/>
<path d="M173.144 481.606C173.365 481.698 173.365 481.974 173.255 482.067C173.144 482.251 172.812 482.251 172.701 482.159C172.591 482.067 172.48 481.79 172.591 481.698C172.701 481.514 172.923 481.514 173.144 481.606Z" fill="#F4DEFA"/>
<path d="M201.997 446.824C202.439 447.1 202.55 447.652 202.329 448.02C201.997 448.388 201.334 448.48 200.891 448.296C200.449 448.02 200.339 447.468 200.56 447.1C200.891 446.64 201.555 446.548 201.997 446.824Z" fill="#F4DEFA"/>
<path d="M140.309 466.055C140.752 466.331 140.862 466.883 140.641 467.251C140.309 467.619 139.646 467.711 139.204 467.527C138.762 467.251 138.651 466.699 138.872 466.331C139.093 465.963 139.757 465.779 140.309 466.055Z" fill="#F4DEFA"/>
<path d="M88.0165 476.177C88.4587 476.453 88.5692 477.005 88.3481 477.373C88.0165 477.741 87.3532 477.833 86.911 477.649C86.4687 477.373 86.3582 476.821 86.5793 476.453C86.911 475.993 87.5743 475.901 88.0165 476.177Z" fill="#F4DEFA"/>
<path d="M136.882 516.48C137.324 516.756 137.434 517.308 137.213 517.676C136.882 518.045 136.218 518.137 135.776 517.953C135.334 517.676 135.223 517.124 135.445 516.756C135.776 516.296 136.44 516.204 136.882 516.48Z" fill="#F4DEFA"/>
<path d="M160.874 481.33C161.205 481.514 161.316 481.882 161.095 482.158C160.874 482.434 160.431 482.526 160.1 482.342C159.768 482.158 159.658 481.79 159.879 481.514C160.1 481.238 160.542 481.146 160.874 481.33Z" fill="#F4DEFA"/>
<path d="M192.931 472.68C193.263 472.864 193.374 473.325 193.153 473.601C192.932 473.877 192.379 473.969 192.047 473.785C191.715 473.601 191.605 473.141 191.826 472.864C192.047 472.588 192.489 472.496 192.931 472.68Z" fill="#F4DEFA"/>
<path d="M151.475 500.193C151.918 500.469 152.028 501.022 151.807 501.39C151.475 501.758 150.812 501.85 150.37 501.666C149.928 501.39 149.817 500.837 150.038 500.469C150.37 500.009 151.033 499.917 151.475 500.193Z" fill="#F4DEFA"/>
<path d="M154.462 512.8C154.904 513.076 155.015 513.628 154.793 513.996C154.462 514.364 153.798 514.456 153.356 514.272C152.914 513.996 152.804 513.444 153.025 513.076C153.246 512.616 153.909 512.524 154.462 512.8Z" fill="#F4DEFA"/>
<path d="M189.282 504.426C189.724 504.61 189.835 505.07 189.503 505.438C189.282 505.806 188.729 505.898 188.287 505.622C187.845 505.438 187.734 504.978 188.066 504.61C188.287 504.242 188.84 504.242 189.282 504.426Z" fill="#F4DEFA"/>
<path d="M229.748 497.433C230.08 497.617 230.19 498.077 229.969 498.353C229.748 498.629 229.195 498.721 228.863 498.537C228.532 498.353 228.421 497.893 228.642 497.617C228.863 497.341 229.306 497.249 229.748 497.433Z" fill="#F4DEFA"/>
<path d="M193.044 535.436C193.486 535.712 193.597 536.264 193.375 536.632C193.044 537 192.381 537.092 191.938 536.908C191.496 536.632 191.386 536.08 191.607 535.712C191.828 535.252 192.491 535.16 193.044 535.436Z" fill="#F4DEFA"/>
<path d="M207.968 530.191C208.41 530.467 208.52 531.019 208.299 531.387C207.968 531.755 207.304 531.847 206.862 531.663C206.42 531.387 206.309 530.835 206.53 530.467C206.862 530.007 207.525 529.915 207.968 530.191Z" fill="#F4DEFA"/>
<path d="M242.46 526.234C242.902 526.51 243.013 527.062 242.792 527.43C242.46 527.798 241.797 527.89 241.354 527.706C240.912 527.43 240.802 526.878 241.023 526.51C241.244 526.05 241.907 525.958 242.46 526.234Z" fill="#F4DEFA"/>
<path d="M212.279 267.668C212.721 267.944 212.832 268.404 212.5 268.772C212.169 269.14 211.616 269.232 211.174 268.956C210.731 268.68 210.621 268.22 210.953 267.852C211.284 267.576 211.837 267.483 212.279 267.668Z" fill="#F4DEFA"/>
<path d="M290.551 275.581C291.214 275.949 291.325 276.593 290.883 277.145C290.44 277.697 289.667 277.789 289.003 277.421C288.34 277.053 288.229 276.409 288.672 275.857C289.114 275.397 289.998 275.213 290.551 275.581Z" fill="#F4DEFA"/>
<path d="M311.665 303.278C312.218 303.554 312.328 304.198 311.997 304.658C311.665 305.118 310.891 305.21 310.339 304.934C309.786 304.658 309.675 304.014 310.007 303.554C310.339 303.094 311.112 302.91 311.665 303.278Z" fill="#F4DEFA"/>
<path d="M365.395 266.655C365.838 266.931 365.948 267.483 365.727 267.852C365.395 268.22 364.732 268.312 364.29 268.128C363.848 267.851 363.737 267.299 363.958 266.931C364.29 266.563 364.953 266.379 365.395 266.655Z" fill="#F4DEFA"/>
<path d="M384.852 243.467C385.295 243.743 385.405 244.295 385.184 244.663C384.852 245.031 384.189 245.123 383.747 244.939C383.305 244.663 383.194 244.111 383.415 243.743C383.747 243.283 384.41 243.191 384.852 243.467Z" fill="#F4DEFA"/>
<path d="M349.034 186.049C349.476 186.325 349.587 186.877 349.366 187.245C349.034 187.613 348.371 187.705 347.929 187.521C347.486 187.245 347.376 186.693 347.597 186.325C347.929 185.957 348.592 185.865 349.034 186.049Z" fill="#F4DEFA"/>
<path d="M373.688 158.444C374.131 158.72 374.241 159.272 374.02 159.64C373.688 160.008 373.025 160.1 372.583 159.916C372.141 159.64 372.03 159.088 372.251 158.72C372.583 158.26 373.246 158.168 373.688 158.444Z" fill="#F4DEFA"/>
<g opacity="0.175">
<path d="M389.274 393.454C389.717 393.73 389.827 394.282 389.606 394.65C389.274 395.018 388.611 395.11 388.169 394.926C387.727 394.65 387.616 394.098 387.837 393.73C388.169 393.362 388.832 393.178 389.274 393.454Z" fill="#F4DEFA"/>
</g>
<g opacity="0.9913">
<path d="M118.198 398.239C118.64 398.515 118.751 399.067 118.53 399.435C118.198 399.803 117.535 399.895 117.093 399.711C116.65 399.435 116.54 398.883 116.761 398.515C117.093 398.055 117.756 397.963 118.198 398.239Z" fill="#F4DEFA"/>
</g>
<g opacity="0.6311">
<path d="M7.53602 397.963C7.97823 398.239 8.08879 398.791 7.86768 399.159C7.53603 399.527 6.87271 399.619 6.43049 399.435C5.98828 399.159 5.87773 398.607 6.09883 398.239C6.43049 397.779 7.09381 397.687 7.53602 397.963Z" fill="#F4DEFA"/>
</g>
<g opacity="0.1746">
<path d="M2.78235 356.095C3.33511 356.371 3.44567 357.016 3.11401 357.476C2.78235 357.936 2.00848 358.028 1.45572 357.752C0.902955 357.476 0.792398 356.832 1.12406 356.371C1.45571 355.911 2.22958 355.727 2.78235 356.095Z" fill="#F4DEFA"/>
</g>
<g opacity="0.1311">
<path d="M13.174 335.208C13.8373 335.576 13.9479 336.22 13.5057 336.772C13.0635 337.324 12.2896 337.416 11.6263 337.048C10.963 336.68 10.8524 336.036 11.2946 335.484C11.7368 334.932 12.5107 334.84 13.174 335.208Z" fill="#F4DEFA"/>
</g>
<g opacity="0.4118">
<path d="M80.3903 231.965C81.3852 232.517 81.6063 233.621 80.943 234.357C80.2797 235.186 78.9531 235.37 78.0686 234.818C77.0737 234.265 76.8526 233.161 77.5159 232.425C78.1792 231.597 79.5058 231.413 80.3903 231.965Z" fill="#F4DEFA"/>
</g>
<g opacity="0.8946">
<path d="M122.622 193.134C123.395 193.594 123.617 194.422 123.064 195.158C122.511 195.895 121.516 195.987 120.632 195.526C119.747 195.066 119.637 194.238 120.189 193.502C120.742 192.858 121.848 192.674 122.622 193.134Z" fill="#F4DEFA"/>
</g>
<g opacity="0.8718">
<path d="M-0.553881 203.395C0.551647 204.039 0.883311 205.327 0.109442 206.339C-0.664427 207.26 -2.21214 207.536 -3.42822 206.892C-4.6443 206.247 -4.86542 204.959 -4.09155 203.947C-3.31768 203.027 -1.76996 202.751 -0.553881 203.395Z" fill="#F4DEFA"/>
</g>
<g opacity="0.7204">
<path d="M119.526 152.095C120.189 152.463 120.299 153.199 119.857 153.659C119.415 154.119 118.531 154.303 117.978 153.935C117.315 153.567 117.204 152.831 117.646 152.371C118.088 151.911 118.862 151.727 119.526 152.095Z" fill="#F4DEFA"/>
</g>
<path d="M174.913 127.066C175.355 127.342 175.466 127.894 175.245 128.262C174.913 128.63 174.25 128.722 173.807 128.538C173.365 128.262 173.255 127.71 173.476 127.342C173.807 126.974 174.471 126.882 174.913 127.066Z" fill="#F4DEFA"/>
<path d="M184.862 89.4314C185.083 89.5235 185.083 89.7998 184.973 89.8919C184.862 90.076 184.53 90.0761 184.42 89.984C184.198 89.8919 184.198 89.6156 184.309 89.5235C184.42 89.3393 184.752 89.3393 184.862 89.4314Z" fill="#F4DEFA"/>
<path d="M203.432 82.2541C203.874 82.4381 203.874 82.8982 203.653 83.2663C203.432 83.6343 202.879 83.6343 202.437 83.4503C201.994 83.2663 201.994 82.8062 202.216 82.4381C202.547 82.0701 203.1 81.978 203.432 82.2541Z" fill="#F4DEFA"/>
<path d="M223.556 93.112C223.998 93.3881 224.108 93.9402 223.887 94.3083C223.556 94.6763 222.892 94.7684 222.45 94.5843C222.008 94.3083 221.897 93.7562 222.118 93.3881C222.45 92.928 223.113 92.836 223.556 93.112Z" fill="#F4DEFA"/>
<g opacity="0.9604">
<path d="M230.962 94.7683C231.404 95.0444 231.515 95.5965 231.293 95.9646C230.962 96.3326 230.298 96.4246 229.856 96.2406C229.414 95.9646 229.304 95.4125 229.525 95.0444C229.746 94.6763 230.409 94.4923 230.962 94.7683Z" fill="#F4DEFA"/>
</g>
<g opacity="0.3769">
<path d="M267.225 103.786C267.668 104.062 267.778 104.614 267.557 104.982C267.225 105.35 266.562 105.442 266.12 105.258C265.678 104.982 265.567 104.43 265.788 104.062C266.12 103.694 266.783 103.51 267.225 103.786Z" fill="#F4DEFA"/>
</g>
<g opacity="0.3162">
<path d="M285.907 91.0877C286.349 91.3637 286.46 91.9158 286.239 92.2839C285.907 92.652 285.244 92.744 284.802 92.5599C284.359 92.2839 284.249 91.7318 284.47 91.3637C284.802 90.9036 285.465 90.8116 285.907 91.0877Z" fill="#F4DEFA"/>
</g>
<path d="M232.62 63.0226C233.062 63.2987 233.173 63.8508 232.952 64.2188C232.62 64.5869 231.957 64.6789 231.514 64.4949C231.072 64.2188 230.962 63.6667 231.183 63.2987C231.514 62.8386 232.067 62.7466 232.62 63.0226Z" fill="#F4DEFA"/>
<g opacity="0.6765">
<path d="M257.606 86.4868C258.049 86.7629 258.159 87.315 257.938 87.6831C257.606 88.0511 256.943 88.1431 256.501 87.9591C256.059 87.6831 255.948 87.131 256.169 86.7629C256.501 86.3028 257.164 86.2108 257.606 86.4868Z" fill="#F4DEFA"/>
</g>
<path d="M270.651 45.9996C271.093 46.2756 271.204 46.8277 270.983 47.1958C270.762 47.5638 269.988 47.6559 269.546 47.4718C269.104 47.1958 268.993 46.6437 269.214 46.2756C269.546 45.9075 270.209 45.7235 270.651 45.9996Z" fill="#F4DEFA"/>
<path d="M237.376 45.1714C237.818 45.4475 237.929 45.9996 237.708 46.3676C237.376 46.7357 236.713 46.8277 236.27 46.6437C235.828 46.3676 235.718 45.8155 235.939 45.4475C236.27 44.9874 236.823 44.8954 237.376 45.1714Z" fill="#F4DEFA"/>
<g opacity="0.94">
<path d="M264.571 59.434C265.013 59.71 265.124 60.2621 264.903 60.6302C264.571 60.9982 263.908 61.0903 263.466 60.9062C263.023 60.6302 262.913 60.0781 263.134 59.71C263.466 59.2499 264.129 59.1579 264.571 59.434Z" fill="#F4DEFA"/>
</g>
<g opacity="0.9911">
<path d="M302.159 61.7344C302.601 62.0104 302.712 62.5625 302.491 62.9306C302.159 63.2986 301.496 63.3907 301.054 63.2066C300.611 62.9306 300.501 62.3785 300.722 62.0104C301.054 61.6423 301.717 61.4583 302.159 61.7344Z" fill="#F4DEFA"/>
</g>
<g opacity="0.482">
<path d="M298.62 79.9537C299.062 80.2297 299.173 80.7818 298.952 81.1499C298.62 81.5179 297.957 81.61 297.514 81.4259C297.072 81.1499 296.962 80.5978 297.183 80.2297C297.514 79.7696 298.178 79.6776 298.62 79.9537Z" fill="#F4DEFA"/>
</g>
<g opacity="0.5606">
<path d="M316.862 79.1255C317.304 79.4016 317.415 79.9537 317.194 80.3217C316.862 80.6898 316.199 80.7818 315.757 80.5978C315.314 80.3217 315.204 79.7696 315.425 79.4016C315.757 78.9415 316.309 78.8495 316.862 79.1255Z" fill="#F4DEFA"/>
</g>
<path d="M238.593 160.284C239.035 160.56 239.145 161.112 238.924 161.48C238.593 161.848 237.929 161.94 237.487 161.756C237.045 161.48 236.934 160.928 237.155 160.56C237.487 160.192 238.15 160.008 238.593 160.284Z" fill="#F4DEFA"/>
<g opacity="0.7022">
<path d="M48.1539 202.7C49.1489 203.252 49.37 204.356 48.7067 205.093C48.0434 205.921 46.7167 206.105 45.8323 205.553C44.8373 205.001 44.6162 203.896 45.2796 203.16C45.8323 202.332 47.159 202.148 48.1539 202.7Z" fill="#F4DEFA"/>
</g>
<path d="M262.138 196.079C262.58 196.355 262.69 196.907 262.469 197.275C262.138 197.643 261.474 197.735 261.032 197.551C260.59 197.275 260.479 196.723 260.7 196.355C261.032 195.895 261.695 195.803 262.138 196.079Z" fill="#F4DEFA"/>
<path d="M293.536 183.288C293.978 183.564 294.089 184.116 293.868 184.485C293.536 184.853 292.873 184.945 292.43 184.761C291.988 184.485 291.878 183.932 292.099 183.564C292.43 183.104 292.983 183.012 293.536 183.288Z" fill="#F4DEFA"/>
<g opacity="0.9913">
<path d="M74.4208 424.648C74.863 424.924 74.9736 425.476 74.7524 425.844C74.4208 426.212 73.7575 426.304 73.3153 426.12C72.8731 425.844 72.7625 425.292 72.9836 424.924C73.3153 424.464 73.9786 424.372 74.4208 424.648Z" fill="#F4DEFA"/>
</g>
<g opacity="0.9913">
<path d="M78.8417 417.378C79.284 417.655 79.3945 418.115 79.0628 418.483C78.7312 418.851 78.1784 418.943 77.7362 418.667C77.294 418.391 77.1834 417.931 77.5151 417.562C77.8468 417.286 78.3995 417.194 78.8417 417.378Z" fill="#F4DEFA"/>
</g>
<g opacity="0.9913">
<path d="M102.499 427.868C102.831 428.052 102.831 428.328 102.61 428.605C102.389 428.881 102.057 428.881 101.726 428.697C101.394 428.513 101.394 428.236 101.615 427.96C101.836 427.776 102.278 427.776 102.499 427.868Z" fill="#F4DEFA"/>
</g>
<g opacity="0.9913">
<path d="M113.887 428.973C114.218 429.157 114.329 429.617 114.108 429.893C113.887 430.169 113.334 430.261 113.002 430.077C112.671 429.893 112.56 429.433 112.781 429.157C113.002 428.881 113.444 428.789 113.887 428.973Z" fill="#F4DEFA"/>
</g>
<g opacity="0.9913">
<path d="M113.225 436.426C113.667 436.702 113.777 437.162 113.446 437.53C113.114 437.898 112.561 437.99 112.119 437.714C111.677 437.438 111.566 436.978 111.898 436.61C112.23 436.242 112.782 436.15 113.225 436.426Z" fill="#F4DEFA"/>
</g>
<g opacity="0.9913">
<path d="M106.038 413.698C106.369 413.882 106.48 414.25 106.259 414.526C106.038 414.802 105.596 414.894 105.264 414.71C104.932 414.526 104.822 414.158 105.043 413.882C105.264 413.606 105.706 413.514 106.038 413.698Z" fill="#F4DEFA"/>
</g>
<g opacity="0.9913">
<path d="M72.0969 393.362C72.5391 393.638 72.7602 394.19 72.4285 394.558C72.0969 394.926 71.4336 395.11 70.9914 394.834C70.5491 394.558 70.328 394.006 70.6597 393.638C70.9913 393.27 71.5441 393.178 72.0969 393.362Z" fill="#F4DEFA"/>
</g>
<g opacity="0.9913">
<path d="M69.4445 384.344C69.8868 384.621 70.1078 385.173 69.7762 385.541C69.4445 385.909 68.7812 386.093 68.339 385.817C67.8968 385.541 67.6757 384.989 68.0073 384.621C68.339 384.252 69.0023 384.068 69.4445 384.344Z" fill="#F4DEFA"/>
</g>
<path d="M12.5116 238.222C12.7327 238.314 12.8432 238.59 12.6221 238.866C12.5116 239.05 12.1799 239.142 11.8483 238.958C11.6272 238.866 11.5166 238.59 11.7377 238.314C11.9588 238.13 12.2905 238.038 12.5116 238.222Z" fill="#F4DEFA"/>
<path d="M13.6161 241.351C13.8374 241.443 13.8374 241.719 13.7267 241.811C13.6161 241.995 13.2842 241.995 13.1736 241.903C12.9523 241.811 12.9523 241.535 13.0629 241.443C13.1735 241.351 13.3948 241.259 13.6161 241.351Z" fill="#F4DEFA"/>
<path d="M4.66197 240.615C4.99362 240.799 5.10417 241.259 4.88307 241.535C4.66196 241.811 4.1092 241.903 3.77754 241.719C3.44588 241.535 3.33533 241.075 3.55644 240.799C3.77754 240.523 4.33031 240.431 4.66197 240.615Z" fill="#F4DEFA"/>
<path d="M6.20766 244.203C6.53931 244.387 6.64986 244.755 6.42876 245.031C6.20765 245.307 5.76545 245.399 5.43379 245.215C5.10213 245.031 4.99158 244.663 5.21269 244.387C5.54435 244.111 5.98655 244.019 6.20766 244.203Z" fill="#F4DEFA"/>
<path d="M19.6954 237.578C19.8061 237.67 19.9167 237.854 19.8061 237.946C19.6954 238.039 19.4741 238.131 19.3635 238.039C19.2529 237.946 19.1422 237.762 19.2529 237.67C19.3635 237.578 19.5848 237.486 19.6954 237.578Z" fill="#F4DEFA"/>
<path d="M26.8827 240.431C26.9933 240.523 26.9933 240.615 26.9933 240.707C26.8827 240.799 26.7721 240.799 26.6614 240.799C26.5508 240.707 26.5508 240.615 26.5508 240.523C26.6614 240.339 26.7721 240.339 26.8827 240.431Z" fill="#F4DEFA"/>
<path d="M20.0253 240.155C20.1359 240.247 20.1359 240.339 20.1359 240.431C20.0253 240.523 19.9146 240.523 19.804 240.523C19.6934 240.523 19.6934 240.339 19.6934 240.247C19.804 240.155 19.9146 240.062 20.0253 240.155Z" fill="#F4DEFA"/>
<path d="M345.717 325.638C346.27 325.914 346.381 326.558 346.049 326.926C345.717 327.386 344.943 327.478 344.501 327.202C344.059 326.926 343.838 326.282 344.169 325.914C344.501 325.546 345.275 325.362 345.717 325.638Z" fill="#F4DEFA"/>
<path d="M342.732 343.857C343.285 344.133 343.396 344.777 343.064 345.145C342.732 345.513 341.958 345.697 341.516 345.421C340.963 345.145 340.853 344.501 341.185 344.133C341.516 343.673 342.18 343.581 342.732 343.857Z" fill="#F4DEFA"/>
<path d="M322.832 367.506C323.164 367.69 323.274 368.15 323.053 368.426C322.832 368.702 322.279 368.794 321.947 368.61C321.616 368.426 321.505 367.966 321.726 367.69C322.058 367.322 322.5 367.321 322.832 367.506Z" fill="#F4DEFA"/>
<path d="M325.045 376.615C325.266 376.799 325.376 377.075 325.155 377.259C324.934 377.443 324.603 377.535 324.381 377.351C324.16 377.167 324.05 376.891 324.271 376.707C324.381 376.523 324.824 376.523 325.045 376.615Z" fill="#F4DEFA"/>
<path d="M350.026 377.167C350.358 377.351 350.468 377.719 350.247 377.995C350.026 378.271 349.584 378.363 349.252 378.179C348.921 377.995 348.81 377.627 349.031 377.351C349.252 377.075 349.694 376.983 350.026 377.167Z" fill="#F4DEFA"/>
<path d="M346.158 378.087C346.489 378.271 346.489 378.547 346.379 378.823C346.268 379.1 345.826 379.1 345.494 379.008C345.163 378.823 345.163 378.547 345.273 378.271C345.384 377.995 345.826 377.903 346.158 378.087Z" fill="#F4DEFA"/>
<path d="M353.125 361.984C353.346 362.077 353.457 362.353 353.235 362.629C353.125 362.813 352.793 362.905 352.462 362.721C352.24 362.629 352.13 362.353 352.351 362.077C352.572 361.892 352.904 361.892 353.125 361.984Z" fill="#F4DEFA"/>
<path d="M339.305 365.757C339.526 365.941 339.636 366.217 339.415 366.401C339.194 366.585 338.862 366.677 338.641 366.493C338.42 366.309 338.31 366.033 338.531 365.849C338.641 365.665 339.083 365.573 339.305 365.757Z" fill="#F4DEFA"/>
<path d="M328.801 359.5C329.243 359.776 329.353 360.236 329.022 360.604C328.69 360.972 328.137 361.064 327.695 360.788C327.253 360.512 327.142 360.052 327.474 359.684C327.806 359.408 328.469 359.316 328.801 359.5Z" fill="#F4DEFA"/>
<path d="M337.093 362.905C337.425 363.089 337.425 363.365 337.314 363.641C337.093 363.917 336.761 363.917 336.43 363.825C336.098 363.641 336.098 363.365 336.209 363.089C336.319 362.813 336.761 362.721 337.093 362.905Z" fill="#F4DEFA"/>
<path d="M358.982 365.113C359.203 365.297 359.314 365.573 359.093 365.757C358.872 365.941 358.54 366.033 358.319 365.849C358.098 365.665 357.987 365.389 358.208 365.205C358.43 365.021 358.761 365.021 358.982 365.113Z" fill="#F4DEFA"/>
<path d="M355.886 366.861C356.107 366.953 356.107 367.229 355.997 367.413C355.886 367.597 355.555 367.597 355.334 367.505C355.112 367.413 355.112 367.137 355.223 366.953C355.334 366.769 355.665 366.677 355.886 366.861Z" fill="#F4DEFA"/>
<path d="M342.952 361.984C343.173 362.169 343.284 362.445 343.063 362.721C342.842 362.905 342.51 362.997 342.178 362.813C341.957 362.629 341.847 362.353 342.068 362.077C342.289 361.892 342.621 361.8 342.952 361.984Z" fill="#F4DEFA"/>
<path d="M340.741 358.764C341.073 358.948 341.183 359.316 340.962 359.592C340.741 359.868 340.299 359.96 339.967 359.776C339.635 359.592 339.525 359.224 339.746 358.948C339.967 358.58 340.409 358.58 340.741 358.764Z" fill="#F4DEFA"/>
<path d="M358.097 359.5C358.429 359.684 358.539 360.052 358.318 360.236C358.097 360.512 357.655 360.604 357.434 360.42C357.102 360.236 356.992 359.868 357.213 359.684C357.323 359.316 357.765 359.316 358.097 359.5Z" fill="#F4DEFA"/>
</g>
<defs>
<filter id="filter0_f_0_1" x="-230.852" y="27.5" width="851.467" height="511" filterUnits="userSpaceOnUse" color-interpolation-filters="sRGB">
<feFlood flood-opacity="0" result="BackgroundImageFix"/>
<feBlend mode="normal" in="SourceGraphic" in2="BackgroundImageFix" result="shape"/>
<feGaussianBlur stdDeviation="0.75" result="effect1_foregroundBlur_0_1"/>
</filter>
<radialGradient id="paint0_radial_0_1" cx="0" cy="0" r="1" gradientUnits="userSpaceOnUse" gradientTransform="translate(211.605 635.536) rotate(-90) scale(635.536 293.672)">
<stop stop-color="#30112E"/>
<stop offset="1" stop-color="#0F0F0F"/>
</radialGradient>
</defs>
</svg>
