<svg width="1280" height="742" viewBox="0 0 1280 742" fill="none" xmlns="http://www.w3.org/2000/svg">
<rect x="-1" y="2" width="1282" height="738" fill="url(#paint0_linear_0_1)"/>
<g opacity="0.4" filter="url(#filter0_f_0_1)">
<path d="M1199.61 216.786C1200.28 217.187 1200.45 217.989 1200.11 218.524C1199.61 219.058 1198.61 219.192 1197.94 218.925C1197.28 218.524 1197.11 217.722 1197.44 217.187C1197.78 216.652 1198.78 216.518 1199.61 216.786Z" fill="#F4DEFA"/>
<path d="M813.013 421.714C813.847 422.115 814.014 422.917 813.513 423.585C813.013 424.254 812.012 424.387 811.178 423.986C810.344 423.585 810.178 422.783 810.678 422.115C811.178 421.446 812.179 421.179 813.013 421.714Z" fill="#F4DEFA"/>
<path d="M722.117 416.768C723.284 417.436 723.618 418.773 722.784 419.708C721.95 420.644 720.282 420.912 719.115 420.243C717.947 419.575 717.614 418.238 718.448 417.302C719.282 416.367 720.949 416.099 722.117 416.768Z" fill="#F4DEFA"/>
<g opacity="0.5712">
<path d="M622.55 435.215C623.718 435.883 624.051 437.22 623.218 438.156C622.384 439.092 620.716 439.359 619.548 438.691C618.381 438.022 618.047 436.685 618.881 435.75C619.715 434.814 621.383 434.547 622.55 435.215Z" fill="#F4DEFA"/>
</g>
<g opacity="0.2044">
<path d="M589.36 388.561C590.694 389.23 591.028 390.7 590.194 391.77C589.36 392.839 587.525 393.106 586.191 392.438C584.857 391.77 584.523 390.299 585.357 389.23C586.191 388.16 588.025 387.893 589.36 388.561Z" fill="#F4DEFA"/>
</g>
<g opacity="0.9521">
<path d="M597.366 362.361C598.701 363.163 599.034 364.633 598.2 365.703C597.2 366.772 595.365 367.039 594.031 366.371C592.696 365.569 592.363 364.099 593.197 363.029C594.198 361.96 596.032 361.692 597.366 362.361Z" fill="#F4DEFA"/>
</g>
<g opacity="0.8985">
<path d="M619.882 406.341C621.383 407.143 621.716 408.747 620.716 409.95C619.715 411.153 617.714 411.42 616.213 410.618C614.712 409.816 614.378 408.212 615.379 407.009C616.379 405.94 618.381 405.672 619.882 406.341Z" fill="#F4DEFA"/>
</g>
<g opacity="0.9328">
<path d="M534.724 316.503C536.058 317.171 536.392 318.641 535.558 319.845C534.724 320.914 532.889 321.181 531.388 320.513C530.054 319.845 529.72 318.374 530.554 317.171C531.555 316.102 533.39 315.834 534.724 316.503Z" fill="#F4DEFA"/>
</g>
<path d="M83.8536 292.39C85.3547 293.192 85.6882 294.796 84.6875 295.866C83.6868 297.069 81.6855 297.336 80.3512 296.534C78.8502 295.732 78.5166 294.128 79.5173 293.058C80.518 291.989 82.5194 291.722 83.8536 292.39Z" fill="#F4DEFA"/>
<path d="M155.569 355.085C156.737 355.754 157.07 356.957 156.236 357.892C155.402 358.828 153.901 359.096 152.734 358.427C151.566 357.759 151.233 356.556 152.067 355.62C152.901 354.684 154.402 354.55 155.569 355.085Z" fill="#F4DEFA"/>
<path d="M182.255 293.593C183.089 294.128 183.422 295.063 182.755 295.732C182.088 296.4 180.921 296.667 180.087 296.133C179.253 295.598 178.919 294.662 179.586 293.994C180.087 293.325 181.254 293.058 182.255 293.593Z" fill="#F4DEFA"/>
<g opacity="0.766">
<path d="M51.331 218.733C52.1649 219.134 52.3317 220.07 51.8313 220.738C51.331 221.407 50.1635 221.54 49.3296 221.139C48.4957 220.738 48.329 219.803 48.8293 219.134C49.3296 218.466 50.4971 218.198 51.331 218.733Z" fill="#F4DEFA"/>
</g>
<g opacity="0.6208">
<path d="M458.646 343.326C459.814 343.995 460.147 345.332 459.313 346.267C458.479 347.203 456.811 347.47 455.644 346.802C454.477 346.134 454.143 344.797 454.977 343.861C455.811 342.925 457.479 342.658 458.646 343.326Z" fill="#F4DEFA"/>
</g>
<g opacity="0.9716">
<path d="M378.893 345.096C379.727 345.497 379.894 346.433 379.394 347.235C378.893 347.903 377.726 348.037 376.725 347.636C375.891 347.235 375.724 346.299 376.225 345.497C376.892 344.829 378.059 344.695 378.893 345.096Z" fill="#F4DEFA"/>
</g>
<g opacity="0.8655">
<path d="M518.478 371.585C519.312 371.986 519.478 372.788 518.978 373.456C518.478 374.125 517.477 374.258 516.643 373.857C515.809 373.456 515.642 372.654 516.143 371.986C516.643 371.317 517.644 371.184 518.478 371.585Z" fill="#F4DEFA"/>
</g>
<g opacity="0.6978">
<path d="M642.562 438.022C643.73 438.691 644.063 440.028 643.229 440.963C642.395 441.899 640.727 442.166 639.56 441.498C638.393 440.83 638.059 439.493 638.893 438.557C639.727 437.621 641.395 437.354 642.562 438.022Z" fill="#F4DEFA"/>
</g>
<path d="M714.279 467.031C715.113 467.565 715.447 468.501 714.78 469.17C714.112 469.838 712.945 470.105 712.111 469.571C711.277 469.036 710.944 468.1 711.611 467.432C712.278 466.63 713.445 466.496 714.279 467.031Z" fill="#F4DEFA"/>
<g opacity="0.4183">
<path d="M544.83 436.953C545.997 437.621 546.331 438.824 545.497 439.76C544.663 440.696 543.162 440.963 541.995 440.295C540.827 439.626 540.494 438.423 541.327 437.488C542.161 436.552 543.662 436.418 544.83 436.953Z" fill="#F4DEFA"/>
</g>
<g opacity="0.3442">
<path d="M445.595 428.397C446.763 429.066 447.096 430.403 446.262 431.472C445.428 432.408 443.761 432.675 442.426 432.007C441.259 431.338 440.925 430.002 441.759 428.932C442.76 427.996 444.428 427.729 445.595 428.397Z" fill="#F4DEFA"/>
</g>
<g opacity="0.107">
<path d="M418.075 443.236C419.243 443.77 419.41 445.107 418.743 445.909C418.075 446.711 416.408 446.979 415.407 446.444C414.239 445.909 414.073 444.572 414.74 443.77C415.407 442.835 416.908 442.701 418.075 443.236Z" fill="#F4DEFA"/>
</g>
<g opacity="0.8454">
<path d="M470.78 254.082C471.447 254.483 471.613 255.151 471.113 255.686C470.613 256.221 469.779 256.354 469.112 255.953C468.445 255.552 468.278 254.884 468.778 254.349C469.279 253.815 470.112 253.815 470.78 254.082Z" fill="#F4DEFA"/>
</g>
<g opacity="0.8801">
<path d="M497.298 159.171C497.631 159.304 497.798 159.705 497.465 159.972C497.298 160.239 496.797 160.373 496.464 160.106C496.13 159.972 495.963 159.571 496.297 159.304C496.464 159.037 496.797 159.037 497.298 159.171Z" fill="#F4DEFA"/>
</g>
<g opacity="0.2181">
<path d="M343.192 165.988C344.025 166.389 344.192 167.191 343.692 167.859C343.192 168.528 342.191 168.661 341.357 168.26C340.523 167.859 340.356 167.057 340.857 166.389C341.357 165.72 342.524 165.587 343.192 165.988Z" fill="#F4DEFA"/>
</g>
<g opacity="0.995">
<path d="M247.293 193.659C247.96 194.06 248.127 194.863 247.793 195.397C247.293 195.932 246.292 196.066 245.625 195.798C244.958 195.397 244.791 194.595 245.125 194.06C245.625 193.392 246.626 193.258 247.293 193.659Z" fill="#F4DEFA"/>
</g>
<path d="M287.321 322.124C287.988 322.525 288.155 323.327 287.822 323.862C287.321 324.397 286.321 324.53 285.653 324.263C284.986 323.862 284.82 323.06 285.153 322.525C285.653 321.991 286.654 321.723 287.321 322.124Z" fill="#F4DEFA"/>
<g opacity="0.8077">
<path d="M373.212 227.346C374.379 228.015 374.713 229.218 373.879 230.154C373.045 231.089 371.544 231.357 370.376 230.688C369.209 230.02 368.875 228.817 369.709 227.881C370.543 226.945 372.044 226.678 373.212 227.346Z" fill="#F4DEFA"/>
</g>
<g opacity="0.5958">
<path d="M236.451 167.058C237.118 167.459 237.285 168.261 236.951 168.795C236.451 169.33 235.45 169.464 234.783 169.196C234.116 168.795 233.949 167.993 234.283 167.459C234.617 166.924 235.617 166.79 236.451 167.058Z" fill="#F4DEFA"/>
</g>
<g opacity="0.1713">
<path d="M340.356 143.53C341.024 143.932 341.19 144.734 340.857 145.268C340.356 145.803 339.356 145.937 338.689 145.669C338.021 145.268 337.855 144.466 338.188 143.932C338.522 143.397 339.689 143.129 340.356 143.53Z" fill="#F4DEFA"/>
</g>
<g opacity="0.3056">
<path d="M359.203 182.965C360.037 183.5 360.371 184.436 359.703 185.104C359.036 185.773 357.869 186.04 357.035 185.505C356.201 184.971 355.867 184.035 356.535 183.366C357.035 182.698 358.202 182.564 359.203 182.965Z" fill="#F4DEFA"/>
</g>
<g opacity="0.7292">
<path d="M421.913 193.392C423.08 194.06 423.414 195.264 422.58 196.199C421.746 197.135 420.245 197.402 419.078 196.734C417.91 196.066 417.577 194.862 418.41 193.927C419.078 192.991 420.745 192.724 421.913 193.392Z" fill="#F4DEFA"/>
</g>
<g opacity="0.2636">
<path d="M319.009 156.096C319.676 156.497 319.843 157.299 319.509 157.834C319.009 158.369 318.008 158.502 317.341 158.235C316.674 157.834 316.507 157.032 316.841 156.497C317.174 155.829 318.175 155.695 319.009 156.096Z" fill="#F4DEFA"/>
</g>
<path d="M373.046 66.1307C373.713 66.5318 373.88 67.3338 373.546 67.8686C373.046 68.4033 372.045 68.5369 371.378 68.2696C370.711 67.8686 370.544 67.0665 370.878 66.5318C371.378 65.9971 372.379 65.8634 373.046 66.1307Z" fill="#F4DEFA"/>
<path d="M420.078 62.5219C420.745 62.923 420.912 63.725 420.578 64.2598C420.078 64.7945 419.077 64.9281 418.41 64.6608C417.743 64.2598 417.576 63.4577 417.91 62.923C418.41 62.3883 419.411 62.1209 420.078 62.5219Z" fill="#F4DEFA"/>
<path d="M439.759 78.9643C440.426 79.3654 440.593 80.1675 440.259 80.7022C439.759 81.2369 438.758 81.3705 438.091 81.1032C437.424 80.7022 437.257 79.9001 437.591 79.3654C438.091 78.697 439.092 78.5633 439.759 78.9643Z" fill="#F4DEFA"/>
<path d="M464.941 63.9922C465.609 64.3932 465.775 65.1953 465.442 65.73C464.941 66.2647 463.941 66.3984 463.274 66.131C462.606 65.73 462.44 64.9279 462.773 64.3932C463.274 63.7248 464.274 63.5911 464.941 63.9922Z" fill="#F4DEFA"/>
<path d="M348.862 2.23318C349.529 2.63421 349.696 3.43628 349.362 3.97099C348.695 4.5057 347.861 4.63938 347.027 4.23834C346.36 3.83731 346.194 3.03524 346.527 2.50053C347.194 1.96582 348.195 1.83215 348.862 2.23318Z" fill="#F4DEFA"/>
<path d="M333.518 17.2051C334.185 17.6061 334.351 18.4082 334.018 18.9429C333.518 19.4776 332.517 19.6113 331.85 19.3439C331.183 18.9429 331.016 18.1408 331.349 17.6061C331.85 16.9377 332.85 16.804 333.518 17.2051Z" fill="#F4DEFA"/>
<path d="M217.44 31.375C218.108 31.776 218.274 32.5781 217.941 33.1128C217.44 33.6475 216.44 33.7812 215.773 33.5138C215.105 33.1128 214.939 32.3107 215.272 31.776C215.773 31.2413 216.773 30.9739 217.44 31.375Z" fill="#F4DEFA"/>
<path d="M69.5049 18.6753C70.172 19.0763 70.3388 19.8784 70.0052 20.4131C69.5049 20.9478 68.5042 21.0815 67.837 20.8141C67.1699 20.4131 67.0031 19.611 67.3367 19.0763C67.837 18.4079 68.8377 18.2743 69.5049 18.6753Z" fill="#F4DEFA"/>
<path d="M120.706 22.1511C121.373 22.5521 121.54 23.3542 121.206 23.8889C120.706 24.4236 119.705 24.5573 119.038 24.2899C118.371 23.8889 118.204 23.0868 118.538 22.5521C119.038 22.0174 120.039 21.7501 120.706 22.1511Z" fill="#F4DEFA"/>
<path d="M61 63.5913C61.6671 63.9923 61.8339 64.7944 61.5003 65.3291C61 65.8638 59.9993 65.9975 59.3322 65.7301C58.665 65.3291 58.4983 64.527 58.8318 63.9923C59.3322 63.324 60.3328 63.1903 61 63.5913Z" fill="#F4DEFA"/>
<path d="M14.9668 57.3085C15.6339 57.7095 15.8007 58.5116 15.4671 59.0463C14.9668 59.581 13.9661 59.7147 13.299 59.4473C12.6318 59.0463 12.4651 58.2442 12.7986 57.7095C13.299 57.1748 14.2996 57.0411 14.9668 57.3085Z" fill="#F4DEFA"/>
<path d="M44.4873 115.057C45.1544 115.458 45.3212 116.26 44.9876 116.795C44.4873 117.33 43.4866 117.463 42.8195 117.196C42.1523 116.795 41.9856 115.993 42.3191 115.458C42.8195 114.79 43.8202 114.656 44.4873 115.057Z" fill="#F4DEFA"/>
<path d="M27.6425 118.667C28.3097 119.068 28.4765 119.87 28.1429 120.404C27.6425 120.939 26.6419 121.073 25.9747 120.805C25.3076 120.404 25.1408 119.602 25.4744 119.068C25.9747 118.399 26.9754 118.265 27.6425 118.667Z" fill="#F4DEFA"/>
<path d="M73.5068 36.8555C74.1739 37.2565 74.3407 38.0586 74.0071 38.5933C73.5068 39.128 72.5061 39.2617 71.839 38.9943C71.1719 38.5933 71.0051 37.7912 71.3387 37.2565C71.839 36.5881 72.8397 36.4544 73.5068 36.8555Z" fill="#F4DEFA"/>
<path d="M9.29684 92.5993C9.96397 93.0004 10.1307 93.8024 9.79719 94.3371C9.29684 94.8719 8.29616 95.0055 7.62904 94.7382C6.96191 94.3371 6.79513 93.5351 7.12869 93.0004C7.62904 92.4657 8.46294 92.1983 9.29684 92.5993Z" fill="#F4DEFA"/>
<path d="M105.696 207.027C106.363 207.428 106.53 208.23 106.197 208.765C105.696 209.3 104.696 209.433 104.028 209.166C103.361 208.765 103.195 207.963 103.528 207.428C104.028 206.894 105.029 206.76 105.696 207.027Z" fill="#F4DEFA"/>
<path d="M58.497 296.992C59.1642 297.393 59.3309 298.195 58.9974 298.73C58.497 299.265 57.4964 299.398 56.8292 299.131C56.1621 298.73 55.9953 297.928 56.3289 297.393C56.8292 296.725 57.8299 296.591 58.497 296.992Z" fill="#F4DEFA"/>
<path d="M96.1894 389.364C96.8565 389.765 97.0233 390.567 96.6898 391.101C96.1894 391.636 95.1887 391.77 94.5216 391.502C93.8545 391.101 93.6877 390.299 94.0213 389.765C94.5216 389.096 95.5223 388.962 96.1894 389.364Z" fill="#F4DEFA"/>
<path d="M155.396 422.249C156.064 422.65 156.23 423.452 155.897 423.986C155.396 424.521 154.396 424.655 153.729 424.387C153.062 423.986 152.895 423.184 153.228 422.65C153.562 421.981 154.563 421.847 155.396 422.249Z" fill="#F4DEFA"/>
<g opacity="0.7855">
<path d="M11.2978 454.999C11.9649 455.4 12.1317 456.202 11.7982 456.737C11.2978 457.272 10.2971 457.405 9.63001 457.138C8.96289 456.737 8.79611 455.935 9.12967 455.4C9.63001 454.732 10.6307 454.598 11.2978 454.999Z" fill="#F4DEFA"/>
</g>
<g opacity="0.6587">
<path d="M48.4912 434.279C49.1583 434.68 49.3251 435.482 48.9915 436.017C48.4912 436.552 47.4905 436.685 46.8234 436.418C46.1562 436.017 45.9895 435.215 46.323 434.68C46.8234 434.012 47.8241 433.878 48.4912 434.279Z" fill="#F4DEFA"/>
</g>
<path d="M80.5117 392.438C81.1788 392.839 81.3456 393.641 81.012 394.176C80.5117 394.71 79.511 394.844 78.8439 394.577C78.1768 394.176 78.01 393.374 78.3435 392.839C78.8439 392.171 79.8446 392.037 80.5117 392.438Z" fill="#F4DEFA"/>
<path d="M78.8447 400.593C79.5118 400.994 79.6786 401.796 79.345 402.33C78.8447 402.865 77.844 402.999 77.1769 402.731C76.5098 402.33 76.343 401.528 76.6765 400.994C77.0101 400.325 78.0108 400.191 78.8447 400.593Z" fill="#F4DEFA"/>
<g opacity="0.426">
<path d="M34.6474 464.089C35.3146 464.49 35.4813 465.292 35.1478 465.827C34.6474 466.362 33.6467 466.495 32.9796 466.228C32.3125 465.827 32.1457 465.025 32.4793 464.49C32.9796 463.956 33.9803 463.688 34.6474 464.089Z" fill="#F4DEFA"/>
</g>
<g opacity="0.1658">
<path d="M75.8427 488.151C76.5099 488.552 76.6766 489.354 76.3431 489.889C75.8427 490.424 74.8421 490.558 74.1749 490.29C73.5078 489.889 73.341 489.087 73.6746 488.552C74.1749 487.884 75.1756 487.75 75.8427 488.151Z" fill="#F4DEFA"/>
</g>
<g opacity="0.1779">
<path d="M54.4951 483.071C55.1622 483.472 55.329 484.274 54.9954 484.809C54.4951 485.344 53.4944 485.477 52.8273 485.21C52.1602 484.809 51.9934 484.007 52.3269 483.472C52.8273 482.804 53.828 482.67 54.4951 483.071Z" fill="#F4DEFA"/>
</g>
<g opacity="0.3975">
<path d="M103.861 463.02C104.528 463.421 104.695 464.223 104.362 464.758C103.861 465.293 102.861 465.426 102.193 465.159C101.526 464.758 101.36 463.956 101.693 463.421C102.193 462.753 103.194 462.619 103.861 463.02Z" fill="#F4DEFA"/>
</g>
<g opacity="0.1677">
<path d="M67.3359 485.612C68.003 486.013 68.1698 486.815 67.8362 487.349C67.3359 487.884 66.3352 488.018 65.6681 487.75C65.001 487.349 64.8342 486.547 65.1678 486.013C65.6681 485.478 66.502 485.211 67.3359 485.612Z" fill="#F4DEFA"/>
</g>
<g opacity="0.1133">
<path d="M76.5088 503.791C77.1759 504.192 77.3427 504.995 77.0091 505.529C76.5088 506.064 75.5081 506.198 74.841 505.93C74.1738 505.529 74.007 504.727 74.3406 504.192C74.841 503.658 75.6749 503.524 76.5088 503.791Z" fill="#F4DEFA"/>
</g>
<g opacity="0.3335">
<path d="M70.3388 453.128C71.006 453.529 71.1727 454.331 70.8392 454.866C70.3388 455.4 69.3382 455.534 68.671 455.267C68.0039 454.866 67.8371 454.064 68.1707 453.529C68.671 452.861 69.5049 452.727 70.3388 453.128Z" fill="#F4DEFA"/>
</g>
<g opacity="0.4937">
<path d="M72.5068 439.76C73.1739 440.161 73.3407 440.963 73.0071 441.498C72.5068 442.033 71.5061 442.166 70.839 441.899C70.1719 441.498 70.0051 440.696 70.3387 440.161C70.839 439.626 71.8397 439.493 72.5068 439.76Z" fill="#F4DEFA"/>
</g>
<g opacity="0.7598">
<path d="M147.058 642.014C147.725 642.415 147.891 643.217 147.558 643.752C147.058 644.287 146.057 644.42 145.39 644.153C144.723 643.752 144.556 642.95 144.889 642.415C145.223 641.747 146.224 641.613 147.058 642.014Z" fill="#F4DEFA"/>
</g>
<path d="M11.4648 678.642C12.1319 679.043 12.2987 679.845 11.9652 680.38C11.4648 680.915 10.4641 681.048 9.79701 680.781C9.12988 680.38 8.9631 679.578 9.29666 679.043C9.79701 678.375 10.7977 678.241 11.4648 678.642Z" fill="#F4DEFA"/>
<g opacity="0.7634">
<path d="M93.6884 694.55C94.3556 694.951 94.5224 695.753 94.1888 696.288C93.6884 696.822 92.6878 696.956 92.0206 696.689C91.3535 696.288 91.1867 695.486 91.5203 694.951C92.0206 694.282 93.0213 694.149 93.6884 694.55Z" fill="#F4DEFA"/>
</g>
<g opacity="0.6922">
<path d="M144.223 686.662C144.89 687.063 145.057 687.865 144.723 688.4C144.223 688.935 143.222 689.068 142.555 688.801C141.888 688.4 141.721 687.598 142.054 687.063C142.555 686.395 143.389 686.261 144.223 686.662Z" fill="#F4DEFA"/>
</g>
<path d="M306 667.814C306.667 668.215 306.834 669.017 306.5 669.552C306 670.086 304.999 670.22 304.332 669.953C303.665 669.552 303.498 668.749 303.832 668.215C304.332 667.546 305.333 667.413 306 667.814Z" fill="#F4DEFA"/>
<path d="M323.679 709.655C324.346 710.056 324.513 710.858 324.179 711.393C323.679 711.928 322.678 712.061 322.011 711.794C321.344 711.526 321.177 710.591 321.511 710.056C322.011 709.388 323.012 709.254 323.679 709.655Z" fill="#F4DEFA"/>
<path d="M607.206 659.526C607.539 659.66 607.539 660.061 607.372 660.195C607.206 660.462 606.705 660.462 606.539 660.328C606.372 660.195 606.205 659.794 606.372 659.66C606.539 659.393 606.872 659.393 607.206 659.526Z" fill="#F4DEFA"/>
<path d="M650.735 608.996C651.402 609.397 651.569 610.199 651.236 610.734C650.735 611.269 649.735 611.402 649.068 611.135C648.4 610.734 648.234 609.932 648.567 609.397C649.068 608.729 650.068 608.595 650.735 608.996Z" fill="#F4DEFA"/>
<path d="M557.672 636.934C558.339 637.335 558.506 638.137 558.172 638.672C557.672 639.207 556.671 639.341 556.004 639.073C555.337 638.672 555.17 637.87 555.504 637.335C555.837 636.801 556.838 636.533 557.672 636.934Z" fill="#F4DEFA"/>
<path d="M478.784 651.639C479.451 652.04 479.618 652.842 479.284 653.377C478.784 653.912 477.783 654.045 477.116 653.778C476.449 653.377 476.282 652.575 476.616 652.04C477.116 651.372 478.117 651.238 478.784 651.639Z" fill="#F4DEFA"/>
<path d="M552.5 710.189C553.167 710.59 553.334 711.393 553 711.927C552.5 712.462 551.499 712.596 550.832 712.328C550.165 711.927 549.998 711.125 550.332 710.59C550.832 709.922 551.833 709.788 552.5 710.189Z" fill="#F4DEFA"/>
<path d="M588.692 659.125C589.192 659.392 589.359 659.927 589.026 660.328C588.692 660.729 588.025 660.863 587.525 660.595C587.024 660.328 586.858 659.793 587.191 659.392C587.525 658.991 588.192 658.857 588.692 659.125Z" fill="#F4DEFA"/>
<path d="M637.058 646.56C637.558 646.827 637.725 647.495 637.392 647.896C637.058 648.297 636.224 648.431 635.724 648.164C635.224 647.896 635.057 647.228 635.39 646.827C635.724 646.426 636.391 646.292 637.058 646.56Z" fill="#F4DEFA"/>
<path d="M574.518 686.529C575.185 686.93 575.351 687.732 575.018 688.267C574.518 688.801 573.517 688.935 572.85 688.668C572.183 688.267 572.016 687.465 572.349 686.93C572.85 686.261 573.85 686.128 574.518 686.529Z" fill="#F4DEFA"/>
<path d="M579.02 704.843C579.687 705.244 579.853 706.046 579.52 706.581C579.02 707.115 578.019 707.249 577.352 706.982C576.685 706.581 576.518 705.779 576.851 705.244C577.185 704.575 578.186 704.442 579.02 704.843Z" fill="#F4DEFA"/>
<path d="M631.555 692.678C632.222 692.945 632.389 693.614 631.889 694.148C631.555 694.683 630.721 694.817 630.054 694.416C629.387 694.148 629.22 693.48 629.721 692.945C630.054 692.411 630.888 692.411 631.555 692.678Z" fill="#F4DEFA"/>
<path d="M692.598 682.518C693.099 682.785 693.265 683.454 692.932 683.855C692.598 684.256 691.764 684.389 691.264 684.122C690.764 683.855 690.597 683.186 690.93 682.785C691.264 682.384 691.931 682.251 692.598 682.518Z" fill="#F4DEFA"/>
<path d="M637.226 737.728C637.893 738.129 638.059 738.931 637.726 739.466C637.226 740 636.225 740.134 635.558 739.867C634.891 739.466 634.724 738.664 635.057 738.129C635.391 737.46 636.392 737.327 637.226 737.728Z" fill="#F4DEFA"/>
<path d="M659.741 730.108C660.408 730.509 660.575 731.311 660.241 731.846C659.741 732.38 658.74 732.514 658.073 732.247C657.406 731.846 657.239 731.044 657.573 730.509C658.073 729.841 659.074 729.707 659.741 730.108Z" fill="#F4DEFA"/>
<path d="M711.778 724.36C712.445 724.761 712.612 725.563 712.279 726.098C711.778 726.632 710.778 726.766 710.111 726.499C709.443 726.098 709.277 725.296 709.61 724.761C709.944 724.092 710.944 723.959 711.778 724.36Z" fill="#F4DEFA"/>
<g opacity="0.9881">
<path d="M1213.45 665.675C1214.12 666.076 1214.29 666.878 1213.95 667.413C1213.45 667.947 1212.45 668.081 1211.79 667.814C1211.12 667.413 1210.95 666.611 1211.28 666.076C1211.79 665.407 1212.79 665.274 1213.45 665.675Z" fill="#F4DEFA"/>
</g>
<g opacity="0.9698">
<path d="M1054.18 573.036C1054.85 573.437 1055.01 574.239 1054.68 574.774C1054.18 575.309 1053.18 575.443 1052.51 575.175C1051.84 574.774 1051.68 573.972 1052.01 573.437C1052.51 572.769 1053.51 572.635 1054.18 573.036Z" fill="#F4DEFA"/>
</g>
<path d="M1126.73 601.376C1127.4 601.777 1127.56 602.58 1127.23 603.114C1126.73 603.649 1125.73 603.783 1125.06 603.515C1124.39 603.114 1124.23 602.312 1124.56 601.778C1125.06 601.109 1125.89 600.975 1126.73 601.376Z" fill="#F4DEFA"/>
<path d="M1119.72 637.202C1120.39 637.603 1120.56 638.405 1120.22 638.94C1119.72 639.474 1118.72 639.608 1118.06 639.341C1117.39 638.94 1117.22 638.138 1117.56 637.603C1118.06 636.935 1119.06 636.801 1119.72 637.202Z" fill="#F4DEFA"/>
<g opacity="0.3407">
<path d="M1093.54 669.017C1094.21 669.418 1094.37 670.22 1094.04 670.754C1093.54 671.289 1092.54 671.423 1091.87 671.155C1091.2 670.754 1091.04 669.952 1091.37 669.418C1091.87 668.749 1092.7 668.616 1093.54 669.017Z" fill="#F4DEFA"/>
</g>
<g opacity="0.1215">
<path d="M1105.71 687.464C1106.38 687.865 1106.55 688.667 1106.21 689.202C1105.71 689.737 1104.71 689.871 1104.05 689.603C1103.38 689.202 1103.21 688.4 1103.55 687.865C1104.05 687.197 1105.05 687.063 1105.71 687.464Z" fill="#F4DEFA"/>
</g>
<g opacity="0.4028">
<path d="M1069.02 671.022C1069.69 671.423 1069.86 672.225 1069.52 672.76C1069.02 673.294 1068.02 673.428 1067.35 673.161C1066.69 672.76 1066.52 671.958 1066.85 671.423C1067.35 670.888 1068.19 670.621 1069.02 671.022Z" fill="#F4DEFA"/>
</g>
<g opacity="0.7828">
<path d="M1134.07 652.173C1134.73 652.574 1134.9 653.376 1134.57 653.911C1134.07 654.446 1133.06 654.58 1132.4 654.312C1131.73 653.911 1131.56 653.109 1131.9 652.574C1132.4 651.906 1133.4 651.772 1134.07 652.173Z" fill="#F4DEFA"/>
</g>
<g opacity="0.6629">
<path d="M1150.58 661.798C1151.24 662.199 1151.41 663.001 1151.08 663.536C1150.58 664.071 1149.58 664.205 1148.91 663.937C1148.24 663.536 1148.08 662.734 1148.41 662.199C1148.91 661.531 1149.91 661.397 1150.58 661.798Z" fill="#F4DEFA"/>
</g>
<g opacity="0.8131">
<path d="M1176.59 658.323C1177.26 658.724 1177.43 659.526 1177.1 660.061C1176.59 660.595 1175.59 660.729 1174.93 660.462C1174.26 660.061 1174.09 659.258 1174.43 658.724C1174.93 658.055 1175.93 657.922 1176.59 658.323Z" fill="#F4DEFA"/>
</g>
<g opacity="0.9946">
<path d="M1191.27 644.822C1191.94 645.223 1192.11 646.025 1191.77 646.56C1191.27 647.095 1190.27 647.228 1189.6 646.961C1188.94 646.56 1188.77 645.758 1189.1 645.223C1189.6 644.555 1190.61 644.421 1191.27 644.822Z" fill="#F4DEFA"/>
</g>
<path d="M1221.96 651.906C1222.63 652.307 1222.79 653.109 1222.46 653.644C1222.13 654.179 1220.96 654.312 1220.29 654.045C1219.62 653.644 1219.46 652.842 1219.79 652.307C1220.29 651.639 1221.29 651.505 1221.96 651.906Z" fill="#F4DEFA"/>
<path d="M1247.98 684.122C1248.65 684.523 1248.81 685.325 1248.48 685.86C1247.98 686.395 1246.98 686.528 1246.31 686.261C1245.64 685.86 1245.48 685.058 1245.81 684.523C1246.31 683.989 1247.31 683.721 1247.98 684.122Z" fill="#F4DEFA"/>
<g opacity="0.089722">
<path d="M1090.54 694.015C1091.2 694.416 1091.37 695.218 1091.04 695.753C1090.54 696.287 1089.54 696.421 1088.87 696.154C1088.2 695.753 1088.03 694.951 1088.37 694.416C1088.87 693.881 1089.87 693.614 1090.54 694.015Z" fill="#F4DEFA"/>
</g>
<path d="M968.784 650.168C969.451 650.569 969.618 651.372 969.284 651.906C968.784 652.441 967.783 652.575 967.116 652.307C966.449 651.906 966.282 651.104 966.616 650.57C967.116 649.901 967.95 649.767 968.784 650.168Z" fill="#F4DEFA"/>
<path d="M961.114 614.744C961.781 615.145 961.948 615.947 961.615 616.482C961.114 617.017 960.114 617.15 959.446 616.883C958.779 616.482 958.613 615.68 958.946 615.145C959.446 614.477 960.447 614.343 961.114 614.744Z" fill="#F4DEFA"/>
<path d="M945.771 648.698C946.439 649.099 946.605 649.901 946.272 650.436C945.771 650.971 944.771 651.104 944.104 650.837C943.437 650.436 943.27 649.634 943.603 649.099C944.104 648.565 945.104 648.297 945.771 648.698Z" fill="#F4DEFA"/>
<path d="M1238.97 349.661C1239.64 350.062 1239.8 350.864 1239.47 351.399C1238.97 351.934 1237.97 352.068 1237.3 351.8C1236.64 351.399 1236.47 350.597 1236.8 350.062C1237.3 349.394 1238.14 349.26 1238.97 349.661Z" fill="#F4DEFA"/>
<path d="M1279.33 278.01C1280 278.411 1280.17 279.213 1279.83 279.748C1279.33 280.283 1278.33 280.416 1277.67 280.149C1277 279.748 1276.83 278.946 1277.16 278.411C1277.67 277.743 1278.67 277.609 1279.33 278.01Z" fill="#F4DEFA"/>
<path d="M1185.94 209.434C1186.6 209.835 1186.77 210.503 1186.27 211.172C1185.77 211.706 1184.94 211.84 1184.1 211.439C1183.43 211.038 1183.27 210.37 1183.77 209.701C1184.27 209.167 1185.27 209.033 1185.94 209.434Z" fill="#F4DEFA"/>
<g opacity="0.881">
<path d="M1184.6 173.207C1184.94 173.34 1185.1 173.741 1184.77 174.008C1184.6 174.275 1184.1 174.409 1183.77 174.142C1183.43 174.008 1183.27 173.607 1183.6 173.34C1183.77 173.207 1184.27 173.073 1184.6 173.207Z" fill="#F4DEFA"/>
</g>
<g opacity="0.3999">
<path d="M1188.27 153.289C1188.94 153.69 1189.1 154.358 1188.6 154.893C1188.1 155.428 1187.27 155.562 1186.6 155.16C1185.93 154.759 1185.77 154.091 1186.27 153.556C1186.6 153.155 1187.6 153.022 1188.27 153.289Z" fill="#F4DEFA"/>
</g>
<path d="M1271.66 134.039C1272.33 134.44 1272.5 135.242 1272.16 135.777C1271.66 136.312 1270.66 136.445 1269.99 136.178C1269.33 135.777 1269.16 134.975 1269.49 134.44C1269.99 133.906 1270.99 133.638 1271.66 134.039Z" fill="#F4DEFA"/>
<g opacity="0.9949">
<path d="M1253.31 119.068C1253.98 119.469 1254.15 120.271 1253.81 120.806C1253.31 121.34 1252.31 121.474 1251.65 121.207C1250.98 120.806 1250.81 120.004 1251.15 119.469C1251.65 118.801 1252.65 118.667 1253.31 119.068Z" fill="#F4DEFA"/>
</g>
<g opacity="0.6899">
<path d="M1230.13 101.823C1230.8 102.224 1230.97 103.026 1230.63 103.561C1230.13 104.096 1229.13 104.229 1228.47 103.962C1227.8 103.561 1227.63 102.759 1227.97 102.224C1228.47 101.556 1229.47 101.422 1230.13 101.823Z" fill="#F4DEFA"/>
</g>
<g opacity="0.6101">
<path d="M1207.45 69.4731C1208.12 69.8742 1208.28 70.6762 1207.95 71.2109C1207.45 71.7456 1206.45 71.8793 1205.78 71.612C1205.11 71.2109 1204.95 70.4089 1205.28 69.8742C1205.78 69.3394 1206.61 69.0721 1207.45 69.4731Z" fill="#F4DEFA"/>
</g>
<g opacity="0.9324">
<path d="M1136.4 44.0742C1137.07 44.4752 1137.24 45.2773 1136.9 45.812C1136.4 46.3467 1135.4 46.4804 1134.73 46.213C1134.07 45.812 1133.9 45.0099 1134.23 44.4752C1134.57 43.9405 1135.73 43.6732 1136.4 44.0742Z" fill="#F4DEFA"/>
</g>
<g opacity="0.7558">
<path d="M1023.49 82.7068C1024.16 83.1078 1024.33 83.9099 1023.99 84.4446C1023.49 84.9793 1022.49 85.113 1021.82 84.8456C1021.16 84.4446 1020.99 83.6425 1021.32 83.1078C1021.82 82.5731 1022.82 82.3057 1023.49 82.7068Z" fill="#F4DEFA"/>
</g>
<path d="M1073.02 42.0684C1073.69 42.4694 1073.86 43.2715 1073.52 43.8062C1073.02 44.3409 1072.02 44.4746 1071.35 44.2072C1070.69 43.8062 1070.52 43.0041 1070.85 42.4694C1071.35 41.801 1072.36 41.6673 1073.02 42.0684Z" fill="#F4DEFA"/>
<g opacity="0.7067">
<path d="M1082.53 76.9587C1083.2 77.3598 1083.36 78.1618 1083.03 78.6965C1082.53 79.2313 1081.53 79.3649 1080.86 79.0976C1080.19 78.6965 1080.03 77.8945 1080.36 77.3598C1080.69 76.6914 1081.69 76.5577 1082.53 76.9587Z" fill="#F4DEFA"/>
</g>
<g opacity="0.5053">
<path d="M1055.35 95.6738C1056.01 96.0748 1056.18 96.8769 1055.85 97.4116C1055.35 97.9463 1054.35 98.08 1053.68 97.8126C1053.01 97.4116 1052.84 96.6095 1053.18 96.0748C1053.51 95.5401 1054.51 95.2728 1055.35 95.6738Z" fill="#F4DEFA"/>
</g>
<g opacity="0.1406">
<path d="M1123.89 104.764C1124.56 105.165 1124.73 105.967 1124.39 106.502C1123.89 107.037 1122.89 107.17 1122.22 106.903C1121.56 106.502 1121.39 105.7 1121.72 105.165C1122.22 104.497 1123.06 104.363 1123.89 104.764Z" fill="#F4DEFA"/>
</g>
<path d="M959.78 129.227C960.447 129.628 960.614 130.43 960.281 130.964C959.78 131.499 958.78 131.633 958.112 131.365C957.445 130.964 957.279 130.162 957.612 129.628C958.112 128.959 959.113 128.826 959.78 129.227Z" fill="#F4DEFA"/>
<path d="M666.246 348.726C666.913 349.127 667.08 349.795 666.58 350.33C666.08 350.864 665.246 350.998 664.579 350.597C663.911 350.196 663.745 349.528 664.245 348.993C664.745 348.592 665.579 348.458 666.246 348.726Z" fill="#F4DEFA"/>
<path d="M96.8629 305.758C98.364 306.56 98.6975 308.164 97.6968 309.501C96.6962 310.704 94.6948 310.971 93.027 310.169C91.526 309.367 91.1924 307.763 92.1931 306.426C93.3606 305.223 95.3619 304.956 96.8629 305.758Z" fill="#F4DEFA"/>
<g opacity="0.8346">
<path d="M17.8071 246.271C18.8078 246.806 19.1414 247.875 18.4742 248.678C17.8071 249.48 16.4729 249.747 15.4722 249.212C14.4715 248.678 14.138 247.608 14.8051 246.806C15.3054 246.004 16.8064 245.737 17.8071 246.271Z" fill="#F4DEFA"/>
</g>
<g opacity="0.8779">
<path d="M84.1867 239.453C85.1874 239.988 85.3542 241.058 84.6871 241.726C84.0199 242.528 82.6857 242.662 81.8518 242.127C80.8511 241.592 80.6843 240.523 81.3515 239.854C81.8518 239.186 83.1861 238.919 84.1867 239.453Z" fill="#F4DEFA"/>
</g>
<path d="M784.325 360.222C785.326 360.757 785.493 361.693 784.826 362.495C784.159 363.297 782.991 363.43 781.99 362.896C780.99 362.361 780.823 361.425 781.49 360.623C782.157 359.955 783.492 359.687 784.325 360.222Z" fill="#F4DEFA"/>
<path d="M105.652 597.894C106.485 598.295 106.652 599.097 106.152 599.765C105.652 600.433 104.651 600.567 103.817 600.166C102.983 599.765 102.816 598.963 103.317 598.295C103.984 597.626 104.984 597.493 105.652 597.894Z" fill="#F4DEFA"/>
<path d="M816.182 400.459C817.015 400.86 817.182 401.796 816.682 402.464C816.182 403.132 815.014 403.266 814.18 402.865C813.346 402.464 813.18 401.528 813.68 400.86C814.18 400.191 815.348 399.924 816.182 400.459Z" fill="#F4DEFA"/>
<path d="M897.237 347.255C897.904 347.656 898.071 348.458 897.738 348.993C897.237 349.528 896.237 349.661 895.57 349.394C894.902 348.993 894.736 348.191 895.069 347.656C895.569 347.121 896.57 346.854 897.237 347.255Z" fill="#F4DEFA"/>
<path d="M926.591 313.568C927.258 313.969 927.425 314.771 927.091 315.306C926.591 315.841 925.59 315.975 924.923 315.707C924.256 315.306 924.089 314.504 924.423 313.969C924.923 313.301 925.924 313.167 926.591 313.568Z" fill="#F4DEFA"/>
<path d="M872.553 230.153C873.22 230.554 873.387 231.357 873.053 231.891C872.553 232.426 871.552 232.56 870.885 232.292C870.218 231.891 870.051 231.089 870.385 230.554C870.885 230.02 871.886 229.886 872.553 230.153Z" fill="#F4DEFA"/>
<path d="M909.746 190.05C910.413 190.451 910.58 191.253 910.246 191.788C909.746 192.323 908.745 192.456 908.078 192.189C907.411 191.788 907.244 190.986 907.578 190.451C908.078 189.783 909.079 189.649 909.746 190.05Z" fill="#F4DEFA"/>
<g opacity="0.5379">
<path d="M989.134 242.318C989.801 242.719 989.968 243.521 989.634 244.056C989.134 244.59 988.133 244.724 987.466 244.457C986.799 244.056 986.632 243.254 986.966 242.719C987.299 242.051 988.3 241.917 989.134 242.318Z" fill="#F4DEFA"/>
</g>
<g opacity="0.7473">
<path d="M1046.67 374.927C1047.34 375.328 1047.51 376.13 1047.18 376.665C1046.67 377.199 1045.67 377.333 1045.01 377.066C1044.34 376.665 1044.17 375.862 1044.51 375.328C1045.01 374.793 1046.01 374.526 1046.67 374.927Z" fill="#F4DEFA"/>
</g>
<g opacity="0.4628">
<path d="M1036.66 466.228C1037.33 466.629 1037.5 467.431 1037.17 467.965C1036.66 468.5 1035.66 468.634 1035 468.366C1034.33 467.965 1034.16 467.163 1034.5 466.629C1035 465.96 1036 465.826 1036.66 466.228Z" fill="#F4DEFA"/>
</g>
<g opacity="0.201">
<path d="M1077.36 442.166C1078.03 442.568 1078.19 443.37 1077.86 443.904C1077.36 444.439 1076.36 444.573 1075.69 444.305C1075.03 443.904 1074.86 443.102 1075.19 442.568C1075.69 441.899 1076.53 441.765 1077.36 442.166Z" fill="#F4DEFA"/>
</g>
<g opacity="0.5161">
<path d="M1052.84 404.335C1053.51 404.736 1053.68 405.538 1053.35 406.073C1052.84 406.608 1051.84 406.741 1051.18 406.474C1050.51 406.073 1050.34 405.271 1050.68 404.736C1051.18 404.068 1052.18 403.934 1052.84 404.335Z" fill="#F4DEFA"/>
</g>
<g opacity="0.9764">
<path d="M982.797 419.976C983.464 420.377 983.631 421.179 983.297 421.714C982.797 422.249 981.796 422.382 981.129 422.115C980.462 421.848 980.295 420.912 980.629 420.377C981.129 419.709 982.13 419.575 982.797 419.976Z" fill="#F4DEFA"/>
</g>
<path d="M991.636 458.742C992.303 459.143 992.47 459.945 992.136 460.48C991.636 461.015 990.635 461.148 989.968 460.881C989.301 460.48 989.134 459.678 989.468 459.143C989.968 458.475 990.969 458.341 991.636 458.742Z" fill="#F4DEFA"/>
<g opacity="0.2926">
<path d="M1051.51 471.709C1052.18 472.11 1052.34 472.912 1052.01 473.447C1051.68 473.982 1050.51 474.115 1049.84 473.848C1049.18 473.447 1049.01 472.645 1049.34 472.11C1049.84 471.442 1050.84 471.308 1051.51 471.709Z" fill="#F4DEFA"/>
</g>
<g opacity="0.8331">
<path d="M1003.98 446.979C1004.64 447.38 1004.81 448.182 1004.48 448.716C1003.98 449.251 1002.98 449.385 1002.31 449.117C1001.64 448.716 1001.48 447.914 1001.81 447.38C1002.31 446.711 1003.31 446.577 1003.98 446.979Z" fill="#F4DEFA"/>
</g>
<g opacity="0.5947">
<path d="M1027.16 426.793C1027.83 427.194 1027.99 427.997 1027.66 428.531C1027.16 429.066 1026.16 429.2 1025.49 428.932C1024.82 428.531 1024.66 427.729 1024.99 427.195C1025.49 426.526 1026.32 426.392 1027.16 426.793Z" fill="#F4DEFA"/>
</g>
<g opacity="0.3619">
<path d="M1053.34 433.076C1054.01 433.477 1054.18 434.279 1053.84 434.814C1053.34 435.348 1052.34 435.482 1051.67 435.215C1051.01 434.814 1050.84 434.012 1051.17 433.477C1051.67 432.809 1052.68 432.675 1053.34 433.076Z" fill="#F4DEFA"/>
</g>
<g opacity="0.726">
<path d="M1015.49 471.843C1016.15 472.244 1016.32 473.046 1015.99 473.581C1015.49 474.115 1014.48 474.249 1013.82 473.982C1013.15 473.581 1012.98 472.779 1013.32 472.244C1013.82 471.575 1014.82 471.442 1015.49 471.843Z" fill="#F4DEFA"/>
</g>
<g opacity="0.175">
<path d="M933.261 531.463C933.928 531.864 934.095 532.666 933.761 533.201C933.261 533.736 932.26 533.869 931.593 533.602C930.926 533.201 930.759 532.399 931.093 531.864C931.593 531.329 932.594 531.062 933.261 531.463Z" fill="#F4DEFA"/>
</g>
<g opacity="0.7698">
<path d="M1009.15 538.548C1009.81 538.949 1009.98 539.751 1009.65 540.286C1009.15 540.82 1008.15 540.954 1007.48 540.687C1006.81 540.286 1006.65 539.484 1006.98 538.949C1007.48 538.281 1008.48 538.147 1009.15 538.548Z" fill="#F4DEFA"/>
</g>
<g opacity="0.9234">
<path d="M1130.73 523.443C1131.4 523.844 1131.56 524.646 1131.23 525.18C1130.73 525.715 1129.73 525.849 1129.06 525.581C1128.39 525.18 1128.23 524.378 1128.56 523.844C1129.06 523.309 1130.06 523.042 1130.73 523.443Z" fill="#F4DEFA"/>
</g>
<path d="M1163.09 523.71C1163.75 524.111 1163.92 524.913 1163.59 525.448C1163.09 525.982 1162.09 526.116 1161.42 525.849C1160.75 525.448 1160.59 524.645 1160.92 524.111C1161.42 523.576 1162.42 523.309 1163.09 523.71Z" fill="#F4DEFA"/>
<g opacity="0.6533">
<path d="M1180.89 450.448C1181.55 450.849 1181.72 451.651 1181.39 452.186C1180.89 452.72 1179.89 452.854 1179.22 452.587C1178.55 452.186 1178.39 451.384 1178.72 450.849C1179.22 450.18 1180.22 450.047 1180.89 450.448Z" fill="#F4DEFA"/>
</g>
<path d="M1176.09 507.133C1176.76 507.534 1176.93 508.336 1176.59 508.871C1176.09 509.406 1175.09 509.539 1174.43 509.272C1173.76 508.871 1173.59 508.069 1173.93 507.534C1174.43 506.866 1175.43 506.732 1176.09 507.133Z" fill="#F4DEFA"/>
<g opacity="0.7182">
<path d="M1022.99 541.89C1023.66 542.291 1023.82 543.093 1023.49 543.627C1022.99 544.162 1021.99 544.296 1021.32 544.028C1020.65 543.627 1020.49 542.825 1020.82 542.291C1021.32 541.622 1022.16 541.489 1022.99 541.89Z" fill="#F4DEFA"/>
</g>
<g opacity="0.9913">
<path d="M524.315 538.414C524.983 538.815 525.149 539.617 524.816 540.152C524.315 540.687 523.315 540.82 522.648 540.553C521.98 540.152 521.814 539.35 522.147 538.815C522.648 538.147 523.648 538.013 524.315 538.414Z" fill="#F4DEFA"/>
</g>
<g opacity="0.6311">
<path d="M357.369 538.013C358.036 538.414 358.203 539.216 357.869 539.751C357.369 540.285 356.368 540.419 355.701 540.152C355.034 539.751 354.867 538.949 355.201 538.414C355.701 537.746 356.702 537.612 357.369 538.013Z" fill="#F4DEFA"/>
</g>
<g opacity="0.1746">
<path d="M350.195 477.19C351.029 477.591 351.196 478.527 350.696 479.195C350.195 479.863 349.028 479.997 348.194 479.596C347.36 479.195 347.193 478.259 347.694 477.591C348.194 476.922 349.361 476.655 350.195 477.19Z" fill="#F4DEFA"/>
</g>
<g opacity="0.1311">
<path d="M365.874 446.845C366.875 447.379 367.042 448.315 366.375 449.117C365.707 449.919 364.54 450.053 363.539 449.518C362.539 448.984 362.372 448.048 363.039 447.246C363.706 446.444 364.874 446.31 365.874 446.845Z" fill="#F4DEFA"/>
</g>
<g opacity="0.9713">
<path d="M303.332 434.68C303.999 435.081 304.332 435.883 303.832 436.552C303.332 437.086 302.331 437.354 301.497 436.953C300.83 436.552 300.496 435.75 300.997 435.081C301.664 434.546 302.665 434.279 303.332 434.68Z" fill="#F4DEFA"/>
</g>
<path d="M296.493 372.386C297.16 372.788 297.327 373.59 296.993 374.124C296.66 374.659 295.492 374.793 294.825 374.525C294.158 374.124 293.991 373.322 294.325 372.787C294.825 372.119 295.659 371.985 296.493 372.386Z" fill="#F4DEFA"/>
<path d="M289.32 398.186C289.987 398.587 290.154 399.389 289.821 399.924C289.32 400.459 288.32 400.592 287.652 400.325C286.985 399.924 286.819 399.122 287.152 398.587C287.652 398.053 288.653 397.785 289.32 398.186Z" fill="#F4DEFA"/>
<g opacity="0.4118">
<path d="M467.277 296.859C468.778 297.661 469.112 299.265 468.111 300.334C467.111 301.538 465.109 301.805 463.775 301.003C462.274 300.201 461.94 298.597 462.941 297.527C463.942 296.324 465.943 296.057 467.277 296.859Z" fill="#F4DEFA"/>
</g>
<g opacity="0.8946">
<path d="M530.987 240.446C532.155 241.115 532.489 242.318 531.655 243.387C530.821 244.457 529.32 244.59 527.985 243.922C526.651 243.254 526.484 242.051 527.318 240.981C528.152 240.045 529.82 239.778 530.987 240.446Z" fill="#F4DEFA"/>
</g>
<g opacity="0.8718">
<path d="M345.163 255.353C346.83 256.289 347.331 258.16 346.163 259.631C344.996 260.967 342.661 261.368 340.826 260.433C338.992 259.497 338.658 257.626 339.826 256.155C340.993 254.818 343.328 254.417 345.163 255.353Z" fill="#F4DEFA"/>
</g>
<g opacity="0.7204">
<path d="M526.318 180.827C527.318 181.361 527.485 182.431 526.818 183.099C526.151 183.768 524.817 184.035 523.983 183.5C522.982 182.966 522.815 181.896 523.482 181.228C524.149 180.559 525.317 180.292 526.318 180.827Z" fill="#F4DEFA"/>
</g>
<path d="M609.874 144.466C610.541 144.867 610.708 145.669 610.374 146.204C609.874 146.738 608.873 146.872 608.206 146.605C607.539 146.204 607.372 145.402 607.706 144.867C608.206 144.332 609.207 144.199 609.874 144.466Z" fill="#F4DEFA"/>
<path d="M624.885 89.7921C625.218 89.9258 625.218 90.3268 625.052 90.4605C624.885 90.7278 624.384 90.7278 624.217 90.5942C623.883 90.4605 623.883 90.0595 624.05 89.9258C624.217 89.6585 624.718 89.6585 624.885 89.7921Z" fill="#F4DEFA"/>
<path d="M652.901 79.3655C653.568 79.6329 653.568 80.3012 653.235 80.836C652.901 81.3707 652.067 81.3707 651.4 81.1033C650.733 80.836 650.733 80.1676 651.067 79.6329C651.567 79.0981 652.401 78.9645 652.901 79.3655Z" fill="#F4DEFA"/>
<path d="M683.259 95.1389C683.926 95.5399 684.093 96.342 683.759 96.8767C683.259 97.4114 682.258 97.5451 681.591 97.2778C680.924 96.8767 680.757 96.0747 681.091 95.5399C681.591 94.8716 682.592 94.7379 683.259 95.1389Z" fill="#F4DEFA"/>
<g opacity="0.9604">
<path d="M694.431 97.5451C695.098 97.9462 695.265 98.7482 694.931 99.283C694.431 99.8177 693.43 99.9513 692.763 99.684C692.096 99.2829 691.929 98.4809 692.262 97.9462C692.596 97.4115 693.597 97.1441 694.431 97.5451Z" fill="#F4DEFA"/>
</g>
<g opacity="0.3769">
<path d="M749.134 110.645C749.801 111.047 749.968 111.849 749.634 112.383C749.134 112.918 748.133 113.052 747.466 112.784C746.799 112.383 746.632 111.581 746.966 111.047C747.466 110.512 748.467 110.244 749.134 110.645Z" fill="#F4DEFA"/>
</g>
<g opacity="0.3162">
<path d="M777.323 92.198C777.99 92.599 778.157 93.4011 777.824 93.9358C777.323 94.4705 776.323 94.6042 775.655 94.3368C774.988 93.9358 774.822 93.1337 775.155 92.599C775.655 91.9306 776.656 91.797 777.323 92.198Z" fill="#F4DEFA"/>
</g>
<path d="M696.933 51.4263C697.6 51.8273 697.767 52.6294 697.433 53.1641C696.933 53.6988 695.932 53.8325 695.265 53.5651C694.598 53.1641 694.431 52.362 694.764 51.8273C695.265 51.1589 696.099 51.0252 696.933 51.4263Z" fill="#F4DEFA"/>
<g opacity="0.6765">
<path d="M734.628 85.5146C735.295 85.9157 735.462 86.7177 735.128 87.2525C734.628 87.7872 733.627 87.9208 732.96 87.6535C732.293 87.2525 732.126 86.4504 732.46 85.9157C732.96 85.2473 733.961 85.1136 734.628 85.5146Z" fill="#F4DEFA"/>
</g>
<path d="M754.308 26.696C754.975 27.0971 755.141 27.8991 754.808 28.4338C754.474 28.9685 753.307 29.1022 752.64 28.8349C751.973 28.4338 751.806 27.6318 752.139 27.0971C752.64 26.5623 753.64 26.295 754.308 26.696Z" fill="#F4DEFA"/>
<path d="M704.104 25.4932C704.772 25.8942 704.938 26.6963 704.605 27.231C704.104 27.7657 703.104 27.8994 702.437 27.632C701.77 27.231 701.603 26.4289 701.936 25.8942C702.437 25.2258 703.271 25.0921 704.104 25.4932Z" fill="#F4DEFA"/>
<g opacity="0.94">
<path d="M745.134 46.2126C745.801 46.6137 745.968 47.4157 745.634 47.9505C745.134 48.4852 744.133 48.6188 743.466 48.3515C742.799 47.9505 742.632 47.1484 742.966 46.6137C743.466 45.9453 744.467 45.8116 745.134 46.2126Z" fill="#F4DEFA"/>
</g>
<g opacity="0.9911">
<path d="M801.839 49.5551C802.506 49.9562 802.673 50.7583 802.339 51.293C801.839 51.8277 800.838 51.9613 800.171 51.694C799.504 51.293 799.337 50.4909 799.671 49.9562C800.171 49.4215 801.172 49.1541 801.839 49.5551Z" fill="#F4DEFA"/>
</g>
<g opacity="0.482">
<path d="M796.502 76.0232C797.169 76.4242 797.336 77.2263 797.002 77.761C796.502 78.2957 795.501 78.4294 794.834 78.162C794.167 77.761 794 76.9589 794.334 76.4242C794.834 75.7558 795.835 75.6222 796.502 76.0232Z" fill="#F4DEFA"/>
</g>
<g opacity="0.5606">
<path d="M824.02 74.8203C824.688 75.2213 824.854 76.0234 824.521 76.5581C824.02 77.0928 823.02 77.2265 822.353 76.9591C821.686 76.5581 821.519 75.7561 821.852 75.2213C822.353 74.553 823.187 74.4193 824.02 74.8203Z" fill="#F4DEFA"/>
</g>
<path d="M705.94 192.724C706.608 193.125 706.774 193.927 706.441 194.461C705.94 194.996 704.94 195.13 704.273 194.862C703.605 194.461 703.439 193.659 703.772 193.125C704.273 192.59 705.273 192.323 705.94 192.724Z" fill="#F4DEFA"/>
<g opacity="0.9222">
<path d="M76.5145 262.58C77.6819 263.248 78.0155 264.451 77.1816 265.387C76.3477 266.323 74.8466 266.59 73.6792 265.922C72.5117 265.253 72.1782 264.05 73.0121 263.114C73.6792 262.179 75.347 261.911 76.5145 262.58Z" fill="#F4DEFA"/>
</g>
<g opacity="0.7022">
<path d="M418.646 254.344C420.147 255.146 420.48 256.75 419.48 257.819C418.479 259.022 416.477 259.29 415.143 258.488C413.642 257.686 413.309 256.082 414.309 255.012C415.143 253.809 417.145 253.542 418.646 254.344Z" fill="#F4DEFA"/>
</g>
<path d="M4.13243 315.249C5.29989 315.917 5.63344 317.254 4.79954 318.19C3.96564 319.126 2.29781 319.393 1.13034 318.725C-0.0371221 318.056 -0.370673 316.719 0.46323 315.784C1.29713 314.848 2.96496 314.581 4.13243 315.249Z" fill="#F4DEFA"/>
<path d="M741.464 244.725C742.131 245.126 742.298 245.928 741.964 246.462C741.464 246.997 740.463 247.131 739.796 246.863C739.129 246.462 738.962 245.66 739.296 245.126C739.796 244.457 740.797 244.324 741.464 244.725Z" fill="#F4DEFA"/>
<path d="M788.83 226.143C789.497 226.544 789.664 227.346 789.33 227.881C788.83 228.416 787.829 228.549 787.162 228.282C786.495 227.881 786.328 227.079 786.662 226.544C787.162 225.876 787.996 225.742 788.83 226.143Z" fill="#F4DEFA"/>
<path d="M143.227 237.181C144.06 237.582 144.227 238.518 143.727 239.187C143.226 239.855 142.059 239.989 141.225 239.588C140.391 239.187 140.224 238.251 140.725 237.582C141.225 236.914 142.393 236.647 143.227 237.181Z" fill="#F4DEFA"/>
<g opacity="0.9913">
<path d="M458.27 576.78C458.938 577.181 459.104 577.983 458.771 578.518C458.27 579.052 457.27 579.186 456.603 578.919C455.936 578.518 455.769 577.716 456.102 577.181C456.603 576.512 457.603 576.379 458.27 576.78Z" fill="#F4DEFA"/>
</g>
<g opacity="0.9913">
<path d="M464.942 566.219C465.609 566.62 465.776 567.288 465.275 567.823C464.775 568.358 463.941 568.491 463.274 568.09C462.607 567.689 462.44 567.021 462.94 566.486C463.441 566.085 464.275 565.951 464.942 566.219Z" fill="#F4DEFA"/>
</g>
<g opacity="0.9913">
<path d="M500.633 581.458C501.133 581.725 501.134 582.126 500.8 582.527C500.466 582.927 499.966 582.927 499.466 582.66C498.965 582.393 498.965 581.992 499.299 581.592C499.632 581.325 500.3 581.325 500.633 581.458Z" fill="#F4DEFA"/>
</g>
<g opacity="0.9913">
<path d="M517.811 583.063C518.311 583.33 518.478 583.998 518.145 584.399C517.811 584.8 516.977 584.934 516.477 584.667C515.976 584.399 515.81 583.731 516.143 583.33C516.477 582.929 517.144 582.795 517.811 583.063Z" fill="#F4DEFA"/>
</g>
<g opacity="0.9913">
<path d="M516.811 593.89C517.478 594.291 517.645 594.96 517.144 595.495C516.644 596.029 515.81 596.163 515.143 595.762C514.476 595.361 514.309 594.692 514.809 594.158C515.31 593.623 516.144 593.489 516.811 593.89Z" fill="#F4DEFA"/>
</g>
<g opacity="0.9913">
<path d="M505.969 560.872C506.47 561.139 506.637 561.674 506.303 562.075C505.969 562.476 505.302 562.61 504.802 562.342C504.302 562.075 504.135 561.54 504.468 561.139C504.802 560.738 505.469 560.605 505.969 560.872Z" fill="#F4DEFA"/>
</g>
<g opacity="0.9913">
<path d="M454.768 531.329C455.436 531.73 455.769 532.532 455.269 533.067C454.768 533.601 453.768 533.869 453.101 533.468C452.434 533.067 452.1 532.265 452.6 531.73C453.101 531.195 453.935 531.062 454.768 531.329Z" fill="#F4DEFA"/>
</g>
<g opacity="0.9913">
<path d="M450.766 518.229C451.434 518.63 451.767 519.432 451.267 519.967C450.766 520.501 449.766 520.769 449.099 520.368C448.432 519.967 448.098 519.164 448.598 518.63C449.099 518.095 450.099 517.828 450.766 518.229Z" fill="#F4DEFA"/>
</g>
<path d="M364.875 305.948C365.208 306.082 365.375 306.483 365.041 306.883C364.875 307.15 364.374 307.284 363.874 307.017C363.54 306.883 363.374 306.483 363.707 306.082C364.041 305.815 364.541 305.681 364.875 305.948Z" fill="#F4DEFA"/>
<path d="M366.542 310.494C366.876 310.627 366.876 311.028 366.709 311.162C366.542 311.429 366.041 311.429 365.874 311.296C365.54 311.162 365.54 310.761 365.707 310.627C365.874 310.494 366.208 310.36 366.542 310.494Z" fill="#F4DEFA"/>
<path d="M353.032 309.424C353.532 309.692 353.699 310.36 353.365 310.761C353.032 311.162 352.198 311.296 351.698 311.029C351.197 310.761 351.03 310.093 351.364 309.692C351.698 309.291 352.531 309.157 353.032 309.424Z" fill="#F4DEFA"/>
<path d="M355.366 314.638C355.866 314.905 356.033 315.44 355.7 315.841C355.366 316.242 354.699 316.375 354.199 316.108C353.698 315.841 353.531 315.306 353.865 314.905C354.365 314.504 355.032 314.37 355.366 314.638Z" fill="#F4DEFA"/>
<path d="M375.714 305.013C375.881 305.147 376.047 305.414 375.881 305.548C375.714 305.681 375.381 305.815 375.214 305.681C375.048 305.548 374.881 305.28 375.048 305.147C375.214 305.013 375.547 304.879 375.714 305.013Z" fill="#F4DEFA"/>
<path d="M386.555 309.157C386.721 309.291 386.721 309.425 386.721 309.559C386.555 309.693 386.388 309.693 386.221 309.693C386.055 309.559 386.055 309.425 386.055 309.291C386.221 309.023 386.388 309.023 386.555 309.157Z" fill="#F4DEFA"/>
<path d="M376.214 308.756C376.38 308.89 376.38 309.024 376.38 309.158C376.214 309.292 376.047 309.292 375.88 309.292C375.714 309.292 375.714 309.024 375.714 308.89C375.88 308.756 376.047 308.622 376.214 308.756Z" fill="#F4DEFA"/>
<g opacity="0.995">
<path d="M224.777 234.432C225.444 234.833 225.611 235.635 225.278 236.169C224.777 236.704 223.777 236.838 223.11 236.57C222.442 236.169 222.276 235.367 222.609 234.833C223.11 234.298 224.11 234.031 224.777 234.432Z" fill="#F4DEFA"/>
</g>
<g opacity="0.995">
<path d="M185.251 218.39C185.918 218.791 186.085 219.593 185.751 220.128C185.251 220.663 184.25 220.797 183.583 220.529C182.916 220.128 182.749 219.326 183.083 218.791C183.583 218.123 184.417 217.989 185.251 218.39Z" fill="#F4DEFA"/>
</g>
<g opacity="0.9952">
<path d="M165.236 211.171C165.903 211.572 166.07 212.374 165.737 212.909C165.236 213.443 164.236 213.577 163.568 213.31C162.901 212.909 162.735 212.107 163.068 211.572C163.568 210.904 164.569 210.77 165.236 211.171Z" fill="#F4DEFA"/>
</g>
<g opacity="0.9871">
<path d="M190.254 209.166C190.921 209.567 191.088 210.369 190.754 210.904C190.254 211.439 189.253 211.572 188.586 211.305C187.919 210.904 187.752 210.102 188.086 209.567C188.586 208.899 189.587 208.765 190.254 209.166Z" fill="#F4DEFA"/>
</g>
<g opacity="0.988">
<path d="M195.424 213.845C196.091 214.246 196.258 215.048 195.924 215.583C195.424 216.117 194.423 216.251 193.756 215.984C193.089 215.583 192.922 214.781 193.256 214.246C193.756 213.578 194.59 213.444 195.424 213.845Z" fill="#F4DEFA"/>
</g>
<g opacity="0.9614">
<path d="M178.245 187.644C178.912 188.045 179.079 188.847 178.745 189.382C178.245 189.917 177.244 190.05 176.577 189.783C175.91 189.382 175.743 188.58 176.077 188.045C176.577 187.377 177.578 187.243 178.245 187.644Z" fill="#F4DEFA"/>
</g>
<g opacity="0.1406">
<path d="M1112.38 156.497C1113.05 156.898 1113.22 157.7 1112.89 158.235C1112.38 158.77 1111.38 158.903 1110.72 158.636C1110.05 158.235 1109.88 157.433 1110.22 156.898C1110.72 156.23 1111.55 156.096 1112.38 156.497Z" fill="#F4DEFA"/>
</g>
<g opacity="0.163">
<path d="M1094.54 143.263C1095.21 143.664 1095.37 144.466 1095.04 145.001C1094.54 145.535 1093.54 145.669 1092.87 145.402C1092.21 145.001 1092.04 144.199 1092.37 143.664C1092.87 143.129 1093.87 142.862 1094.54 143.263Z" fill="#F4DEFA"/>
</g>
<g opacity="0.2667">
<path d="M1052.51 138.45C1053.18 138.851 1053.35 139.654 1053.01 140.188C1052.51 140.723 1051.51 140.857 1050.84 140.589C1050.18 140.188 1050.01 139.386 1050.34 138.851C1050.84 138.183 1051.84 138.049 1052.51 138.45Z" fill="#F4DEFA"/>
</g>
<g opacity="0.2275">
<path d="M1086.37 130.162C1087.03 130.563 1087.2 131.365 1086.87 131.9C1086.37 132.435 1085.37 132.569 1084.7 132.301C1084.03 131.9 1083.87 131.098 1084.2 130.563C1084.7 129.895 1085.7 129.761 1086.37 130.162Z" fill="#F4DEFA"/>
</g>
<g opacity="0.206">
<path d="M1113.72 125.217C1114.39 125.618 1114.55 126.42 1114.22 126.955C1113.72 127.489 1112.72 127.623 1112.05 127.356C1111.38 126.955 1111.22 126.153 1111.55 125.618C1111.89 124.949 1112.89 124.816 1113.72 125.217Z" fill="#F4DEFA"/>
</g>
<g opacity="0.1909">
<path d="M1088.2 170.533C1088.87 170.934 1089.03 171.736 1088.7 172.271C1088.2 172.805 1087.2 172.939 1086.53 172.672C1085.87 172.271 1085.7 171.469 1086.03 170.934C1086.53 170.266 1087.53 170.132 1088.2 170.533Z" fill="#F4DEFA"/>
</g>
<g opacity="0.1914">
<path d="M1075.69 178.554C1076.36 178.955 1076.53 179.757 1076.19 180.292C1075.69 180.826 1074.69 180.96 1074.02 180.693C1073.36 180.292 1073.19 179.489 1073.52 178.955C1073.86 178.286 1074.86 178.153 1075.69 178.554Z" fill="#F4DEFA"/>
</g>
<g opacity="0.8192">
<path d="M1178.76 184.971C1179.1 185.104 1179.1 185.372 1178.93 185.639C1178.76 185.906 1178.43 185.906 1178.1 185.773C1177.76 185.639 1177.76 185.372 1177.93 185.104C1178.1 184.971 1178.43 184.837 1178.76 184.971Z" fill="#F4DEFA"/>
</g>
<g opacity="0.7208">
<path d="M1207.95 158.235C1208.62 158.636 1208.78 159.304 1208.28 159.839C1207.78 160.374 1206.95 160.507 1206.28 160.106C1205.62 159.705 1205.45 159.037 1205.95 158.502C1206.45 157.967 1207.28 157.967 1207.95 158.235Z" fill="#F4DEFA"/>
</g>
<g opacity="0.8385">
<path d="M1215.12 191.12C1215.79 191.521 1215.95 192.189 1215.45 192.858C1214.95 193.392 1214.12 193.526 1213.28 193.125C1212.62 192.724 1212.45 192.056 1212.95 191.387C1213.45 190.853 1214.29 190.719 1215.12 191.12Z" fill="#F4DEFA"/>
</g>
<path d="M1159.92 315.172C1160.59 315.573 1160.75 316.375 1160.42 316.91C1159.92 317.445 1158.92 317.579 1158.25 317.311C1157.58 316.91 1157.42 316.108 1157.75 315.573C1158.25 314.905 1159.09 314.771 1159.92 315.172Z" fill="#F4DEFA"/>
<path d="M1163.75 334.422C1164.42 334.823 1164.59 335.625 1164.25 336.16C1163.92 336.694 1162.75 336.828 1162.09 336.561C1161.42 336.16 1161.25 335.358 1161.58 334.823C1161.92 334.155 1162.92 334.021 1163.75 334.422Z" fill="#F4DEFA"/>
<path d="M1190.44 367.574C1191.11 367.975 1191.27 368.777 1190.94 369.312C1190.44 369.846 1189.44 369.98 1188.77 369.713C1188.1 369.312 1187.94 368.509 1188.27 367.975C1188.77 367.306 1189.77 367.173 1190.44 367.574Z" fill="#F4DEFA"/>
<path d="M1176.59 395.646C1177.26 396.048 1177.43 396.85 1177.1 397.384C1176.59 397.919 1175.59 398.053 1174.93 397.785C1174.26 397.384 1174.09 396.582 1174.43 396.048C1174.93 395.379 1175.93 395.245 1176.59 395.646Z" fill="#F4DEFA"/>
<path d="M867.549 432.942C868.383 433.343 868.55 434.279 868.05 434.814C867.549 435.482 866.382 435.616 865.715 435.215C865.048 434.814 864.714 433.878 865.215 433.343C865.715 432.808 866.882 432.541 867.549 432.942Z" fill="#F4DEFA"/>
<path d="M863.048 459.411C863.882 459.812 864.049 460.747 863.548 461.282C863.048 461.817 861.881 462.084 861.213 461.683C860.38 461.282 860.213 460.346 860.713 459.812C861.213 459.143 862.214 459.01 863.048 459.411Z" fill="#F4DEFA"/>
<path d="M833.027 493.766C833.527 494.033 833.694 494.702 833.36 495.103C833.027 495.504 832.193 495.637 831.693 495.37C831.192 495.103 831.026 494.434 831.359 494.033C831.859 493.499 832.527 493.499 833.027 493.766Z" fill="#F4DEFA"/>
<path d="M836.362 507C836.696 507.267 836.862 507.667 836.529 507.935C836.195 508.202 835.695 508.335 835.361 508.068C835.028 507.801 834.861 507.4 835.195 507.133C835.361 506.866 836.028 506.866 836.362 507Z" fill="#F4DEFA"/>
<path d="M874.054 507.802C874.555 508.069 874.722 508.604 874.388 509.005C874.055 509.406 873.387 509.54 872.887 509.272C872.387 509.005 872.22 508.47 872.553 508.069C872.887 507.668 873.554 507.535 874.054 507.802Z" fill="#F4DEFA"/>
<path d="M868.217 509.139C868.718 509.406 868.718 509.807 868.551 510.208C868.384 510.609 867.717 510.609 867.217 510.475C866.716 510.208 866.716 509.807 866.883 509.406C867.05 509.005 867.717 508.871 868.217 509.139Z" fill="#F4DEFA"/>
<path d="M878.726 485.745C879.06 485.879 879.227 486.279 878.893 486.68C878.726 486.947 878.226 487.081 877.726 486.813C877.392 486.68 877.225 486.279 877.559 485.879C877.892 485.611 878.393 485.611 878.726 485.745Z" fill="#F4DEFA"/>
<path d="M857.875 491.226C858.208 491.493 858.375 491.894 858.041 492.161C857.708 492.428 857.208 492.561 856.874 492.294C856.54 492.027 856.374 491.626 856.707 491.359C856.874 491.092 857.541 490.959 857.875 491.226Z" fill="#F4DEFA"/>
<path d="M842.033 482.136C842.7 482.537 842.866 483.205 842.366 483.74C841.866 484.275 841.032 484.408 840.365 484.007C839.698 483.606 839.531 482.938 840.031 482.403C840.532 482.002 841.532 481.868 842.033 482.136Z" fill="#F4DEFA"/>
<path d="M854.541 487.082C855.042 487.35 855.042 487.751 854.875 488.152C854.541 488.553 854.041 488.553 853.541 488.419C853.04 488.152 853.04 487.751 853.207 487.35C853.374 486.949 854.041 486.815 854.541 487.082Z" fill="#F4DEFA"/>
<path d="M887.562 490.29C887.896 490.557 888.063 490.958 887.729 491.225C887.395 491.492 886.895 491.626 886.561 491.358C886.228 491.091 886.061 490.691 886.395 490.423C886.728 490.156 887.229 490.156 887.562 490.29Z" fill="#F4DEFA"/>
<path d="M882.895 492.83C883.229 492.963 883.229 493.364 883.062 493.631C882.895 493.898 882.395 493.898 882.061 493.765C881.728 493.631 881.728 493.23 881.895 492.963C882.062 492.696 882.562 492.563 882.895 492.83Z" fill="#F4DEFA"/>
<path d="M863.381 485.745C863.715 486.012 863.882 486.413 863.548 486.814C863.215 487.081 862.714 487.214 862.214 486.947C861.88 486.68 861.713 486.279 862.047 485.879C862.381 485.612 862.881 485.478 863.381 485.745Z" fill="#F4DEFA"/>
<path d="M860.046 481.066C860.546 481.334 860.713 481.869 860.379 482.27C860.046 482.671 859.379 482.804 858.878 482.537C858.378 482.27 858.211 481.735 858.545 481.334C858.878 480.799 859.545 480.799 860.046 481.066Z" fill="#F4DEFA"/>
<path d="M886.229 482.136C886.73 482.403 886.897 482.938 886.563 483.205C886.229 483.607 885.562 483.74 885.229 483.473C884.728 483.205 884.562 482.671 884.895 482.403C885.062 481.869 885.729 481.869 886.229 482.136Z" fill="#F4DEFA"/>
</g>
<defs>
<filter id="filter0_f_0_1" x="-1.5" y="0.5" width="1283" height="741" filterUnits="userSpaceOnUse" color-interpolation-filters="sRGB">
<feFlood flood-opacity="0" result="BackgroundImageFix"/>
<feBlend mode="normal" in="SourceGraphic" in2="BackgroundImageFix" result="shape"/>
<feGaussianBlur stdDeviation="0.75" result="effect1_foregroundBlur_0_1"/>
</filter>
<linearGradient id="paint0_linear_0_1" x1="57.5001" y1="2" x2="724.749" y2="1055.31" gradientUnits="userSpaceOnUse">
<stop stop-color="#4F1C4C"/>
<stop offset="1" stop-color="#30112E"/>
</linearGradient>
</defs>
</svg>
